%FSTAX23Y23*%
%MOIN*%
%SFA1B1*%

%IPPOS*%
%ADD9500C,0.015750*%
%ADD9501C,0.035430*%
%ADD9502C,0.039370*%
%ADD9503C,0.055120*%
%ADD9504C,0.060000*%
%ADD9505C,0.100000*%
%ADD9506C,0.137800*%
%LNsbtech_icarusboard_1v0-1*%
%LPD*%
G54D9500*
X01819Y00215D03*
X02016D03*
X02213D03*
X02409D03*
X02606D03*
X02311Y00412D03*
X02114D03*
X01917D03*
X01819Y00609D03*
X02016D03*
X02213D03*
X02114Y00806D03*
X01917D03*
X0172D03*
X01716Y0111D03*
Y0114D03*
X0175Y0114D03*
Y0111D03*
X01784D03*
Y0114D03*
X0182D03*
Y0111D03*
X01853Y01109D03*
Y01139D03*
X01917Y012D03*
X02114D03*
X02311D03*
X02638Y01162D03*
Y01112D03*
Y01062D03*
X02613Y01084D03*
X02588Y01062D03*
Y01012D03*
X02613Y01037D03*
X02663Y01087D03*
Y01137D03*
X02744Y01264D03*
X02893Y01259D03*
X02928D03*
X02963D03*
Y01294D03*
X02928D03*
X02893D03*
Y01224D03*
X02928D03*
X02963D03*
X0298Y0119D03*
Y01155D03*
Y0112D03*
Y01085D03*
Y0105D03*
Y01015D03*
Y0098D03*
Y00945D03*
Y0091D03*
Y00875D03*
Y0084D03*
Y00805D03*
Y0077D03*
Y00735D03*
Y007D03*
Y00665D03*
Y0063D03*
Y00595D03*
X02902Y00412D03*
X01681Y0111D03*
Y0114D03*
X01646D03*
Y0111D03*
X01293Y01087D03*
X01177Y01034D03*
X0111Y00952D03*
X01038Y01014D03*
X00982Y008D03*
X00835Y00609D03*
X00638D03*
X00441D03*
X00328Y00519D03*
X00342Y00412D03*
X00298Y00384D03*
X00218Y00374D03*
X00539Y00412D03*
X00736D03*
X00933D03*
X00835Y00215D03*
X00638D03*
X00441D03*
X01031D03*
X01228D03*
X01425D03*
X01622D03*
X01524Y00412D03*
X01327D03*
X01228Y00609D03*
X01425D03*
X00571Y00843D03*
X00472Y0083D03*
X00403Y00825D03*
X00342Y00806D03*
X0052Y00915D03*
X00565Y00983D03*
X00218Y01064D03*
X00146Y012D03*
X00063Y00979D03*
Y00519D03*
X00088Y00384D03*
X00047Y01396D03*
Y0179D03*
X00049Y0235D03*
Y0239D03*
Y0243D03*
X0005Y0247D03*
X0023Y02404D03*
X00244Y02578D03*
X00441D03*
X00592Y02469D03*
X00591Y02429D03*
Y02389D03*
Y02349D03*
X00458Y02109D03*
Y02059D03*
X00483Y02029D03*
X00539Y01987D03*
X0031Y02005D03*
Y01965D03*
X00249Y02107D03*
X00158Y02104D03*
X00248Y01644D03*
X00243Y01599D03*
X00365D03*
X00358Y01644D03*
X00438D03*
X00539Y01593D03*
X00736D03*
X00933D03*
X00835Y01396D03*
X00638D03*
X00441D03*
X00244D03*
X00638Y0179D03*
X00835D03*
X01031D03*
X01228D03*
X01327Y01593D03*
X01498Y01464D03*
X01598Y01459D03*
X01651Y01373D03*
Y01343D03*
X01548Y02324D03*
X01505Y02294D03*
X01453Y02334D03*
X01398Y02317D03*
X01395Y02424D03*
X01453Y02419D03*
X01492Y02448D03*
X01578Y02447D03*
X01583Y02509D03*
X01568Y02602D03*
X01528Y02629D03*
X01498Y02659D03*
X01468Y02694D03*
X01578D03*
X01433Y02602D03*
X01416Y02499D03*
X01327Y02381D03*
X01258Y02389D03*
X0113Y02381D03*
X00998Y02284D03*
X00933D03*
X00835Y02184D03*
X01031D03*
X01228D03*
Y02578D03*
X01031D03*
X01108Y0267D03*
X0113Y02774D03*
X01008Y02849D03*
X00736Y02774D03*
X00835Y02578D03*
X00146Y02774D03*
X01578Y02374D03*
X0172Y02381D03*
X01908Y02394D03*
X01878Y02546D03*
X01838D03*
X0172Y02774D03*
X02114D03*
X02213Y02578D03*
X02409D03*
X02606D03*
X02803D03*
X02705Y02774D03*
X02508D03*
X02902D03*
Y02381D03*
Y01987D03*
X02705D03*
X02508D03*
X02606Y02184D03*
X02638Y01774D03*
Y01739D03*
X02713Y01524D03*
X02978Y01539D03*
Y01574D03*
Y01609D03*
Y01644D03*
Y01679D03*
Y01714D03*
Y01749D03*
Y01784D03*
Y01504D03*
Y01469D03*
Y01434D03*
Y01399D03*
Y01364D03*
Y01329D03*
X02213Y01396D03*
X02016D03*
X01858Y01372D03*
Y01342D03*
X01825Y01343D03*
Y01373D03*
X01789D03*
Y01343D03*
X01755D03*
Y01373D03*
X01721Y01373D03*
Y01343D03*
X01686D03*
Y01373D03*
X0172Y01593D03*
X01917D03*
X02114D03*
X02311D03*
X02213Y0179D03*
X02016D03*
X01819D03*
X02016Y02184D03*
X02114Y02381D03*
X02016Y02971D03*
X02258Y02934D03*
X02323Y02938D03*
X02409Y02971D03*
X02548Y02999D03*
X02606Y02971D03*
X02803D03*
X02705Y03168D03*
X02563Y03147D03*
X02453Y03149D03*
X02488Y03249D03*
X02608D03*
X02493Y03506D03*
X02114Y03562D03*
X01948Y03624D03*
X01864Y03638D03*
X01784D03*
X01758Y03374D03*
X01838D03*
X01948Y03394D03*
X02113Y03197D03*
X02311Y03168D03*
X02902D03*
Y03562D03*
X02803Y03759D03*
X02705Y03955D03*
X02902D03*
X02606Y04152D03*
X02409D03*
X02213D03*
X02016D03*
X01819D03*
X0172Y03955D03*
X02311D03*
X01622Y03759D03*
X01648Y03624D03*
X01588D03*
X01504Y0364D03*
X01424Y03641D03*
X01288Y03624D03*
X01228D03*
X01144Y03641D03*
X00998Y03624D03*
X00968Y03659D03*
X00813D03*
X00658D03*
X00508D03*
X00358D03*
X00244Y03759D03*
X00342Y03955D03*
X00441Y04152D03*
X00638D03*
X00835D03*
X01031D03*
X01228D03*
X01425D03*
X01622D03*
X0113Y03955D03*
X00933D03*
X01031Y03759D03*
X01048Y03389D03*
X01118Y03374D03*
X01228Y03394D03*
X01288D03*
X01398Y03374D03*
X01478D03*
X01588Y03394D03*
X01648D03*
X01622Y03365D03*
X01524Y03168D03*
X01328Y03184D03*
X01353Y03274D03*
X01033Y03254D03*
X00983Y03318D03*
X00938Y03374D03*
X00918Y03228D03*
X00933Y03168D03*
X01115Y03157D03*
X01031Y02971D03*
X01228D03*
X00818Y0296D03*
X00628D03*
X00438D03*
X00248D03*
X00342Y03168D03*
X00348Y03228D03*
X00538D03*
X00539Y03168D03*
X00736D03*
X00728Y03228D03*
X00047Y03365D03*
Y02971D03*
Y03759D03*
G54D9501*
X02144Y02514D03*
X02244D03*
X02344D03*
X02444D03*
X02544D03*
X02644D03*
X02744D03*
X02844D03*
G54D9502*
X02906Y00508D03*
X01548Y01184D03*
X01448D03*
X01348D03*
X01248D03*
X01148D03*
X01048D03*
X00948D03*
X00848D03*
X00748D03*
X00648D03*
X00548D03*
X00448D03*
X00348D03*
X00248D03*
Y01884D03*
X00348D03*
X00448D03*
X00548D03*
X00648D03*
X00748D03*
X00848D03*
X00948D03*
X01048D03*
X01148D03*
X01248D03*
X01348D03*
X01448D03*
X01548D03*
X01562Y02194D03*
X01462D03*
X01362D03*
X01662D03*
X0202Y0187D03*
X02718Y01764D03*
X0294Y019D03*
X00158Y03434D03*
Y03534D03*
Y03634D03*
Y03734D03*
G54D9503*
X01712Y00346D03*
X01988D03*
X02263D03*
X02539D03*
X02401Y00542D03*
X02125D03*
X0185D03*
X01574D03*
X01299D03*
X01023D03*
X00748D03*
X00472D03*
X0061Y00346D03*
X00885D03*
X01161D03*
X01437D03*
X01712Y03768D03*
X01988D03*
X02263D03*
X02539D03*
X02401Y03964D03*
X02125D03*
X0185D03*
X01574D03*
X01299D03*
X01023D03*
X00748D03*
X00472D03*
X0061Y03768D03*
X00885D03*
X01161D03*
X01437D03*
G54D9504*
X02284Y03364D03*
X02424D03*
X02564D03*
X02704D03*
G54D9505*
X02094Y03404D03*
X02894D03*
G54D9506*
X02844Y00187D03*
X00167D03*
X02844Y02155D03*
Y04124D03*
X00167D03*
M02*