%FSTAX23Y23*%
%MOIN*%
%SFA1B1*%

%IPPOS*%
%ADD45C,0.010000*%
%ADD55C,0.005910*%
%ADD93C,0.002000*%
%ADD94C,0.002670*%
%LNsbtech_icarusboard_1v0-1*%
%LPD*%
G54D45*
X0Y0D02*
X03011D01*
Y04311*
X0D02*
X03011D01*
X0Y0D02*
Y04311D01*
G54D55*
X01413Y02754D02*
D01*
X01414Y02753*
X01415Y02752*
X01416Y02752*
X01417Y02751*
X01418Y02751*
X01419Y0275*
X0142Y0275*
X01421Y0275*
X01422Y02749*
X01423Y02749*
X01424Y02749*
X01424Y02749*
D01*
X01425Y02749*
X01426Y02749*
X01428Y0275*
X01429Y0275*
X0143Y0275*
X01431Y02751*
X01432Y02751*
X01433Y02752*
X01434Y02753*
X01435Y02753*
X01436Y02754*
X01436Y02754*
X0144Y02758D02*
D01*
X01441Y02759*
X01441Y0276*
X01442Y0276*
X01442Y02761*
X01443Y02762*
X01443Y02763*
X01443Y02764*
X01444Y02764*
X01444Y02765*
X01444Y02766*
X01444Y02767*
X01444Y02767*
Y02769D02*
D01*
X01444Y02771*
X01444Y02772*
X01444Y02773*
X01443Y02774*
X01443Y02776*
X01442Y02777*
X01442Y02778*
X01441Y02779*
X0144Y0278*
X0144Y02781*
X01439Y02782*
X01438Y02783*
X01362Y02867D02*
D01*
X01362Y02865*
X01363Y02864*
X01363Y02863*
X01363Y02861*
X01364Y0286*
X01364Y02859*
X01365Y02857*
X01365Y02856*
X01366Y02855*
X01367Y02854*
X01368Y02853*
X01368Y02853*
X01368Y03038D02*
D01*
X01367Y03037*
X01366Y03036*
X01365Y03035*
X01365Y03034*
X01364Y03033*
X01364Y03032*
X01363Y03031*
X01363Y03029*
X01363Y03028*
X01363Y03027*
X01362Y03025*
Y03025*
X01381Y03044D02*
D01*
X0138Y03044*
X01379Y03044*
X01377Y03043*
X01376Y03043*
X01375Y03043*
X01374Y03042*
X01372Y03042*
X01371Y03041*
X0137Y0304*
X01369Y03039*
X01368Y03039*
X01368Y03038*
X01649Y03038D02*
D01*
X01648Y03039*
X01647Y0304*
X01646Y03041*
X01645Y03042*
X01643Y03042*
X01642Y03043*
X01641Y03043*
X0164Y03043*
X01639Y03044*
X01637Y03044*
X01636Y03044*
X01636Y03044*
X01656Y03026D02*
D01*
X01656Y03027*
X01656Y03028*
X01655Y03029*
X01655Y0303*
X01655Y0303*
X01655Y03031*
X01654Y03032*
X01654Y03033*
X01653Y03034*
X01653Y03034*
X01652Y03035*
X01652Y03035*
X0165Y02853D02*
D01*
X01651Y02854*
X01652Y02855*
X01653Y02856*
X01653Y02858*
X01654Y02859*
X01654Y0286*
X01655Y02861*
X01655Y02862*
X01655Y02864*
X01656Y02865*
X01656Y02866*
X01656Y02867*
X01579Y02783D02*
D01*
X01578Y02782*
X01578Y02781*
X01577Y02779*
X01576Y02778*
X01576Y02777*
X01575Y02776*
X01575Y02775*
X01574Y02773*
X01574Y02772*
X01574Y02771*
X01574Y0277*
X01574Y02769*
D01*
X01574Y02768*
X01574Y02767*
X01574Y02766*
X01574Y02764*
X01575Y02763*
X01575Y02762*
X01576Y02761*
X01576Y0276*
X01577Y02759*
X01578Y02758*
X01579Y02757*
X01579Y02757*
X01583Y02753D02*
D01*
X01584Y02752*
X01584Y02752*
X01585Y02752*
X01585Y02751*
X01586Y02751*
X01586Y02751*
X01587Y0275*
X01587Y0275*
X01588Y0275*
X01589Y0275*
X01589Y0275*
X0159Y0275*
D01*
X01592Y0275*
X01594Y0275*
X01596Y02751*
X01598Y02751*
X01601Y02752*
X01603Y02753*
X01605Y02754*
X01607Y02755*
X01609Y02756*
X0161Y02758*
X01612Y02759*
X01612Y0276*
X01678Y02825D02*
D01*
X0168Y02828*
X01683Y02831*
X01685Y02834*
X01687Y02838*
X01689Y02841*
X01691Y02845*
X01692Y02849*
X01693Y02853*
X01694Y02856*
X01694Y0286*
X01694Y02864*
X01695Y02866*
Y03025D02*
D01*
X01694Y03029*
X01694Y03033*
X01693Y03037*
X01692Y03041*
X01691Y03045*
X0169Y03049*
X01688Y03052*
X01686Y03056*
X01683Y03059*
X01681Y03062*
X01678Y03065*
X01678Y03066*
D01*
X01675Y03069*
X01671Y03072*
X01668Y03074*
X01664Y03076*
X01661Y03078*
X01657Y0308*
X01653Y03081*
X01649Y03082*
X01645Y03083*
X01641Y03083*
X01637Y03084*
X01636Y03084*
X01382D02*
D01*
X01378Y03083*
X01374Y03083*
X0137Y03082*
X01366Y03081*
X01362Y0308*
X01358Y03078*
X01355Y03077*
X01351Y03075*
X01348Y03072*
X01344Y0307*
X01341Y03067*
X01341Y03066*
X01339Y03065D02*
D01*
X01336Y03062*
X01334Y03059*
X01332Y03056*
X0133Y03053*
X01328Y03049*
X01327Y03046*
X01326Y03043*
X01325Y03039*
X01324Y03035*
X01324Y03032*
X01323Y03028*
X01323Y03027*
Y02861D02*
D01*
X01323Y02858*
X01324Y02855*
X01324Y02852*
X01325Y02849*
X01326Y02847*
X01327Y02844*
X01328Y02841*
X0133Y02839*
X01331Y02836*
X01333Y02834*
X01335Y02832*
X01336Y02831*
X01412Y02755D02*
X01413Y02754D01*
X01436Y02754D02*
X0144Y02758D01*
X01444Y02767D02*
Y02769D01*
X01368Y02853D02*
X01438Y02783D01*
X01362Y02867D02*
Y03015D01*
Y03025*
X01382Y03044D02*
X01636D01*
X01649Y03038D02*
X01652Y03035D01*
X01656Y02867D02*
Y03026D01*
X01579Y02783D02*
X0165Y02853D01*
X01579Y02757D02*
X01583Y02753D01*
X01612Y0276D02*
X01678Y02825D01*
X01695Y02866D02*
Y03025D01*
X01382Y03084D02*
X01636D01*
X01339Y03065D02*
X01341Y03066D01*
X01323Y02861D02*
Y03027D01*
X01336Y02831D02*
X01416Y02751D01*
G54D93*
X0015Y03426D02*
Y03442D01*
X00166*
Y03426*
X0015*
Y03526D02*
Y03542D01*
X00166*
Y03526*
X0015*
Y03626D02*
Y03642D01*
X00166*
Y03626*
X0015*
Y03726D02*
Y03742D01*
X00166*
Y03726*
X0015*
X01654Y02186D02*
Y02202D01*
X0167*
Y02186*
X01654*
X01554D02*
Y02202D01*
X0157*
Y02186*
X01554*
X01454D02*
Y02202D01*
X0147*
Y02186*
X01454*
X01354D02*
Y02202D01*
X0137*
Y02186*
X01354*
X02704Y03356D02*
X02696Y03372D01*
X02712*
X02704Y03356*
X02564D02*
X02556Y03372D01*
X02572*
X02564Y03356*
X02424D02*
X02416Y03372D01*
X02432*
X02424Y03356*
X02284D02*
X02276Y03372D01*
X02292*
X02284Y03356*
X02094Y03396D02*
X02098Y034D01*
X02102*
X02098Y03404*
X02102Y03408*
X02098*
X02094Y03412*
X0209Y03408*
X02086*
X0209Y03404*
X02086Y034*
X0209*
X02094Y03396*
X02136Y02506D02*
X0214Y02514D01*
X02136Y02522*
X02144Y02518*
X02152Y02522*
X02148Y02514*
X02152Y02506*
X02144Y0251*
X02136Y02506*
X02236D02*
X0224Y02514D01*
X02236Y02522*
X02244Y02518*
X02252Y02522*
X02248Y02514*
X02252Y02506*
X02244Y0251*
X02236Y02506*
X02336D02*
X0234Y02514D01*
X02336Y02522*
X02344Y02518*
X02352Y02522*
X02348Y02514*
X02352Y02506*
X02344Y0251*
X02336Y02506*
X02436D02*
X0244Y02514D01*
X02436Y02522*
X02444Y02518*
X02452Y02522*
X02448Y02514*
X02452Y02506*
X02444Y0251*
X02436Y02506*
X02536D02*
X0254Y02514D01*
X02536Y02522*
X02544Y02518*
X02552Y02522*
X02548Y02514*
X02552Y02506*
X02544Y0251*
X02536Y02506*
X02636D02*
X0264Y02514D01*
X02636Y02522*
X02644Y02518*
X02652Y02522*
X02648Y02514*
X02652Y02506*
X02644Y0251*
X02636Y02506*
X02736D02*
X0274Y02514D01*
X02736Y02522*
X02744Y02518*
X02752Y02522*
X02748Y02514*
X02752Y02506*
X02744Y0251*
X02736Y02506*
X02836D02*
X0284Y02514D01*
X02836Y02522*
X02844Y02518*
X02852Y02522*
X02848Y02514*
X02852Y02506*
X02844Y0251*
X02836Y02506*
X02894Y03396D02*
X02898Y034D01*
X02902*
X02898Y03404*
X02902Y03408*
X02898*
X02894Y03412*
X0289Y03408*
X02886*
X0289Y03404*
X02886Y034*
X0289*
X02894Y03396*
X0154Y01176D02*
Y01192D01*
X01556*
Y01176*
X0154*
X0144D02*
Y01192D01*
X01456*
Y01176*
X0144*
X0134D02*
Y01192D01*
X01356*
Y01176*
X0134*
X0124D02*
Y01192D01*
X01256*
Y01176*
X0124*
X0114D02*
Y01192D01*
X01156*
Y01176*
X0114*
X0104D02*
Y01192D01*
X01056*
Y01176*
X0104*
X0094D02*
Y01192D01*
X00956*
Y01176*
X0094*
X0084D02*
Y01192D01*
X00856*
Y01176*
X0084*
X0074D02*
Y01192D01*
X00756*
Y01176*
X0074*
X0064D02*
Y01192D01*
X00656*
Y01176*
X0064*
X0054D02*
Y01192D01*
X00556*
Y01176*
X0054*
X0044D02*
Y01192D01*
X00456*
Y01176*
X0044*
X0034D02*
Y01192D01*
X00356*
Y01176*
X0034*
X0024D02*
Y01192D01*
X00256*
Y01176*
X0024*
Y01876D02*
Y01892D01*
X00256*
Y01876*
X0024*
X0034D02*
Y01892D01*
X00356*
Y01876*
X0034*
X0044D02*
Y01892D01*
X00456*
Y01876*
X0044*
X0054D02*
Y01892D01*
X00556*
Y01876*
X0054*
X0064D02*
Y01892D01*
X00656*
Y01876*
X0064*
X0074D02*
Y01892D01*
X00756*
Y01876*
X0074*
X0084D02*
Y01892D01*
X00856*
Y01876*
X0084*
X0094D02*
Y01892D01*
X00956*
Y01876*
X0094*
X0104D02*
Y01892D01*
X01056*
Y01876*
X0104*
X0114D02*
Y01892D01*
X01156*
Y01876*
X0114*
X0124D02*
Y01892D01*
X01256*
Y01876*
X0124*
X0134D02*
Y01892D01*
X01356*
Y01876*
X0134*
X0144D02*
Y01892D01*
X01456*
Y01876*
X0144*
X0154D02*
Y01892D01*
X01556*
Y01876*
X0154*
X0284Y00183D02*
Y00179D01*
X02848*
Y00183*
X02852*
Y00191*
X02848*
Y00195*
X0284*
Y00191*
X02836*
Y00183*
X0284*
X00163D02*
Y00179D01*
X00171*
Y00183*
X00175*
Y00191*
X00171*
Y00195*
X00163*
Y00191*
X00159*
Y00183*
X00163*
Y0412D02*
Y04116D01*
X00171*
Y0412*
X00175*
Y04128*
X00171*
Y04132*
X00163*
Y04128*
X00159*
Y0412*
X00163*
X0284D02*
Y04116D01*
X02848*
Y0412*
X02852*
Y04128*
X02848*
Y04132*
X0284*
Y04128*
X02836*
Y0412*
X0284*
Y02151D02*
Y02147D01*
X02848*
Y02151*
X02852*
Y02159*
X02848*
Y02163*
X0284*
Y02159*
X02836*
Y02151*
X0284*
X0271Y01756D02*
Y01772D01*
X02726*
Y01756*
X0271*
X02898Y005D02*
Y00516D01*
X02914*
Y005*
X02898*
X02932Y01892D02*
Y01908D01*
X02948*
Y01892*
X02932*
X02012Y01862D02*
Y01878D01*
X02028*
Y01862*
X02012*
X00235Y01591D02*
X00239D01*
X00243Y01595*
X00247Y01591*
X00251*
Y01595*
X00247Y01599*
X00251Y01603*
Y01607*
X00247*
X00243Y01603*
X00239Y01607*
X00235*
Y01603*
X00239Y01599*
X00235Y01595*
Y01591*
X01285Y01079D02*
X01289D01*
X01293Y01083*
X01297Y01079*
X01301*
Y01083*
X01297Y01087*
X01301Y01091*
Y01095*
X01297*
X01293Y01091*
X01289Y01095*
X01285*
Y01091*
X01289Y01087*
X01285Y01083*
Y01079*
X01445Y02411D02*
X01449D01*
X01453Y02415*
X01457Y02411*
X01461*
Y02415*
X01457Y02419*
X01461Y02423*
Y02427*
X01457*
X01453Y02423*
X01449Y02427*
X01445*
Y02423*
X01449Y02419*
X01445Y02415*
Y02411*
Y02326D02*
X01449D01*
X01453Y0233*
X01457Y02326*
X01461*
Y0233*
X01457Y02334*
X01461Y02338*
Y02342*
X01457*
X01453Y02338*
X01449Y02342*
X01445*
Y02338*
X01449Y02334*
X01445Y0233*
Y02326*
X0146Y02686D02*
X01464D01*
X01468Y0269*
X01472Y02686*
X01476*
Y0269*
X01472Y02694*
X01476Y02698*
Y02702*
X01472*
X01468Y02698*
X01464Y02702*
X0146*
Y02698*
X01464Y02694*
X0146Y0269*
Y02686*
X01575Y02501D02*
X01579D01*
X01583Y02505*
X01587Y02501*
X01591*
Y02505*
X01587Y02509*
X01591Y02513*
Y02517*
X01587*
X01583Y02513*
X01579Y02517*
X01575*
Y02513*
X01579Y02509*
X01575Y02505*
Y02501*
X0156Y02594D02*
X01564D01*
X01568Y02598*
X01572Y02594*
X01576*
Y02598*
X01572Y02602*
X01576Y02606*
Y0261*
X01572*
X01568Y02606*
X01564Y0261*
X0156*
Y02606*
X01564Y02602*
X0156Y02598*
Y02594*
X01425D02*
X01429D01*
X01433Y02598*
X01437Y02594*
X01441*
Y02598*
X01437Y02602*
X01441Y02606*
Y0261*
X01437*
X01433Y02606*
X01429Y0261*
X01425*
Y02606*
X01429Y02602*
X01425Y02598*
Y02594*
X01Y02841D02*
X01004D01*
X01008Y02845*
X01012Y02841*
X01016*
Y02845*
X01012Y02849*
X01016Y02853*
Y02857*
X01012*
X01008Y02853*
X01004Y02857*
X01*
Y02853*
X01004Y02849*
X01Y02845*
Y02841*
X0081Y02952D02*
X00814D01*
X00818Y02956*
X00822Y02952*
X00826*
Y02956*
X00822Y0296*
X00826Y02964*
Y02968*
X00822*
X00818Y02964*
X00814Y02968*
X0081*
Y02964*
X00814Y0296*
X0081Y02956*
Y02952*
X0062D02*
X00624D01*
X00628Y02956*
X00632Y02952*
X00636*
Y02956*
X00632Y0296*
X00636Y02964*
Y02968*
X00632*
X00628Y02964*
X00624Y02968*
X0062*
Y02964*
X00624Y0296*
X0062Y02956*
Y02952*
X0043D02*
X00434D01*
X00438Y02956*
X00442Y02952*
X00446*
Y02956*
X00442Y0296*
X00446Y02964*
Y02968*
X00442*
X00438Y02964*
X00434Y02968*
X0043*
Y02964*
X00434Y0296*
X0043Y02956*
Y02952*
X0024D02*
X00244D01*
X00248Y02956*
X00252Y02952*
X00256*
Y02956*
X00252Y0296*
X00256Y02964*
Y02968*
X00252*
X00248Y02964*
X00244Y02968*
X0024*
Y02964*
X00244Y0296*
X0024Y02956*
Y02952*
X00975Y0331D02*
X00979D01*
X00983Y03314*
X00987Y0331*
X00991*
Y03314*
X00987Y03318*
X00991Y03322*
Y03326*
X00987*
X00983Y03322*
X00979Y03326*
X00975*
Y03322*
X00979Y03318*
X00975Y03314*
Y0331*
X01025Y03246D02*
X01029D01*
X01033Y0325*
X01037Y03246*
X01041*
Y0325*
X01037Y03254*
X01041Y03258*
Y03262*
X01037*
X01033Y03258*
X01029Y03262*
X01025*
Y03258*
X01029Y03254*
X01025Y0325*
Y03246*
X0099Y02276D02*
X00994D01*
X00998Y0228*
X01002Y02276*
X01006*
Y0228*
X01002Y02284*
X01006Y02288*
Y02292*
X01002*
X00998Y02288*
X00994Y02292*
X0099*
Y02288*
X00994Y02284*
X0099Y0228*
Y02276*
X00925D02*
X00929D01*
X00933Y0228*
X00937Y02276*
X00941*
Y0228*
X00937Y02284*
X00941Y02288*
Y02292*
X00937*
X00933Y02288*
X00929Y02292*
X00925*
Y02288*
X00929Y02284*
X00925Y0228*
Y02276*
X0091Y0322D02*
X00914D01*
X00918Y03224*
X00922Y0322*
X00926*
Y03224*
X00922Y03228*
X00926Y03232*
Y03236*
X00922*
X00918Y03232*
X00914Y03236*
X0091*
Y03232*
X00914Y03228*
X0091Y03224*
Y0322*
X0072D02*
X00724D01*
X00728Y03224*
X00732Y0322*
X00736*
Y03224*
X00732Y03228*
X00736Y03232*
Y03236*
X00732*
X00728Y03232*
X00724Y03236*
X0072*
Y03232*
X00724Y03228*
X0072Y03224*
Y0322*
X0053D02*
X00534D01*
X00538Y03224*
X00542Y0322*
X00546*
Y03224*
X00542Y03228*
X00546Y03232*
Y03236*
X00542*
X00538Y03232*
X00534Y03236*
X0053*
Y03232*
X00534Y03228*
X0053Y03224*
Y0322*
X0034D02*
X00344D01*
X00348Y03224*
X00352Y0322*
X00356*
Y03224*
X00352Y03228*
X00356Y03232*
Y03236*
X00352*
X00348Y03232*
X00344Y03236*
X0034*
Y03232*
X00344Y03228*
X0034Y03224*
Y0322*
X00805Y03651D02*
X00809D01*
X00813Y03655*
X00817Y03651*
X00821*
Y03655*
X00817Y03659*
X00821Y03663*
Y03667*
X00817*
X00813Y03663*
X00809Y03667*
X00805*
Y03663*
X00809Y03659*
X00805Y03655*
Y03651*
X0065D02*
X00654D01*
X00658Y03655*
X00662Y03651*
X00666*
Y03655*
X00662Y03659*
X00666Y03663*
Y03667*
X00662*
X00658Y03663*
X00654Y03667*
X0065*
Y03663*
X00654Y03659*
X0065Y03655*
Y03651*
X005D02*
X00504D01*
X00508Y03655*
X00512Y03651*
X00516*
Y03655*
X00512Y03659*
X00516Y03663*
Y03667*
X00512*
X00508Y03663*
X00504Y03667*
X005*
Y03663*
X00504Y03659*
X005Y03655*
Y03651*
X0035D02*
X00354D01*
X00358Y03655*
X00362Y03651*
X00366*
Y03655*
X00362Y03659*
X00366Y03663*
Y03667*
X00362*
X00358Y03663*
X00354Y03667*
X0035*
Y03663*
X00354Y03659*
X0035Y03655*
Y03651*
X0099Y03616D02*
X00994D01*
X00998Y0362*
X01002Y03616*
X01006*
Y0362*
X01002Y03624*
X01006Y03628*
Y03632*
X01002*
X00998Y03628*
X00994Y03632*
X0099*
Y03628*
X00994Y03624*
X0099Y0362*
Y03616*
X0122D02*
X01224D01*
X01228Y0362*
X01232Y03616*
X01236*
Y0362*
X01232Y03624*
X01236Y03628*
Y03632*
X01232*
X01228Y03628*
X01224Y03632*
X0122*
Y03628*
X01224Y03624*
X0122Y0362*
Y03616*
X0183Y03366D02*
X01834D01*
X01838Y0337*
X01842Y03366*
X01846*
Y0337*
X01842Y03374*
X01846Y03378*
Y03382*
X01842*
X01838Y03378*
X01834Y03382*
X0183*
Y03378*
X01834Y03374*
X0183Y0337*
Y03366*
X0175D02*
X01754D01*
X01758Y0337*
X01762Y03366*
X01766*
Y0337*
X01762Y03374*
X01766Y03378*
Y03382*
X01762*
X01758Y03378*
X01754Y03382*
X0175*
Y03378*
X01754Y03374*
X0175Y0337*
Y03366*
X0111D02*
X01114D01*
X01118Y0337*
X01122Y03366*
X01126*
Y0337*
X01122Y03374*
X01126Y03378*
Y03382*
X01122*
X01118Y03378*
X01114Y03382*
X0111*
Y03378*
X01114Y03374*
X0111Y0337*
Y03366*
X0147D02*
X01474D01*
X01478Y0337*
X01482Y03366*
X01486*
Y0337*
X01482Y03374*
X01486Y03378*
Y03382*
X01482*
X01478Y03378*
X01474Y03382*
X0147*
Y03378*
X01474Y03374*
X0147Y0337*
Y03366*
X0194Y03616D02*
X01944D01*
X01948Y0362*
X01952Y03616*
X01956*
Y0362*
X01952Y03624*
X01956Y03628*
Y03632*
X01952*
X01948Y03628*
X01944Y03632*
X0194*
Y03628*
X01944Y03624*
X0194Y0362*
Y03616*
Y03386D02*
X01944D01*
X01948Y0339*
X01952Y03386*
X01956*
Y0339*
X01952Y03394*
X01956Y03398*
Y03402*
X01952*
X01948Y03398*
X01944Y03402*
X0194*
Y03398*
X01944Y03394*
X0194Y0339*
Y03386*
X0164Y03616D02*
X01644D01*
X01648Y0362*
X01652Y03616*
X01656*
Y0362*
X01652Y03624*
X01656Y03628*
Y03632*
X01652*
X01648Y03628*
X01644Y03632*
X0164*
Y03628*
X01644Y03624*
X0164Y0362*
Y03616*
X0158D02*
X01584D01*
X01588Y0362*
X01592Y03616*
X01596*
Y0362*
X01592Y03624*
X01596Y03628*
Y03632*
X01592*
X01588Y03628*
X01584Y03632*
X0158*
Y03628*
X01584Y03624*
X0158Y0362*
Y03616*
X0164Y03386D02*
X01644D01*
X01648Y0339*
X01652Y03386*
X01656*
Y0339*
X01652Y03394*
X01656Y03398*
Y03402*
X01652*
X01648Y03398*
X01644Y03402*
X0164*
Y03398*
X01644Y03394*
X0164Y0339*
Y03386*
X0158D02*
X01584D01*
X01588Y0339*
X01592Y03386*
X01596*
Y0339*
X01592Y03394*
X01596Y03398*
Y03402*
X01592*
X01588Y03398*
X01584Y03402*
X0158*
Y03398*
X01584Y03394*
X0158Y0339*
Y03386*
X0139Y03366D02*
X01394D01*
X01398Y0337*
X01402Y03366*
X01406*
Y0337*
X01402Y03374*
X01406Y03378*
Y03382*
X01402*
X01398Y03378*
X01394Y03382*
X0139*
Y03378*
X01394Y03374*
X0139Y0337*
Y03366*
X0128Y03386D02*
X01284D01*
X01288Y0339*
X01292Y03386*
X01296*
Y0339*
X01292Y03394*
X01296Y03398*
Y03402*
X01292*
X01288Y03398*
X01284Y03402*
X0128*
Y03398*
X01284Y03394*
X0128Y0339*
Y03386*
X0122D02*
X01224D01*
X01228Y0339*
X01232Y03386*
X01236*
Y0339*
X01232Y03394*
X01236Y03398*
Y03402*
X01232*
X01228Y03398*
X01224Y03402*
X0122*
Y03398*
X01224Y03394*
X0122Y0339*
Y03386*
X0128Y03616D02*
X01284D01*
X01288Y0362*
X01292Y03616*
X01296*
Y0362*
X01292Y03624*
X01296Y03628*
Y03632*
X01292*
X01288Y03628*
X01284Y03632*
X0128*
Y03628*
X01284Y03624*
X0128Y0362*
Y03616*
X0093Y03366D02*
X00934D01*
X00938Y0337*
X00942Y03366*
X00946*
Y0337*
X00942Y03374*
X00946Y03378*
Y03382*
X00942*
X00938Y03378*
X00934Y03382*
X0093*
Y03378*
X00934Y03374*
X0093Y0337*
Y03366*
X0104Y03381D02*
X01044D01*
X01048Y03385*
X01052Y03381*
X01056*
Y03385*
X01052Y03389*
X01056Y03393*
Y03397*
X01052*
X01048Y03393*
X01044Y03397*
X0104*
Y03393*
X01044Y03389*
X0104Y03385*
Y03381*
X01856Y0363D02*
X0186D01*
X01864Y03634*
X01868Y0363*
X01872*
Y03634*
X01868Y03638*
X01872Y03642*
Y03646*
X01868*
X01864Y03642*
X0186Y03646*
X01856*
Y03642*
X0186Y03638*
X01856Y03634*
Y0363*
X01776D02*
X0178D01*
X01784Y03634*
X01788Y0363*
X01792*
Y03634*
X01788Y03638*
X01792Y03642*
Y03646*
X01788*
X01784Y03642*
X0178Y03646*
X01776*
Y03642*
X0178Y03638*
X01776Y03634*
Y0363*
X01496Y03632D02*
X015D01*
X01504Y03636*
X01508Y03632*
X01512*
Y03636*
X01508Y0364*
X01512Y03644*
Y03648*
X01508*
X01504Y03644*
X015Y03648*
X01496*
Y03644*
X015Y0364*
X01496Y03636*
Y03632*
X01416Y03633D02*
X0142D01*
X01424Y03637*
X01428Y03633*
X01432*
Y03637*
X01428Y03641*
X01432Y03645*
Y03649*
X01428*
X01424Y03645*
X0142Y03649*
X01416*
Y03645*
X0142Y03641*
X01416Y03637*
Y03633*
X01136D02*
X0114D01*
X01144Y03637*
X01148Y03633*
X01152*
Y03637*
X01148Y03641*
X01152Y03645*
Y03649*
X01148*
X01144Y03645*
X0114Y03649*
X01136*
Y03645*
X0114Y03641*
X01136Y03637*
Y03633*
X0132Y03176D02*
X01324D01*
X01328Y0318*
X01332Y03176*
X01336*
Y0318*
X01332Y03184*
X01336Y03188*
Y03192*
X01332*
X01328Y03188*
X01324Y03192*
X0132*
Y03188*
X01324Y03184*
X0132Y0318*
Y03176*
X01107Y03149D02*
X01111D01*
X01115Y03153*
X01119Y03149*
X01123*
Y03153*
X01119Y03157*
X01123Y03161*
Y03165*
X01119*
X01115Y03161*
X01111Y03165*
X01107*
Y03161*
X01111Y03157*
X01107Y03153*
Y03149*
X02555Y03139D02*
X02559D01*
X02563Y03143*
X02567Y03139*
X02571*
Y03143*
X02567Y03147*
X02571Y03151*
Y03155*
X02567*
X02563Y03151*
X02559Y03155*
X02555*
Y03151*
X02559Y03147*
X02555Y03143*
Y03139*
X0225Y02926D02*
X02254D01*
X02258Y0293*
X02262Y02926*
X02266*
Y0293*
X02262Y02934*
X02266Y02938*
Y02942*
X02262*
X02258Y02938*
X02254Y02942*
X0225*
Y02938*
X02254Y02934*
X0225Y0293*
Y02926*
X0103Y01006D02*
X01034D01*
X01038Y0101*
X01042Y01006*
X01046*
Y0101*
X01042Y01014*
X01046Y01018*
Y01022*
X01042*
X01038Y01018*
X01034Y01022*
X0103*
Y01018*
X01034Y01014*
X0103Y0101*
Y01006*
X00055Y00511D02*
X00059D01*
X00063Y00515*
X00067Y00511*
X00071*
Y00515*
X00067Y00519*
X00071Y00523*
Y00527*
X00067*
X00063Y00523*
X00059Y00527*
X00055*
Y00523*
X00059Y00519*
X00055Y00515*
Y00511*
X0032D02*
X00324D01*
X00328Y00515*
X00332Y00511*
X00336*
Y00515*
X00332Y00519*
X00336Y00523*
Y00527*
X00332*
X00328Y00523*
X00324Y00527*
X0032*
Y00523*
X00324Y00519*
X0032Y00515*
Y00511*
X0021Y00366D02*
X00214D01*
X00218Y0037*
X00222Y00366*
X00226*
Y0037*
X00222Y00374*
X00226Y00378*
Y00382*
X00222*
X00218Y00378*
X00214Y00382*
X0021*
Y00378*
X00214Y00374*
X0021Y0037*
Y00366*
X0029Y00376D02*
X00294D01*
X00298Y0038*
X00302Y00376*
X00306*
Y0038*
X00302Y00384*
X00306Y00388*
Y00392*
X00302*
X00298Y00388*
X00294Y00392*
X0029*
Y00388*
X00294Y00384*
X0029Y0038*
Y00376*
X0008D02*
X00084D01*
X00088Y0038*
X00092Y00376*
X00096*
Y0038*
X00092Y00384*
X00096Y00388*
Y00392*
X00092*
X00088Y00388*
X00084Y00392*
X0008*
Y00388*
X00084Y00384*
X0008Y0038*
Y00376*
X0187Y02538D02*
X01874D01*
X01878Y02542*
X01882Y02538*
X01886*
Y02542*
X01882Y02546*
X01886Y0255*
Y02554*
X01882*
X01878Y0255*
X01874Y02554*
X0187*
Y0255*
X01874Y02546*
X0187Y02542*
Y02538*
X01169Y01026D02*
X01173D01*
X01177Y0103*
X01181Y01026*
X01185*
Y0103*
X01181Y01034*
X01185Y01038*
Y01042*
X01181*
X01177Y01038*
X01173Y01042*
X01169*
Y01038*
X01173Y01034*
X01169Y0103*
Y01026*
X019Y02386D02*
X01904D01*
X01908Y0239*
X01912Y02386*
X01916*
Y0239*
X01912Y02394*
X01916Y02398*
Y02402*
X01912*
X01908Y02398*
X01904Y02402*
X019*
Y02398*
X01904Y02394*
X019Y0239*
Y02386*
X0125Y02381D02*
X01254D01*
X01258Y02385*
X01262Y02381*
X01266*
Y02385*
X01262Y02389*
X01266Y02393*
Y02397*
X01262*
X01258Y02393*
X01254Y02397*
X0125*
Y02393*
X01254Y02389*
X0125Y02385*
Y02381*
X0139Y02309D02*
X01394D01*
X01398Y02313*
X01402Y02309*
X01406*
Y02313*
X01402Y02317*
X01406Y02321*
Y02325*
X01402*
X01398Y02321*
X01394Y02325*
X0139*
Y02321*
X01394Y02317*
X0139Y02313*
Y02309*
X01387Y02416D02*
X01391D01*
X01395Y0242*
X01399Y02416*
X01403*
Y0242*
X01399Y02424*
X01403Y02428*
Y02432*
X01399*
X01395Y02428*
X01391Y02432*
X01387*
Y02428*
X01391Y02424*
X01387Y0242*
Y02416*
X02445Y03141D02*
X02449D01*
X02453Y03145*
X02457Y03141*
X02461*
Y03145*
X02457Y03149*
X02461Y03153*
Y03157*
X02457*
X02453Y03153*
X02449Y03157*
X02445*
Y03153*
X02449Y03149*
X02445Y03145*
Y03141*
X02315Y0293D02*
X02319D01*
X02323Y02934*
X02327Y0293*
X02331*
Y02934*
X02327Y02938*
X02331Y02942*
Y02946*
X02327*
X02323Y02942*
X02319Y02946*
X02315*
Y02942*
X02319Y02938*
X02315Y02934*
Y0293*
X0254Y02991D02*
X02544D01*
X02548Y02995*
X02552Y02991*
X02556*
Y02995*
X02552Y02999*
X02556Y03003*
Y03007*
X02552*
X02548Y03003*
X02544Y03007*
X0254*
Y03003*
X02544Y02999*
X0254Y02995*
Y02991*
X02105Y03189D02*
X02109D01*
X02113Y03193*
X02117Y03189*
X02121*
Y03193*
X02117Y03197*
X02121Y03201*
Y03205*
X02117*
X02113Y03201*
X02109Y03205*
X02105*
Y03201*
X02109Y03197*
X02105Y03193*
Y03189*
X02736Y01256D02*
X0274D01*
X02744Y0126*
X02748Y01256*
X02752*
Y0126*
X02748Y01264*
X02752Y01268*
Y01272*
X02748*
X02744Y01268*
X0274Y01272*
X02736*
Y01268*
X0274Y01264*
X02736Y0126*
Y01256*
X0258Y01054D02*
X02584D01*
X02588Y01058*
X02592Y01054*
X02596*
Y01058*
X02592Y01062*
X02596Y01066*
Y0107*
X02592*
X02588Y01066*
X02584Y0107*
X0258*
Y01066*
X02584Y01062*
X0258Y01058*
Y01054*
Y01004D02*
X02584D01*
X02588Y01008*
X02592Y01004*
X02596*
Y01008*
X02592Y01012*
X02596Y01016*
Y0102*
X02592*
X02588Y01016*
X02584Y0102*
X0258*
Y01016*
X02584Y01012*
X0258Y01008*
Y01004*
X02605Y01029D02*
X02609D01*
X02613Y01033*
X02617Y01029*
X02621*
Y01033*
X02617Y01037*
X02621Y01041*
Y01045*
X02617*
X02613Y01041*
X02609Y01045*
X02605*
Y01041*
X02609Y01037*
X02605Y01033*
Y01029*
X0263Y01054D02*
X02634D01*
X02638Y01058*
X02642Y01054*
X02646*
Y01058*
X02642Y01062*
X02646Y01066*
Y0107*
X02642*
X02638Y01066*
X02634Y0107*
X0263*
Y01066*
X02634Y01062*
X0263Y01058*
Y01054*
X02655Y01079D02*
X02659D01*
X02663Y01083*
X02667Y01079*
X02671*
Y01083*
X02667Y01087*
X02671Y01091*
Y01095*
X02667*
X02663Y01091*
X02659Y01095*
X02655*
Y01091*
X02659Y01087*
X02655Y01083*
Y01079*
X0263Y01104D02*
X02634D01*
X02638Y01108*
X02642Y01104*
X02646*
Y01108*
X02642Y01112*
X02646Y01116*
Y0112*
X02642*
X02638Y01116*
X02634Y0112*
X0263*
Y01116*
X02634Y01112*
X0263Y01108*
Y01104*
X02655Y01129D02*
X02659D01*
X02663Y01133*
X02667Y01129*
X02671*
Y01133*
X02667Y01137*
X02671Y01141*
Y01145*
X02667*
X02663Y01141*
X02659Y01145*
X02655*
Y01141*
X02659Y01137*
X02655Y01133*
Y01129*
X0263Y01154D02*
X02634D01*
X02638Y01158*
X02642Y01154*
X02646*
Y01158*
X02642Y01162*
X02646Y01166*
Y0117*
X02642*
X02638Y01166*
X02634Y0117*
X0263*
Y01166*
X02634Y01162*
X0263Y01158*
Y01154*
X02885Y01286D02*
X02889D01*
X02893Y0129*
X02897Y01286*
X02901*
Y0129*
X02897Y01294*
X02901Y01298*
Y01302*
X02897*
X02893Y01298*
X02889Y01302*
X02885*
Y01298*
X02889Y01294*
X02885Y0129*
Y01286*
Y01251D02*
X02889D01*
X02893Y01255*
X02897Y01251*
X02901*
Y01255*
X02897Y01259*
X02901Y01263*
Y01267*
X02897*
X02893Y01263*
X02889Y01267*
X02885*
Y01263*
X02889Y01259*
X02885Y01255*
Y01251*
Y01216D02*
X02889D01*
X02893Y0122*
X02897Y01216*
X02901*
Y0122*
X02897Y01224*
X02901Y01228*
Y01232*
X02897*
X02893Y01228*
X02889Y01232*
X02885*
Y01228*
X02889Y01224*
X02885Y0122*
Y01216*
X0292Y01251D02*
X02924D01*
X02928Y01255*
X02932Y01251*
X02936*
Y01255*
X02932Y01259*
X02936Y01263*
Y01267*
X02932*
X02928Y01263*
X02924Y01267*
X0292*
Y01263*
X02924Y01259*
X0292Y01255*
Y01251*
Y01216D02*
X02924D01*
X02928Y0122*
X02932Y01216*
X02936*
Y0122*
X02932Y01224*
X02936Y01228*
Y01232*
X02932*
X02928Y01228*
X02924Y01232*
X0292*
Y01228*
X02924Y01224*
X0292Y0122*
Y01216*
Y01286D02*
X02924D01*
X02928Y0129*
X02932Y01286*
X02936*
Y0129*
X02932Y01294*
X02936Y01298*
Y01302*
X02932*
X02928Y01298*
X02924Y01302*
X0292*
Y01298*
X02924Y01294*
X0292Y0129*
Y01286*
X0263Y01731D02*
X02634D01*
X02638Y01735*
X02642Y01731*
X02646*
Y01735*
X02642Y01739*
X02646Y01743*
Y01747*
X02642*
X02638Y01743*
X02634Y01747*
X0263*
Y01743*
X02634Y01739*
X0263Y01735*
Y01731*
X01845Y01101D02*
X01849D01*
X01853Y01105*
X01857Y01101*
X01861*
Y01105*
X01857Y01109*
X01861Y01113*
Y01117*
X01857*
X01853Y01113*
X01849Y01117*
X01845*
Y01113*
X01849Y01109*
X01845Y01105*
Y01101*
X0149Y01456D02*
X01494D01*
X01498Y0146*
X01502Y01456*
X01506*
Y0146*
X01502Y01464*
X01506Y01468*
Y01472*
X01502*
X01498Y01468*
X01494Y01472*
X0149*
Y01468*
X01494Y01464*
X0149Y0146*
Y01456*
X0159Y01451D02*
X01594D01*
X01598Y01455*
X01602Y01451*
X01606*
Y01455*
X01602Y01459*
X01606Y01463*
Y01467*
X01602*
X01598Y01463*
X01594Y01467*
X0159*
Y01463*
X01594Y01459*
X0159Y01455*
Y01451*
X0024Y01636D02*
X00244D01*
X00248Y0164*
X00252Y01636*
X00256*
Y0164*
X00252Y01644*
X00256Y01648*
Y01652*
X00252*
X00248Y01648*
X00244Y01652*
X0024*
Y01648*
X00244Y01644*
X0024Y0164*
Y01636*
X0035D02*
X00354D01*
X00358Y0164*
X00362Y01636*
X00366*
Y0164*
X00362Y01644*
X00366Y01648*
Y01652*
X00362*
X00358Y01648*
X00354Y01652*
X0035*
Y01648*
X00354Y01644*
X0035Y0164*
Y01636*
X0043D02*
X00434D01*
X00438Y0164*
X00442Y01636*
X00446*
Y0164*
X00442Y01644*
X00446Y01648*
Y01652*
X00442*
X00438Y01648*
X00434Y01652*
X0043*
Y01648*
X00434Y01644*
X0043Y0164*
Y01636*
X0045Y02101D02*
X00454D01*
X00458Y02105*
X00462Y02101*
X00466*
Y02105*
X00462Y02109*
X00466Y02113*
Y02117*
X00462*
X00458Y02113*
X00454Y02117*
X0045*
Y02113*
X00454Y02109*
X0045Y02105*
Y02101*
X00241Y02099D02*
X00245D01*
X00249Y02103*
X00253Y02099*
X00257*
Y02103*
X00253Y02107*
X00257Y02111*
Y02115*
X00253*
X00249Y02111*
X00245Y02115*
X00241*
Y02111*
X00245Y02107*
X00241Y02103*
Y02099*
X0015Y02096D02*
X00154D01*
X00158Y021*
X00162Y02096*
X00166*
Y021*
X00162Y02104*
X00166Y02108*
Y02112*
X00162*
X00158Y02108*
X00154Y02112*
X0015*
Y02108*
X00154Y02104*
X0015Y021*
Y02096*
X00974Y00792D02*
X00978D01*
X00982Y00796*
X00986Y00792*
X0099*
Y00796*
X00986Y008*
X0099Y00804*
Y00808*
X00986*
X00982Y00804*
X00978Y00808*
X00974*
Y00804*
X00978Y008*
X00974Y00796*
Y00792*
X01102Y00944D02*
X01106D01*
X0111Y00948*
X01114Y00944*
X01118*
Y00948*
X01114Y00952*
X01118Y00956*
Y0096*
X01114*
X0111Y00956*
X01106Y0096*
X01102*
Y00956*
X01106Y00952*
X01102Y00948*
Y00944*
X0021Y01056D02*
X00214D01*
X00218Y0106*
X00222Y01056*
X00226*
Y0106*
X00222Y01064*
X00226Y01068*
Y01072*
X00222*
X00218Y01068*
X00214Y01072*
X0021*
Y01068*
X00214Y01064*
X0021Y0106*
Y01056*
X00055Y00971D02*
X00059D01*
X00063Y00975*
X00067Y00971*
X00071*
Y00975*
X00067Y00979*
X00071Y00983*
Y00987*
X00067*
X00063Y00983*
X00059Y00987*
X00055*
Y00983*
X00059Y00979*
X00055Y00975*
Y00971*
X00395Y00817D02*
X00399D01*
X00403Y00821*
X00407Y00817*
X00411*
Y00821*
X00407Y00825*
X00411Y00829*
Y00833*
X00407*
X00403Y00829*
X00399Y00833*
X00395*
Y00829*
X00399Y00825*
X00395Y00821*
Y00817*
X0248Y03241D02*
X02484D01*
X02488Y03245*
X02492Y03241*
X02496*
Y03245*
X02492Y03249*
X02496Y03253*
Y03257*
X02492*
X02488Y03253*
X02484Y03257*
X0248*
Y03253*
X02484Y03249*
X0248Y03245*
Y03241*
X026D02*
X02604D01*
X02608Y03245*
X02612Y03241*
X02616*
Y03245*
X02612Y03249*
X02616Y03253*
Y03257*
X02612*
X02608Y03253*
X02604Y03257*
X026*
Y03253*
X02604Y03249*
X026Y03245*
Y03241*
X02485Y03498D02*
X02489D01*
X02493Y03502*
X02497Y03498*
X02501*
Y03502*
X02497Y03506*
X02501Y0351*
Y03514*
X02497*
X02493Y0351*
X02489Y03514*
X02485*
Y0351*
X02489Y03506*
X02485Y03502*
Y03498*
X011Y02662D02*
X01104D01*
X01108Y02666*
X01112Y02662*
X01116*
Y02666*
X01112Y0267*
X01116Y02674*
Y02678*
X01112*
X01108Y02674*
X01104Y02678*
X011*
Y02674*
X01104Y0267*
X011Y02666*
Y02662*
X00222Y02396D02*
X00226D01*
X0023Y024*
X00234Y02396*
X00238*
Y024*
X00234Y02404*
X00238Y02408*
Y02412*
X00234*
X0023Y02408*
X00226Y02412*
X00222*
Y02408*
X00226Y02404*
X00222Y024*
Y02396*
X00357Y01591D02*
X00361D01*
X00365Y01595*
X00369Y01591*
X00373*
Y01595*
X00369Y01599*
X00373Y01603*
Y01607*
X00369*
X00365Y01603*
X00361Y01607*
X00357*
Y01603*
X00361Y01599*
X00357Y01595*
Y01591*
X0045Y02051D02*
X00454D01*
X00458Y02055*
X00462Y02051*
X00466*
Y02055*
X00462Y02059*
X00466Y02063*
Y02067*
X00462*
X00458Y02063*
X00454Y02067*
X0045*
Y02063*
X00454Y02059*
X0045Y02055*
Y02051*
X00475Y02021D02*
X00479D01*
X00483Y02025*
X00487Y02021*
X00491*
Y02025*
X00487Y02029*
X00491Y02033*
Y02037*
X00487*
X00483Y02033*
X00479Y02037*
X00475*
Y02033*
X00479Y02029*
X00475Y02025*
Y02021*
X02605Y01076D02*
X02609D01*
X02613Y0108*
X02617Y01076*
X02621*
Y0108*
X02617Y01084*
X02621Y01088*
Y01092*
X02617*
X02613Y01088*
X02609Y01092*
X02605*
Y01088*
X02609Y01084*
X02605Y0108*
Y01076*
X0263Y01766D02*
X02634D01*
X02638Y0177*
X02642Y01766*
X02646*
Y0177*
X02642Y01774*
X02646Y01778*
Y01782*
X02642*
X02638Y01778*
X02634Y01782*
X0263*
Y01778*
X02634Y01774*
X0263Y0177*
Y01766*
X02705Y01516D02*
X02709D01*
X02713Y0152*
X02717Y01516*
X02721*
Y0152*
X02717Y01524*
X02721Y01528*
Y01532*
X02717*
X02713Y01528*
X02709Y01532*
X02705*
Y01528*
X02709Y01524*
X02705Y0152*
Y01516*
X0157Y02366D02*
X01574D01*
X01578Y0237*
X01582Y02366*
X01586*
Y0237*
X01582Y02374*
X01586Y02378*
Y02382*
X01582*
X01578Y02378*
X01574Y02382*
X0157*
Y02378*
X01574Y02374*
X0157Y0237*
Y02366*
X01497Y02286D02*
X01501D01*
X01505Y0229*
X01509Y02286*
X01513*
Y0229*
X01509Y02294*
X01513Y02298*
Y02302*
X01509*
X01505Y02298*
X01501Y02302*
X01497*
Y02298*
X01501Y02294*
X01497Y0229*
Y02286*
X0154Y02316D02*
X01544D01*
X01548Y0232*
X01552Y02316*
X01556*
Y0232*
X01552Y02324*
X01556Y02328*
Y02332*
X01552*
X01548Y02328*
X01544Y02332*
X0154*
Y02328*
X01544Y02324*
X0154Y0232*
Y02316*
X0157Y02439D02*
X01574D01*
X01578Y02443*
X01582Y02439*
X01586*
Y02443*
X01582Y02447*
X01586Y02451*
Y02455*
X01582*
X01578Y02451*
X01574Y02455*
X0157*
Y02451*
X01574Y02447*
X0157Y02443*
Y02439*
X01484Y0244D02*
X01488D01*
X01492Y02444*
X01496Y0244*
X015*
Y02444*
X01496Y02448*
X015Y02452*
Y02456*
X01496*
X01492Y02452*
X01488Y02456*
X01484*
Y02452*
X01488Y02448*
X01484Y02444*
Y0244*
X01408Y02491D02*
X01412D01*
X01416Y02495*
X0142Y02491*
X01424*
Y02495*
X0142Y02499*
X01424Y02503*
Y02507*
X0142*
X01416Y02503*
X01412Y02507*
X01408*
Y02503*
X01412Y02499*
X01408Y02495*
Y02491*
X0152Y02621D02*
X01524D01*
X01528Y02625*
X01532Y02621*
X01536*
Y02625*
X01532Y02629*
X01536Y02633*
Y02637*
X01532*
X01528Y02633*
X01524Y02637*
X0152*
Y02633*
X01524Y02629*
X0152Y02625*
Y02621*
X0157Y02686D02*
X01574D01*
X01578Y0269*
X01582Y02686*
X01586*
Y0269*
X01582Y02694*
X01586Y02698*
Y02702*
X01582*
X01578Y02698*
X01574Y02702*
X0157*
Y02698*
X01574Y02694*
X0157Y0269*
Y02686*
X0149Y02651D02*
X01494D01*
X01498Y02655*
X01502Y02651*
X01506*
Y02655*
X01502Y02659*
X01506Y02663*
Y02667*
X01502*
X01498Y02663*
X01494Y02667*
X0149*
Y02663*
X01494Y02659*
X0149Y02655*
Y02651*
X01345Y03266D02*
X01349D01*
X01353Y0327*
X01357Y03266*
X01361*
Y0327*
X01357Y03274*
X01361Y03278*
Y03282*
X01357*
X01353Y03278*
X01349Y03282*
X01345*
Y03278*
X01349Y03274*
X01345Y0327*
Y03266*
X0096Y03651D02*
X00964D01*
X00968Y03655*
X00972Y03651*
X00976*
Y03655*
X00972Y03659*
X00976Y03663*
Y03667*
X00972*
X00968Y03663*
X00964Y03667*
X0096*
Y03663*
X00964Y03659*
X0096Y03655*
Y03651*
X00557Y00975D02*
X00561D01*
X00565Y00979*
X00569Y00975*
X00573*
Y00979*
X00569Y00983*
X00573Y00987*
Y00991*
X00569*
X00565Y00987*
X00561Y00991*
X00557*
Y00987*
X00561Y00983*
X00557Y00979*
Y00975*
X0183Y02538D02*
X01834D01*
X01838Y02542*
X01842Y02538*
X01846*
Y02542*
X01842Y02546*
X01846Y0255*
Y02554*
X01842*
X01838Y0255*
X01834Y02554*
X0183*
Y0255*
X01834Y02546*
X0183Y02542*
Y02538*
X01845Y01131D02*
X01849D01*
X01853Y01135*
X01857Y01131*
X01861*
Y01135*
X01857Y01139*
X01861Y01143*
Y01147*
X01857*
X01853Y01143*
X01849Y01147*
X01845*
Y01143*
X01849Y01139*
X01845Y01135*
Y01131*
X01812Y01132D02*
X01816D01*
X0182Y01136*
X01824Y01132*
X01828*
Y01136*
X01824Y0114*
X01828Y01144*
Y01148*
X01824*
X0182Y01144*
X01816Y01148*
X01812*
Y01144*
X01816Y0114*
X01812Y01136*
Y01132*
X01776D02*
X0178D01*
X01784Y01136*
X01788Y01132*
X01792*
Y01136*
X01788Y0114*
X01792Y01144*
Y01148*
X01788*
X01784Y01144*
X0178Y01148*
X01776*
Y01144*
X0178Y0114*
X01776Y01136*
Y01132*
X01742D02*
X01746D01*
X0175Y01136*
X01754Y01132*
X01758*
Y01136*
X01754Y0114*
X01758Y01144*
Y01148*
X01754*
X0175Y01144*
X01746Y01148*
X01742*
Y01144*
X01746Y0114*
X01742Y01136*
Y01132*
X01776Y01102D02*
X0178D01*
X01784Y01106*
X01788Y01102*
X01792*
Y01106*
X01788Y0111*
X01792Y01114*
Y01118*
X01788*
X01784Y01114*
X0178Y01118*
X01776*
Y01114*
X0178Y0111*
X01776Y01106*
Y01102*
X01742D02*
X01746D01*
X0175Y01106*
X01754Y01102*
X01758*
Y01106*
X01754Y0111*
X01758Y01114*
Y01118*
X01754*
X0175Y01114*
X01746Y01118*
X01742*
Y01114*
X01746Y0111*
X01742Y01106*
Y01102*
X01812D02*
X01816D01*
X0182Y01106*
X01824Y01102*
X01828*
Y01106*
X01824Y0111*
X01828Y01114*
Y01118*
X01824*
X0182Y01114*
X01816Y01118*
X01812*
Y01114*
X01816Y0111*
X01812Y01106*
Y01102*
X01708Y01102D02*
X01712D01*
X01716Y01106*
X0172Y01102*
X01724*
Y01106*
X0172Y0111*
X01724Y01114*
Y01118*
X0172*
X01716Y01114*
X01712Y01118*
X01708*
Y01114*
X01712Y0111*
X01708Y01106*
Y01102*
X01638D02*
X01642D01*
X01646Y01106*
X0165Y01102*
X01654*
Y01106*
X0165Y0111*
X01654Y01114*
Y01118*
X0165*
X01646Y01114*
X01642Y01118*
X01638*
Y01114*
X01642Y0111*
X01638Y01106*
Y01102*
X01673D02*
X01677D01*
X01681Y01106*
X01685Y01102*
X01689*
Y01106*
X01685Y0111*
X01689Y01114*
Y01118*
X01685*
X01681Y01114*
X01677Y01118*
X01673*
Y01114*
X01677Y0111*
X01673Y01106*
Y01102*
X01638Y01132D02*
X01642D01*
X01646Y01136*
X0165Y01132*
X01654*
Y01136*
X0165Y0114*
X01654Y01144*
Y01148*
X0165*
X01646Y01144*
X01642Y01148*
X01638*
Y01144*
X01642Y0114*
X01638Y01136*
Y01132*
X01673D02*
X01677D01*
X01681Y01136*
X01685Y01132*
X01689*
Y01136*
X01685Y0114*
X01689Y01144*
Y01148*
X01685*
X01681Y01144*
X01677Y01148*
X01673*
Y01144*
X01677Y0114*
X01673Y01136*
Y01132*
X01708D02*
X01712D01*
X01716Y01136*
X0172Y01132*
X01724*
Y01136*
X0172Y0114*
X01724Y01144*
Y01148*
X0172*
X01716Y01144*
X01712Y01148*
X01708*
Y01144*
X01712Y0114*
X01708Y01136*
Y01132*
X01713Y01365D02*
X01717D01*
X01721Y01369*
X01725Y01365*
X01729*
Y01369*
X01725Y01373*
X01729Y01377*
Y01381*
X01725*
X01721Y01377*
X01717Y01381*
X01713*
Y01377*
X01717Y01373*
X01713Y01369*
Y01365*
X01678D02*
X01682D01*
X01686Y01369*
X0169Y01365*
X01694*
Y01369*
X0169Y01373*
X01694Y01377*
Y01381*
X0169*
X01686Y01377*
X01682Y01381*
X01678*
Y01377*
X01682Y01373*
X01678Y01369*
Y01365*
X01643D02*
X01647D01*
X01651Y01369*
X01655Y01365*
X01659*
Y01369*
X01655Y01373*
X01659Y01377*
Y01381*
X01655*
X01651Y01377*
X01647Y01381*
X01643*
Y01377*
X01647Y01373*
X01643Y01369*
Y01365*
X01678Y01335D02*
X01682D01*
X01686Y01339*
X0169Y01335*
X01694*
Y01339*
X0169Y01343*
X01694Y01347*
Y01351*
X0169*
X01686Y01347*
X01682Y01351*
X01678*
Y01347*
X01682Y01343*
X01678Y01339*
Y01335*
X01643D02*
X01647D01*
X01651Y01339*
X01655Y01335*
X01659*
Y01339*
X01655Y01343*
X01659Y01347*
Y01351*
X01655*
X01651Y01347*
X01647Y01351*
X01643*
Y01347*
X01647Y01343*
X01643Y01339*
Y01335*
X01713D02*
X01717D01*
X01721Y01339*
X01725Y01335*
X01729*
Y01339*
X01725Y01343*
X01729Y01347*
Y01351*
X01725*
X01721Y01347*
X01717Y01351*
X01713*
Y01347*
X01717Y01343*
X01713Y01339*
Y01335*
X01817Y01335D02*
X01821D01*
X01825Y01339*
X01829Y01335*
X01833*
Y01339*
X01829Y01343*
X01833Y01347*
Y01351*
X01829*
X01825Y01347*
X01821Y01351*
X01817*
Y01347*
X01821Y01343*
X01817Y01339*
Y01335*
X01747D02*
X01751D01*
X01755Y01339*
X01759Y01335*
X01763*
Y01339*
X01759Y01343*
X01763Y01347*
Y01351*
X01759*
X01755Y01347*
X01751Y01351*
X01747*
Y01347*
X01751Y01343*
X01747Y01339*
Y01335*
X01781D02*
X01785D01*
X01789Y01339*
X01793Y01335*
X01797*
Y01339*
X01793Y01343*
X01797Y01347*
Y01351*
X01793*
X01789Y01347*
X01785Y01351*
X01781*
Y01347*
X01785Y01343*
X01781Y01339*
Y01335*
X01747Y01365D02*
X01751D01*
X01755Y01369*
X01759Y01365*
X01763*
Y01369*
X01759Y01373*
X01763Y01377*
Y01381*
X01759*
X01755Y01377*
X01751Y01381*
X01747*
Y01377*
X01751Y01373*
X01747Y01369*
Y01365*
X01781D02*
X01785D01*
X01789Y01369*
X01793Y01365*
X01797*
Y01369*
X01793Y01373*
X01797Y01377*
Y01381*
X01793*
X01789Y01377*
X01785Y01381*
X01781*
Y01377*
X01785Y01373*
X01781Y01369*
Y01365*
X01817D02*
X01821D01*
X01825Y01369*
X01829Y01365*
X01833*
Y01369*
X01829Y01373*
X01833Y01377*
Y01381*
X01829*
X01825Y01377*
X01821Y01381*
X01817*
Y01377*
X01821Y01373*
X01817Y01369*
Y01365*
X0185Y01364D02*
X01854D01*
X01858Y01368*
X01862Y01364*
X01866*
Y01368*
X01862Y01372*
X01866Y01376*
Y0138*
X01862*
X01858Y01376*
X01854Y0138*
X0185*
Y01376*
X01854Y01372*
X0185Y01368*
Y01364*
Y01334D02*
X01854D01*
X01858Y01338*
X01862Y01334*
X01866*
Y01338*
X01862Y01342*
X01866Y01346*
Y0135*
X01862*
X01858Y01346*
X01854Y0135*
X0185*
Y01346*
X01854Y01342*
X0185Y01338*
Y01334*
X00041Y02342D02*
X00045D01*
X00049Y02346*
X00053Y02342*
X00057*
Y02346*
X00053Y0235*
X00057Y02354*
Y02358*
X00053*
X00049Y02354*
X00045Y02358*
X00041*
Y02354*
X00045Y0235*
X00041Y02346*
Y02342*
Y02382D02*
X00045D01*
X00049Y02386*
X00053Y02382*
X00057*
Y02386*
X00053Y0239*
X00057Y02394*
Y02398*
X00053*
X00049Y02394*
X00045Y02398*
X00041*
Y02394*
X00045Y0239*
X00041Y02386*
Y02382*
Y02422D02*
X00045D01*
X00049Y02426*
X00053Y02422*
X00057*
Y02426*
X00053Y0243*
X00057Y02434*
Y02438*
X00053*
X00049Y02434*
X00045Y02438*
X00041*
Y02434*
X00045Y0243*
X00041Y02426*
Y02422*
X00042Y02462D02*
X00046D01*
X0005Y02466*
X00054Y02462*
X00058*
Y02466*
X00054Y0247*
X00058Y02474*
Y02478*
X00054*
X0005Y02474*
X00046Y02478*
X00042*
Y02474*
X00046Y0247*
X00042Y02466*
Y02462*
X00584Y02461D02*
X00588D01*
X00592Y02465*
X00596Y02461*
X006*
Y02465*
X00596Y02469*
X006Y02473*
Y02477*
X00596*
X00592Y02473*
X00588Y02477*
X00584*
Y02473*
X00588Y02469*
X00584Y02465*
Y02461*
X00583Y02421D02*
X00587D01*
X00591Y02425*
X00595Y02421*
X00599*
Y02425*
X00595Y02429*
X00599Y02433*
Y02437*
X00595*
X00591Y02433*
X00587Y02437*
X00583*
Y02433*
X00587Y02429*
X00583Y02425*
Y02421*
Y02381D02*
X00587D01*
X00591Y02385*
X00595Y02381*
X00599*
Y02385*
X00595Y02389*
X00599Y02393*
Y02397*
X00595*
X00591Y02393*
X00587Y02397*
X00583*
Y02393*
X00587Y02389*
X00583Y02385*
Y02381*
Y02341D02*
X00587D01*
X00591Y02345*
X00595Y02341*
X00599*
Y02345*
X00595Y02349*
X00599Y02353*
Y02357*
X00595*
X00591Y02353*
X00587Y02357*
X00583*
Y02353*
X00587Y02349*
X00583Y02345*
Y02341*
X02955Y01286D02*
X02959D01*
X02963Y0129*
X02967Y01286*
X02971*
Y0129*
X02967Y01294*
X02971Y01298*
Y01302*
X02967*
X02963Y01298*
X02959Y01302*
X02955*
Y01298*
X02959Y01294*
X02955Y0129*
Y01286*
Y01216D02*
X02959D01*
X02963Y0122*
X02967Y01216*
X02971*
Y0122*
X02967Y01224*
X02971Y01228*
Y01232*
X02967*
X02963Y01228*
X02959Y01232*
X02955*
Y01228*
X02959Y01224*
X02955Y0122*
Y01216*
Y01251D02*
X02959D01*
X02963Y01255*
X02967Y01251*
X02971*
Y01255*
X02967Y01259*
X02971Y01263*
Y01267*
X02967*
X02963Y01263*
X02959Y01267*
X02955*
Y01263*
X02959Y01259*
X02955Y01255*
Y01251*
X02972Y01182D02*
X02976D01*
X0298Y01186*
X02984Y01182*
X02988*
Y01186*
X02984Y0119*
X02988Y01194*
Y01198*
X02984*
X0298Y01194*
X02976Y01198*
X02972*
Y01194*
X02976Y0119*
X02972Y01186*
Y01182*
Y01112D02*
X02976D01*
X0298Y01116*
X02984Y01112*
X02988*
Y01116*
X02984Y0112*
X02988Y01124*
Y01128*
X02984*
X0298Y01124*
X02976Y01128*
X02972*
Y01124*
X02976Y0112*
X02972Y01116*
Y01112*
Y01147D02*
X02976D01*
X0298Y01151*
X02984Y01147*
X02988*
Y01151*
X02984Y01155*
X02988Y01159*
Y01163*
X02984*
X0298Y01159*
X02976Y01163*
X02972*
Y01159*
X02976Y01155*
X02972Y01151*
Y01147*
Y01042D02*
X02976D01*
X0298Y01046*
X02984Y01042*
X02988*
Y01046*
X02984Y0105*
X02988Y01054*
Y01058*
X02984*
X0298Y01054*
X02976Y01058*
X02972*
Y01054*
X02976Y0105*
X02972Y01046*
Y01042*
Y01007D02*
X02976D01*
X0298Y01011*
X02984Y01007*
X02988*
Y01011*
X02984Y01015*
X02988Y01019*
Y01023*
X02984*
X0298Y01019*
X02976Y01023*
X02972*
Y01019*
X02976Y01015*
X02972Y01011*
Y01007*
Y01077D02*
X02976D01*
X0298Y01081*
X02984Y01077*
X02988*
Y01081*
X02984Y01085*
X02988Y01089*
Y01093*
X02984*
X0298Y01089*
X02976Y01093*
X02972*
Y01089*
X02976Y01085*
X02972Y01081*
Y01077*
Y00937D02*
X02976D01*
X0298Y00941*
X02984Y00937*
X02988*
Y00941*
X02984Y00945*
X02988Y00949*
Y00953*
X02984*
X0298Y00949*
X02976Y00953*
X02972*
Y00949*
X02976Y00945*
X02972Y00941*
Y00937*
Y00972D02*
X02976D01*
X0298Y00976*
X02984Y00972*
X02988*
Y00976*
X02984Y0098*
X02988Y00984*
Y00988*
X02984*
X0298Y00984*
X02976Y00988*
X02972*
Y00984*
X02976Y0098*
X02972Y00976*
Y00972*
Y00902D02*
X02976D01*
X0298Y00906*
X02984Y00902*
X02988*
Y00906*
X02984Y0091*
X02988Y00914*
Y00918*
X02984*
X0298Y00914*
X02976Y00918*
X02972*
Y00914*
X02976Y0091*
X02972Y00906*
Y00902*
Y00832D02*
X02976D01*
X0298Y00836*
X02984Y00832*
X02988*
Y00836*
X02984Y0084*
X02988Y00844*
Y00848*
X02984*
X0298Y00844*
X02976Y00848*
X02972*
Y00844*
X02976Y0084*
X02972Y00836*
Y00832*
Y00867D02*
X02976D01*
X0298Y00871*
X02984Y00867*
X02988*
Y00871*
X02984Y00875*
X02988Y00879*
Y00883*
X02984*
X0298Y00879*
X02976Y00883*
X02972*
Y00879*
X02976Y00875*
X02972Y00871*
Y00867*
Y00797D02*
X02976D01*
X0298Y00801*
X02984Y00797*
X02988*
Y00801*
X02984Y00805*
X02988Y00809*
Y00813*
X02984*
X0298Y00809*
X02976Y00813*
X02972*
Y00809*
X02976Y00805*
X02972Y00801*
Y00797*
Y00727D02*
X02976D01*
X0298Y00731*
X02984Y00727*
X02988*
Y00731*
X02984Y00735*
X02988Y00739*
Y00743*
X02984*
X0298Y00739*
X02976Y00743*
X02972*
Y00739*
X02976Y00735*
X02972Y00731*
Y00727*
Y00762D02*
X02976D01*
X0298Y00766*
X02984Y00762*
X02988*
Y00766*
X02984Y0077*
X02988Y00774*
Y00778*
X02984*
X0298Y00774*
X02976Y00778*
X02972*
Y00774*
X02976Y0077*
X02972Y00766*
Y00762*
Y00692D02*
X02976D01*
X0298Y00696*
X02984Y00692*
X02988*
Y00696*
X02984Y007*
X02988Y00704*
Y00708*
X02984*
X0298Y00704*
X02976Y00708*
X02972*
Y00704*
X02976Y007*
X02972Y00696*
Y00692*
Y00622D02*
X02976D01*
X0298Y00626*
X02984Y00622*
X02988*
Y00626*
X02984Y0063*
X02988Y00634*
Y00638*
X02984*
X0298Y00634*
X02976Y00638*
X02972*
Y00634*
X02976Y0063*
X02972Y00626*
Y00622*
Y00657D02*
X02976D01*
X0298Y00661*
X02984Y00657*
X02988*
Y00661*
X02984Y00665*
X02988Y00669*
Y00673*
X02984*
X0298Y00669*
X02976Y00673*
X02972*
Y00669*
X02976Y00665*
X02972Y00661*
Y00657*
Y00587D02*
X02976D01*
X0298Y00591*
X02984Y00587*
X02988*
Y00591*
X02984Y00595*
X02988Y00599*
Y00603*
X02984*
X0298Y00599*
X02976Y00603*
X02972*
Y00599*
X02976Y00595*
X02972Y00591*
Y00587*
X0297Y01356D02*
X02974D01*
X02978Y0136*
X02982Y01356*
X02986*
Y0136*
X02982Y01364*
X02986Y01368*
Y01372*
X02982*
X02978Y01368*
X02974Y01372*
X0297*
Y01368*
X02974Y01364*
X0297Y0136*
Y01356*
Y01391D02*
X02974D01*
X02978Y01395*
X02982Y01391*
X02986*
Y01395*
X02982Y01399*
X02986Y01403*
Y01407*
X02982*
X02978Y01403*
X02974Y01407*
X0297*
Y01403*
X02974Y01399*
X0297Y01395*
Y01391*
Y01321D02*
X02974D01*
X02978Y01325*
X02982Y01321*
X02986*
Y01325*
X02982Y01329*
X02986Y01333*
Y01337*
X02982*
X02978Y01333*
X02974Y01337*
X0297*
Y01333*
X02974Y01329*
X0297Y01325*
Y01321*
Y01461D02*
X02974D01*
X02978Y01465*
X02982Y01461*
X02986*
Y01465*
X02982Y01469*
X02986Y01473*
Y01477*
X02982*
X02978Y01473*
X02974Y01477*
X0297*
Y01473*
X02974Y01469*
X0297Y01465*
Y01461*
Y01426D02*
X02974D01*
X02978Y0143*
X02982Y01426*
X02986*
Y0143*
X02982Y01434*
X02986Y01438*
Y01442*
X02982*
X02978Y01438*
X02974Y01442*
X0297*
Y01438*
X02974Y01434*
X0297Y0143*
Y01426*
Y01496D02*
X02974D01*
X02978Y015*
X02982Y01496*
X02986*
Y015*
X02982Y01504*
X02986Y01508*
Y01512*
X02982*
X02978Y01508*
X02974Y01512*
X0297*
Y01508*
X02974Y01504*
X0297Y015*
Y01496*
Y01566D02*
X02974D01*
X02978Y0157*
X02982Y01566*
X02986*
Y0157*
X02982Y01574*
X02986Y01578*
Y01582*
X02982*
X02978Y01578*
X02974Y01582*
X0297*
Y01578*
X02974Y01574*
X0297Y0157*
Y01566*
Y01531D02*
X02974D01*
X02978Y01535*
X02982Y01531*
X02986*
Y01535*
X02982Y01539*
X02986Y01543*
Y01547*
X02982*
X02978Y01543*
X02974Y01547*
X0297*
Y01543*
X02974Y01539*
X0297Y01535*
Y01531*
Y01601D02*
X02974D01*
X02978Y01605*
X02982Y01601*
X02986*
Y01605*
X02982Y01609*
X02986Y01613*
Y01617*
X02982*
X02978Y01613*
X02974Y01617*
X0297*
Y01613*
X02974Y01609*
X0297Y01605*
Y01601*
Y01671D02*
X02974D01*
X02978Y01675*
X02982Y01671*
X02986*
Y01675*
X02982Y01679*
X02986Y01683*
Y01687*
X02982*
X02978Y01683*
X02974Y01687*
X0297*
Y01683*
X02974Y01679*
X0297Y01675*
Y01671*
Y01636D02*
X02974D01*
X02978Y0164*
X02982Y01636*
X02986*
Y0164*
X02982Y01644*
X02986Y01648*
Y01652*
X02982*
X02978Y01648*
X02974Y01652*
X0297*
Y01648*
X02974Y01644*
X0297Y0164*
Y01636*
Y01706D02*
X02974D01*
X02978Y0171*
X02982Y01706*
X02986*
Y0171*
X02982Y01714*
X02986Y01718*
Y01722*
X02982*
X02978Y01718*
X02974Y01722*
X0297*
Y01718*
X02974Y01714*
X0297Y0171*
Y01706*
Y01776D02*
X02974D01*
X02978Y0178*
X02982Y01776*
X02986*
Y0178*
X02982Y01784*
X02986Y01788*
Y01792*
X02982*
X02978Y01788*
X02974Y01792*
X0297*
Y01788*
X02974Y01784*
X0297Y0178*
Y01776*
Y01741D02*
X02974D01*
X02978Y01745*
X02982Y01741*
X02986*
Y01745*
X02982Y01749*
X02986Y01753*
Y01757*
X02982*
X02978Y01753*
X02974Y01757*
X0297*
Y01753*
X02974Y01749*
X0297Y01745*
Y01741*
X00302Y01957D02*
X00306D01*
X0031Y01961*
X00314Y01957*
X00318*
Y01961*
X00314Y01965*
X00318Y01969*
Y01973*
X00314*
X0031Y01969*
X00306Y01973*
X00302*
Y01969*
X00306Y01965*
X00302Y01961*
Y01957*
Y01997D02*
X00306D01*
X0031Y02001*
X00314Y01997*
X00318*
Y02001*
X00314Y02005*
X00318Y02009*
Y02013*
X00314*
X0031Y02009*
X00306Y02013*
X00302*
Y02009*
X00306Y02005*
X00302Y02001*
Y01997*
X00138Y01192D02*
X00142D01*
X00146Y01196*
X0015Y01192*
X00154*
Y01196*
X0015Y012*
X00154Y01204*
Y01208*
X0015*
X00146Y01204*
X00142Y01208*
X00138*
Y01204*
X00142Y012*
X00138Y01196*
Y01192*
X00039Y01388D02*
X00043D01*
X00047Y01392*
X00051Y01388*
X00055*
Y01392*
X00051Y01396*
X00055Y014*
Y01404*
X00051*
X00047Y014*
X00043Y01404*
X00039*
Y014*
X00043Y01396*
X00039Y01392*
Y01388*
Y01782D02*
X00043D01*
X00047Y01786*
X00051Y01782*
X00055*
Y01786*
X00051Y0179*
X00055Y01794*
Y01798*
X00051*
X00047Y01794*
X00043Y01798*
X00039*
Y01794*
X00043Y0179*
X00039Y01786*
Y01782*
X00138Y02766D02*
X00142D01*
X00146Y0277*
X0015Y02766*
X00154*
Y0277*
X0015Y02774*
X00154Y02778*
Y02782*
X0015*
X00146Y02778*
X00142Y02782*
X00138*
Y02778*
X00142Y02774*
X00138Y0277*
Y02766*
X00039Y02963D02*
X00043D01*
X00047Y02967*
X00051Y02963*
X00055*
Y02967*
X00051Y02971*
X00055Y02975*
Y02979*
X00051*
X00047Y02975*
X00043Y02979*
X00039*
Y02975*
X00043Y02971*
X00039Y02967*
Y02963*
Y03357D02*
X00043D01*
X00047Y03361*
X00051Y03357*
X00055*
Y03361*
X00051Y03365*
X00055Y03369*
Y03373*
X00051*
X00047Y03369*
X00043Y03373*
X00039*
Y03369*
X00043Y03365*
X00039Y03361*
Y03357*
Y03751D02*
X00043D01*
X00047Y03755*
X00051Y03751*
X00055*
Y03755*
X00051Y03759*
X00055Y03763*
Y03767*
X00051*
X00047Y03763*
X00043Y03767*
X00039*
Y03763*
X00043Y03759*
X00039Y03755*
Y03751*
X00334Y00404D02*
X00338D01*
X00342Y00408*
X00346Y00404*
X0035*
Y00408*
X00346Y00412*
X0035Y00416*
Y0042*
X00346*
X00342Y00416*
X00338Y0042*
X00334*
Y00416*
X00338Y00412*
X00334Y00408*
Y00404*
Y00798D02*
X00338D01*
X00342Y00802*
X00346Y00798*
X0035*
Y00802*
X00346Y00806*
X0035Y0081*
Y00814*
X00346*
X00342Y0081*
X00338Y00814*
X00334*
Y0081*
X00338Y00806*
X00334Y00802*
Y00798*
X00236Y01388D02*
X0024D01*
X00244Y01392*
X00248Y01388*
X00252*
Y01392*
X00248Y01396*
X00252Y014*
Y01404*
X00248*
X00244Y014*
X0024Y01404*
X00236*
Y014*
X0024Y01396*
X00236Y01392*
Y01388*
Y0257D02*
X0024D01*
X00244Y02574*
X00248Y0257*
X00252*
Y02574*
X00248Y02578*
X00252Y02582*
Y02586*
X00248*
X00244Y02582*
X0024Y02586*
X00236*
Y02582*
X0024Y02578*
X00236Y02574*
Y0257*
X00334Y0316D02*
X00338D01*
X00342Y03164*
X00346Y0316*
X0035*
Y03164*
X00346Y03168*
X0035Y03172*
Y03176*
X00346*
X00342Y03172*
X00338Y03176*
X00334*
Y03172*
X00338Y03168*
X00334Y03164*
Y0316*
X00236Y03751D02*
X0024D01*
X00244Y03755*
X00248Y03751*
X00252*
Y03755*
X00248Y03759*
X00252Y03763*
Y03767*
X00248*
X00244Y03763*
X0024Y03767*
X00236*
Y03763*
X0024Y03759*
X00236Y03755*
Y03751*
X00334Y03947D02*
X00338D01*
X00342Y03951*
X00346Y03947*
X0035*
Y03951*
X00346Y03955*
X0035Y03959*
Y03963*
X00346*
X00342Y03959*
X00338Y03963*
X00334*
Y03959*
X00338Y03955*
X00334Y03951*
Y03947*
X00433Y00207D02*
X00437D01*
X00441Y00211*
X00445Y00207*
X00449*
Y00211*
X00445Y00215*
X00449Y00219*
Y00223*
X00445*
X00441Y00219*
X00437Y00223*
X00433*
Y00219*
X00437Y00215*
X00433Y00211*
Y00207*
X00531Y00404D02*
X00535D01*
X00539Y00408*
X00543Y00404*
X00547*
Y00408*
X00543Y00412*
X00547Y00416*
Y0042*
X00543*
X00539Y00416*
X00535Y0042*
X00531*
Y00416*
X00535Y00412*
X00531Y00408*
Y00404*
X00433Y00601D02*
X00437D01*
X00441Y00605*
X00445Y00601*
X00449*
Y00605*
X00445Y00609*
X00449Y00613*
Y00617*
X00445*
X00441Y00613*
X00437Y00617*
X00433*
Y00613*
X00437Y00609*
X00433Y00605*
Y00601*
Y01388D02*
X00437D01*
X00441Y01392*
X00445Y01388*
X00449*
Y01392*
X00445Y01396*
X00449Y014*
Y01404*
X00445*
X00441Y014*
X00437Y01404*
X00433*
Y014*
X00437Y01396*
X00433Y01392*
Y01388*
X00531Y01585D02*
X00535D01*
X00539Y01589*
X00543Y01585*
X00547*
Y01589*
X00543Y01593*
X00547Y01597*
Y01601*
X00543*
X00539Y01597*
X00535Y01601*
X00531*
Y01597*
X00535Y01593*
X00531Y01589*
Y01585*
Y01979D02*
X00535D01*
X00539Y01983*
X00543Y01979*
X00547*
Y01983*
X00543Y01987*
X00547Y01991*
Y01995*
X00543*
X00539Y01991*
X00535Y01995*
X00531*
Y01991*
X00535Y01987*
X00531Y01983*
Y01979*
X00433Y0257D02*
X00437D01*
X00441Y02574*
X00445Y0257*
X00449*
Y02574*
X00445Y02578*
X00449Y02582*
Y02586*
X00445*
X00441Y02582*
X00437Y02586*
X00433*
Y02582*
X00437Y02578*
X00433Y02574*
Y0257*
X00531Y0316D02*
X00535D01*
X00539Y03164*
X00543Y0316*
X00547*
Y03164*
X00543Y03168*
X00547Y03172*
Y03176*
X00543*
X00539Y03172*
X00535Y03176*
X00531*
Y03172*
X00535Y03168*
X00531Y03164*
Y0316*
X00433Y04144D02*
X00437D01*
X00441Y04148*
X00445Y04144*
X00449*
Y04148*
X00445Y04152*
X00449Y04156*
Y0416*
X00445*
X00441Y04156*
X00437Y0416*
X00433*
Y04156*
X00437Y04152*
X00433Y04148*
Y04144*
X0063Y00207D02*
X00634D01*
X00638Y00211*
X00642Y00207*
X00646*
Y00211*
X00642Y00215*
X00646Y00219*
Y00223*
X00642*
X00638Y00219*
X00634Y00223*
X0063*
Y00219*
X00634Y00215*
X0063Y00211*
Y00207*
X00728Y00404D02*
X00732D01*
X00736Y00408*
X0074Y00404*
X00744*
Y00408*
X0074Y00412*
X00744Y00416*
Y0042*
X0074*
X00736Y00416*
X00732Y0042*
X00728*
Y00416*
X00732Y00412*
X00728Y00408*
Y00404*
X0063Y00601D02*
X00634D01*
X00638Y00605*
X00642Y00601*
X00646*
Y00605*
X00642Y00609*
X00646Y00613*
Y00617*
X00642*
X00638Y00613*
X00634Y00617*
X0063*
Y00613*
X00634Y00609*
X0063Y00605*
Y00601*
Y01388D02*
X00634D01*
X00638Y01392*
X00642Y01388*
X00646*
Y01392*
X00642Y01396*
X00646Y014*
Y01404*
X00642*
X00638Y014*
X00634Y01404*
X0063*
Y014*
X00634Y01396*
X0063Y01392*
Y01388*
X00728Y01585D02*
X00732D01*
X00736Y01589*
X0074Y01585*
X00744*
Y01589*
X0074Y01593*
X00744Y01597*
Y01601*
X0074*
X00736Y01597*
X00732Y01601*
X00728*
Y01597*
X00732Y01593*
X00728Y01589*
Y01585*
X0063Y01782D02*
X00634D01*
X00638Y01786*
X00642Y01782*
X00646*
Y01786*
X00642Y0179*
X00646Y01794*
Y01798*
X00642*
X00638Y01794*
X00634Y01798*
X0063*
Y01794*
X00634Y0179*
X0063Y01786*
Y01782*
X00728Y02766D02*
X00732D01*
X00736Y0277*
X0074Y02766*
X00744*
Y0277*
X0074Y02774*
X00744Y02778*
Y02782*
X0074*
X00736Y02778*
X00732Y02782*
X00728*
Y02778*
X00732Y02774*
X00728Y0277*
Y02766*
Y0316D02*
X00732D01*
X00736Y03164*
X0074Y0316*
X00744*
Y03164*
X0074Y03168*
X00744Y03172*
Y03176*
X0074*
X00736Y03172*
X00732Y03176*
X00728*
Y03172*
X00732Y03168*
X00728Y03164*
Y0316*
X0063Y04144D02*
X00634D01*
X00638Y04148*
X00642Y04144*
X00646*
Y04148*
X00642Y04152*
X00646Y04156*
Y0416*
X00642*
X00638Y04156*
X00634Y0416*
X0063*
Y04156*
X00634Y04152*
X0063Y04148*
Y04144*
X00827Y00207D02*
X00831D01*
X00835Y00211*
X00839Y00207*
X00843*
Y00211*
X00839Y00215*
X00843Y00219*
Y00223*
X00839*
X00835Y00219*
X00831Y00223*
X00827*
Y00219*
X00831Y00215*
X00827Y00211*
Y00207*
X00925Y00404D02*
X00929D01*
X00933Y00408*
X00937Y00404*
X00941*
Y00408*
X00937Y00412*
X00941Y00416*
Y0042*
X00937*
X00933Y00416*
X00929Y0042*
X00925*
Y00416*
X00929Y00412*
X00925Y00408*
Y00404*
X00827Y00601D02*
X00831D01*
X00835Y00605*
X00839Y00601*
X00843*
Y00605*
X00839Y00609*
X00843Y00613*
Y00617*
X00839*
X00835Y00613*
X00831Y00617*
X00827*
Y00613*
X00831Y00609*
X00827Y00605*
Y00601*
Y01388D02*
X00831D01*
X00835Y01392*
X00839Y01388*
X00843*
Y01392*
X00839Y01396*
X00843Y014*
Y01404*
X00839*
X00835Y014*
X00831Y01404*
X00827*
Y014*
X00831Y01396*
X00827Y01392*
Y01388*
X00925Y01585D02*
X00929D01*
X00933Y01589*
X00937Y01585*
X00941*
Y01589*
X00937Y01593*
X00941Y01597*
Y01601*
X00937*
X00933Y01597*
X00929Y01601*
X00925*
Y01597*
X00929Y01593*
X00925Y01589*
Y01585*
X00827Y01782D02*
X00831D01*
X00835Y01786*
X00839Y01782*
X00843*
Y01786*
X00839Y0179*
X00843Y01794*
Y01798*
X00839*
X00835Y01794*
X00831Y01798*
X00827*
Y01794*
X00831Y0179*
X00827Y01786*
Y01782*
Y02176D02*
X00831D01*
X00835Y0218*
X00839Y02176*
X00843*
Y0218*
X00839Y02184*
X00843Y02188*
Y02192*
X00839*
X00835Y02188*
X00831Y02192*
X00827*
Y02188*
X00831Y02184*
X00827Y0218*
Y02176*
Y0257D02*
X00831D01*
X00835Y02574*
X00839Y0257*
X00843*
Y02574*
X00839Y02578*
X00843Y02582*
Y02586*
X00839*
X00835Y02582*
X00831Y02586*
X00827*
Y02582*
X00831Y02578*
X00827Y02574*
Y0257*
X00925Y0316D02*
X00929D01*
X00933Y03164*
X00937Y0316*
X00941*
Y03164*
X00937Y03168*
X00941Y03172*
Y03176*
X00937*
X00933Y03172*
X00929Y03176*
X00925*
Y03172*
X00929Y03168*
X00925Y03164*
Y0316*
Y03947D02*
X00929D01*
X00933Y03951*
X00937Y03947*
X00941*
Y03951*
X00937Y03955*
X00941Y03959*
Y03963*
X00937*
X00933Y03959*
X00929Y03963*
X00925*
Y03959*
X00929Y03955*
X00925Y03951*
Y03947*
X00827Y04144D02*
X00831D01*
X00835Y04148*
X00839Y04144*
X00843*
Y04148*
X00839Y04152*
X00843Y04156*
Y0416*
X00839*
X00835Y04156*
X00831Y0416*
X00827*
Y04156*
X00831Y04152*
X00827Y04148*
Y04144*
X01023Y00207D02*
X01027D01*
X01031Y00211*
X01035Y00207*
X01039*
Y00211*
X01035Y00215*
X01039Y00219*
Y00223*
X01035*
X01031Y00219*
X01027Y00223*
X01023*
Y00219*
X01027Y00215*
X01023Y00211*
Y00207*
Y01782D02*
X01027D01*
X01031Y01786*
X01035Y01782*
X01039*
Y01786*
X01035Y0179*
X01039Y01794*
Y01798*
X01035*
X01031Y01794*
X01027Y01798*
X01023*
Y01794*
X01027Y0179*
X01023Y01786*
Y01782*
Y02176D02*
X01027D01*
X01031Y0218*
X01035Y02176*
X01039*
Y0218*
X01035Y02184*
X01039Y02188*
Y02192*
X01035*
X01031Y02188*
X01027Y02192*
X01023*
Y02188*
X01027Y02184*
X01023Y0218*
Y02176*
X01122Y02373D02*
X01126D01*
X0113Y02377*
X01134Y02373*
X01138*
Y02377*
X01134Y02381*
X01138Y02385*
Y02389*
X01134*
X0113Y02385*
X01126Y02389*
X01122*
Y02385*
X01126Y02381*
X01122Y02377*
Y02373*
X01023Y0257D02*
X01027D01*
X01031Y02574*
X01035Y0257*
X01039*
Y02574*
X01035Y02578*
X01039Y02582*
Y02586*
X01035*
X01031Y02582*
X01027Y02586*
X01023*
Y02582*
X01027Y02578*
X01023Y02574*
Y0257*
X01122Y02766D02*
X01126D01*
X0113Y0277*
X01134Y02766*
X01138*
Y0277*
X01134Y02774*
X01138Y02778*
Y02782*
X01134*
X0113Y02778*
X01126Y02782*
X01122*
Y02778*
X01126Y02774*
X01122Y0277*
Y02766*
X01023Y02963D02*
X01027D01*
X01031Y02967*
X01035Y02963*
X01039*
Y02967*
X01035Y02971*
X01039Y02975*
Y02979*
X01035*
X01031Y02975*
X01027Y02979*
X01023*
Y02975*
X01027Y02971*
X01023Y02967*
Y02963*
Y03751D02*
X01027D01*
X01031Y03755*
X01035Y03751*
X01039*
Y03755*
X01035Y03759*
X01039Y03763*
Y03767*
X01035*
X01031Y03763*
X01027Y03767*
X01023*
Y03763*
X01027Y03759*
X01023Y03755*
Y03751*
X01122Y03947D02*
X01126D01*
X0113Y03951*
X01134Y03947*
X01138*
Y03951*
X01134Y03955*
X01138Y03959*
Y03963*
X01134*
X0113Y03959*
X01126Y03963*
X01122*
Y03959*
X01126Y03955*
X01122Y03951*
Y03947*
X01023Y04144D02*
X01027D01*
X01031Y04148*
X01035Y04144*
X01039*
Y04148*
X01035Y04152*
X01039Y04156*
Y0416*
X01035*
X01031Y04156*
X01027Y0416*
X01023*
Y04156*
X01027Y04152*
X01023Y04148*
Y04144*
X0122Y00207D02*
X01224D01*
X01228Y00211*
X01232Y00207*
X01236*
Y00211*
X01232Y00215*
X01236Y00219*
Y00223*
X01232*
X01228Y00219*
X01224Y00223*
X0122*
Y00219*
X01224Y00215*
X0122Y00211*
Y00207*
X01319Y00404D02*
X01323D01*
X01327Y00408*
X01331Y00404*
X01335*
Y00408*
X01331Y00412*
X01335Y00416*
Y0042*
X01331*
X01327Y00416*
X01323Y0042*
X01319*
Y00416*
X01323Y00412*
X01319Y00408*
Y00404*
X0122Y00601D02*
X01224D01*
X01228Y00605*
X01232Y00601*
X01236*
Y00605*
X01232Y00609*
X01236Y00613*
Y00617*
X01232*
X01228Y00613*
X01224Y00617*
X0122*
Y00613*
X01224Y00609*
X0122Y00605*
Y00601*
X01319Y01585D02*
X01323D01*
X01327Y01589*
X01331Y01585*
X01335*
Y01589*
X01331Y01593*
X01335Y01597*
Y01601*
X01331*
X01327Y01597*
X01323Y01601*
X01319*
Y01597*
X01323Y01593*
X01319Y01589*
Y01585*
X0122Y01782D02*
X01224D01*
X01228Y01786*
X01232Y01782*
X01236*
Y01786*
X01232Y0179*
X01236Y01794*
Y01798*
X01232*
X01228Y01794*
X01224Y01798*
X0122*
Y01794*
X01224Y0179*
X0122Y01786*
Y01782*
Y02176D02*
X01224D01*
X01228Y0218*
X01232Y02176*
X01236*
Y0218*
X01232Y02184*
X01236Y02188*
Y02192*
X01232*
X01228Y02188*
X01224Y02192*
X0122*
Y02188*
X01224Y02184*
X0122Y0218*
Y02176*
X01319Y02373D02*
X01323D01*
X01327Y02377*
X01331Y02373*
X01335*
Y02377*
X01331Y02381*
X01335Y02385*
Y02389*
X01331*
X01327Y02385*
X01323Y02389*
X01319*
Y02385*
X01323Y02381*
X01319Y02377*
Y02373*
X0122Y0257D02*
X01224D01*
X01228Y02574*
X01232Y0257*
X01236*
Y02574*
X01232Y02578*
X01236Y02582*
Y02586*
X01232*
X01228Y02582*
X01224Y02586*
X0122*
Y02582*
X01224Y02578*
X0122Y02574*
Y0257*
Y02963D02*
X01224D01*
X01228Y02967*
X01232Y02963*
X01236*
Y02967*
X01232Y02971*
X01236Y02975*
Y02979*
X01232*
X01228Y02975*
X01224Y02979*
X0122*
Y02975*
X01224Y02971*
X0122Y02967*
Y02963*
Y04144D02*
X01224D01*
X01228Y04148*
X01232Y04144*
X01236*
Y04148*
X01232Y04152*
X01236Y04156*
Y0416*
X01232*
X01228Y04156*
X01224Y0416*
X0122*
Y04156*
X01224Y04152*
X0122Y04148*
Y04144*
X01417Y00207D02*
X01421D01*
X01425Y00211*
X01429Y00207*
X01433*
Y00211*
X01429Y00215*
X01433Y00219*
Y00223*
X01429*
X01425Y00219*
X01421Y00223*
X01417*
Y00219*
X01421Y00215*
X01417Y00211*
Y00207*
X01516Y00404D02*
X0152D01*
X01524Y00408*
X01528Y00404*
X01532*
Y00408*
X01528Y00412*
X01532Y00416*
Y0042*
X01528*
X01524Y00416*
X0152Y0042*
X01516*
Y00416*
X0152Y00412*
X01516Y00408*
Y00404*
X01417Y00601D02*
X01421D01*
X01425Y00605*
X01429Y00601*
X01433*
Y00605*
X01429Y00609*
X01433Y00613*
Y00617*
X01429*
X01425Y00613*
X01421Y00617*
X01417*
Y00613*
X01421Y00609*
X01417Y00605*
Y00601*
X01516Y0316D02*
X0152D01*
X01524Y03164*
X01528Y0316*
X01532*
Y03164*
X01528Y03168*
X01532Y03172*
Y03176*
X01528*
X01524Y03172*
X0152Y03176*
X01516*
Y03172*
X0152Y03168*
X01516Y03164*
Y0316*
X01417Y04144D02*
X01421D01*
X01425Y04148*
X01429Y04144*
X01433*
Y04148*
X01429Y04152*
X01433Y04156*
Y0416*
X01429*
X01425Y04156*
X01421Y0416*
X01417*
Y04156*
X01421Y04152*
X01417Y04148*
Y04144*
X01614Y00207D02*
X01618D01*
X01622Y00211*
X01626Y00207*
X0163*
Y00211*
X01626Y00215*
X0163Y00219*
Y00223*
X01626*
X01622Y00219*
X01618Y00223*
X01614*
Y00219*
X01618Y00215*
X01614Y00211*
Y00207*
X01712Y00798D02*
X01716D01*
X0172Y00802*
X01724Y00798*
X01728*
Y00802*
X01724Y00806*
X01728Y0081*
Y00814*
X01724*
X0172Y0081*
X01716Y00814*
X01712*
Y0081*
X01716Y00806*
X01712Y00802*
Y00798*
Y01585D02*
X01716D01*
X0172Y01589*
X01724Y01585*
X01728*
Y01589*
X01724Y01593*
X01728Y01597*
Y01601*
X01724*
X0172Y01597*
X01716Y01601*
X01712*
Y01597*
X01716Y01593*
X01712Y01589*
Y01585*
Y02373D02*
X01716D01*
X0172Y02377*
X01724Y02373*
X01728*
Y02377*
X01724Y02381*
X01728Y02385*
Y02389*
X01724*
X0172Y02385*
X01716Y02389*
X01712*
Y02385*
X01716Y02381*
X01712Y02377*
Y02373*
Y02766D02*
X01716D01*
X0172Y0277*
X01724Y02766*
X01728*
Y0277*
X01724Y02774*
X01728Y02778*
Y02782*
X01724*
X0172Y02778*
X01716Y02782*
X01712*
Y02778*
X01716Y02774*
X01712Y0277*
Y02766*
X01614Y03357D02*
X01618D01*
X01622Y03361*
X01626Y03357*
X0163*
Y03361*
X01626Y03365*
X0163Y03369*
Y03373*
X01626*
X01622Y03369*
X01618Y03373*
X01614*
Y03369*
X01618Y03365*
X01614Y03361*
Y03357*
Y03751D02*
X01618D01*
X01622Y03755*
X01626Y03751*
X0163*
Y03755*
X01626Y03759*
X0163Y03763*
Y03767*
X01626*
X01622Y03763*
X01618Y03767*
X01614*
Y03763*
X01618Y03759*
X01614Y03755*
Y03751*
X01712Y03947D02*
X01716D01*
X0172Y03951*
X01724Y03947*
X01728*
Y03951*
X01724Y03955*
X01728Y03959*
Y03963*
X01724*
X0172Y03959*
X01716Y03963*
X01712*
Y03959*
X01716Y03955*
X01712Y03951*
Y03947*
X01614Y04144D02*
X01618D01*
X01622Y04148*
X01626Y04144*
X0163*
Y04148*
X01626Y04152*
X0163Y04156*
Y0416*
X01626*
X01622Y04156*
X01618Y0416*
X01614*
Y04156*
X01618Y04152*
X01614Y04148*
Y04144*
X01811Y00207D02*
X01815D01*
X01819Y00211*
X01823Y00207*
X01827*
Y00211*
X01823Y00215*
X01827Y00219*
Y00223*
X01823*
X01819Y00219*
X01815Y00223*
X01811*
Y00219*
X01815Y00215*
X01811Y00211*
Y00207*
X01909Y00404D02*
X01913D01*
X01917Y00408*
X01921Y00404*
X01925*
Y00408*
X01921Y00412*
X01925Y00416*
Y0042*
X01921*
X01917Y00416*
X01913Y0042*
X01909*
Y00416*
X01913Y00412*
X01909Y00408*
Y00404*
X01811Y00601D02*
X01815D01*
X01819Y00605*
X01823Y00601*
X01827*
Y00605*
X01823Y00609*
X01827Y00613*
Y00617*
X01823*
X01819Y00613*
X01815Y00617*
X01811*
Y00613*
X01815Y00609*
X01811Y00605*
Y00601*
X01909Y00798D02*
X01913D01*
X01917Y00802*
X01921Y00798*
X01925*
Y00802*
X01921Y00806*
X01925Y0081*
Y00814*
X01921*
X01917Y0081*
X01913Y00814*
X01909*
Y0081*
X01913Y00806*
X01909Y00802*
Y00798*
Y01192D02*
X01913D01*
X01917Y01196*
X01921Y01192*
X01925*
Y01196*
X01921Y012*
X01925Y01204*
Y01208*
X01921*
X01917Y01204*
X01913Y01208*
X01909*
Y01204*
X01913Y012*
X01909Y01196*
Y01192*
Y01585D02*
X01913D01*
X01917Y01589*
X01921Y01585*
X01925*
Y01589*
X01921Y01593*
X01925Y01597*
Y01601*
X01921*
X01917Y01597*
X01913Y01601*
X01909*
Y01597*
X01913Y01593*
X01909Y01589*
Y01585*
X01811Y01782D02*
X01815D01*
X01819Y01786*
X01823Y01782*
X01827*
Y01786*
X01823Y0179*
X01827Y01794*
Y01798*
X01823*
X01819Y01794*
X01815Y01798*
X01811*
Y01794*
X01815Y0179*
X01811Y01786*
Y01782*
Y04144D02*
X01815D01*
X01819Y04148*
X01823Y04144*
X01827*
Y04148*
X01823Y04152*
X01827Y04156*
Y0416*
X01823*
X01819Y04156*
X01815Y0416*
X01811*
Y04156*
X01815Y04152*
X01811Y04148*
Y04144*
X02008Y00207D02*
X02012D01*
X02016Y00211*
X0202Y00207*
X02024*
Y00211*
X0202Y00215*
X02024Y00219*
Y00223*
X0202*
X02016Y00219*
X02012Y00223*
X02008*
Y00219*
X02012Y00215*
X02008Y00211*
Y00207*
X02106Y00404D02*
X0211D01*
X02114Y00408*
X02118Y00404*
X02122*
Y00408*
X02118Y00412*
X02122Y00416*
Y0042*
X02118*
X02114Y00416*
X0211Y0042*
X02106*
Y00416*
X0211Y00412*
X02106Y00408*
Y00404*
X02008Y00601D02*
X02012D01*
X02016Y00605*
X0202Y00601*
X02024*
Y00605*
X0202Y00609*
X02024Y00613*
Y00617*
X0202*
X02016Y00613*
X02012Y00617*
X02008*
Y00613*
X02012Y00609*
X02008Y00605*
Y00601*
X02106Y00798D02*
X0211D01*
X02114Y00802*
X02118Y00798*
X02122*
Y00802*
X02118Y00806*
X02122Y0081*
Y00814*
X02118*
X02114Y0081*
X0211Y00814*
X02106*
Y0081*
X0211Y00806*
X02106Y00802*
Y00798*
Y01192D02*
X0211D01*
X02114Y01196*
X02118Y01192*
X02122*
Y01196*
X02118Y012*
X02122Y01204*
Y01208*
X02118*
X02114Y01204*
X0211Y01208*
X02106*
Y01204*
X0211Y012*
X02106Y01196*
Y01192*
X02008Y01388D02*
X02012D01*
X02016Y01392*
X0202Y01388*
X02024*
Y01392*
X0202Y01396*
X02024Y014*
Y01404*
X0202*
X02016Y014*
X02012Y01404*
X02008*
Y014*
X02012Y01396*
X02008Y01392*
Y01388*
X02106Y01585D02*
X0211D01*
X02114Y01589*
X02118Y01585*
X02122*
Y01589*
X02118Y01593*
X02122Y01597*
Y01601*
X02118*
X02114Y01597*
X0211Y01601*
X02106*
Y01597*
X0211Y01593*
X02106Y01589*
Y01585*
X02008Y01782D02*
X02012D01*
X02016Y01786*
X0202Y01782*
X02024*
Y01786*
X0202Y0179*
X02024Y01794*
Y01798*
X0202*
X02016Y01794*
X02012Y01798*
X02008*
Y01794*
X02012Y0179*
X02008Y01786*
Y01782*
Y02176D02*
X02012D01*
X02016Y0218*
X0202Y02176*
X02024*
Y0218*
X0202Y02184*
X02024Y02188*
Y02192*
X0202*
X02016Y02188*
X02012Y02192*
X02008*
Y02188*
X02012Y02184*
X02008Y0218*
Y02176*
X02106Y02373D02*
X0211D01*
X02114Y02377*
X02118Y02373*
X02122*
Y02377*
X02118Y02381*
X02122Y02385*
Y02389*
X02118*
X02114Y02385*
X0211Y02389*
X02106*
Y02385*
X0211Y02381*
X02106Y02377*
Y02373*
Y02766D02*
X0211D01*
X02114Y0277*
X02118Y02766*
X02122*
Y0277*
X02118Y02774*
X02122Y02778*
Y02782*
X02118*
X02114Y02778*
X0211Y02782*
X02106*
Y02778*
X0211Y02774*
X02106Y0277*
Y02766*
X02008Y02963D02*
X02012D01*
X02016Y02967*
X0202Y02963*
X02024*
Y02967*
X0202Y02971*
X02024Y02975*
Y02979*
X0202*
X02016Y02975*
X02012Y02979*
X02008*
Y02975*
X02012Y02971*
X02008Y02967*
Y02963*
X02106Y03554D02*
X0211D01*
X02114Y03558*
X02118Y03554*
X02122*
Y03558*
X02118Y03562*
X02122Y03566*
Y0357*
X02118*
X02114Y03566*
X0211Y0357*
X02106*
Y03566*
X0211Y03562*
X02106Y03558*
Y03554*
X02008Y04144D02*
X02012D01*
X02016Y04148*
X0202Y04144*
X02024*
Y04148*
X0202Y04152*
X02024Y04156*
Y0416*
X0202*
X02016Y04156*
X02012Y0416*
X02008*
Y04156*
X02012Y04152*
X02008Y04148*
Y04144*
X02205Y00207D02*
X02209D01*
X02213Y00211*
X02217Y00207*
X02221*
Y00211*
X02217Y00215*
X02221Y00219*
Y00223*
X02217*
X02213Y00219*
X02209Y00223*
X02205*
Y00219*
X02209Y00215*
X02205Y00211*
Y00207*
X02303Y00404D02*
X02307D01*
X02311Y00408*
X02315Y00404*
X02319*
Y00408*
X02315Y00412*
X02319Y00416*
Y0042*
X02315*
X02311Y00416*
X02307Y0042*
X02303*
Y00416*
X02307Y00412*
X02303Y00408*
Y00404*
X02205Y00601D02*
X02209D01*
X02213Y00605*
X02217Y00601*
X02221*
Y00605*
X02217Y00609*
X02221Y00613*
Y00617*
X02217*
X02213Y00613*
X02209Y00617*
X02205*
Y00613*
X02209Y00609*
X02205Y00605*
Y00601*
X02303Y01192D02*
X02307D01*
X02311Y01196*
X02315Y01192*
X02319*
Y01196*
X02315Y012*
X02319Y01204*
Y01208*
X02315*
X02311Y01204*
X02307Y01208*
X02303*
Y01204*
X02307Y012*
X02303Y01196*
Y01192*
X02205Y01388D02*
X02209D01*
X02213Y01392*
X02217Y01388*
X02221*
Y01392*
X02217Y01396*
X02221Y014*
Y01404*
X02217*
X02213Y014*
X02209Y01404*
X02205*
Y014*
X02209Y01396*
X02205Y01392*
Y01388*
X02303Y01585D02*
X02307D01*
X02311Y01589*
X02315Y01585*
X02319*
Y01589*
X02315Y01593*
X02319Y01597*
Y01601*
X02315*
X02311Y01597*
X02307Y01601*
X02303*
Y01597*
X02307Y01593*
X02303Y01589*
Y01585*
X02205Y01782D02*
X02209D01*
X02213Y01786*
X02217Y01782*
X02221*
Y01786*
X02217Y0179*
X02221Y01794*
Y01798*
X02217*
X02213Y01794*
X02209Y01798*
X02205*
Y01794*
X02209Y0179*
X02205Y01786*
Y01782*
Y0257D02*
X02209D01*
X02213Y02574*
X02217Y0257*
X02221*
Y02574*
X02217Y02578*
X02221Y02582*
Y02586*
X02217*
X02213Y02582*
X02209Y02586*
X02205*
Y02582*
X02209Y02578*
X02205Y02574*
Y0257*
X02303Y0316D02*
X02307D01*
X02311Y03164*
X02315Y0316*
X02319*
Y03164*
X02315Y03168*
X02319Y03172*
Y03176*
X02315*
X02311Y03172*
X02307Y03176*
X02303*
Y03172*
X02307Y03168*
X02303Y03164*
Y0316*
Y03947D02*
X02307D01*
X02311Y03951*
X02315Y03947*
X02319*
Y03951*
X02315Y03955*
X02319Y03959*
Y03963*
X02315*
X02311Y03959*
X02307Y03963*
X02303*
Y03959*
X02307Y03955*
X02303Y03951*
Y03947*
X02205Y04144D02*
X02209D01*
X02213Y04148*
X02217Y04144*
X02221*
Y04148*
X02217Y04152*
X02221Y04156*
Y0416*
X02217*
X02213Y04156*
X02209Y0416*
X02205*
Y04156*
X02209Y04152*
X02205Y04148*
Y04144*
X02401Y00207D02*
X02405D01*
X02409Y00211*
X02413Y00207*
X02417*
Y00211*
X02413Y00215*
X02417Y00219*
Y00223*
X02413*
X02409Y00219*
X02405Y00223*
X02401*
Y00219*
X02405Y00215*
X02401Y00211*
Y00207*
X025Y01979D02*
X02504D01*
X02508Y01983*
X02512Y01979*
X02516*
Y01983*
X02512Y01987*
X02516Y01991*
Y01995*
X02512*
X02508Y01991*
X02504Y01995*
X025*
Y01991*
X02504Y01987*
X025Y01983*
Y01979*
X02401Y0257D02*
X02405D01*
X02409Y02574*
X02413Y0257*
X02417*
Y02574*
X02413Y02578*
X02417Y02582*
Y02586*
X02413*
X02409Y02582*
X02405Y02586*
X02401*
Y02582*
X02405Y02578*
X02401Y02574*
Y0257*
X025Y02766D02*
X02504D01*
X02508Y0277*
X02512Y02766*
X02516*
Y0277*
X02512Y02774*
X02516Y02778*
Y02782*
X02512*
X02508Y02778*
X02504Y02782*
X025*
Y02778*
X02504Y02774*
X025Y0277*
Y02766*
X02401Y02963D02*
X02405D01*
X02409Y02967*
X02413Y02963*
X02417*
Y02967*
X02413Y02971*
X02417Y02975*
Y02979*
X02413*
X02409Y02975*
X02405Y02979*
X02401*
Y02975*
X02405Y02971*
X02401Y02967*
Y02963*
Y04144D02*
X02405D01*
X02409Y04148*
X02413Y04144*
X02417*
Y04148*
X02413Y04152*
X02417Y04156*
Y0416*
X02413*
X02409Y04156*
X02405Y0416*
X02401*
Y04156*
X02405Y04152*
X02401Y04148*
Y04144*
X02598Y00207D02*
X02602D01*
X02606Y00211*
X0261Y00207*
X02614*
Y00211*
X0261Y00215*
X02614Y00219*
Y00223*
X0261*
X02606Y00219*
X02602Y00223*
X02598*
Y00219*
X02602Y00215*
X02598Y00211*
Y00207*
X02697Y01979D02*
X02701D01*
X02705Y01983*
X02709Y01979*
X02713*
Y01983*
X02709Y01987*
X02713Y01991*
Y01995*
X02709*
X02705Y01991*
X02701Y01995*
X02697*
Y01991*
X02701Y01987*
X02697Y01983*
Y01979*
X02598Y02176D02*
X02602D01*
X02606Y0218*
X0261Y02176*
X02614*
Y0218*
X0261Y02184*
X02614Y02188*
Y02192*
X0261*
X02606Y02188*
X02602Y02192*
X02598*
Y02188*
X02602Y02184*
X02598Y0218*
Y02176*
Y0257D02*
X02602D01*
X02606Y02574*
X0261Y0257*
X02614*
Y02574*
X0261Y02578*
X02614Y02582*
Y02586*
X0261*
X02606Y02582*
X02602Y02586*
X02598*
Y02582*
X02602Y02578*
X02598Y02574*
Y0257*
X02697Y02766D02*
X02701D01*
X02705Y0277*
X02709Y02766*
X02713*
Y0277*
X02709Y02774*
X02713Y02778*
Y02782*
X02709*
X02705Y02778*
X02701Y02782*
X02697*
Y02778*
X02701Y02774*
X02697Y0277*
Y02766*
X02598Y02963D02*
X02602D01*
X02606Y02967*
X0261Y02963*
X02614*
Y02967*
X0261Y02971*
X02614Y02975*
Y02979*
X0261*
X02606Y02975*
X02602Y02979*
X02598*
Y02975*
X02602Y02971*
X02598Y02967*
Y02963*
X02697Y0316D02*
X02701D01*
X02705Y03164*
X02709Y0316*
X02713*
Y03164*
X02709Y03168*
X02713Y03172*
Y03176*
X02709*
X02705Y03172*
X02701Y03176*
X02697*
Y03172*
X02701Y03168*
X02697Y03164*
Y0316*
Y03947D02*
X02701D01*
X02705Y03951*
X02709Y03947*
X02713*
Y03951*
X02709Y03955*
X02713Y03959*
Y03963*
X02709*
X02705Y03959*
X02701Y03963*
X02697*
Y03959*
X02701Y03955*
X02697Y03951*
Y03947*
X02598Y04144D02*
X02602D01*
X02606Y04148*
X0261Y04144*
X02614*
Y04148*
X0261Y04152*
X02614Y04156*
Y0416*
X0261*
X02606Y04156*
X02602Y0416*
X02598*
Y04156*
X02602Y04152*
X02598Y04148*
Y04144*
X02894Y00404D02*
X02898D01*
X02902Y00408*
X02906Y00404*
X0291*
Y00408*
X02906Y00412*
X0291Y00416*
Y0042*
X02906*
X02902Y00416*
X02898Y0042*
X02894*
Y00416*
X02898Y00412*
X02894Y00408*
Y00404*
Y01979D02*
X02898D01*
X02902Y01983*
X02906Y01979*
X0291*
Y01983*
X02906Y01987*
X0291Y01991*
Y01995*
X02906*
X02902Y01991*
X02898Y01995*
X02894*
Y01991*
X02898Y01987*
X02894Y01983*
Y01979*
Y02373D02*
X02898D01*
X02902Y02377*
X02906Y02373*
X0291*
Y02377*
X02906Y02381*
X0291Y02385*
Y02389*
X02906*
X02902Y02385*
X02898Y02389*
X02894*
Y02385*
X02898Y02381*
X02894Y02377*
Y02373*
X02795Y0257D02*
X02799D01*
X02803Y02574*
X02807Y0257*
X02811*
Y02574*
X02807Y02578*
X02811Y02582*
Y02586*
X02807*
X02803Y02582*
X02799Y02586*
X02795*
Y02582*
X02799Y02578*
X02795Y02574*
Y0257*
X02894Y02766D02*
X02898D01*
X02902Y0277*
X02906Y02766*
X0291*
Y0277*
X02906Y02774*
X0291Y02778*
Y02782*
X02906*
X02902Y02778*
X02898Y02782*
X02894*
Y02778*
X02898Y02774*
X02894Y0277*
Y02766*
X02795Y02963D02*
X02799D01*
X02803Y02967*
X02807Y02963*
X02811*
Y02967*
X02807Y02971*
X02811Y02975*
Y02979*
X02807*
X02803Y02975*
X02799Y02979*
X02795*
Y02975*
X02799Y02971*
X02795Y02967*
Y02963*
X02894Y0316D02*
X02898D01*
X02902Y03164*
X02906Y0316*
X0291*
Y03164*
X02906Y03168*
X0291Y03172*
Y03176*
X02906*
X02902Y03172*
X02898Y03176*
X02894*
Y03172*
X02898Y03168*
X02894Y03164*
Y0316*
Y03554D02*
X02898D01*
X02902Y03558*
X02906Y03554*
X0291*
Y03558*
X02906Y03562*
X0291Y03566*
Y0357*
X02906*
X02902Y03566*
X02898Y0357*
X02894*
Y03566*
X02898Y03562*
X02894Y03558*
Y03554*
X02795Y03751D02*
X02799D01*
X02803Y03755*
X02807Y03751*
X02811*
Y03755*
X02807Y03759*
X02811Y03763*
Y03767*
X02807*
X02803Y03763*
X02799Y03767*
X02795*
Y03763*
X02799Y03759*
X02795Y03755*
Y03751*
X02894Y03947D02*
X02898D01*
X02902Y03951*
X02906Y03947*
X0291*
Y03951*
X02906Y03955*
X0291Y03959*
Y03963*
X02906*
X02902Y03959*
X02898Y03963*
X02894*
Y03959*
X02898Y03955*
X02894Y03951*
Y03947*
X00563Y00835D02*
X00567D01*
X00571Y00839*
X00575Y00835*
X00579*
Y00839*
X00575Y00843*
X00579Y00847*
Y00851*
X00575*
X00571Y00847*
X00567Y00851*
X00563*
Y00847*
X00567Y00843*
X00563Y00839*
Y00835*
X00464Y00822D02*
X00468D01*
X00472Y00826*
X00476Y00822*
X0048*
Y00826*
X00476Y0083*
X0048Y00834*
Y00838*
X00476*
X00472Y00834*
X00468Y00838*
X00464*
Y00834*
X00468Y0083*
X00464Y00826*
Y00822*
X00512Y00907D02*
X00516D01*
X0052Y00911*
X00524Y00907*
X00528*
Y00911*
X00524Y00915*
X00528Y00919*
Y00923*
X00524*
X0052Y00919*
X00516Y00923*
X00512*
Y00919*
X00516Y00915*
X00512Y00911*
Y00907*
G54D94*
X02271Y03768D02*
D01*
X02271Y03768*
X02271Y03769*
X02271Y03769*
X02271Y0377*
X02271Y0377*
X02271Y03771*
X0227Y03771*
X0227Y03772*
X0227Y03772*
X02269Y03773*
X02269Y03773*
X02269Y03774*
X02268Y03774*
X02268Y03774*
X02267Y03775*
X02267Y03775*
X02266Y03775*
X02266Y03775*
X02265Y03775*
X02265Y03775*
X02264Y03776*
X02264Y03776*
X02263*
X02262Y03776*
X02262Y03775*
X02261Y03775*
X02261Y03775*
X0226Y03775*
X0226Y03775*
X02259Y03775*
X02259Y03774*
X02258Y03774*
X02258Y03774*
X02258Y03773*
X02257Y03773*
X02257Y03772*
X02256Y03772*
X02256Y03771*
X02256Y03771*
X02256Y0377*
X02256Y0377*
X02255Y03769*
X02255Y03769*
X02255Y03768*
X02255Y03768*
X02255Y03767*
X02255Y03766*
X02255Y03766*
X02256Y03765*
X02256Y03765*
X02256Y03764*
X02256Y03764*
X02256Y03763*
X02257Y03763*
X02257Y03762*
X02258Y03762*
X02258Y03762*
X02258Y03761*
X02259Y03761*
X02259Y03761*
X0226Y0376*
X0226Y0376*
X02261Y0376*
X02261Y0376*
X02262Y0376*
X02262Y0376*
X02263Y0376*
X02264*
X02264Y0376*
X02265Y0376*
X02265Y0376*
X02266Y0376*
X02266Y0376*
X02267Y0376*
X02267Y03761*
X02268Y03761*
X02268Y03761*
X02269Y03762*
X02269Y03762*
X02269Y03762*
X0227Y03763*
X0227Y03763*
X0227Y03764*
X02271Y03764*
X02271Y03765*
X02271Y03765*
X02271Y03766*
X02271Y03766*
X02271Y03767*
X02271Y03768*
X02133Y03964D02*
D01*
X02133Y03965*
X02133Y03966*
X02133Y03966*
X02133Y03967*
X02133Y03967*
X02133Y03968*
X02133Y03968*
X02132Y03969*
X02132Y03969*
X02132Y0397*
X02131Y0397*
X02131Y0397*
X0213Y03971*
X0213Y03971*
X02129Y03971*
X02129Y03972*
X02128Y03972*
X02128Y03972*
X02127Y03972*
X02127Y03972*
X02126Y03972*
X02126Y03972*
X02125*
X02125Y03972*
X02124Y03972*
X02124Y03972*
X02123Y03972*
X02122Y03972*
X02122Y03972*
X02121Y03971*
X02121Y03971*
X02121Y03971*
X0212Y0397*
X0212Y0397*
X02119Y0397*
X02119Y03969*
X02119Y03969*
X02118Y03968*
X02118Y03968*
X02118Y03967*
X02118Y03967*
X02118Y03966*
X02118Y03966*
X02117Y03965*
X02117Y03964*
X02117Y03964*
X02118Y03963*
X02118Y03963*
X02118Y03962*
X02118Y03962*
X02118Y03961*
X02118Y03961*
X02119Y0396*
X02119Y0396*
X02119Y03959*
X0212Y03959*
X0212Y03958*
X02121Y03958*
X02121Y03958*
X02121Y03958*
X02122Y03957*
X02122Y03957*
X02123Y03957*
X02124Y03957*
X02124Y03957*
X02125Y03956*
X02125Y03956*
X02126*
X02126Y03956*
X02127Y03957*
X02127Y03957*
X02128Y03957*
X02128Y03957*
X02129Y03957*
X02129Y03958*
X0213Y03958*
X0213Y03958*
X02131Y03958*
X02131Y03959*
X02132Y03959*
X02132Y0396*
X02132Y0396*
X02133Y03961*
X02133Y03961*
X02133Y03962*
X02133Y03962*
X02133Y03963*
X02133Y03963*
X02133Y03964*
X02133Y03964*
X01996Y03768D02*
D01*
X01996Y03768*
X01996Y03769*
X01996Y03769*
X01995Y0377*
X01995Y0377*
X01995Y03771*
X01995Y03771*
X01994Y03772*
X01994Y03772*
X01994Y03773*
X01993Y03773*
X01993Y03774*
X01993Y03774*
X01992Y03774*
X01992Y03775*
X01991Y03775*
X01991Y03775*
X0199Y03775*
X0199Y03775*
X01989Y03775*
X01989Y03776*
X01988Y03776*
X01987*
X01987Y03776*
X01986Y03775*
X01986Y03775*
X01985Y03775*
X01985Y03775*
X01984Y03775*
X01984Y03775*
X01983Y03774*
X01983Y03774*
X01982Y03774*
X01982Y03773*
X01982Y03773*
X01981Y03772*
X01981Y03772*
X01981Y03771*
X0198Y03771*
X0198Y0377*
X0198Y0377*
X0198Y03769*
X0198Y03769*
X0198Y03768*
X0198Y03768*
X0198Y03767*
X0198Y03766*
X0198Y03766*
X0198Y03765*
X0198Y03765*
X0198Y03764*
X01981Y03764*
X01981Y03763*
X01981Y03763*
X01982Y03762*
X01982Y03762*
X01982Y03762*
X01983Y03761*
X01983Y03761*
X01984Y03761*
X01984Y0376*
X01985Y0376*
X01985Y0376*
X01986Y0376*
X01986Y0376*
X01987Y0376*
X01987Y0376*
X01988*
X01989Y0376*
X01989Y0376*
X0199Y0376*
X0199Y0376*
X01991Y0376*
X01991Y0376*
X01992Y03761*
X01992Y03761*
X01993Y03761*
X01993Y03762*
X01993Y03762*
X01994Y03762*
X01994Y03763*
X01994Y03763*
X01995Y03764*
X01995Y03764*
X01995Y03765*
X01995Y03765*
X01996Y03766*
X01996Y03766*
X01996Y03767*
X01996Y03768*
X01858Y03964D02*
D01*
X01858Y03965*
X01858Y03966*
X01858Y03966*
X01858Y03967*
X01857Y03967*
X01857Y03968*
X01857Y03968*
X01857Y03969*
X01856Y03969*
X01856Y0397*
X01856Y0397*
X01855Y0397*
X01855Y03971*
X01854Y03971*
X01854Y03971*
X01853Y03972*
X01853Y03972*
X01852Y03972*
X01852Y03972*
X01851Y03972*
X01851Y03972*
X0185Y03972*
X0185*
X01849Y03972*
X01849Y03972*
X01848Y03972*
X01847Y03972*
X01847Y03972*
X01846Y03972*
X01846Y03971*
X01845Y03971*
X01845Y03971*
X01845Y0397*
X01844Y0397*
X01844Y0397*
X01843Y03969*
X01843Y03969*
X01843Y03968*
X01843Y03968*
X01842Y03967*
X01842Y03967*
X01842Y03966*
X01842Y03966*
X01842Y03965*
X01842Y03964*
X01842Y03964*
X01842Y03963*
X01842Y03963*
X01842Y03962*
X01842Y03962*
X01843Y03961*
X01843Y03961*
X01843Y0396*
X01843Y0396*
X01844Y03959*
X01844Y03959*
X01845Y03958*
X01845Y03958*
X01845Y03958*
X01846Y03958*
X01846Y03957*
X01847Y03957*
X01847Y03957*
X01848Y03957*
X01849Y03957*
X01849Y03956*
X0185Y03956*
X0185*
X01851Y03956*
X01851Y03957*
X01852Y03957*
X01852Y03957*
X01853Y03957*
X01853Y03957*
X01854Y03958*
X01854Y03958*
X01855Y03958*
X01855Y03958*
X01856Y03959*
X01856Y03959*
X01856Y0396*
X01857Y0396*
X01857Y03961*
X01857Y03961*
X01857Y03962*
X01858Y03962*
X01858Y03963*
X01858Y03963*
X01858Y03964*
X01858Y03964*
X02409D02*
D01*
X02409Y03965*
X02409Y03966*
X02409Y03966*
X02409Y03967*
X02409Y03967*
X02408Y03968*
X02408Y03968*
X02408Y03969*
X02408Y03969*
X02407Y0397*
X02407Y0397*
X02406Y0397*
X02406Y03971*
X02406Y03971*
X02405Y03971*
X02405Y03972*
X02404Y03972*
X02404Y03972*
X02403Y03972*
X02402Y03972*
X02402Y03972*
X02401Y03972*
X02401*
X024Y03972*
X024Y03972*
X02399Y03972*
X02399Y03972*
X02398Y03972*
X02398Y03972*
X02397Y03971*
X02397Y03971*
X02396Y03971*
X02396Y0397*
X02395Y0397*
X02395Y0397*
X02395Y03969*
X02394Y03969*
X02394Y03968*
X02394Y03968*
X02394Y03967*
X02393Y03967*
X02393Y03966*
X02393Y03966*
X02393Y03965*
X02393Y03964*
X02393Y03964*
X02393Y03963*
X02393Y03963*
X02393Y03962*
X02394Y03962*
X02394Y03961*
X02394Y03961*
X02394Y0396*
X02395Y0396*
X02395Y03959*
X02395Y03959*
X02396Y03958*
X02396Y03958*
X02397Y03958*
X02397Y03958*
X02398Y03957*
X02398Y03957*
X02399Y03957*
X02399Y03957*
X024Y03957*
X024Y03956*
X02401Y03956*
X02401*
X02402Y03956*
X02402Y03957*
X02403Y03957*
X02404Y03957*
X02404Y03957*
X02405Y03957*
X02405Y03958*
X02406Y03958*
X02406Y03958*
X02406Y03958*
X02407Y03959*
X02407Y03959*
X02408Y0396*
X02408Y0396*
X02408Y03961*
X02408Y03961*
X02409Y03962*
X02409Y03962*
X02409Y03963*
X02409Y03963*
X02409Y03964*
X02409Y03964*
X02547Y03768D02*
D01*
X02547Y03768*
X02547Y03769*
X02547Y03769*
X02547Y0377*
X02546Y0377*
X02546Y03771*
X02546Y03771*
X02546Y03772*
X02545Y03772*
X02545Y03773*
X02545Y03773*
X02544Y03774*
X02544Y03774*
X02543Y03774*
X02543Y03775*
X02542Y03775*
X02542Y03775*
X02541Y03775*
X02541Y03775*
X0254Y03775*
X0254Y03776*
X02539Y03776*
X02539*
X02538Y03776*
X02537Y03775*
X02537Y03775*
X02536Y03775*
X02536Y03775*
X02535Y03775*
X02535Y03775*
X02534Y03774*
X02534Y03774*
X02534Y03774*
X02533Y03773*
X02533Y03773*
X02532Y03772*
X02532Y03772*
X02532Y03771*
X02532Y03771*
X02531Y0377*
X02531Y0377*
X02531Y03769*
X02531Y03769*
X02531Y03768*
X02531Y03768*
X02531Y03767*
X02531Y03766*
X02531Y03766*
X02531Y03765*
X02531Y03765*
X02532Y03764*
X02532Y03764*
X02532Y03763*
X02532Y03763*
X02533Y03762*
X02533Y03762*
X02534Y03762*
X02534Y03761*
X02534Y03761*
X02535Y03761*
X02535Y0376*
X02536Y0376*
X02536Y0376*
X02537Y0376*
X02537Y0376*
X02538Y0376*
X02539Y0376*
X02539*
X0254Y0376*
X0254Y0376*
X02541Y0376*
X02541Y0376*
X02542Y0376*
X02542Y0376*
X02543Y03761*
X02543Y03761*
X02544Y03761*
X02544Y03762*
X02545Y03762*
X02545Y03762*
X02545Y03763*
X02546Y03763*
X02546Y03764*
X02546Y03764*
X02546Y03765*
X02547Y03765*
X02547Y03766*
X02547Y03766*
X02547Y03767*
X02547Y03768*
X0172D02*
D01*
X0172Y03768*
X0172Y03769*
X0172Y03769*
X0172Y0377*
X0172Y0377*
X01719Y03771*
X01719Y03771*
X01719Y03772*
X01719Y03772*
X01718Y03773*
X01718Y03773*
X01717Y03774*
X01717Y03774*
X01717Y03774*
X01716Y03775*
X01716Y03775*
X01715Y03775*
X01715Y03775*
X01714Y03775*
X01713Y03775*
X01713Y03776*
X01712Y03776*
X01712*
X01711Y03776*
X01711Y03775*
X0171Y03775*
X0171Y03775*
X01709Y03775*
X01709Y03775*
X01708Y03775*
X01708Y03774*
X01707Y03774*
X01707Y03774*
X01706Y03773*
X01706Y03773*
X01706Y03772*
X01705Y03772*
X01705Y03771*
X01705Y03771*
X01705Y0377*
X01704Y0377*
X01704Y03769*
X01704Y03769*
X01704Y03768*
X01704Y03768*
X01704Y03767*
X01704Y03766*
X01704Y03766*
X01704Y03765*
X01705Y03765*
X01705Y03764*
X01705Y03764*
X01705Y03763*
X01706Y03763*
X01706Y03762*
X01706Y03762*
X01707Y03762*
X01707Y03761*
X01708Y03761*
X01708Y03761*
X01709Y0376*
X01709Y0376*
X0171Y0376*
X0171Y0376*
X01711Y0376*
X01711Y0376*
X01712Y0376*
X01712*
X01713Y0376*
X01713Y0376*
X01714Y0376*
X01715Y0376*
X01715Y0376*
X01716Y0376*
X01716Y03761*
X01717Y03761*
X01717Y03761*
X01717Y03762*
X01718Y03762*
X01718Y03762*
X01719Y03763*
X01719Y03763*
X01719Y03764*
X01719Y03764*
X0172Y03765*
X0172Y03765*
X0172Y03766*
X0172Y03766*
X0172Y03767*
X0172Y03768*
X01582Y03964D02*
D01*
X01582Y03965*
X01582Y03966*
X01582Y03966*
X01582Y03967*
X01582Y03967*
X01582Y03968*
X01581Y03968*
X01581Y03969*
X01581Y03969*
X0158Y0397*
X0158Y0397*
X0158Y0397*
X01579Y03971*
X01579Y03971*
X01578Y03971*
X01578Y03972*
X01577Y03972*
X01577Y03972*
X01576Y03972*
X01576Y03972*
X01575Y03972*
X01575Y03972*
X01574*
X01573Y03972*
X01573Y03972*
X01572Y03972*
X01572Y03972*
X01571Y03972*
X01571Y03972*
X0157Y03971*
X0157Y03971*
X01569Y03971*
X01569Y0397*
X01569Y0397*
X01568Y0397*
X01568Y03969*
X01568Y03969*
X01567Y03968*
X01567Y03968*
X01567Y03967*
X01567Y03967*
X01566Y03966*
X01566Y03966*
X01566Y03965*
X01566Y03964*
X01566Y03964*
X01566Y03963*
X01566Y03963*
X01567Y03962*
X01567Y03962*
X01567Y03961*
X01567Y03961*
X01568Y0396*
X01568Y0396*
X01568Y03959*
X01569Y03959*
X01569Y03958*
X01569Y03958*
X0157Y03958*
X0157Y03958*
X01571Y03957*
X01571Y03957*
X01572Y03957*
X01572Y03957*
X01573Y03957*
X01573Y03956*
X01574Y03956*
X01575*
X01575Y03956*
X01576Y03957*
X01576Y03957*
X01577Y03957*
X01577Y03957*
X01578Y03957*
X01578Y03958*
X01579Y03958*
X01579Y03958*
X0158Y03958*
X0158Y03959*
X0158Y03959*
X01581Y0396*
X01581Y0396*
X01581Y03961*
X01582Y03961*
X01582Y03962*
X01582Y03962*
X01582Y03963*
X01582Y03963*
X01582Y03964*
X01582Y03964*
X01445Y03768D02*
D01*
X01444Y03768*
X01444Y03769*
X01444Y03769*
X01444Y0377*
X01444Y0377*
X01444Y03771*
X01444Y03771*
X01443Y03772*
X01443Y03772*
X01443Y03773*
X01442Y03773*
X01442Y03774*
X01441Y03774*
X01441Y03774*
X01441Y03775*
X0144Y03775*
X01439Y03775*
X01439Y03775*
X01438Y03775*
X01438Y03775*
X01437Y03776*
X01437Y03776*
X01436*
X01436Y03776*
X01435Y03775*
X01435Y03775*
X01434Y03775*
X01434Y03775*
X01433Y03775*
X01433Y03775*
X01432Y03774*
X01432Y03774*
X01431Y03774*
X01431Y03773*
X0143Y03773*
X0143Y03772*
X0143Y03772*
X01429Y03771*
X01429Y03771*
X01429Y0377*
X01429Y0377*
X01429Y03769*
X01429Y03769*
X01429Y03768*
X01429Y03768*
X01429Y03767*
X01429Y03766*
X01429Y03766*
X01429Y03765*
X01429Y03765*
X01429Y03764*
X01429Y03764*
X0143Y03763*
X0143Y03763*
X0143Y03762*
X01431Y03762*
X01431Y03762*
X01432Y03761*
X01432Y03761*
X01433Y03761*
X01433Y0376*
X01434Y0376*
X01434Y0376*
X01435Y0376*
X01435Y0376*
X01436Y0376*
X01436Y0376*
X01437*
X01437Y0376*
X01438Y0376*
X01438Y0376*
X01439Y0376*
X01439Y0376*
X0144Y0376*
X01441Y03761*
X01441Y03761*
X01441Y03761*
X01442Y03762*
X01442Y03762*
X01443Y03762*
X01443Y03763*
X01443Y03763*
X01444Y03764*
X01444Y03764*
X01444Y03765*
X01444Y03765*
X01444Y03766*
X01444Y03766*
X01444Y03767*
X01445Y03768*
X01307Y03964D02*
D01*
X01307Y03965*
X01307Y03966*
X01307Y03966*
X01306Y03967*
X01306Y03967*
X01306Y03968*
X01306Y03968*
X01305Y03969*
X01305Y03969*
X01305Y0397*
X01304Y0397*
X01304Y0397*
X01304Y03971*
X01303Y03971*
X01303Y03971*
X01302Y03972*
X01302Y03972*
X01301Y03972*
X01301Y03972*
X013Y03972*
X013Y03972*
X01299Y03972*
X01298*
X01298Y03972*
X01297Y03972*
X01297Y03972*
X01296Y03972*
X01296Y03972*
X01295Y03972*
X01295Y03971*
X01294Y03971*
X01294Y03971*
X01293Y0397*
X01293Y0397*
X01293Y0397*
X01292Y03969*
X01292Y03969*
X01292Y03968*
X01291Y03968*
X01291Y03967*
X01291Y03967*
X01291Y03966*
X01291Y03966*
X01291Y03965*
X01291Y03964*
X01291Y03964*
X01291Y03963*
X01291Y03963*
X01291Y03962*
X01291Y03962*
X01291Y03961*
X01292Y03961*
X01292Y0396*
X01292Y0396*
X01293Y03959*
X01293Y03959*
X01293Y03958*
X01294Y03958*
X01294Y03958*
X01295Y03958*
X01295Y03957*
X01296Y03957*
X01296Y03957*
X01297Y03957*
X01297Y03957*
X01298Y03956*
X01298Y03956*
X01299*
X013Y03956*
X013Y03957*
X01301Y03957*
X01301Y03957*
X01302Y03957*
X01302Y03957*
X01303Y03958*
X01303Y03958*
X01304Y03958*
X01304Y03958*
X01304Y03959*
X01305Y03959*
X01305Y0396*
X01305Y0396*
X01306Y03961*
X01306Y03961*
X01306Y03962*
X01306Y03962*
X01307Y03963*
X01307Y03963*
X01307Y03964*
X01307Y03964*
X0048D02*
D01*
X0048Y03965*
X0048Y03966*
X0048Y03966*
X0048Y03967*
X00479Y03967*
X00479Y03968*
X00479Y03968*
X00479Y03969*
X00478Y03969*
X00478Y0397*
X00478Y0397*
X00477Y0397*
X00477Y03971*
X00476Y03971*
X00476Y03971*
X00475Y03972*
X00475Y03972*
X00474Y03972*
X00474Y03972*
X00473Y03972*
X00473Y03972*
X00472Y03972*
X00472*
X00471Y03972*
X00471Y03972*
X0047Y03972*
X00469Y03972*
X00469Y03972*
X00468Y03972*
X00468Y03971*
X00467Y03971*
X00467Y03971*
X00467Y0397*
X00466Y0397*
X00466Y0397*
X00465Y03969*
X00465Y03969*
X00465Y03968*
X00465Y03968*
X00464Y03967*
X00464Y03967*
X00464Y03966*
X00464Y03966*
X00464Y03965*
X00464Y03964*
X00464Y03964*
X00464Y03963*
X00464Y03963*
X00464Y03962*
X00464Y03962*
X00465Y03961*
X00465Y03961*
X00465Y0396*
X00465Y0396*
X00466Y03959*
X00466Y03959*
X00467Y03958*
X00467Y03958*
X00467Y03958*
X00468Y03958*
X00468Y03957*
X00469Y03957*
X00469Y03957*
X0047Y03957*
X00471Y03957*
X00471Y03956*
X00472Y03956*
X00472*
X00473Y03956*
X00473Y03957*
X00474Y03957*
X00474Y03957*
X00475Y03957*
X00475Y03957*
X00476Y03958*
X00476Y03958*
X00477Y03958*
X00477Y03958*
X00478Y03959*
X00478Y03959*
X00478Y0396*
X00479Y0396*
X00479Y03961*
X00479Y03961*
X00479Y03962*
X0048Y03962*
X0048Y03963*
X0048Y03963*
X0048Y03964*
X0048Y03964*
X00618Y03768D02*
D01*
X00618Y03768*
X00618Y03769*
X00618Y03769*
X00617Y0377*
X00617Y0377*
X00617Y03771*
X00617Y03771*
X00617Y03772*
X00616Y03772*
X00616Y03773*
X00615Y03773*
X00615Y03774*
X00615Y03774*
X00614Y03774*
X00614Y03775*
X00613Y03775*
X00613Y03775*
X00612Y03775*
X00612Y03775*
X00611Y03775*
X00611Y03776*
X0061Y03776*
X00609*
X00609Y03776*
X00608Y03775*
X00608Y03775*
X00607Y03775*
X00607Y03775*
X00606Y03775*
X00606Y03775*
X00605Y03774*
X00605Y03774*
X00604Y03774*
X00604Y03773*
X00604Y03773*
X00603Y03772*
X00603Y03772*
X00603Y03771*
X00602Y03771*
X00602Y0377*
X00602Y0377*
X00602Y03769*
X00602Y03769*
X00602Y03768*
X00602Y03768*
X00602Y03767*
X00602Y03766*
X00602Y03766*
X00602Y03765*
X00602Y03765*
X00602Y03764*
X00603Y03764*
X00603Y03763*
X00603Y03763*
X00604Y03762*
X00604Y03762*
X00604Y03762*
X00605Y03761*
X00605Y03761*
X00606Y03761*
X00606Y0376*
X00607Y0376*
X00607Y0376*
X00608Y0376*
X00608Y0376*
X00609Y0376*
X00609Y0376*
X0061*
X00611Y0376*
X00611Y0376*
X00612Y0376*
X00612Y0376*
X00613Y0376*
X00613Y0376*
X00614Y03761*
X00614Y03761*
X00615Y03761*
X00615Y03762*
X00615Y03762*
X00616Y03762*
X00616Y03763*
X00617Y03763*
X00617Y03764*
X00617Y03764*
X00617Y03765*
X00617Y03765*
X00618Y03766*
X00618Y03766*
X00618Y03767*
X00618Y03768*
X00756Y03964D02*
D01*
X00756Y03965*
X00755Y03966*
X00755Y03966*
X00755Y03967*
X00755Y03967*
X00755Y03968*
X00755Y03968*
X00754Y03969*
X00754Y03969*
X00754Y0397*
X00753Y0397*
X00753Y0397*
X00752Y03971*
X00752Y03971*
X00752Y03971*
X00751Y03972*
X00751Y03972*
X0075Y03972*
X00749Y03972*
X00749Y03972*
X00748Y03972*
X00748Y03972*
X00747*
X00747Y03972*
X00746Y03972*
X00746Y03972*
X00745Y03972*
X00745Y03972*
X00744Y03972*
X00744Y03971*
X00743Y03971*
X00743Y03971*
X00742Y0397*
X00742Y0397*
X00741Y0397*
X00741Y03969*
X00741Y03969*
X0074Y03968*
X0074Y03968*
X0074Y03967*
X0074Y03967*
X0074Y03966*
X0074Y03966*
X0074Y03965*
X0074Y03964*
X0074Y03964*
X0074Y03963*
X0074Y03963*
X0074Y03962*
X0074Y03962*
X0074Y03961*
X0074Y03961*
X00741Y0396*
X00741Y0396*
X00741Y03959*
X00742Y03959*
X00742Y03958*
X00743Y03958*
X00743Y03958*
X00744Y03958*
X00744Y03957*
X00745Y03957*
X00745Y03957*
X00746Y03957*
X00746Y03957*
X00747Y03956*
X00747Y03956*
X00748*
X00748Y03956*
X00749Y03957*
X00749Y03957*
X0075Y03957*
X00751Y03957*
X00751Y03957*
X00752Y03958*
X00752Y03958*
X00752Y03958*
X00753Y03958*
X00753Y03959*
X00754Y03959*
X00754Y0396*
X00754Y0396*
X00755Y03961*
X00755Y03961*
X00755Y03962*
X00755Y03962*
X00755Y03963*
X00755Y03963*
X00756Y03964*
X00756Y03964*
X00893Y03768D02*
D01*
X00893Y03768*
X00893Y03769*
X00893Y03769*
X00893Y0377*
X00893Y0377*
X00893Y03771*
X00892Y03771*
X00892Y03772*
X00892Y03772*
X00891Y03773*
X00891Y03773*
X00891Y03774*
X0089Y03774*
X0089Y03774*
X00889Y03775*
X00889Y03775*
X00888Y03775*
X00888Y03775*
X00887Y03775*
X00887Y03775*
X00886Y03776*
X00886Y03776*
X00885*
X00884Y03776*
X00884Y03775*
X00883Y03775*
X00883Y03775*
X00882Y03775*
X00882Y03775*
X00881Y03775*
X00881Y03774*
X0088Y03774*
X0088Y03774*
X0088Y03773*
X00879Y03773*
X00879Y03772*
X00879Y03772*
X00878Y03771*
X00878Y03771*
X00878Y0377*
X00878Y0377*
X00877Y03769*
X00877Y03769*
X00877Y03768*
X00877Y03768*
X00877Y03767*
X00877Y03766*
X00877Y03766*
X00878Y03765*
X00878Y03765*
X00878Y03764*
X00878Y03764*
X00879Y03763*
X00879Y03763*
X00879Y03762*
X0088Y03762*
X0088Y03762*
X0088Y03761*
X00881Y03761*
X00881Y03761*
X00882Y0376*
X00882Y0376*
X00883Y0376*
X00883Y0376*
X00884Y0376*
X00884Y0376*
X00885Y0376*
X00886*
X00886Y0376*
X00887Y0376*
X00887Y0376*
X00888Y0376*
X00888Y0376*
X00889Y0376*
X00889Y03761*
X0089Y03761*
X0089Y03761*
X00891Y03762*
X00891Y03762*
X00891Y03762*
X00892Y03763*
X00892Y03763*
X00892Y03764*
X00893Y03764*
X00893Y03765*
X00893Y03765*
X00893Y03766*
X00893Y03766*
X00893Y03767*
X00893Y03768*
X01031Y03964D02*
D01*
X01031Y03965*
X01031Y03966*
X01031Y03966*
X01031Y03967*
X01031Y03967*
X0103Y03968*
X0103Y03968*
X0103Y03969*
X0103Y03969*
X01029Y0397*
X01029Y0397*
X01028Y0397*
X01028Y03971*
X01028Y03971*
X01027Y03971*
X01027Y03972*
X01026Y03972*
X01026Y03972*
X01025Y03972*
X01025Y03972*
X01024Y03972*
X01023Y03972*
X01023*
X01022Y03972*
X01022Y03972*
X01021Y03972*
X01021Y03972*
X0102Y03972*
X0102Y03972*
X01019Y03971*
X01019Y03971*
X01018Y03971*
X01018Y0397*
X01017Y0397*
X01017Y0397*
X01017Y03969*
X01016Y03969*
X01016Y03968*
X01016Y03968*
X01016Y03967*
X01015Y03967*
X01015Y03966*
X01015Y03966*
X01015Y03965*
X01015Y03964*
X01015Y03964*
X01015Y03963*
X01015Y03963*
X01015Y03962*
X01016Y03962*
X01016Y03961*
X01016Y03961*
X01016Y0396*
X01017Y0396*
X01017Y03959*
X01017Y03959*
X01018Y03958*
X01018Y03958*
X01019Y03958*
X01019Y03958*
X0102Y03957*
X0102Y03957*
X01021Y03957*
X01021Y03957*
X01022Y03957*
X01022Y03956*
X01023Y03956*
X01023*
X01024Y03956*
X01025Y03957*
X01025Y03957*
X01026Y03957*
X01026Y03957*
X01027Y03957*
X01027Y03958*
X01028Y03958*
X01028Y03958*
X01028Y03958*
X01029Y03959*
X01029Y03959*
X0103Y0396*
X0103Y0396*
X0103Y03961*
X0103Y03961*
X01031Y03962*
X01031Y03962*
X01031Y03963*
X01031Y03963*
X01031Y03964*
X01031Y03964*
X01169Y03768D02*
D01*
X01169Y03768*
X01169Y03769*
X01169Y03769*
X01169Y0377*
X01168Y0377*
X01168Y03771*
X01168Y03771*
X01168Y03772*
X01167Y03772*
X01167Y03773*
X01167Y03773*
X01166Y03774*
X01166Y03774*
X01165Y03774*
X01165Y03775*
X01164Y03775*
X01164Y03775*
X01163Y03775*
X01163Y03775*
X01162Y03775*
X01162Y03776*
X01161Y03776*
X01161*
X0116Y03776*
X0116Y03775*
X01159Y03775*
X01158Y03775*
X01158Y03775*
X01157Y03775*
X01157Y03775*
X01156Y03774*
X01156Y03774*
X01156Y03774*
X01155Y03773*
X01155Y03773*
X01154Y03772*
X01154Y03772*
X01154Y03771*
X01154Y03771*
X01153Y0377*
X01153Y0377*
X01153Y03769*
X01153Y03769*
X01153Y03768*
X01153Y03768*
X01153Y03767*
X01153Y03766*
X01153Y03766*
X01153Y03765*
X01153Y03765*
X01154Y03764*
X01154Y03764*
X01154Y03763*
X01154Y03763*
X01155Y03762*
X01155Y03762*
X01156Y03762*
X01156Y03761*
X01156Y03761*
X01157Y03761*
X01157Y0376*
X01158Y0376*
X01158Y0376*
X01159Y0376*
X0116Y0376*
X0116Y0376*
X01161Y0376*
X01161*
X01162Y0376*
X01162Y0376*
X01163Y0376*
X01163Y0376*
X01164Y0376*
X01164Y0376*
X01165Y03761*
X01165Y03761*
X01166Y03761*
X01166Y03762*
X01167Y03762*
X01167Y03762*
X01167Y03763*
X01168Y03763*
X01168Y03764*
X01168Y03764*
X01168Y03765*
X01169Y03765*
X01169Y03766*
X01169Y03766*
X01169Y03767*
X01169Y03768*
X00756Y00542D02*
D01*
X00756Y00543*
X00755Y00544*
X00755Y00544*
X00755Y00545*
X00755Y00545*
X00755Y00546*
X00755Y00546*
X00754Y00547*
X00754Y00547*
X00754Y00548*
X00753Y00548*
X00753Y00548*
X00752Y00549*
X00752Y00549*
X00752Y00549*
X00751Y0055*
X00751Y0055*
X0075Y0055*
X00749Y0055*
X00749Y0055*
X00748Y0055*
X00748Y0055*
X00747*
X00747Y0055*
X00746Y0055*
X00746Y0055*
X00745Y0055*
X00745Y0055*
X00744Y0055*
X00744Y00549*
X00743Y00549*
X00743Y00549*
X00742Y00548*
X00742Y00548*
X00741Y00548*
X00741Y00547*
X00741Y00547*
X0074Y00546*
X0074Y00546*
X0074Y00545*
X0074Y00545*
X0074Y00544*
X0074Y00544*
X0074Y00543*
X0074Y00542*
X0074Y00542*
X0074Y00541*
X0074Y00541*
X0074Y0054*
X0074Y0054*
X0074Y00539*
X0074Y00539*
X00741Y00538*
X00741Y00538*
X00741Y00537*
X00742Y00537*
X00742Y00536*
X00743Y00536*
X00743Y00536*
X00744Y00536*
X00744Y00535*
X00745Y00535*
X00745Y00535*
X00746Y00535*
X00746Y00535*
X00747Y00534*
X00747Y00534*
X00748*
X00748Y00534*
X00749Y00535*
X00749Y00535*
X0075Y00535*
X00751Y00535*
X00751Y00535*
X00752Y00536*
X00752Y00536*
X00752Y00536*
X00753Y00536*
X00753Y00537*
X00754Y00537*
X00754Y00538*
X00754Y00538*
X00755Y00539*
X00755Y00539*
X00755Y0054*
X00755Y0054*
X00755Y00541*
X00755Y00541*
X00756Y00542*
X00756Y00542*
X00893Y00346D02*
D01*
X00893Y00346*
X00893Y00347*
X00893Y00347*
X00893Y00348*
X00893Y00348*
X00893Y00349*
X00892Y00349*
X00892Y0035*
X00892Y0035*
X00891Y00351*
X00891Y00351*
X00891Y00352*
X0089Y00352*
X0089Y00352*
X00889Y00353*
X00889Y00353*
X00888Y00353*
X00888Y00353*
X00887Y00353*
X00887Y00353*
X00886Y00354*
X00886Y00354*
X00885*
X00884Y00354*
X00884Y00353*
X00883Y00353*
X00883Y00353*
X00882Y00353*
X00882Y00353*
X00881Y00353*
X00881Y00352*
X0088Y00352*
X0088Y00352*
X0088Y00351*
X00879Y00351*
X00879Y0035*
X00879Y0035*
X00878Y00349*
X00878Y00349*
X00878Y00348*
X00878Y00348*
X00878Y00347*
X00877Y00347*
X00877Y00346*
X00877Y00346*
X00877Y00345*
X00877Y00344*
X00878Y00344*
X00878Y00343*
X00878Y00343*
X00878Y00342*
X00878Y00342*
X00879Y00341*
X00879Y00341*
X00879Y0034*
X0088Y0034*
X0088Y0034*
X0088Y00339*
X00881Y00339*
X00881Y00339*
X00882Y00338*
X00882Y00338*
X00883Y00338*
X00883Y00338*
X00884Y00338*
X00884Y00338*
X00885Y00338*
X00886*
X00886Y00338*
X00887Y00338*
X00887Y00338*
X00888Y00338*
X00888Y00338*
X00889Y00338*
X00889Y00339*
X0089Y00339*
X0089Y00339*
X00891Y0034*
X00891Y0034*
X00891Y0034*
X00892Y00341*
X00892Y00341*
X00892Y00342*
X00893Y00342*
X00893Y00343*
X00893Y00343*
X00893Y00344*
X00893Y00344*
X00893Y00345*
X00893Y00346*
X01031Y00542D02*
D01*
X01031Y00543*
X01031Y00544*
X01031Y00544*
X01031Y00545*
X01031Y00545*
X0103Y00546*
X0103Y00546*
X0103Y00547*
X0103Y00547*
X01029Y00548*
X01029Y00548*
X01028Y00548*
X01028Y00549*
X01028Y00549*
X01027Y00549*
X01027Y0055*
X01026Y0055*
X01026Y0055*
X01025Y0055*
X01025Y0055*
X01024Y0055*
X01023Y0055*
X01023*
X01022Y0055*
X01022Y0055*
X01021Y0055*
X01021Y0055*
X0102Y0055*
X0102Y0055*
X01019Y00549*
X01019Y00549*
X01018Y00549*
X01018Y00548*
X01017Y00548*
X01017Y00548*
X01017Y00547*
X01016Y00547*
X01016Y00546*
X01016Y00546*
X01016Y00545*
X01015Y00545*
X01015Y00544*
X01015Y00544*
X01015Y00543*
X01015Y00542*
X01015Y00542*
X01015Y00541*
X01015Y00541*
X01015Y0054*
X01016Y0054*
X01016Y00539*
X01016Y00539*
X01016Y00538*
X01017Y00538*
X01017Y00537*
X01017Y00537*
X01018Y00536*
X01018Y00536*
X01019Y00536*
X01019Y00536*
X0102Y00535*
X0102Y00535*
X01021Y00535*
X01021Y00535*
X01022Y00535*
X01022Y00534*
X01023Y00534*
X01023*
X01024Y00534*
X01025Y00535*
X01025Y00535*
X01026Y00535*
X01026Y00535*
X01027Y00535*
X01027Y00536*
X01028Y00536*
X01028Y00536*
X01028Y00536*
X01029Y00537*
X01029Y00537*
X0103Y00538*
X0103Y00538*
X0103Y00539*
X0103Y00539*
X01031Y0054*
X01031Y0054*
X01031Y00541*
X01031Y00541*
X01031Y00542*
X01031Y00542*
X01169Y00346D02*
D01*
X01169Y00346*
X01169Y00347*
X01169Y00347*
X01169Y00348*
X01168Y00348*
X01168Y00349*
X01168Y00349*
X01168Y0035*
X01167Y0035*
X01167Y00351*
X01167Y00351*
X01166Y00352*
X01166Y00352*
X01165Y00352*
X01165Y00353*
X01164Y00353*
X01164Y00353*
X01163Y00353*
X01163Y00353*
X01162Y00353*
X01162Y00354*
X01161Y00354*
X01161*
X0116Y00354*
X0116Y00353*
X01159Y00353*
X01158Y00353*
X01158Y00353*
X01157Y00353*
X01157Y00353*
X01156Y00352*
X01156Y00352*
X01156Y00352*
X01155Y00351*
X01155Y00351*
X01154Y0035*
X01154Y0035*
X01154Y00349*
X01154Y00349*
X01153Y00348*
X01153Y00348*
X01153Y00347*
X01153Y00347*
X01153Y00346*
X01153Y00346*
X01153Y00345*
X01153Y00344*
X01153Y00344*
X01153Y00343*
X01153Y00343*
X01154Y00342*
X01154Y00342*
X01154Y00341*
X01154Y00341*
X01155Y0034*
X01155Y0034*
X01156Y0034*
X01156Y00339*
X01156Y00339*
X01157Y00339*
X01157Y00338*
X01158Y00338*
X01158Y00338*
X01159Y00338*
X0116Y00338*
X0116Y00338*
X01161Y00338*
X01161*
X01162Y00338*
X01162Y00338*
X01163Y00338*
X01163Y00338*
X01164Y00338*
X01164Y00338*
X01165Y00339*
X01165Y00339*
X01166Y00339*
X01166Y0034*
X01167Y0034*
X01167Y0034*
X01167Y00341*
X01168Y00341*
X01168Y00342*
X01168Y00342*
X01168Y00343*
X01169Y00343*
X01169Y00344*
X01169Y00344*
X01169Y00345*
X01169Y00346*
X00618D02*
D01*
X00618Y00346*
X00618Y00347*
X00618Y00347*
X00617Y00348*
X00617Y00348*
X00617Y00349*
X00617Y00349*
X00617Y0035*
X00616Y0035*
X00616Y00351*
X00615Y00351*
X00615Y00352*
X00615Y00352*
X00614Y00352*
X00614Y00353*
X00613Y00353*
X00613Y00353*
X00612Y00353*
X00612Y00353*
X00611Y00353*
X00611Y00354*
X0061Y00354*
X00609*
X00609Y00354*
X00608Y00353*
X00608Y00353*
X00607Y00353*
X00607Y00353*
X00606Y00353*
X00606Y00353*
X00605Y00352*
X00605Y00352*
X00604Y00352*
X00604Y00351*
X00604Y00351*
X00603Y0035*
X00603Y0035*
X00603Y00349*
X00602Y00349*
X00602Y00348*
X00602Y00348*
X00602Y00347*
X00602Y00347*
X00602Y00346*
X00602Y00346*
X00602Y00345*
X00602Y00344*
X00602Y00344*
X00602Y00343*
X00602Y00343*
X00602Y00342*
X00603Y00342*
X00603Y00341*
X00603Y00341*
X00604Y0034*
X00604Y0034*
X00604Y0034*
X00605Y00339*
X00605Y00339*
X00606Y00339*
X00606Y00338*
X00607Y00338*
X00607Y00338*
X00608Y00338*
X00608Y00338*
X00609Y00338*
X00609Y00338*
X0061*
X00611Y00338*
X00611Y00338*
X00612Y00338*
X00612Y00338*
X00613Y00338*
X00613Y00338*
X00614Y00339*
X00614Y00339*
X00615Y00339*
X00615Y0034*
X00615Y0034*
X00616Y0034*
X00616Y00341*
X00617Y00341*
X00617Y00342*
X00617Y00342*
X00617Y00343*
X00617Y00343*
X00618Y00344*
X00618Y00344*
X00618Y00345*
X00618Y00346*
X0048Y00542D02*
D01*
X0048Y00543*
X0048Y00544*
X0048Y00544*
X0048Y00545*
X00479Y00545*
X00479Y00546*
X00479Y00546*
X00479Y00547*
X00478Y00547*
X00478Y00548*
X00478Y00548*
X00477Y00548*
X00477Y00549*
X00476Y00549*
X00476Y00549*
X00475Y0055*
X00475Y0055*
X00474Y0055*
X00474Y0055*
X00473Y0055*
X00473Y0055*
X00472Y0055*
X00472*
X00471Y0055*
X00471Y0055*
X0047Y0055*
X00469Y0055*
X00469Y0055*
X00468Y0055*
X00468Y00549*
X00467Y00549*
X00467Y00549*
X00467Y00548*
X00466Y00548*
X00466Y00548*
X00465Y00547*
X00465Y00547*
X00465Y00546*
X00465Y00546*
X00464Y00545*
X00464Y00545*
X00464Y00544*
X00464Y00544*
X00464Y00543*
X00464Y00542*
X00464Y00542*
X00464Y00541*
X00464Y00541*
X00464Y0054*
X00464Y0054*
X00465Y00539*
X00465Y00539*
X00465Y00538*
X00465Y00538*
X00466Y00537*
X00466Y00537*
X00467Y00536*
X00467Y00536*
X00467Y00536*
X00468Y00536*
X00468Y00535*
X00469Y00535*
X00469Y00535*
X0047Y00535*
X00471Y00535*
X00471Y00534*
X00472Y00534*
X00472*
X00473Y00534*
X00473Y00535*
X00474Y00535*
X00474Y00535*
X00475Y00535*
X00475Y00535*
X00476Y00536*
X00476Y00536*
X00477Y00536*
X00477Y00536*
X00478Y00537*
X00478Y00537*
X00478Y00538*
X00479Y00538*
X00479Y00539*
X00479Y00539*
X00479Y0054*
X0048Y0054*
X0048Y00541*
X0048Y00541*
X0048Y00542*
X0048Y00542*
X01307D02*
D01*
X01307Y00543*
X01307Y00544*
X01307Y00544*
X01306Y00545*
X01306Y00545*
X01306Y00546*
X01306Y00546*
X01306Y00547*
X01305Y00547*
X01305Y00548*
X01304Y00548*
X01304Y00548*
X01304Y00549*
X01303Y00549*
X01303Y00549*
X01302Y0055*
X01302Y0055*
X01301Y0055*
X01301Y0055*
X013Y0055*
X013Y0055*
X01299Y0055*
X01298*
X01298Y0055*
X01297Y0055*
X01297Y0055*
X01296Y0055*
X01296Y0055*
X01295Y0055*
X01295Y00549*
X01294Y00549*
X01294Y00549*
X01293Y00548*
X01293Y00548*
X01293Y00548*
X01292Y00547*
X01292Y00547*
X01292Y00546*
X01291Y00546*
X01291Y00545*
X01291Y00545*
X01291Y00544*
X01291Y00544*
X01291Y00543*
X01291Y00542*
X01291Y00542*
X01291Y00541*
X01291Y00541*
X01291Y0054*
X01291Y0054*
X01291Y00539*
X01292Y00539*
X01292Y00538*
X01292Y00538*
X01293Y00537*
X01293Y00537*
X01293Y00536*
X01294Y00536*
X01294Y00536*
X01295Y00536*
X01295Y00535*
X01296Y00535*
X01296Y00535*
X01297Y00535*
X01297Y00535*
X01298Y00534*
X01298Y00534*
X01299*
X013Y00534*
X013Y00535*
X01301Y00535*
X01301Y00535*
X01302Y00535*
X01302Y00535*
X01303Y00536*
X01303Y00536*
X01304Y00536*
X01304Y00536*
X01304Y00537*
X01305Y00537*
X01305Y00538*
X01306Y00538*
X01306Y00539*
X01306Y00539*
X01306Y0054*
X01306Y0054*
X01307Y00541*
X01307Y00541*
X01307Y00542*
X01307Y00542*
X01445Y00346D02*
D01*
X01444Y00346*
X01444Y00347*
X01444Y00347*
X01444Y00348*
X01444Y00348*
X01444Y00349*
X01444Y00349*
X01443Y0035*
X01443Y0035*
X01443Y00351*
X01442Y00351*
X01442Y00352*
X01441Y00352*
X01441Y00352*
X01441Y00353*
X0144Y00353*
X0144Y00353*
X01439Y00353*
X01438Y00353*
X01438Y00353*
X01437Y00354*
X01437Y00354*
X01436*
X01436Y00354*
X01435Y00353*
X01435Y00353*
X01434Y00353*
X01434Y00353*
X01433Y00353*
X01433Y00353*
X01432Y00352*
X01432Y00352*
X01431Y00352*
X01431Y00351*
X0143Y00351*
X0143Y0035*
X0143Y0035*
X01429Y00349*
X01429Y00349*
X01429Y00348*
X01429Y00348*
X01429Y00347*
X01429Y00347*
X01429Y00346*
X01429Y00346*
X01429Y00345*
X01429Y00344*
X01429Y00344*
X01429Y00343*
X01429Y00343*
X01429Y00342*
X01429Y00342*
X0143Y00341*
X0143Y00341*
X0143Y0034*
X01431Y0034*
X01431Y0034*
X01432Y00339*
X01432Y00339*
X01433Y00339*
X01433Y00338*
X01434Y00338*
X01434Y00338*
X01435Y00338*
X01435Y00338*
X01436Y00338*
X01436Y00338*
X01437*
X01437Y00338*
X01438Y00338*
X01438Y00338*
X01439Y00338*
X0144Y00338*
X0144Y00338*
X01441Y00339*
X01441Y00339*
X01441Y00339*
X01442Y0034*
X01442Y0034*
X01443Y0034*
X01443Y00341*
X01443Y00341*
X01444Y00342*
X01444Y00342*
X01444Y00343*
X01444Y00343*
X01444Y00344*
X01444Y00344*
X01444Y00345*
X01445Y00346*
X01582Y00542D02*
D01*
X01582Y00543*
X01582Y00544*
X01582Y00544*
X01582Y00545*
X01582Y00545*
X01582Y00546*
X01581Y00546*
X01581Y00547*
X01581Y00547*
X0158Y00548*
X0158Y00548*
X0158Y00548*
X01579Y00549*
X01579Y00549*
X01578Y00549*
X01578Y0055*
X01577Y0055*
X01577Y0055*
X01576Y0055*
X01576Y0055*
X01575Y0055*
X01575Y0055*
X01574*
X01573Y0055*
X01573Y0055*
X01572Y0055*
X01572Y0055*
X01571Y0055*
X01571Y0055*
X0157Y00549*
X0157Y00549*
X01569Y00549*
X01569Y00548*
X01569Y00548*
X01568Y00548*
X01568Y00547*
X01568Y00547*
X01567Y00546*
X01567Y00546*
X01567Y00545*
X01567Y00545*
X01566Y00544*
X01566Y00544*
X01566Y00543*
X01566Y00542*
X01566Y00542*
X01566Y00541*
X01566Y00541*
X01567Y0054*
X01567Y0054*
X01567Y00539*
X01567Y00539*
X01568Y00538*
X01568Y00538*
X01568Y00537*
X01569Y00537*
X01569Y00536*
X01569Y00536*
X0157Y00536*
X0157Y00536*
X01571Y00535*
X01571Y00535*
X01572Y00535*
X01572Y00535*
X01573Y00535*
X01573Y00534*
X01574Y00534*
X01575*
X01575Y00534*
X01576Y00535*
X01576Y00535*
X01577Y00535*
X01577Y00535*
X01578Y00535*
X01578Y00536*
X01579Y00536*
X01579Y00536*
X0158Y00536*
X0158Y00537*
X0158Y00537*
X01581Y00538*
X01581Y00538*
X01581Y00539*
X01582Y00539*
X01582Y0054*
X01582Y0054*
X01582Y00541*
X01582Y00541*
X01582Y00542*
X01582Y00542*
X0172Y00346D02*
D01*
X0172Y00346*
X0172Y00347*
X0172Y00347*
X0172Y00348*
X0172Y00348*
X01719Y00349*
X01719Y00349*
X01719Y0035*
X01719Y0035*
X01718Y00351*
X01718Y00351*
X01717Y00352*
X01717Y00352*
X01717Y00352*
X01716Y00353*
X01716Y00353*
X01715Y00353*
X01715Y00353*
X01714Y00353*
X01713Y00353*
X01713Y00354*
X01712Y00354*
X01712*
X01711Y00354*
X01711Y00353*
X0171Y00353*
X0171Y00353*
X01709Y00353*
X01709Y00353*
X01708Y00353*
X01708Y00352*
X01707Y00352*
X01707Y00352*
X01706Y00351*
X01706Y00351*
X01706Y0035*
X01705Y0035*
X01705Y00349*
X01705Y00349*
X01705Y00348*
X01704Y00348*
X01704Y00347*
X01704Y00347*
X01704Y00346*
X01704Y00346*
X01704Y00345*
X01704Y00344*
X01704Y00344*
X01704Y00343*
X01705Y00343*
X01705Y00342*
X01705Y00342*
X01705Y00341*
X01706Y00341*
X01706Y0034*
X01706Y0034*
X01707Y0034*
X01707Y00339*
X01708Y00339*
X01708Y00339*
X01709Y00338*
X01709Y00338*
X0171Y00338*
X0171Y00338*
X01711Y00338*
X01711Y00338*
X01712Y00338*
X01712*
X01713Y00338*
X01713Y00338*
X01714Y00338*
X01715Y00338*
X01715Y00338*
X01716Y00338*
X01716Y00339*
X01717Y00339*
X01717Y00339*
X01717Y0034*
X01718Y0034*
X01718Y0034*
X01719Y00341*
X01719Y00341*
X01719Y00342*
X01719Y00342*
X0172Y00343*
X0172Y00343*
X0172Y00344*
X0172Y00344*
X0172Y00345*
X0172Y00346*
X02547D02*
D01*
X02547Y00346*
X02547Y00347*
X02547Y00347*
X02547Y00348*
X02546Y00348*
X02546Y00349*
X02546Y00349*
X02546Y0035*
X02545Y0035*
X02545Y00351*
X02545Y00351*
X02544Y00352*
X02544Y00352*
X02543Y00352*
X02543Y00353*
X02542Y00353*
X02542Y00353*
X02541Y00353*
X02541Y00353*
X0254Y00353*
X0254Y00354*
X02539Y00354*
X02539*
X02538Y00354*
X02537Y00353*
X02537Y00353*
X02536Y00353*
X02536Y00353*
X02535Y00353*
X02535Y00353*
X02534Y00352*
X02534Y00352*
X02534Y00352*
X02533Y00351*
X02533Y00351*
X02532Y0035*
X02532Y0035*
X02532Y00349*
X02532Y00349*
X02531Y00348*
X02531Y00348*
X02531Y00347*
X02531Y00347*
X02531Y00346*
X02531Y00346*
X02531Y00345*
X02531Y00344*
X02531Y00344*
X02531Y00343*
X02531Y00343*
X02532Y00342*
X02532Y00342*
X02532Y00341*
X02532Y00341*
X02533Y0034*
X02533Y0034*
X02534Y0034*
X02534Y00339*
X02534Y00339*
X02535Y00339*
X02535Y00338*
X02536Y00338*
X02536Y00338*
X02537Y00338*
X02537Y00338*
X02538Y00338*
X02539Y00338*
X02539*
X0254Y00338*
X0254Y00338*
X02541Y00338*
X02541Y00338*
X02542Y00338*
X02542Y00338*
X02543Y00339*
X02543Y00339*
X02544Y00339*
X02544Y0034*
X02545Y0034*
X02545Y0034*
X02545Y00341*
X02546Y00341*
X02546Y00342*
X02546Y00342*
X02546Y00343*
X02547Y00343*
X02547Y00344*
X02547Y00344*
X02547Y00345*
X02547Y00346*
X02409Y00542D02*
D01*
X02409Y00543*
X02409Y00544*
X02409Y00544*
X02409Y00545*
X02409Y00545*
X02408Y00546*
X02408Y00546*
X02408Y00547*
X02408Y00547*
X02407Y00548*
X02407Y00548*
X02406Y00548*
X02406Y00549*
X02406Y00549*
X02405Y00549*
X02405Y0055*
X02404Y0055*
X02404Y0055*
X02403Y0055*
X02402Y0055*
X02402Y0055*
X02401Y0055*
X02401*
X024Y0055*
X024Y0055*
X02399Y0055*
X02399Y0055*
X02398Y0055*
X02398Y0055*
X02397Y00549*
X02397Y00549*
X02396Y00549*
X02396Y00548*
X02395Y00548*
X02395Y00548*
X02395Y00547*
X02394Y00547*
X02394Y00546*
X02394Y00546*
X02394Y00545*
X02393Y00545*
X02393Y00544*
X02393Y00544*
X02393Y00543*
X02393Y00542*
X02393Y00542*
X02393Y00541*
X02393Y00541*
X02393Y0054*
X02394Y0054*
X02394Y00539*
X02394Y00539*
X02394Y00538*
X02395Y00538*
X02395Y00537*
X02395Y00537*
X02396Y00536*
X02396Y00536*
X02397Y00536*
X02397Y00536*
X02398Y00535*
X02398Y00535*
X02399Y00535*
X02399Y00535*
X024Y00535*
X024Y00534*
X02401Y00534*
X02401*
X02402Y00534*
X02402Y00535*
X02403Y00535*
X02404Y00535*
X02404Y00535*
X02405Y00535*
X02405Y00536*
X02406Y00536*
X02406Y00536*
X02406Y00536*
X02407Y00537*
X02407Y00537*
X02408Y00538*
X02408Y00538*
X02408Y00539*
X02408Y00539*
X02409Y0054*
X02409Y0054*
X02409Y00541*
X02409Y00541*
X02409Y00542*
X02409Y00542*
X02271Y00346D02*
D01*
X02271Y00346*
X02271Y00347*
X02271Y00347*
X02271Y00348*
X02271Y00348*
X02271Y00349*
X0227Y00349*
X0227Y0035*
X0227Y0035*
X02269Y00351*
X02269Y00351*
X02269Y00352*
X02268Y00352*
X02268Y00352*
X02267Y00353*
X02267Y00353*
X02266Y00353*
X02266Y00353*
X02265Y00353*
X02265Y00353*
X02264Y00354*
X02264Y00354*
X02263*
X02262Y00354*
X02262Y00353*
X02261Y00353*
X02261Y00353*
X0226Y00353*
X0226Y00353*
X02259Y00353*
X02259Y00352*
X02258Y00352*
X02258Y00352*
X02258Y00351*
X02257Y00351*
X02257Y0035*
X02256Y0035*
X02256Y00349*
X02256Y00349*
X02256Y00348*
X02256Y00348*
X02255Y00347*
X02255Y00347*
X02255Y00346*
X02255Y00346*
X02255Y00345*
X02255Y00344*
X02255Y00344*
X02256Y00343*
X02256Y00343*
X02256Y00342*
X02256Y00342*
X02256Y00341*
X02257Y00341*
X02257Y0034*
X02258Y0034*
X02258Y0034*
X02258Y00339*
X02259Y00339*
X02259Y00339*
X0226Y00338*
X0226Y00338*
X02261Y00338*
X02261Y00338*
X02262Y00338*
X02262Y00338*
X02263Y00338*
X02264*
X02264Y00338*
X02265Y00338*
X02265Y00338*
X02266Y00338*
X02266Y00338*
X02267Y00338*
X02267Y00339*
X02268Y00339*
X02268Y00339*
X02269Y0034*
X02269Y0034*
X02269Y0034*
X0227Y00341*
X0227Y00341*
X0227Y00342*
X02271Y00342*
X02271Y00343*
X02271Y00343*
X02271Y00344*
X02271Y00344*
X02271Y00345*
X02271Y00346*
X02133Y00542D02*
D01*
X02133Y00543*
X02133Y00544*
X02133Y00544*
X02133Y00545*
X02133Y00545*
X02133Y00546*
X02133Y00546*
X02132Y00547*
X02132Y00547*
X02132Y00548*
X02131Y00548*
X02131Y00548*
X0213Y00549*
X0213Y00549*
X02129Y00549*
X02129Y0055*
X02128Y0055*
X02128Y0055*
X02127Y0055*
X02127Y0055*
X02126Y0055*
X02126Y0055*
X02125*
X02125Y0055*
X02124Y0055*
X02124Y0055*
X02123Y0055*
X02122Y0055*
X02122Y0055*
X02121Y00549*
X02121Y00549*
X02121Y00549*
X0212Y00548*
X0212Y00548*
X02119Y00548*
X02119Y00547*
X02119Y00547*
X02118Y00546*
X02118Y00546*
X02118Y00545*
X02118Y00545*
X02118Y00544*
X02118Y00544*
X02118Y00543*
X02117Y00542*
X02118Y00542*
X02118Y00541*
X02118Y00541*
X02118Y0054*
X02118Y0054*
X02118Y00539*
X02118Y00539*
X02119Y00538*
X02119Y00538*
X02119Y00537*
X0212Y00537*
X0212Y00536*
X02121Y00536*
X02121Y00536*
X02121Y00536*
X02122Y00535*
X02122Y00535*
X02123Y00535*
X02124Y00535*
X02124Y00535*
X02125Y00534*
X02125Y00534*
X02126*
X02126Y00534*
X02127Y00535*
X02127Y00535*
X02128Y00535*
X02128Y00535*
X02129Y00535*
X02129Y00536*
X0213Y00536*
X0213Y00536*
X02131Y00536*
X02131Y00537*
X02132Y00537*
X02132Y00538*
X02132Y00538*
X02133Y00539*
X02133Y00539*
X02133Y0054*
X02133Y0054*
X02133Y00541*
X02133Y00541*
X02133Y00542*
X02133Y00542*
X01996Y00346D02*
D01*
X01996Y00346*
X01996Y00347*
X01996Y00347*
X01995Y00348*
X01995Y00348*
X01995Y00349*
X01995Y00349*
X01994Y0035*
X01994Y0035*
X01994Y00351*
X01993Y00351*
X01993Y00352*
X01993Y00352*
X01992Y00352*
X01992Y00353*
X01991Y00353*
X01991Y00353*
X0199Y00353*
X0199Y00353*
X01989Y00353*
X01989Y00354*
X01988Y00354*
X01987*
X01987Y00354*
X01986Y00353*
X01986Y00353*
X01985Y00353*
X01985Y00353*
X01984Y00353*
X01984Y00353*
X01983Y00352*
X01983Y00352*
X01982Y00352*
X01982Y00351*
X01982Y00351*
X01981Y0035*
X01981Y0035*
X01981Y00349*
X0198Y00349*
X0198Y00348*
X0198Y00348*
X0198Y00347*
X0198Y00347*
X0198Y00346*
X0198Y00346*
X0198Y00345*
X0198Y00344*
X0198Y00344*
X0198Y00343*
X0198Y00343*
X0198Y00342*
X01981Y00342*
X01981Y00341*
X01981Y00341*
X01982Y0034*
X01982Y0034*
X01982Y0034*
X01983Y00339*
X01983Y00339*
X01984Y00339*
X01984Y00338*
X01985Y00338*
X01985Y00338*
X01986Y00338*
X01986Y00338*
X01987Y00338*
X01987Y00338*
X01988*
X01989Y00338*
X01989Y00338*
X0199Y00338*
X0199Y00338*
X01991Y00338*
X01991Y00338*
X01992Y00339*
X01992Y00339*
X01993Y00339*
X01993Y0034*
X01993Y0034*
X01994Y0034*
X01994Y00341*
X01994Y00341*
X01995Y00342*
X01995Y00342*
X01995Y00343*
X01995Y00343*
X01996Y00344*
X01996Y00344*
X01996Y00345*
X01996Y00346*
X01858Y00542D02*
D01*
X01858Y00543*
X01858Y00544*
X01858Y00544*
X01858Y00545*
X01857Y00545*
X01857Y00546*
X01857Y00546*
X01857Y00547*
X01856Y00547*
X01856Y00548*
X01856Y00548*
X01855Y00548*
X01855Y00549*
X01854Y00549*
X01854Y00549*
X01853Y0055*
X01853Y0055*
X01852Y0055*
X01852Y0055*
X01851Y0055*
X01851Y0055*
X0185Y0055*
X0185*
X01849Y0055*
X01849Y0055*
X01848Y0055*
X01847Y0055*
X01847Y0055*
X01846Y0055*
X01846Y00549*
X01845Y00549*
X01845Y00549*
X01845Y00548*
X01844Y00548*
X01844Y00548*
X01843Y00547*
X01843Y00547*
X01843Y00546*
X01843Y00546*
X01842Y00545*
X01842Y00545*
X01842Y00544*
X01842Y00544*
X01842Y00543*
X01842Y00542*
X01842Y00542*
X01842Y00541*
X01842Y00541*
X01842Y0054*
X01842Y0054*
X01843Y00539*
X01843Y00539*
X01843Y00538*
X01843Y00538*
X01844Y00537*
X01844Y00537*
X01845Y00536*
X01845Y00536*
X01845Y00536*
X01846Y00536*
X01846Y00535*
X01847Y00535*
X01847Y00535*
X01848Y00535*
X01849Y00535*
X01849Y00534*
X0185Y00534*
X0185*
X01851Y00534*
X01851Y00535*
X01852Y00535*
X01852Y00535*
X01853Y00535*
X01853Y00535*
X01854Y00536*
X01854Y00536*
X01855Y00536*
X01855Y00536*
X01856Y00537*
X01856Y00537*
X01856Y00538*
X01857Y00538*
X01857Y00539*
X01857Y00539*
X01857Y0054*
X01858Y0054*
X01858Y00541*
X01858Y00541*
X01858Y00542*
X01858Y00542*
M02*