%FSTAX23Y23*%
%MOIN*%
%SFA1B1*%

%IPPOS*%
%AMD15*
4,1,8,0.027000,-0.009900,0.027000,0.009900,0.025200,0.011600,-0.025200,0.011600,-0.027000,0.009900,-0.027000,-0.009900,-0.025200,-0.011600,0.025200,-0.011600,0.027000,-0.009900,0.0*
1,1,0.003480,0.025200,-0.009900*
1,1,0.003480,0.025200,0.009900*
1,1,0.003480,-0.025200,0.009900*
1,1,0.003480,-0.025200,-0.009900*
%
%AMD17*
4,1,8,-0.027600,-0.005500,0.027600,-0.005500,0.028900,-0.004100,0.028900,0.004100,0.027600,0.005500,-0.027600,0.005500,-0.028900,0.004100,-0.028900,-0.004100,-0.027600,-0.005500,0.0*
1,1,0.002760,-0.027600,-0.004100*
1,1,0.002760,0.027600,-0.004100*
1,1,0.002760,0.027600,0.004100*
1,1,0.002760,-0.027600,0.004100*
%
%AMD19*
4,1,8,-0.010800,-0.005900,0.010800,-0.005900,0.012300,-0.004400,0.012300,0.004400,0.010800,0.005900,-0.010800,0.005900,-0.012300,0.004400,-0.012300,-0.004400,-0.010800,-0.005900,0.0*
1,1,0.002960,-0.010800,-0.004400*
1,1,0.002960,0.010800,-0.004400*
1,1,0.002960,0.010800,0.004400*
1,1,0.002960,-0.010800,0.004400*
%
%AMD20*
4,1,8,-0.004400,-0.012300,0.004400,-0.012300,0.005900,-0.010800,0.005900,0.010800,0.004400,0.012300,-0.004400,0.012300,-0.005900,0.010800,-0.005900,-0.010800,-0.004400,-0.012300,0.0*
1,1,0.002960,-0.004400,-0.010800*
1,1,0.002960,0.004400,-0.010800*
1,1,0.002960,0.004400,0.010800*
1,1,0.002960,-0.004400,0.010800*
%
%AMD25*
4,1,8,0.017700,0.053100,-0.017700,0.053100,-0.022600,0.048200,-0.022600,-0.048200,-0.017700,-0.053100,0.017700,-0.053100,0.022600,-0.048200,0.022600,0.048200,0.017700,0.053100,0.0*
1,1,0.009960,0.017700,0.048200*
1,1,0.009960,-0.017700,0.048200*
1,1,0.009960,-0.017700,-0.048200*
1,1,0.009960,0.017700,-0.048200*
%
%AMD26*
4,1,8,-0.053100,0.017700,-0.053100,-0.017700,-0.048200,-0.022600,0.048200,-0.022600,0.053100,-0.017700,0.053100,0.017700,0.048200,0.022600,-0.048200,0.022600,-0.053100,0.017700,0.0*
1,1,0.009960,-0.048200,0.017700*
1,1,0.009960,-0.048200,-0.017700*
1,1,0.009960,0.048200,-0.017700*
1,1,0.009960,0.048200,0.017700*
%
%AMD57*
4,1,8,0.000000,-0.033500,0.000000,-0.033500,0.033500,0.000000,0.033500,0.000000,0.000000,0.033500,0.000000,0.033500,-0.033500,0.000000,-0.033500,0.000000,0.000000,-0.033500,0.0*
1,1,0.066940,0.000000,0.000000*
1,1,0.066940,0.000000,0.000000*
1,1,0.066940,0.000000,0.000000*
1,1,0.066940,0.000000,0.000000*
%
%AMD59*
4,1,8,0.033500,0.000000,0.033500,0.000000,0.000000,0.033500,0.000000,0.033500,-0.033500,0.000000,-0.033500,0.000000,0.000000,-0.033500,0.000000,-0.033500,0.033500,0.000000,0.0*
1,1,0.066940,0.000000,0.000000*
1,1,0.066940,0.000000,0.000000*
1,1,0.066940,0.000000,0.000000*
1,1,0.066940,0.000000,0.000000*
%
%AMD68*
4,1,8,0.019700,0.039400,-0.019700,0.039400,-0.039400,0.019700,-0.039400,-0.019700,-0.019700,-0.039400,0.019700,-0.039400,0.039400,-0.019700,0.039400,0.019700,0.019700,0.039400,0.0*
1,1,0.039360,0.019700,0.019700*
1,1,0.039360,-0.019700,0.019700*
1,1,0.039360,-0.019700,-0.019700*
1,1,0.039360,0.019700,-0.019700*
%
%ADD10R,0.023620X0.053150*%
%ADD11R,0.017720X0.084650*%
%ADD12R,0.122050X0.094490*%
%ADD13R,0.036000X0.036000*%
%ADD14R,0.036000X0.050000*%
G04~CAMADD=15~8~0.0~0.0~232.3~539.4~17.4~0.0~15~0.0~0.0~0.0~0.0~0~0.0~0.0~0.0~0.0~0~0.0~0.0~0.0~270.0~540.0~232.0*
%ADD15D15*%
%ADD16R,0.035430X0.031500*%
G04~CAMADD=17~8~0.0~0.0~578.7~110.2~13.8~0.0~15~0.0~0.0~0.0~0.0~0~0.0~0.0~0.0~0.0~0~0.0~0.0~0.0~180.0~578.0~110.0*
%ADD17D17*%
%ADD18O,0.014330X0.079350*%
G04~CAMADD=19~8~0.0~0.0~246.1~118.1~14.8~0.0~15~0.0~0.0~0.0~0.0~0~0.0~0.0~0.0~0.0~0~0.0~0.0~0.0~180.0~246.0~118.0*
%ADD19D19*%
G04~CAMADD=20~8~0.0~0.0~118.1~246.1~14.8~0.0~15~0.0~0.0~0.0~0.0~0~0.0~0.0~0.0~0.0~0~0.0~0.0~0.0~180.0~118.0~246.0*
%ADD20D20*%
%ADD21O,0.035430X0.078740*%
%ADD22R,0.057090X0.078740*%
%ADD23R,0.031500X0.059050*%
%ADD24R,0.135000X0.098000*%
G04~CAMADD=25~8~0.0~0.0~452.8~1063.0~49.8~0.0~15~0.0~0.0~0.0~0.0~0~0.0~0.0~0.0~0.0~0~0.0~0.0~0.0~0.0~452.8~1063.0*
%ADD25D25*%
G04~CAMADD=26~8~0.0~0.0~452.8~1063.0~49.8~0.0~15~0.0~0.0~0.0~0.0~0~0.0~0.0~0.0~0.0~0~0.0~0.0~0.0~90.0~1062.0~452.0*
%ADD26D26*%
%ADD27R,0.013680X0.014830*%
%ADD28R,0.014830X0.013680*%
%ADD29R,0.035430X0.053150*%
%ADD30R,0.059050X0.094490*%
%ADD31R,0.023620X0.015750*%
%ADD32R,0.045560X0.019360*%
%ADD33R,0.019360X0.045560*%
%ADD34R,0.025590X0.085430*%
%ADD35R,0.085430X0.025590*%
%ADD36R,0.085430X0.078740*%
%ADD37R,0.074800X0.098420*%
%ADD38R,0.098420X0.074800*%
%ADD39R,0.031500X0.035430*%
%ADD40R,0.050000X0.060000*%
%ADD41R,0.060000X0.050000*%
%ADD42R,0.125200X0.085840*%
%ADD43O,0.098420X0.027560*%
%ADD45C,0.010000*%
%ADD55C,0.005910*%
%ADD56R,0.066930X0.066930*%
G04~CAMADD=57~8~0.0~0.0~669.3~669.3~334.7~0.0~15~0.0~0.0~0.0~0.0~0~0.0~0.0~0.0~0.0~0~0.0~0.0~0.0~180.0~670.0~669.0*
%ADD57D57*%
%ADD58R,0.066930X0.066930*%
G04~CAMADD=59~8~0.0~0.0~669.3~669.3~334.7~0.0~15~0.0~0.0~0.0~0.0~0~0.0~0.0~0.0~0.0~0~0.0~0.0~0.0~270.0~670.0~669.0*
%ADD59D59*%
%ADD60C,0.086610*%
%ADD61C,0.090000*%
%ADD62C,0.150000*%
%ADD63R,0.059050X0.059050*%
%ADD64C,0.059050*%
%ADD65R,0.066930X0.078740*%
%ADD66O,0.066930X0.078740*%
%ADD67C,0.236220*%
G04~CAMADD=68~8~0.0~0.0~787.4~787.4~196.8~0.0~15~0.0~0.0~0.0~0.0~0~0.0~0.0~0.0~0.0~0~0.0~0.0~0.0~0.0~787.4~787.4*
%ADD68D68*%
%ADD92C,0.200790*%
%LNsbtech_icarusboard_1v0-1*%
%LPD*%
G36*
X01454Y00999D02*
X01653Y00999D01*
X01653Y00999*
X01654Y00999*
X01654Y00999*
X01654Y00999*
X01655Y00999*
X01656Y00999*
X01656Y00999*
X01657Y00998*
X01658Y00998*
X01658Y00998*
X01659Y00998*
X01659Y00998*
X0166Y00997*
X0166Y00997*
X0166Y00997*
X01661Y00997*
X01661Y00997*
X01662Y00997*
X01662Y00996*
X01663Y00996*
X01663Y00996*
X01663Y00996*
X01663Y00996*
X01663Y00996*
X01664Y00996*
X01664Y00996*
X01664Y00995*
X01665Y00995*
X01665Y00995*
X01666Y00995*
X01666Y00994*
X01666Y00994*
X01666Y00994*
X01667Y00994*
X01667Y00994*
X01667Y00993*
X01667Y00993*
X01668Y00993*
X01668Y00993*
X01669Y00993*
X01669Y00992*
X01669Y00992*
X01669Y00992*
X01669Y00992*
X01669Y00992*
X0167Y00991*
X0167Y00991*
X01671Y00991*
X01671Y00991*
X01671Y0099*
X01671Y0099*
X01671Y0099*
X01671Y0099*
X01672Y0099*
X01672Y0099*
X01672Y00989*
X01672Y00989*
X01672Y00989*
X01672Y00989*
X01672Y00989*
X01673Y00989*
X01673Y00989*
X01673Y00988*
X01673Y00988*
X01673Y00988*
X01673Y00988*
X01674Y00987*
X01674Y00987*
X01674Y00987*
X01674Y00986*
X01674Y00986*
X01675Y00986*
X01675Y00986*
X01675Y00985*
X01676Y00985*
X01676Y00984*
X01676Y00984*
X01676Y00984*
X01676Y00983*
X01677Y00983*
X01677Y00983*
X01677Y00982*
X01677Y00982*
X01677Y00982*
X01677Y00981*
X01678Y00981*
X01678Y0098*
X01678Y0098*
X01678Y0098*
X01678Y0098*
X01678Y00979*
X01678Y00979*
X01678Y00978*
X01679Y00978*
X01679Y00977*
X01679Y00977*
X01679Y00977*
X01679Y00976*
X01679Y00975*
X01679Y00975*
X0168Y00975*
X0168Y00973*
X0168Y00973*
X0168Y00972*
X0168Y00972*
X0168Y00971*
X0168Y0097*
X0168Y0097*
X0168Y00906*
X0168Y00906*
X0168Y00906*
X0168Y00905*
X0168Y00904*
X0168Y00903*
X0168Y00903*
X01679Y00902*
X01679Y00902*
X01679Y00902*
X01679Y00901*
X01679Y00901*
X01679Y009*
X01679Y009*
X01679Y00899*
X01678Y00899*
X01678Y00898*
X01678Y00897*
X01678Y00897*
X01678Y00896*
X01678Y00896*
X01677Y00896*
X01677Y00895*
X01677Y00895*
X01677Y00894*
X01677Y00894*
X01677Y00894*
X01676Y00894*
X01676Y00893*
X01676Y00893*
X01676Y00893*
X01676Y00892*
X01676Y00892*
X01675Y00892*
X01675Y00892*
X01675Y00891*
X01675Y00891*
X01675Y00891*
X01674Y00891*
X01674Y0089*
X01674Y0089*
X01674Y0089*
X01673Y00889*
X01673Y00889*
X01673Y00889*
X01672Y00888*
X01672Y00888*
X01671Y00888*
X01671Y00887*
X01671Y00887*
X01671Y00887*
X01671Y00887*
X0167Y00887*
X0167Y00887*
X01669Y00887*
X01669Y00886*
X01669Y00886*
X01668Y00886*
X01668Y00886*
X01667Y00886*
X01667Y00886*
X01667Y00885*
X01667Y00885*
X01667Y00885*
X01667Y00885*
X01668Y00884*
X01668Y00884*
X01668Y00884*
X01669Y00884*
X01669Y00884*
X0167Y00883*
X0167Y00883*
X01671Y00883*
X01671Y00883*
X01671Y00883*
X01671Y00883*
X01672Y00882*
X01672Y00882*
X01673Y00882*
X01673Y00881*
X01673Y00881*
X01674Y00881*
X01674Y00881*
X01674Y0088*
X01675Y0088*
X01675Y0088*
X01675Y0088*
X01676Y00879*
X01676Y00879*
X01676Y00878*
X01677Y00878*
X01677Y00878*
X01677Y00878*
X01677Y00877*
X01677Y00877*
X01678Y00877*
X01678Y00876*
X01678Y00876*
X01678Y00875*
X01679Y00875*
X01679Y00875*
X01679Y00874*
X01679Y00874*
X0168Y00873*
X0168Y00873*
X0168Y00872*
X0168Y00872*
X0168Y00871*
X0168Y00871*
X0168Y0087*
X0168Y0087*
X0168Y00869*
X0168Y008*
X0168Y00799*
X0168Y00798*
X0168Y00797*
X0168Y00797*
X0168Y00797*
X0168Y00796*
X01679Y00795*
X01679Y00795*
X01679Y00795*
X01679Y00794*
X01679Y00793*
X01679Y00793*
X01678Y00792*
X01678Y00792*
X01678Y00791*
X01678Y00791*
X01678Y00791*
X01678Y00791*
X01678Y0079*
X01678Y0079*
X01678Y00789*
X01677Y00789*
X01677Y00789*
X01677Y00788*
X01677Y00788*
X01677Y00788*
X01677Y00788*
X01677Y00787*
X01676Y00787*
X01676Y00787*
X01676Y00787*
X01676Y00786*
X01675Y00785*
X01675Y00785*
X01675Y00784*
X01675Y00784*
X01675Y00784*
X01674Y00784*
X01674Y00784*
X01674Y00783*
X01674Y00783*
X01673Y00783*
X01673Y00782*
X01673Y00782*
X01673Y00782*
X01673Y00781*
X01673Y00781*
X01672Y00781*
X01672Y00781*
X01672Y00781*
X01672Y00781*
X01672Y00781*
X01672Y0078*
X01671Y0078*
X01671Y0078*
X01671Y0078*
X01671Y0078*
X01671Y0078*
X01671Y0078*
X0167Y00779*
X0167Y00779*
X0167Y00779*
X0167Y00779*
X0167Y00779*
X0167Y00779*
X0167Y00778*
X01669Y00778*
X01669Y00778*
X01669Y00778*
X01668Y00778*
X01668Y00777*
X01668Y00777*
X01667Y00777*
X01667Y00777*
X01667Y00776*
X01667Y00776*
X01666Y00776*
X01665Y00775*
X01665Y00775*
X01665Y00775*
X01664Y00775*
X01664Y00775*
X01663Y00774*
X01663Y00774*
X01663Y00774*
X01662Y00774*
X01662Y00773*
X01661Y00773*
X01661Y00773*
X0166Y00773*
X0166Y00773*
X01659Y00773*
X01659Y00772*
X01658Y00772*
X01658Y00772*
X01657Y00772*
X01657Y00772*
X01656Y00772*
X01656Y00772*
X01655Y00772*
X01654Y00771*
X01654Y00771*
X01654Y00771*
X01465Y00771*
X01465Y00771*
X01465Y00771*
X01465Y00771*
X01464Y00771*
X01453Y00771*
X01453Y00772*
X01453Y00772*
X01452Y00772*
X01452Y00839*
X01453Y0084*
X01453Y0084*
X01495Y0084*
X01495Y00839*
X01495Y00839*
X01495Y00817*
X01496Y00817*
X01496Y00817*
X01496Y00817*
X01637Y00817*
X01637Y00817*
X01637Y00817*
X01637Y00817*
X01637Y00862*
X01637Y00862*
X01637Y00862*
X01453Y00863*
X01453Y00863*
X01453Y00863*
X01453Y00864*
X01453Y0093*
X01453Y00931*
X01453Y00931*
X01453Y00931*
X01453Y00931*
X01495Y00931*
X01496Y00931*
X01496Y0093*
X01496Y00908*
X01496Y00908*
X01496Y00908*
X0161*
X01637Y00908*
X01637Y00908*
X01637Y00908*
X01637Y00909*
X01637Y00953*
X01637Y00954*
X01637Y00954*
X01636Y00954*
X01453Y00954*
X01453Y00954*
X01452Y00954*
X01452Y00954*
X01452Y00999*
X01452Y00999*
X01453Y00999*
X01454Y00999*
G37*
G36*
X01725Y00999D02*
X01726Y00999D01*
X02158*
X02193Y00999*
X02194Y00999*
X02194Y00999*
X02195Y00999*
X02197Y00999*
X02197Y00999*
X02198Y00999*
X02198Y00999*
X02199Y00999*
X02199Y00999*
X022Y00999*
X022Y00999*
X02201Y00998*
X02201Y00998*
X02202Y00998*
X02202Y00998*
X02203Y00998*
X02203Y00997*
X02204Y00997*
X02204Y00997*
X02204Y00997*
X02204Y00997*
X02205Y00997*
X02205Y00997*
X02206Y00996*
X02206Y00996*
X02207Y00996*
X02207Y00996*
X02207Y00996*
X02207Y00996*
X02207Y00996*
X02208Y00995*
X02208Y00995*
X02208Y00995*
X02208Y00995*
X02209Y00995*
X02209Y00994*
X0221Y00994*
X0221Y00994*
X0221Y00994*
X02211Y00994*
X02211Y00993*
X02211Y00993*
X02211Y00993*
X02212Y00993*
X02212Y00992*
X02212Y00992*
X02212Y00992*
X02213Y00992*
X02213Y00992*
X02213Y00992*
X02213Y00991*
X02213Y00991*
X02214Y00991*
X02214Y0099*
X02214Y0099*
X02214Y0099*
X02214Y0099*
X02214Y0099*
X02215Y0099*
X02215Y00989*
X02215Y00989*
X02216Y00989*
X02216Y00989*
X02216Y00988*
X02216Y00988*
X02216Y00988*
X02216Y00988*
X02217Y00987*
X02217Y00987*
X02217Y00987*
X02217Y00987*
X02218Y00986*
X02218Y00986*
X02218Y00986*
X02218Y00985*
X02218Y00985*
X02218Y00985*
X02218Y00985*
X02219Y00985*
X02219Y00984*
X02219Y00984*
X02219Y00984*
X02219Y00983*
X0222Y00983*
X0222Y00983*
X0222Y00982*
X0222Y00982*
X0222Y00981*
X0222Y00981*
X02221Y00981*
X02221Y0098*
X02221Y00979*
X02221Y00979*
X02221Y00979*
X02221Y00978*
X02221Y00978*
X02222Y00978*
X02222Y00978*
X02222Y00977*
X02222Y00977*
X02222Y00977*
X02222Y00976*
X02222Y00975*
X02222Y00975*
X02222Y00974*
X02223Y00973*
X02223Y00973*
X02223Y00972*
X02223Y00972*
X02223Y00972*
X02223Y00972*
X02223Y00972*
X02223Y00971*
X02223Y00863*
X02223Y00863*
X02222Y00863*
X02222Y00863*
X02222Y00863*
X02222Y00863*
X01754Y00863*
X01754Y00863*
X01754Y00863*
X01753Y00863*
X01753Y00863*
X01752Y00863*
X01751Y00863*
X0175Y00863*
X01749Y00863*
X01749Y00863*
X01748Y00864*
X01747Y00864*
X01747Y00864*
X01746Y00864*
X01746Y00864*
X01746Y00864*
X01745Y00864*
X01745Y00864*
X01744Y00865*
X01744Y00865*
X01743Y00865*
X01743Y00865*
X01743Y00865*
X01742Y00865*
X01742Y00866*
X01741Y00866*
X01741Y00866*
X01741Y00866*
X01741Y00866*
X0174Y00866*
X0174Y00867*
X01739Y00867*
X01739Y00867*
X01739Y00867*
X01739Y00867*
X01738Y00868*
X01738Y00868*
X01737Y00868*
X01737Y00868*
X01737Y00869*
X01736Y00869*
X01736Y00869*
X01736Y00869*
X01735Y0087*
X01735Y0087*
X01735Y0087*
X01735Y0087*
X01734Y0087*
X01731Y00874*
X01731Y00874*
X01731Y00874*
X01731Y00874*
X01731Y00874*
X0173Y00875*
X0173Y00875*
X0173Y00875*
X0173Y00876*
X01729Y00876*
X01729Y00877*
X01729Y00877*
X01729Y00878*
X01728Y00878*
X01728Y00878*
X01728Y00878*
X01728Y00879*
X01728Y00879*
X01728Y00879*
X01727Y0088*
X01727Y0088*
X01727Y0088*
X01727Y0088*
X01727Y00881*
X01727Y00881*
X01726Y00882*
X01726Y00882*
X01726Y00882*
X01726Y00883*
X01726Y00883*
X01726Y00884*
X01725Y00884*
X01725Y00885*
X01725Y00885*
X01725Y00886*
X01725Y00886*
X01725Y00886*
X01725Y00887*
X01725Y00887*
X01725Y00888*
X01724Y00889*
X01724Y00889*
X01724Y0089*
X01724Y0089*
X01724Y00891*
X01724Y00893*
X01724Y00893*
X01724Y00999*
X01724Y00999*
X01724Y01*
X01725Y00999*
G37*
G36*
X01409Y00999D02*
X01409Y00999D01*
X01409Y00931*
X01409Y00931*
X01408Y00931*
X01408Y00931*
X01408Y00931*
X01367Y00931*
X01366Y00931*
X01366Y00931*
X01366Y00931*
X01366Y00932*
X01366Y00953*
X01366Y00954*
X01365Y00954*
X01365Y00954*
X01224Y00954*
X01224Y00954*
X01224Y00953*
X01224Y00908*
X01224Y00908*
X01224Y00908*
X01225Y00908*
X01408Y00908*
X01408Y00908*
X01409Y00908*
X01409Y00907*
Y00807*
Y00807*
X01409Y00772*
X01409Y00771*
X01408Y00771*
X01407Y00771*
X01209Y00772*
X01208Y00772*
X01207Y00772*
X01206Y00772*
X01206Y00772*
X01206Y00772*
X01205Y00772*
X01205Y00772*
X01204Y00772*
X01203Y00773*
X01203Y00773*
X01202Y00773*
X01202Y00773*
X01201Y00773*
X01201Y00773*
X01201Y00773*
X012Y00774*
X01199Y00774*
X01199Y00774*
X01198Y00774*
X01198Y00774*
X01198Y00774*
X01198Y00775*
X01198Y00775*
X01197Y00775*
X01197Y00775*
X01197Y00775*
X01196Y00775*
X01196Y00776*
X01195Y00776*
X01195Y00776*
X01194Y00777*
X01194Y00777*
X01193Y00777*
X01193Y00778*
X01193Y00778*
X01192Y00778*
X01192Y00778*
X01192Y00778*
X01192Y00779*
X01192Y00779*
X01192Y00779*
X01192Y00779*
X01191Y00779*
X01191Y00779*
X01189Y00781*
X01189Y00782*
X01189Y00782*
X01188Y00782*
X01188Y00782*
X01188Y00783*
X01188Y00783*
X01187Y00784*
X01187Y00784*
X01187Y00784*
X01186Y00785*
X01186Y00785*
X01186Y00786*
X01185Y00786*
X01185Y00787*
X01185Y00787*
X01185Y00787*
X01185Y00788*
X01185Y00788*
X01184Y00788*
X01184Y00788*
X01184Y00788*
X01184Y00789*
X01184Y00789*
X01184Y0079*
X01184Y0079*
X01183Y00791*
X01183Y00791*
X01183Y00791*
X01183Y00791*
X01183Y00792*
X01183Y00792*
X01183Y00793*
X01182Y00793*
X01182Y00794*
X01182Y00795*
X01182Y00795*
X01182Y00796*
X01182Y00796*
X01182Y00797*
X01182Y00798*
X01181Y00798*
X01181Y00799*
X01181Y00799*
X01181Y00799*
X01181Y0084*
X01224Y0084*
X01224Y00839*
X01224Y00839*
X01224Y00838*
X01224Y00817*
X01224Y00817*
X01224Y00817*
X01366Y00817*
X01366Y00817*
X01366Y00817*
X01366Y00819*
X01366Y00862*
X01366Y00862*
X01366Y00862*
X01181Y00863*
X01181Y00972*
X01181Y00972*
X01181Y00972*
X01182Y00973*
X01182Y00974*
X01182Y00974*
X01182Y00975*
X01182Y00976*
X01182Y00976*
X01182Y00977*
X01182Y00978*
X01182Y00978*
X01183Y00978*
X01183Y00979*
X01183Y0098*
X01183Y00981*
X01184Y00981*
X01184Y00982*
X01184Y00982*
X01184Y00982*
X01184Y00983*
X01185Y00983*
X01185Y00983*
X01185Y00983*
X01185Y00984*
X01185Y00984*
X01185Y00984*
X01185Y00985*
X01186Y00985*
X01186Y00985*
X01186Y00986*
X01186Y00986*
X01187Y00986*
X01187Y00987*
X01187Y00987*
X01187Y00987*
X01188Y00988*
X01188Y00988*
X01188Y00989*
X01188Y00989*
X01189Y00989*
X01189Y00989*
X01189Y0099*
X01191Y00992*
X01192Y00992*
X01192Y00993*
X01192Y00993*
X01193Y00993*
X01193Y00993*
X01193Y00993*
X01194Y00994*
X01194Y00994*
X01194Y00994*
X01195Y00995*
X01196Y00995*
X01196Y00995*
X01197Y00996*
X01197Y00996*
X01197Y00996*
X01197Y00996*
X01197Y00996*
X01198Y00996*
X01198Y00996*
X01198Y00996*
X01199Y00997*
X01199Y00997*
X01199Y00997*
X012Y00997*
X012Y00997*
X01201Y00997*
X01201Y00998*
X01202Y00998*
X01203Y00998*
X01203Y00998*
X01203Y00998*
X01204Y00998*
X01204Y00998*
X01205Y00999*
X01205Y00999*
X01206Y00999*
X01206Y00999*
X01207Y00999*
X01207Y00999*
X01207Y00999*
X01208Y00999*
X01209Y00999*
X01408Y00999*
X01408Y00999*
X01409Y00999*
G37*
%LNsbtech_icarusboard_1v0-2*%
%LPC*%
G36*
X01857Y00967D02*
X01791D01*
X01789Y00967*
X01789Y00967*
X01789Y00967*
X01789Y00966*
X01789Y0095*
X01789Y0095*
X01789Y0095*
X0179Y00949*
X01812Y00949*
X01812Y00949*
X01812Y00949*
X01812Y00896*
X01812Y00895*
X01812Y00895*
X01813Y00895*
X01834Y00895*
X01835Y00895*
X01835Y00895*
X01835Y00896*
X01835Y00948*
X01835Y00948*
X01835Y00949*
X01835Y00949*
X01835Y00949*
X01835Y00949*
X01857Y00949*
X01858Y0095*
X01858Y0095*
X01858Y00951*
X01858Y00967*
X01857Y00967*
X01857Y00967*
X01857Y00967*
G37*
G36*
X0195Y00968D02*
X01949Y00967D01*
X0189Y00967*
X0189Y00967*
X0189Y00895*
X0189Y00895*
X01891Y00895*
X01951Y00895*
X01952Y00895*
X01952Y00895*
X01952Y00911*
X01952Y00911*
X01951Y00912*
X01913Y00912*
X01913Y00912*
X01913Y00912*
X01913Y00925*
X01913Y00926*
X01914Y00926*
X01947Y00926*
X01948Y00926*
X01948Y00926*
X01948Y00926*
X01948Y00927*
X01948Y0094*
X01948Y0094*
X01947Y00941*
X01914Y00941*
X01913Y00941*
X01913Y00941*
X01913Y00941*
X01913Y00952*
X01913Y00952*
X01914Y00952*
X01914Y00952*
X01949*
X0195Y00952*
X0195Y00952*
X01951Y00952*
X0195Y00967*
X0195Y00967*
X0195Y00968*
G37*
G36*
X02022Y00969D02*
X02015Y00969D01*
X02015Y00969*
X02014Y00968*
X02012Y00968*
X02011Y00968*
X02011Y00968*
X0201Y00968*
X0201Y00968*
X0201Y00968*
X02009Y00968*
X02008Y00967*
X02008Y00967*
X02007Y00967*
X02007Y00967*
X02007Y00967*
X02006Y00967*
X02006Y00967*
X02005Y00966*
X02005Y00966*
X02004Y00966*
X02004Y00966*
X02003Y00966*
X02003Y00966*
X02003Y00965*
X02002Y00965*
X02002Y00965*
X02002Y00965*
X02001Y00965*
X02001Y00965*
X02001Y00964*
X02Y00964*
X02Y00964*
X02Y00964*
X01999Y00964*
X01999Y00963*
X01999Y00963*
X01998Y00963*
X01998Y00963*
X01998Y00963*
X01997Y00962*
X01997Y00962*
X01996Y00962*
X01996Y00961*
X01995Y00961*
X01995Y00961*
X01995Y00961*
X01995Y00961*
X01995Y00961*
X01995Y0096*
X01995Y0096*
X01994Y0096*
X01994Y0096*
X01994Y0096*
X01994Y0096*
X01994Y00959*
X01994Y00959*
X01993Y00959*
X01993Y00959*
X01993Y00959*
X01993Y00959*
X01993Y00959*
X01993Y00958*
X01992Y00958*
X01992Y00958*
X01992Y00958*
X01992Y00958*
X01992Y00958*
X01992Y00958*
X01992Y00957*
X01992Y00957*
X01991Y00957*
X01991Y00957*
X01991Y00956*
X01991Y00956*
X0199Y00956*
X0199Y00955*
X0199Y00955*
X0199Y00955*
X0199Y00955*
X01989Y00954*
X01989Y00954*
X01989Y00954*
X01989Y00953*
X01989Y00953*
X01989Y00953*
X01988Y00953*
X01988Y00952*
X01988Y00952*
X01988Y00952*
X01988Y00952*
X01988Y00951*
X01988Y00951*
X01988Y00951*
X01987Y00951*
X01987Y00951*
X01987Y0095*
X01987Y0095*
X01987Y00949*
X01987Y00949*
X01987Y00948*
X01986Y00947*
X01986Y00947*
X01986Y00946*
X01985Y00945*
X01985Y00945*
X01985Y00944*
X01985Y00944*
X01985Y00943*
X01985Y00943*
X01985Y00942*
X01985Y00941*
X01985Y00941*
X01984Y00941*
X01984Y00941*
X01984Y0094*
X01984Y00939*
X01984Y00938*
X01984Y00937*
X01984Y00937*
X01984Y00937*
X01984Y00936*
X01984Y00936*
X01984Y00933*
X01984Y00932*
X01984Y00932*
X01984Y0093*
X01984Y0093*
X01984Y00929*
X01984Y00927*
X01984Y00927*
X01984Y00926*
X01984Y00925*
X01984Y00925*
X01984Y00925*
X01984Y00923*
X01984Y00923*
X01984Y00922*
X01985Y00922*
X01985Y00921*
X01985Y00921*
X01985Y0092*
X01985Y00919*
X01985Y00919*
X01985Y00919*
X01985Y00918*
X01985Y00918*
X01985Y00917*
X01986Y00917*
X01986Y00916*
X01986Y00916*
X01986Y00915*
X01986Y00915*
X01987Y00914*
X01987Y00914*
X01987Y00913*
X01987Y00913*
X01987Y00913*
X01987Y00913*
X01987Y00912*
X01988Y00912*
X01988Y00911*
X01988Y00911*
X01988Y0091*
X01989Y0091*
X01989Y0091*
X01989Y00909*
X01989Y00909*
X01989Y00909*
X0199Y00909*
X0199Y00908*
X0199Y00908*
X01991Y00907*
X01991Y00907*
X01991Y00907*
X01991Y00907*
X01991Y00906*
X01991Y00906*
X01992Y00905*
X01992Y00905*
X01992Y00905*
X01992Y00905*
X01993Y00905*
X01993Y00904*
X01993Y00904*
X01993Y00904*
X01993Y00904*
X01993Y00904*
X01996Y00901*
X01996Y00901*
X01996Y00901*
X01996Y00901*
X01997Y00901*
X01997Y009*
X01997Y009*
X01997Y009*
X01997Y009*
X01998Y009*
X01998Y00899*
X01999Y00899*
X01999Y00899*
X01999Y00899*
X02Y00898*
X02Y00898*
X02001Y00898*
X02001Y00897*
X02002Y00897*
X02002Y00897*
X02002Y00897*
X02003Y00897*
X02003Y00897*
X02003Y00897*
X02004Y00896*
X02004Y00896*
X02004Y00896*
X02004Y00896*
X02005Y00896*
X02006Y00896*
X02006Y00896*
X02007Y00895*
X02007Y00895*
X02007Y00895*
X02008Y00895*
X02008Y00895*
X02009Y00895*
X0201Y00895*
X0201Y00895*
X02011Y00894*
X02011Y00894*
X02012Y00894*
X02012Y00894*
X02013Y00894*
X02014Y00894*
X02014Y00894*
X02015Y00894*
X02016Y00894*
X02016Y00894*
X02021Y00894*
X02024Y00894*
X02025Y00894*
X02027Y00894*
X02027Y00894*
X02028Y00894*
X02028Y00894*
X02029Y00894*
X0203Y00894*
X0203Y00894*
X02031Y00894*
X02031*
X02031Y00894*
X02031Y00894*
X02032Y00895*
X02032Y00895*
X02033Y00895*
X02033Y00895*
X02034Y00895*
X02034Y00895*
X02034Y00895*
X02035Y00895*
X02035Y00895*
X02035Y00896*
X02036Y00896*
X02036Y00896*
X02036Y00896*
X02037Y00896*
X02037Y00896*
X02038Y00897*
X02038Y00897*
X02039Y00897*
X02039Y00897*
X02039Y00897*
X0204Y00897*
X0204Y00898*
X0204Y00898*
X0204Y00898*
X02041Y00898*
X02041Y00898*
X02041Y00898*
X02041Y00898*
X02042Y00899*
X02042Y00899*
X02042Y00899*
X02043Y00899*
X02043Y009*
X02043Y009*
X02043Y009*
X02044Y009*
X02044Y009*
X02044Y00901*
X02044Y00901*
X02044Y00901*
X02045Y00901*
X02045Y00901*
X02045Y00901*
X02045Y00902*
X02045Y00902*
X02045Y00902*
X02046Y00902*
X02046Y00902*
X02046Y00902*
X02046Y00902*
X02046Y00903*
X02046Y00903*
X02047Y00903*
X02047Y00903*
X02047Y00903*
X02047Y00903*
X02047Y00904*
X02047Y00904*
X02048Y00904*
X02048Y00905*
X02048Y00905*
X02049Y00905*
X02049Y00906*
X02049Y00906*
X02049Y00906*
X0205Y00907*
X0205Y00907*
X0205Y00907*
X0205Y00908*
X02051Y00908*
X02051Y00909*
X02051Y00909*
X02051Y0091*
X02052Y0091*
X02052Y0091*
X02052Y00911*
X02052Y00911*
X02052Y00912*
X02052Y00912*
X02052Y00912*
X02053Y00913*
X02053Y00913*
X02053Y00913*
X02053Y00914*
X02053Y00914*
X02053Y00914*
X02054Y00916*
X02054Y00916*
X02054Y00917*
X02054Y00917*
X02054Y00918*
X02054Y00918*
X02054Y00918*
X02054Y00919*
X02054Y00919*
X02053Y00919*
X02053Y00919*
X02052Y00919*
X02052Y0092*
X02052Y0092*
X02051Y0092*
X02051Y0092*
X02051Y0092*
X02051Y0092*
X0205Y0092*
X0205Y0092*
X02049Y0092*
X02048Y00921*
X02048Y00921*
X02047Y00921*
X02047Y00921*
X02047Y00921*
X02046Y00921*
X02046Y00921*
X02045Y00922*
X02045Y00922*
X02044Y00922*
X02043Y00922*
X02043Y00922*
X02043Y00922*
X02042Y00923*
X02042Y00923*
X02041Y00923*
X02041Y00923*
X0204Y00923*
X02039Y00923*
X02039Y00924*
X02038Y00924*
X02038Y00924*
X02037Y00924*
X02037Y00924*
X02036Y00924*
X02036Y00924*
X02036Y00925*
X02035Y00925*
X02035Y00925*
X02035Y00925*
X02035Y00925*
X02034Y00924*
X02034Y00924*
X02034Y00923*
X02034Y00923*
X02034Y00922*
X02034Y00921*
X02033Y00921*
X02033Y0092*
X02033Y0092*
X02033Y00919*
X02033Y00919*
X02033Y00918*
X02032Y00918*
X02032Y00918*
X02032Y00918*
X02032Y00917*
X02032Y00917*
X02031Y00917*
X02031Y00916*
X02031Y00916*
X02031Y00915*
X02031Y00915*
X0203Y00915*
X0203Y00915*
X02029Y00914*
X02029Y00914*
X02029Y00914*
X02029Y00913*
X02029Y00913*
X02028Y00913*
X02028Y00913*
X02028Y00912*
X02027Y00912*
X02027Y00912*
X02026Y00912*
X02026Y00912*
X02026Y00912*
X02026Y00912*
X02025Y00912*
X02025Y00911*
X02024Y00911*
X02024Y00911*
X02024Y00911*
X02023Y00911*
X02022Y00911*
X02021Y00911*
X02021Y00911*
X0202Y00911*
X02019Y00911*
X02017Y00911*
X02017Y00911*
X02017Y00911*
X02016Y00911*
X02015Y00912*
X02014Y00912*
X02014Y00912*
X02014Y00912*
X02013Y00912*
X02013Y00912*
X02013Y00912*
X02013Y00913*
X02013Y00913*
X02012Y00913*
X02012Y00913*
X02012Y00913*
X02011Y00914*
X02011Y00914*
X02011Y00914*
X0201Y00915*
X0201Y00915*
X0201Y00915*
X0201Y00916*
X0201Y00916*
X02009Y00916*
X02009Y00917*
X02009Y00917*
X02009Y00917*
X02009Y00918*
X02008Y00918*
X02008Y00918*
X02008Y00919*
X02008Y00919*
X02008Y0092*
X02008Y0092*
X02008Y00921*
X02007Y00921*
X02007Y00922*
X02007Y00922*
X02007Y00923*
X02007Y00924*
X02007Y00925*
X02007Y00925*
X02007Y00927*
X02007Y00927*
X02007Y00927*
X02007Y00928*
X02007Y00929*
X02007Y00929*
X02006Y0093*
X02006Y0093*
X02006Y00933*
X02006Y00933*
X02007Y00933*
X02007Y00934*
X02007Y00934*
X02007Y00935*
X02007Y00935*
X02007Y00936*
X02007Y00936*
X02007Y00937*
X02007Y00937*
X02007Y00938*
X02007Y00939*
X02007Y00939*
X02007Y0094*
X02008Y00941*
X02008Y00941*
X02008Y00942*
X02008Y00942*
X02008Y00942*
X02008Y00943*
X02008Y00944*
X02008Y00944*
X02009Y00944*
X02009Y00944*
X02009Y00944*
X02009Y00945*
X02009Y00945*
X02009Y00945*
X02009Y00946*
X0201Y00946*
X0201Y00946*
X0201Y00946*
X0201Y00947*
X02011Y00947*
X02011Y00947*
X02011Y00947*
X02011Y00947*
X02011Y00948*
X02011Y00948*
X02012Y00948*
X02012Y00949*
X02012Y00949*
X02013Y00949*
X02013Y00949*
X02013Y00949*
X02014Y0095*
X02014Y0095*
X02014Y0095*
X02015Y0095*
X02015Y00951*
X02015Y00951*
X02016Y00951*
X02016Y00951*
X02017Y00951*
X02017Y00951*
X02018Y00951*
X02018Y00951*
X0202Y00952*
X0202Y00952*
X0202Y00952*
X02023Y00952*
X02023Y00952*
X02023Y00951*
X02025Y00951*
X02025Y00951*
X02025Y00951*
X02026Y00951*
X02026Y00951*
X02027Y00951*
X02027Y0095*
X02027Y0095*
X02027Y0095*
X02028Y0095*
X02028Y0095*
X02028Y0095*
X02028Y0095*
X02029Y00949*
X02029Y00949*
X02029Y00949*
X0203Y00949*
X0203Y00949*
X0203Y00948*
X0203Y00948*
X0203Y00948*
X0203Y00948*
X0203Y00948*
X02031Y00948*
X02031Y00947*
X02031Y00947*
X02031Y00947*
X02031Y00947*
X02032Y00946*
X02032Y00946*
X02032Y00946*
X02032Y00945*
X02033Y00945*
X02033Y00944*
X02033Y00944*
X02033Y00943*
X02033Y00942*
X02033Y00942*
X02034Y00942*
X02034Y00942*
X02035Y00942*
X02036Y00942*
X02036Y00942*
X02036Y00942*
X02037Y00942*
X02037Y00942*
X02038Y00942*
X02038Y00943*
X02039Y00943*
X0204Y00943*
X02041Y00943*
X02041Y00943*
X02042Y00943*
X02042Y00943*
X02043Y00943*
X02043Y00944*
X02044Y00944*
X02044Y00944*
X02045Y00944*
X02046Y00944*
X02046Y00944*
X02047Y00944*
X02047Y00945*
X02048Y00945*
X02048Y00945*
X02049Y00945*
X02049Y00945*
X0205Y00945*
X0205Y00945*
X02051Y00945*
X02051Y00945*
X02052Y00945*
X02052Y00946*
X02052Y00946*
X02053Y00946*
X02053Y00946*
X02054Y00946*
X02054Y00946*
X02054Y00947*
X02053Y00948*
X02053Y00948*
X02053Y00949*
X02053Y00949*
X02053Y00949*
X02052Y00949*
X02052Y0095*
X02052Y0095*
X02052Y00951*
X02052Y00951*
X02052Y00952*
X02051Y00952*
X02051Y00952*
X02051Y00952*
X02051Y00953*
X02051Y00953*
X02051Y00953*
X02051Y00953*
X0205Y00954*
X0205Y00954*
X0205Y00954*
X0205Y00955*
X02049Y00955*
X02049Y00956*
X02049Y00956*
X02049Y00956*
X02049Y00957*
X02049Y00957*
X02048Y00957*
X02048Y00957*
X02048Y00958*
X02048Y00958*
X02048Y00958*
X02047Y00959*
X02047Y00959*
X02047Y00959*
X02047Y00959*
X02047Y00959*
X02046Y00959*
X02046Y0096*
X02046Y0096*
X02046Y0096*
X02046Y0096*
X02046Y0096*
X02045Y00961*
X02045Y00961*
X02045Y00961*
X02044Y00962*
X02044Y00962*
X02044Y00962*
X02044Y00962*
X02044Y00962*
X02043Y00962*
X02043Y00962*
X02043Y00963*
X02042Y00963*
X02042Y00963*
X02042Y00964*
X02041Y00964*
X02041Y00964*
X02041Y00964*
X0204Y00964*
X0204Y00965*
X0204Y00965*
X02039Y00965*
X02039Y00965*
X02039Y00965*
X02038Y00966*
X02038Y00966*
X02038Y00966*
X02037Y00966*
X02037Y00966*
X02037Y00966*
X02036Y00966*
X02036Y00966*
X02035Y00967*
X02035Y00967*
X02034Y00967*
X02034Y00967*
X02033Y00967*
X02033Y00967*
X02033Y00967*
X02032Y00968*
X02032Y00968*
X02031Y00968*
X02031Y00968*
X0203Y00968*
X0203Y00968*
X02029Y00968*
X02029Y00968*
X02028Y00968*
X02028Y00968*
X02028Y00968*
X02026Y00969*
X02026Y00969*
X02022Y00969*
G37*
G36*
X0211Y00968D02*
X0211Y00967D01*
X02088Y00967*
X02088Y00967*
X02088Y00967*
Y00901*
Y009*
X02088Y00895*
X02088Y00895*
X02088Y00895*
X0211Y00895*
X02111Y00895*
X02111Y00895*
X02111Y00896*
X02111Y00924*
X02111Y00924*
X02111Y00924*
X02111Y00924*
X02111Y00924*
X02112Y00924*
X02134Y00924*
X02134Y00924*
X02135Y00924*
X02135Y00924*
X02135Y00895*
X02135Y00895*
X02135Y00895*
X02157Y00895*
X02158Y00895*
X02158Y00896*
X02158Y00967*
X02158Y00967*
X02158Y00967*
X02158Y00967*
X02157Y00967*
X02157Y00967*
X02157Y00967*
X02135Y00967*
X02135Y00967*
X02135Y00967*
X02135Y00943*
X02135Y00942*
X02134Y00942*
X02134Y00942*
X02133Y00942*
X02111Y00942*
X02111Y00942*
X02111Y00943*
X02111Y00967*
X02111Y00967*
X02111Y00967*
X0211Y00968*
G37*
%LNsbtech_icarusboard_1v0-3*%
%LPD*%
G54D10*
X0023Y00467D03*
X00155D03*
X00193Y00372D03*
G54D11*
X02736Y01147D03*
X02786D03*
X02836Y01148D03*
X02886Y01147D03*
Y01373D03*
X02836Y01373D03*
X02786Y01373D03*
X02736D03*
G54D12*
X02811Y0126D03*
G54D13*
X00435Y01679D03*
X0036D03*
X00173D03*
X00248D03*
G54D14*
X00397Y01599D03*
X0021D03*
G54D15*
X00571Y00952D03*
Y00877D03*
X00478D03*
Y00915D03*
Y00952D03*
G54D16*
X0118Y03184D03*
X01115D03*
X013D03*
X01235D03*
X00502Y0081D03*
X00567D03*
X01045Y01089D03*
X0111D03*
X0043Y02104D03*
X00365D03*
X02835Y01009D03*
X029D03*
X0281Y01524D03*
X02745D03*
X02717Y01008D03*
X02782D03*
X00935Y02319D03*
X01D03*
X01048Y0329D03*
X00983D03*
X01045Y00983D03*
X0111D03*
X00365Y02059D03*
X0043D03*
X0281Y01474D03*
X02745D03*
X02835Y01064D03*
X029D03*
X02255Y02964D03*
X0232D03*
G54D17*
X01292Y03251D03*
Y03271D03*
Y0329D03*
Y0331D03*
Y0333D03*
X01123D03*
Y0331D03*
Y0329D03*
Y03271D03*
Y03251D03*
G54D18*
X00751Y02398D03*
X00777D03*
X00802D03*
X00828D03*
X00854D03*
X00879D03*
X00905D03*
X0093D03*
X00956D03*
X00982D03*
X01007D03*
X01033D03*
X01058D03*
X01084D03*
X00751Y0267D03*
X00777D03*
X00802D03*
X00828D03*
X00854D03*
X00879D03*
X00905D03*
X0093D03*
X00956D03*
X00982D03*
X01007D03*
X01033D03*
X01058D03*
X01084D03*
G54D19*
X01553Y02507D03*
Y02527D03*
Y02546D03*
Y02566D03*
X01462D03*
Y02546D03*
Y02527D03*
Y02507D03*
G54D20*
X01527Y02572D03*
X01508D03*
X01488D03*
Y02501D03*
X01508D03*
X01527D03*
G54D21*
X00818Y03294D03*
X00918D03*
Y03027D03*
X00818D03*
X00628Y03294D03*
X00728D03*
Y03027D03*
X00628D03*
X00438Y03294D03*
X00538D03*
Y03027D03*
X00438D03*
X00248Y03294D03*
X00348D03*
Y03027D03*
X00248D03*
G54D22*
X0005Y02579D03*
X00592D03*
Y02252D03*
X0005Y02252D03*
G54D23*
X00143Y02354D03*
X00186Y02355D03*
X0023Y02354D03*
X00273D03*
X00317D03*
X0036D03*
X00403D03*
X00447D03*
G54D24*
X02498Y01437D03*
Y01651D03*
G54D25*
X02758Y00778D03*
X02874D03*
X02789Y01764D03*
X02906D03*
X02789Y01634D03*
X02906D03*
X02758Y00908D03*
X02874D03*
G54D26*
X01808Y01184D03*
Y01301D03*
X01688Y01184D03*
Y01301D03*
G54D27*
X01498Y02344D03*
X01517D03*
Y02409D03*
X01498D03*
G54D28*
X0154Y02357D03*
Y02376D03*
Y02396D03*
X01475D03*
Y02376D03*
Y02357D03*
G54D29*
X00143Y00543D03*
X00242D03*
Y00723D03*
X00143D03*
G54D30*
X01504Y02938D03*
G54D31*
X01448Y02901D03*
Y02938D03*
Y02976D03*
X01559D03*
Y02938D03*
Y02901D03*
G54D32*
X01252Y01087D03*
X01164D03*
G54D33*
X01838Y03498D03*
Y0341D03*
Y03638D03*
Y0355D03*
X01478Y03498D03*
Y0341D03*
Y0364D03*
Y03552D03*
X01758Y03498D03*
Y0341D03*
Y03638D03*
Y0355D03*
X01398Y03498D03*
Y0341D03*
Y03641D03*
Y03553D03*
X01118Y03498D03*
Y0341D03*
Y03641D03*
Y03553D03*
X00938Y03498D03*
Y0341D03*
Y03641D03*
Y03553D03*
G54D34*
X00268Y00808D03*
X00118D03*
X00268Y0101D03*
X00218D03*
X00168D03*
X00118D03*
X00218Y00808D03*
X00168D03*
G54D35*
X00949Y00983D03*
Y00833D03*
X00747Y00983D03*
Y00933D03*
Y00883D03*
Y00833D03*
X00949Y00933D03*
Y00883D03*
G54D36*
X02732Y00638D03*
X02901D03*
G54D37*
X00813Y03593D03*
Y03436D03*
X00658Y03593D03*
Y03436D03*
X00508Y03593D03*
Y03436D03*
X00358Y03593D03*
Y03436D03*
G54D38*
X02398Y00778D03*
X02555D03*
G54D39*
X00447Y01742D03*
Y01807D03*
X00347Y01742D03*
Y01807D03*
X00248Y01742D03*
Y01807D03*
X00188Y02102D03*
Y02037D03*
X00278Y02102D03*
Y02037D03*
X02493Y03542D03*
Y03607D03*
X02703Y03542D03*
Y03607D03*
X02493Y02912D03*
Y02977D03*
X02608Y03032D03*
Y03097D03*
X02493D03*
Y03032D03*
X02563Y03542D03*
Y03607D03*
X02423Y03542D03*
Y03607D03*
X02284Y03542D03*
Y03607D03*
X02353Y03542D03*
Y03607D03*
X02493Y03152D03*
Y03217D03*
X02548Y03097D03*
Y03032D03*
X00158Y03192D03*
Y03127D03*
X00103Y03192D03*
Y03127D03*
X01008Y02812D03*
Y02747D03*
X00918Y02954D03*
Y02889D03*
X00728Y02954D03*
Y02889D03*
X00538Y02954D03*
Y02889D03*
X00347Y02954D03*
Y02889D03*
X01948Y03487D03*
Y03422D03*
X01588Y03487D03*
Y03422D03*
X01898D03*
Y03487D03*
X01538Y03422D03*
Y03487D03*
X01898Y03532D03*
Y03597D03*
X01538Y03532D03*
Y03597D03*
X01648Y03487D03*
Y03422D03*
X01288Y03487D03*
Y03422D03*
X01698D03*
Y03487D03*
X01337Y03422D03*
Y03487D03*
X01698Y03532D03*
Y03597D03*
X01337Y03532D03*
Y03597D03*
X01228Y03487D03*
Y03422D03*
X01178D03*
Y03487D03*
X01177Y03532D03*
Y03597D03*
X01048Y03487D03*
Y03422D03*
X00998D03*
Y03487D03*
X01048Y03532D03*
Y03597D03*
X00298Y00609D03*
Y00544D03*
X00088Y00609D03*
Y00544D03*
X01228Y02367D03*
Y02302D03*
Y02412D03*
Y02477D03*
X02938Y01132D03*
Y01067D03*
X02868Y01537D03*
Y01472D03*
X02608Y03152D03*
Y03217D03*
X01948Y03532D03*
Y03597D03*
X01588Y03532D03*
Y03597D03*
X01648Y03532D03*
Y03597D03*
X01288Y03532D03*
Y03597D03*
X01228Y03532D03*
Y03597D03*
X00998Y03532D03*
Y03597D03*
X00298Y00479D03*
Y00414D03*
X00088Y00484D03*
Y00419D03*
X00063Y00877D03*
Y00942D03*
X00333Y00949D03*
Y00884D03*
X01378Y02342D03*
Y02407D03*
X01424Y02342D03*
Y02407D03*
X01603Y02602D03*
Y02537D03*
X01402D03*
Y02602D03*
Y02938D03*
Y03003D03*
X02918Y01537D03*
Y01472D03*
X02656Y01236D03*
Y01301D03*
G54D40*
X00403Y00874D03*
Y00964D03*
G54D41*
X00448Y01994D03*
X00358D03*
G54D42*
X02498Y01298D03*
Y01051D03*
G54D43*
X02378Y03047D03*
Y03097D03*
Y03147D03*
Y03197D03*
X02185Y03047D03*
Y03097D03*
Y03147D03*
Y03197D03*
G54D45*
X0Y0D02*
X03011D01*
Y04311*
X0D02*
X03011D01*
X0Y0D02*
Y04311D01*
G54D55*
X01413Y02754D02*
D01*
X01414Y02753*
X01415Y02752*
X01416Y02752*
X01417Y02751*
X01418Y02751*
X01419Y0275*
X0142Y0275*
X01421Y0275*
X01422Y02749*
X01423Y02749*
X01424Y02749*
X01424Y02749*
D01*
X01425Y02749*
X01426Y02749*
X01428Y0275*
X01429Y0275*
X0143Y0275*
X01431Y02751*
X01432Y02751*
X01433Y02752*
X01434Y02753*
X01435Y02753*
X01436Y02754*
X01436Y02754*
X0144Y02758D02*
D01*
X01441Y02759*
X01441Y0276*
X01442Y0276*
X01442Y02761*
X01443Y02762*
X01443Y02763*
X01443Y02764*
X01444Y02764*
X01444Y02765*
X01444Y02766*
X01444Y02767*
X01444Y02767*
Y02769D02*
D01*
X01444Y02771*
X01444Y02772*
X01444Y02773*
X01443Y02774*
X01443Y02776*
X01442Y02777*
X01442Y02778*
X01441Y02779*
X0144Y0278*
X0144Y02781*
X01439Y02782*
X01438Y02783*
X01362Y02867D02*
D01*
X01362Y02865*
X01363Y02864*
X01363Y02863*
X01363Y02861*
X01364Y0286*
X01364Y02859*
X01365Y02857*
X01365Y02856*
X01366Y02855*
X01367Y02854*
X01368Y02853*
X01368Y02853*
X01368Y03038D02*
D01*
X01367Y03037*
X01366Y03036*
X01365Y03035*
X01365Y03034*
X01364Y03033*
X01364Y03032*
X01363Y03031*
X01363Y03029*
X01363Y03028*
X01363Y03027*
X01362Y03025*
Y03025*
X01381Y03044D02*
D01*
X0138Y03044*
X01379Y03044*
X01377Y03043*
X01376Y03043*
X01375Y03043*
X01374Y03042*
X01372Y03042*
X01371Y03041*
X0137Y0304*
X01369Y03039*
X01368Y03039*
X01368Y03038*
X01649Y03038D02*
D01*
X01648Y03039*
X01647Y0304*
X01646Y03041*
X01645Y03042*
X01643Y03042*
X01642Y03043*
X01641Y03043*
X0164Y03043*
X01639Y03044*
X01637Y03044*
X01636Y03044*
X01636Y03044*
X01656Y03026D02*
D01*
X01656Y03027*
X01656Y03028*
X01655Y03029*
X01655Y0303*
X01655Y0303*
X01655Y03031*
X01654Y03032*
X01654Y03033*
X01653Y03034*
X01653Y03034*
X01652Y03035*
X01652Y03035*
X0165Y02853D02*
D01*
X01651Y02854*
X01652Y02855*
X01653Y02856*
X01653Y02858*
X01654Y02859*
X01654Y0286*
X01655Y02861*
X01655Y02862*
X01655Y02864*
X01656Y02865*
X01656Y02866*
X01656Y02867*
X01579Y02783D02*
D01*
X01578Y02782*
X01578Y02781*
X01577Y02779*
X01576Y02778*
X01576Y02777*
X01575Y02776*
X01575Y02775*
X01574Y02773*
X01574Y02772*
X01574Y02771*
X01574Y0277*
X01574Y02769*
D01*
X01574Y02768*
X01574Y02767*
X01574Y02766*
X01574Y02764*
X01575Y02763*
X01575Y02762*
X01576Y02761*
X01576Y0276*
X01577Y02759*
X01578Y02758*
X01579Y02757*
X01579Y02757*
X01583Y02753D02*
D01*
X01584Y02752*
X01584Y02752*
X01585Y02752*
X01585Y02751*
X01586Y02751*
X01586Y02751*
X01587Y0275*
X01587Y0275*
X01588Y0275*
X01589Y0275*
X01589Y0275*
X0159Y0275*
D01*
X01592Y0275*
X01594Y0275*
X01596Y02751*
X01598Y02751*
X01601Y02752*
X01603Y02753*
X01605Y02754*
X01607Y02755*
X01609Y02756*
X0161Y02758*
X01612Y02759*
X01612Y0276*
X01678Y02825D02*
D01*
X0168Y02828*
X01683Y02831*
X01685Y02834*
X01687Y02838*
X01689Y02841*
X01691Y02845*
X01692Y02849*
X01693Y02853*
X01694Y02856*
X01694Y0286*
X01694Y02864*
X01695Y02866*
Y03025D02*
D01*
X01694Y03029*
X01694Y03033*
X01693Y03037*
X01692Y03041*
X01691Y03045*
X0169Y03049*
X01688Y03052*
X01686Y03056*
X01683Y03059*
X01681Y03062*
X01678Y03065*
X01678Y03066*
D01*
X01675Y03069*
X01671Y03072*
X01668Y03074*
X01664Y03076*
X01661Y03078*
X01657Y0308*
X01653Y03081*
X01649Y03082*
X01645Y03083*
X01641Y03083*
X01637Y03084*
X01636Y03084*
X01382D02*
D01*
X01378Y03083*
X01374Y03083*
X0137Y03082*
X01366Y03081*
X01362Y0308*
X01358Y03078*
X01355Y03077*
X01351Y03075*
X01348Y03072*
X01344Y0307*
X01341Y03067*
X01341Y03066*
X01339Y03065D02*
D01*
X01336Y03062*
X01334Y03059*
X01332Y03056*
X0133Y03053*
X01328Y03049*
X01327Y03046*
X01326Y03043*
X01325Y03039*
X01324Y03035*
X01324Y03032*
X01323Y03028*
X01323Y03027*
Y02861D02*
D01*
X01323Y02858*
X01324Y02855*
X01324Y02852*
X01325Y02849*
X01326Y02847*
X01327Y02844*
X01328Y02841*
X0133Y02839*
X01331Y02836*
X01333Y02834*
X01335Y02832*
X01336Y02831*
X01412Y02755D02*
X01413Y02754D01*
X01436Y02754D02*
X0144Y02758D01*
X01444Y02767D02*
Y02769D01*
X01368Y02853D02*
X01438Y02783D01*
X01362Y02867D02*
Y03015D01*
Y03025*
X01382Y03044D02*
X01636D01*
X01649Y03038D02*
X01652Y03035D01*
X01656Y02867D02*
Y03026D01*
X01579Y02783D02*
X0165Y02853D01*
X01579Y02757D02*
X01583Y02753D01*
X01612Y0276D02*
X01678Y02825D01*
X01695Y02866D02*
Y03025D01*
X01382Y03084D02*
X01636D01*
X01339Y03065D02*
X01341Y03066D01*
X01323Y02861D02*
Y03027D01*
X01336Y02831D02*
X01416Y02751D01*
G54D56*
X00158Y03434D03*
G54D57*
X00158Y03534D03*
Y03634D03*
Y03734D03*
G54D58*
X01662Y02194D03*
G54D59*
X01562Y02194D03*
X01462D03*
X01362D03*
G54D60*
X02263Y03768D03*
X02125Y03964D03*
X01988Y03768D03*
X0185Y03964D03*
X02401D03*
X02539Y03768D03*
X01712D03*
X01574Y03964D03*
X01437Y03768D03*
X01299Y03964D03*
X00472D03*
X0061Y03768D03*
X00748Y03964D03*
X00885Y03768D03*
X01023Y03964D03*
X01161Y03768D03*
X00748Y00542D03*
X00885Y00346D03*
X01023Y00542D03*
X01161Y00346D03*
X0061D03*
X00472Y00542D03*
X01299D03*
X01437Y00346D03*
X01574Y00542D03*
X01712Y00346D03*
X02539D03*
X02401Y00542D03*
X02263Y00346D03*
X02125Y00542D03*
X01988Y00346D03*
X0185Y00542D03*
G54D61*
X02704Y03364D03*
X02564D03*
X02424D03*
X02284D03*
G54D62*
X02094Y03404D03*
X02894D03*
G54D63*
X02144Y02514D03*
G54D64*
X02244Y02514D03*
X02344D03*
X02444D03*
X02544D03*
X02644D03*
X02744D03*
X02844D03*
G54D65*
X01548Y01184D03*
G54D66*
X01448Y01184D03*
X01348D03*
X01248D03*
X01148D03*
X01048D03*
X00948D03*
X00848D03*
X00748D03*
X00648D03*
X00548D03*
X00448D03*
X00348D03*
X00248D03*
Y01884D03*
X00348D03*
X00448D03*
X00548D03*
X00648D03*
X00748D03*
X00848D03*
X00948D03*
X01048D03*
X01148D03*
X01248D03*
X01348D03*
X01448D03*
X01548D03*
G54D67*
X02844Y00187D03*
X00167D03*
Y04124D03*
X02844D03*
Y02155D03*
G54D68*
X02718Y01764D03*
X02906Y00508D03*
X0294Y019D03*
X0202Y0187D03*
G54D92*
X00125Y03895D03*
X0276Y00425D03*
M02*