%FSTAX23Y23*%
%MOIN*%
%SFA1B1*%

%IPPOS*%
%AMD57*
4,1,8,0.000000,-0.033500,0.000000,-0.033500,0.033500,0.000000,0.033500,0.000000,0.000000,0.033500,0.000000,0.033500,-0.033500,0.000000,-0.033500,0.000000,0.000000,-0.033500,0.0*
1,1,0.066940,0.000000,0.000000*
1,1,0.066940,0.000000,0.000000*
1,1,0.066940,0.000000,0.000000*
1,1,0.066940,0.000000,0.000000*
%
%AMD59*
4,1,8,0.033500,0.000000,0.033500,0.000000,0.000000,0.033500,0.000000,0.033500,-0.033500,0.000000,-0.033500,0.000000,0.000000,-0.033500,0.000000,-0.033500,0.033500,0.000000,0.0*
1,1,0.066940,0.000000,0.000000*
1,1,0.066940,0.000000,0.000000*
1,1,0.066940,0.000000,0.000000*
1,1,0.066940,0.000000,0.000000*
%
%AMD68*
4,1,8,0.019700,0.039400,-0.019700,0.039400,-0.039400,0.019700,-0.039400,-0.019700,-0.019700,-0.039400,0.019700,-0.039400,0.039400,-0.019700,0.039400,0.019700,0.019700,0.039400,0.0*
1,1,0.039360,0.019700,0.019700*
1,1,0.039360,-0.019700,0.019700*
1,1,0.039360,-0.019700,-0.019700*
1,1,0.039360,0.019700,-0.019700*
%
%ADD44C,0.015000*%
%ADD45C,0.010000*%
%ADD47C,0.020000*%
%ADD55C,0.005910*%
%ADD56R,0.066930X0.066930*%
G04~CAMADD=57~8~0.0~0.0~669.3~669.3~334.7~0.0~15~0.0~0.0~0.0~0.0~0~0.0~0.0~0.0~0.0~0~0.0~0.0~0.0~180.0~670.0~669.0*
%ADD57D57*%
%ADD58R,0.066930X0.066930*%
G04~CAMADD=59~8~0.0~0.0~669.3~669.3~334.7~0.0~15~0.0~0.0~0.0~0.0~0~0.0~0.0~0.0~0.0~0~0.0~0.0~0.0~270.0~670.0~669.0*
%ADD59D59*%
%ADD60C,0.086610*%
%ADD61C,0.090000*%
%ADD62C,0.150000*%
%ADD63R,0.059050X0.059050*%
%ADD64C,0.059050*%
%ADD65R,0.066930X0.078740*%
%ADD66O,0.066930X0.078740*%
%ADD67C,0.236220*%
G04~CAMADD=68~8~0.0~0.0~787.4~787.4~196.8~0.0~15~0.0~0.0~0.0~0.0~0~0.0~0.0~0.0~0.0~0~0.0~0.0~0.0~0.0~787.4~787.4*
%ADD68D68*%
%ADD69C,0.031500*%
%LNsbtech_icarusboard_1v0-1*%
%LPD*%
G36*
X02996Y03434D02*
X02977Y03431D01*
X02975Y03438*
X02966Y03453*
X02956Y03466*
X02942Y03477*
X02927Y03485*
X02911Y0349*
X02894Y03492*
X02877Y0349*
X02861Y03485*
X02845Y03477*
X02832Y03466*
X02821Y03453*
X02813Y03438*
X02808Y03421*
X02807Y03404*
X02808Y03387*
X02813Y03371*
X02821Y03356*
X02832Y03343*
X02845Y03332*
X02861Y03324*
X02877Y03319*
X02894Y03317*
X02911Y03319*
X02927Y03324*
X02942Y03332*
X02956Y03343*
X02966Y03356*
X02975Y03371*
X02977Y03378*
X02996Y03375*
Y01952*
X0299Y01947*
X02977Y01943*
X02974Y01945*
X02967Y01948*
X02959Y01949*
X0295*
Y019*
Y0185*
X02959*
X02967Y01851*
X02974Y01854*
X02977Y01856*
X0299Y01852*
X02996Y01847*
Y00015*
X00015*
Y0385*
X00022Y03852*
X00034Y03853*
X00042Y03839*
X00054Y03824*
X00069Y03812*
X00086Y03803*
X00105Y03797*
X00125Y03795*
X00132Y03796*
X00137Y03796*
X00142Y03777*
X00135Y03774*
X00125Y03767*
X00118Y03757*
X00113Y03746*
X00112Y03734*
X00113Y03723*
X00118Y03712*
X00125Y03702*
X00135Y03695*
Y03674*
X00125Y03667*
X00118Y03657*
X00113Y03646*
X00112Y03634*
X00113Y03623*
X00118Y03612*
X00125Y03602*
X00135Y03595*
Y03574*
X00125Y03567*
X00118Y03557*
X00113Y03546*
X00112Y03534*
X00113Y03523*
X00118Y03512*
X00125Y03502*
X00129Y03499*
X00122Y0348*
X00112*
Y03389*
X00203*
Y0348*
X00193*
X00186Y03499*
X0019Y03502*
X00197Y03512*
X00202Y03523*
X00203Y03534*
X00202Y03546*
X00197Y03557*
X0019Y03567*
X0018Y03574*
Y03595*
X0019Y03602*
X00197Y03612*
X00202Y03623*
X00203Y03634*
X00202Y03646*
X00197Y03657*
X0019Y03667*
X0018Y03674*
Y03695*
X0019Y03702*
X00197Y03712*
X00202Y03723*
X00203Y03734*
X00202Y03746*
X00197Y03757*
X0019Y03767*
X0018Y03774*
X00169Y03779*
X0016Y0378*
X00158Y0378*
X00156Y03781*
X00152Y03799*
X00156Y03801*
X00163Y03803*
X0018Y03812*
X00195Y03824*
X00207Y03839*
X00217Y03857*
X00222Y03875*
X00224Y03895*
X00222Y03914*
X00217Y03933*
X00207Y0395*
X00195Y03965*
X00183Y03975*
X00185Y03988*
X00189Y03995*
X00207Y04*
X00226Y04007*
X00243Y04018*
X00259Y04031*
X00272Y04047*
X00283Y04064*
X00291Y04083*
X00296Y04103*
X00297Y04124*
X00296Y04144*
X00291Y04164*
X00283Y04183*
X00272Y042*
X00259Y04216*
X00243Y04229*
X00226Y0424*
X00207Y04247*
X00187Y04252*
X00167Y04254*
X00146Y04252*
X00127Y04247*
X00108Y0424*
X0009Y04229*
X00075Y04216*
X00061Y042*
X00051Y04183*
X00043Y04164*
X00038Y04144*
X00037Y04124*
X00038Y04103*
X00043Y04083*
X00051Y04064*
X00061Y04047*
X00075Y04031*
X0009Y04018*
X00101Y04011*
X00102Y04011*
X00098Y0399*
X00086Y03987*
X00069Y03978*
X00054Y03965*
X00042Y0395*
X00034Y03936*
X00022Y03937*
X00015Y0394*
Y04295*
X02996*
Y03434*
G37*
%LNsbtech_icarusboard_1v0-2*%
%LPC*%
G36*
X02115Y00595D02*
X02112Y00594D01*
X02099Y00589*
X02087Y0058*
X02079Y00569*
X02074Y00556*
X02073Y00552*
X02115*
Y00595*
G37*
G36*
X01309D02*
Y00552D01*
X01351*
X01351Y00556*
X01345Y00569*
X01337Y0058*
X01326Y00589*
X01313Y00594*
X01309Y00595*
G37*
G36*
X01038Y01042D02*
X0103Y01041D01*
X01024Y01039*
X01018Y01034*
X01013Y01028*
X01011Y01022*
X0101Y01014*
X01011Y01007*
X01013Y01001*
X01018Y00995*
X01024Y0099*
X0103Y00988*
X01038Y00987*
X01045Y00988*
X01051Y0099*
X01057Y00995*
X01062Y01001*
X01064Y01007*
X01065Y01014*
X01064Y01022*
X01062Y01028*
X01057Y01034*
X01051Y01039*
X01045Y01041*
X01038Y01042*
G37*
G36*
X00565Y01011D02*
X00557Y0101D01*
X00551Y01007*
X00545Y01003*
X0054Y00997*
X00538Y0099*
X00537Y00983*
X00538Y00976*
X0054Y00969*
X00545Y00963*
X00551Y00959*
X00557Y00956*
X00565Y00955*
X00572Y00956*
X00578Y00959*
X00584Y00963*
X00589Y00969*
X00591Y00976*
X00592Y00983*
X00591Y0099*
X00589Y00997*
X00584Y01003*
X00578Y01007*
X00572Y0101*
X00565Y01011*
G37*
G36*
X02135Y00595D02*
Y00552D01*
X02178*
X02177Y00556*
X02172Y00569*
X02164Y0058*
X02152Y00589*
X02139Y00594*
X02135Y00595*
G37*
G36*
X01289D02*
X01285Y00594D01*
X01272Y00589*
X01261Y0058*
X01252Y00569*
X01247Y00556*
X01246Y00552*
X01289*
Y00595*
G37*
G36*
X02115Y00532D02*
X02073D01*
X02074Y00529*
X02079Y00516*
X02087Y00504*
X02099Y00496*
X02112Y00491*
X02115Y0049*
Y00532*
G37*
G36*
X01351D02*
X01309D01*
Y0049*
X01313Y00491*
X01326Y00496*
X01337Y00504*
X01345Y00516*
X01351Y00529*
X01351Y00532*
G37*
G36*
X02178D02*
X02135D01*
Y0049*
X02139Y00491*
X02152Y00496*
X02164Y00504*
X02172Y00516*
X02177Y00529*
X02178Y00532*
G37*
G36*
X00758Y00595D02*
Y00552D01*
X008*
X00799Y00556*
X00794Y00569*
X00786Y0058*
X00774Y00589*
X00761Y00594*
X00758Y00595*
G37*
G36*
X00738D02*
X00734Y00594D01*
X00721Y00589*
X0071Y0058*
X00701Y00569*
X00696Y00556*
X00695Y00552*
X00738*
Y00595*
G37*
G36*
X02844Y02285D02*
X02824Y02284D01*
X02804Y02279*
X02785Y02271*
X02767Y0226*
X02752Y02247*
X02739Y02232*
X02728Y02214*
X0272Y02195*
X02715Y02175*
X02714Y02155*
X02715Y02135*
X0272Y02115*
X02728Y02096*
X02739Y02078*
X02752Y02063*
X02767Y0205*
X02785Y02039*
X02804Y02031*
X02824Y02026*
X02844Y02025*
X02864Y02026*
X02884Y02031*
X02903Y02039*
X02921Y0205*
X02936Y02063*
X02949Y02078*
X0296Y02096*
X02968Y02115*
X02973Y02135*
X02974Y02155*
X02973Y02175*
X02968Y02195*
X0296Y02214*
X02949Y02232*
X02936Y02247*
X02921Y0226*
X02903Y02271*
X02884Y02279*
X02864Y02284*
X02844Y02285*
G37*
G36*
X0293Y01949D02*
X0292D01*
X02912Y01948*
X02905Y01945*
X02899Y0194*
X02894Y01934*
X02891Y01927*
X0289Y01919*
Y0191*
X0293*
Y01949*
G37*
G36*
Y0189D02*
X0289D01*
Y0188*
X02891Y01872*
X02894Y01865*
X02899Y01859*
X02905Y01854*
X02912Y01851*
X0292Y0185*
X0293*
Y0189*
G37*
G36*
X00933Y02312D02*
X00925Y02311D01*
X00919Y02309*
X00913Y02304*
X00908Y02298*
X00906Y02292*
X00905Y02284*
X00906Y02277*
X00908Y02271*
X00913Y02265*
X00919Y0226*
X00925Y02258*
X00933Y02257*
X0094Y02258*
X00946Y0226*
X00952Y02265*
X00957Y02271*
X00959Y02277*
X0096Y02284*
X00959Y02292*
X00957Y02298*
X00952Y02304*
X00946Y02309*
X0094Y02311*
X00933Y02312*
G37*
G36*
X01352Y02237D02*
X0135Y02237D01*
X0134Y02232*
X01331Y02225*
X01324Y02216*
X01319Y02206*
X01319Y02204*
X01352*
Y02237*
G37*
G36*
Y02184D02*
X01319D01*
X01319Y02183*
X01324Y02173*
X01331Y02163*
X0134Y02156*
X0135Y02152*
X01352Y02152*
Y02184*
G37*
G36*
X00246Y01376D02*
X00102D01*
Y01289*
X00246*
Y01376*
G37*
G36*
X02558Y01256D02*
X02438D01*
X02433Y01256*
X02429Y01253*
X02426Y01249*
X02425Y01244*
Y01104*
X02426Y011*
X02429Y01096*
X02433Y01093*
X02438Y01092*
X02558*
X02562Y01093*
X02566Y01096*
X02569Y011*
X0257Y01104*
Y01244*
X02569Y01249*
X02566Y01253*
X02562Y01256*
X02558Y01256*
G37*
G36*
X01498Y01492D02*
X0149Y01491D01*
X01484Y01489*
X01478Y01484*
X01473Y01478*
X01471Y01472*
X0147Y01464*
X01471Y01457*
X01473Y01451*
X01476Y01447*
Y01247*
X0146Y01234*
X01458Y01233*
Y01184*
Y01136*
X0146Y01135*
X01476Y01122*
Y00629*
X01422Y00574*
X01417Y00568*
X01415Y0056*
Y00396*
X01409Y00394*
X01397Y00385*
X01388Y00373*
X01383Y0036*
X01381Y00346*
X01383Y00331*
X01388Y00318*
X01397Y00306*
X01409Y00297*
X01422Y00292*
X01437Y0029*
X01451Y00292*
X01464Y00297*
X01476Y00306*
X01485Y00318*
X0149Y00331*
X01492Y00346*
X0149Y0036*
X01485Y00373*
X01476Y00385*
X01464Y00394*
X01458Y00396*
Y00551*
X01512Y00606*
X01517Y00612*
X01519Y00621*
Y01133*
X01576*
Y006*
X01574Y00598*
X0156Y00596*
X01547Y00591*
X01535Y00582*
X01526Y0057*
X01521Y00557*
X01519Y00542*
X01521Y00528*
X01526Y00515*
X01535Y00503*
X01547Y00494*
X0156Y00489*
X01574Y00487*
X01589Y00489*
X01602Y00494*
X01614Y00503*
X01622Y00515*
X01628Y00528*
X0163Y00542*
X01628Y00557*
X01622Y0057*
X01619Y00575*
Y01071*
X01623Y01076*
X01638Y01083*
X01639Y01083*
X01646Y01082*
X01654Y01083*
X0166Y01085*
X01664Y01088*
X01667Y01085*
X01674Y01083*
X01681Y01082*
X01688Y01083*
X01695Y01085*
X01699Y01088*
X01703Y01085*
X01709Y01083*
X01716Y01082*
X01724Y01083*
X0173Y01085*
X01733Y01087*
X01736Y01085*
X01742Y01083*
X0175Y01082*
X01757Y01083*
X01763Y01085*
X01767Y01088*
X0177Y01085*
X01777Y01083*
X01784Y01082*
X01791Y01083*
X01798Y01085*
X01802Y01088*
X01806Y01085*
X01812Y01083*
X0182Y01082*
X01827Y01083*
X01833Y01085*
X01836Y01087*
X01839Y01085*
X01845Y01083*
X01853Y01082*
X0186Y01083*
X01866Y01085*
X01872Y0109*
X01877Y01096*
X01879Y01102*
X0188Y01109*
X01879Y01117*
X01877Y01123*
X01876Y01124*
X01877Y01126*
X01879Y01132*
X0188Y01139*
X01879Y01147*
X01877Y01153*
X01872Y01159*
X01866Y01164*
X0186Y01166*
X01853Y01167*
X01845Y01166*
X01839Y01164*
X01836Y01162*
X01833Y01164*
X01827Y01166*
X0182Y01167*
X01812Y01166*
X01806Y01164*
X01802Y01161*
X01798Y01164*
X01791Y01166*
X01784Y01167*
X01777Y01166*
X0177Y01164*
X01767Y01161*
X01763Y01164*
X01757Y01166*
X0175Y01167*
X01742Y01166*
X01736Y01164*
X01733Y01162*
X0173Y01164*
X01724Y01166*
X01716Y01167*
X01709Y01166*
X01703Y01164*
X01699Y01161*
X01695Y01164*
X01688Y01166*
X01681Y01167*
X01674Y01166*
X01667Y01164*
X01664Y01161*
X0166Y01164*
X01654Y01166*
X01646Y01167*
X01639Y01166*
X01638Y01166*
X01623Y01173*
X01619Y01178*
Y01442*
X01622Y01446*
X01624Y01452*
X01625Y01459*
X01624Y01467*
X01622Y01473*
X01617Y01479*
X01611Y01484*
X01605Y01486*
X01598Y01487*
X0159Y01486*
X01584Y01484*
X01578Y01479*
X01573Y01473*
X01571Y01467*
X0157Y01459*
X01571Y01452*
X01573Y01446*
X01576Y01442*
Y01236*
X01519*
Y01447*
X01522Y01451*
X01524Y01457*
X01525Y01464*
X01524Y01472*
X01522Y01478*
X01517Y01484*
X01511Y01489*
X01505Y01491*
X01498Y01492*
G37*
G36*
X02039Y01921D02*
X02D01*
X01992Y0192*
X01984Y01917*
X01977Y01912*
X01972Y01905*
X01969Y01897*
X01968Y01889*
Y0185*
X01969Y01842*
X01972Y01834*
X01977Y01827*
X01984Y01822*
X01992Y01819*
X02Y01818*
X02039*
X02047Y01819*
X02055Y01822*
X02062Y01827*
X02067Y01834*
X0207Y01842*
X02071Y0185*
Y01889*
X0207Y01897*
X02067Y01905*
X02062Y01912*
X02055Y01917*
X02047Y0192*
X02039Y01921*
G37*
G36*
X02737Y01816D02*
X02698D01*
X0269Y01815*
X02682Y01812*
X02675Y01807*
X02674Y01805*
X02666Y018*
X02652Y01799*
X02649Y018*
X02645Y01801*
X02638Y01802*
X0263Y01801*
X02624Y01799*
X02618Y01794*
X02613Y01788*
X02611Y01782*
X0261Y01774*
X02611Y01767*
X02613Y01761*
X02616Y01757*
X02613Y01753*
X02611Y01747*
X0261Y01739*
X02611Y01732*
X02613Y01726*
X02618Y0172*
X02624Y01715*
X0263Y01713*
X02638Y01712*
X02645Y01713*
X02651Y01715*
X02654Y01718*
X02657Y0172*
X02678Y0172*
X0268Y01719*
X02682Y01717*
X0269Y01714*
X02698Y01713*
X02737*
X02745Y01714*
X02753Y01717*
X0276Y01722*
X02765Y01729*
X02768Y01737*
X02769Y01745*
Y01784*
X02768Y01792*
X02765Y018*
X0276Y01807*
X02753Y01812*
X02745Y01815*
X02737Y01816*
G37*
G36*
X00158Y02132D02*
X0015Y02131D01*
X00144Y02129*
X00138Y02124*
X00133Y02118*
X00131Y02112*
X0013Y02104*
X00131Y02097*
X00133Y02091*
X00134Y0209*
Y01734*
X00136Y01725*
X00141Y01718*
X00221Y01638*
X00221Y01637*
X00223Y01631*
X00228Y01625*
X00234Y0162*
X0024Y01618*
X00248Y01617*
X00255Y01618*
X00261Y0162*
X00267Y01625*
X00272Y01631*
X00274Y01637*
X00275Y01644*
X00274Y01652*
X00272Y01658*
X00267Y01664*
X00261Y01669*
X00255Y01671*
X00254Y01671*
X00181Y01744*
Y0209*
X00182Y02091*
X00184Y02097*
X00185Y02104*
X00184Y02112*
X00182Y02118*
X00177Y02124*
X00171Y02129*
X00165Y02131*
X00158Y02132*
G37*
G36*
X01289Y00532D02*
X01246D01*
X01247Y00529*
X01252Y00516*
X01261Y00504*
X01272Y00496*
X01285Y00491*
X01289Y0049*
Y00532*
G37*
G36*
X01765Y00336D02*
X01722D01*
Y00293*
X01726Y00294*
X01739Y00299*
X0175Y00308*
X01759Y00319*
X01764Y00332*
X01765Y00336*
G37*
G36*
X01702D02*
X0166D01*
X0166Y00332*
X01666Y00319*
X01674Y00308*
X01685Y00299*
X01698Y00294*
X01702Y00293*
Y00336*
G37*
G36*
X00938Y00336D02*
X00895D01*
Y00293*
X00899Y00294*
X00912Y00299*
X00923Y00308*
X00932Y00319*
X00937Y00332*
X00938Y00336*
G37*
G36*
X00875Y00398D02*
X00871Y00398D01*
X00858Y00392*
X00847Y00384*
X00839Y00372*
X00833Y0036*
X00833Y00356*
X00875*
Y00398*
G37*
G36*
X02316Y00336D02*
X02273D01*
Y00293*
X02277Y00294*
X0229Y00299*
X02301Y00308*
X0231Y00319*
X02315Y00332*
X02316Y00336*
G37*
G36*
X02253D02*
X02211D01*
X02211Y00332*
X02217Y00319*
X02225Y00308*
X02236Y00299*
X02249Y00294*
X02253Y00293*
Y00336*
G37*
G36*
X01161Y00401D02*
X01147Y00399D01*
X01133Y00394*
X01122Y00385*
X01113Y00373*
X01107Y0036*
X01105Y00346*
X01107Y00331*
X01113Y00318*
X01122Y00306*
X01133Y00297*
X01147Y00292*
X01161Y0029*
X01175Y00292*
X01189Y00297*
X012Y00306*
X01209Y00318*
X01215Y00331*
X01217Y00346*
X01215Y0036*
X01209Y00373*
X012Y00385*
X01189Y00394*
X01175Y00399*
X01161Y00401*
G37*
G36*
X02844Y00317D02*
X02824Y00315D01*
X02804Y0031*
X02785Y00303*
X02767Y00292*
X02752Y00279*
X02739Y00263*
X02728Y00246*
X0272Y00227*
X02715Y00207*
X02714Y00187*
X02715Y00166*
X0272Y00146*
X02728Y00127*
X02739Y0011*
X02752Y00094*
X02767Y00081*
X02785Y0007*
X02804Y00063*
X02824Y00058*
X02844Y00056*
X02864Y00058*
X02884Y00063*
X02903Y0007*
X02921Y00081*
X02936Y00094*
X02949Y0011*
X0296Y00127*
X02968Y00146*
X02973Y00166*
X02974Y00187*
X02973Y00207*
X02968Y00227*
X0296Y00246*
X02949Y00263*
X02936Y00279*
X02921Y00292*
X02903Y00303*
X02884Y0031*
X02864Y00315*
X02844Y00317*
G37*
G36*
X00167D02*
X00146Y00315D01*
X00127Y0031*
X00108Y00303*
X0009Y00292*
X00075Y00279*
X00061Y00263*
X00051Y00246*
X00043Y00227*
X00038Y00207*
X00037Y00187*
X00038Y00166*
X00043Y00146*
X00051Y00127*
X00061Y0011*
X00075Y00094*
X0009Y00081*
X00108Y0007*
X00127Y00063*
X00146Y00058*
X00167Y00056*
X00187Y00058*
X00207Y00063*
X00226Y0007*
X00243Y00081*
X00259Y00094*
X00272Y0011*
X00283Y00127*
X00291Y00146*
X00296Y00166*
X00297Y00187*
X00296Y00207*
X00291Y00227*
X00283Y00246*
X00272Y00263*
X00259Y00279*
X00243Y00292*
X00226Y00303*
X00207Y0031*
X00187Y00315*
X00167Y00317*
G37*
G36*
X00875Y00336D02*
X00833D01*
X00833Y00332*
X00839Y00319*
X00847Y00308*
X00858Y00299*
X00871Y00294*
X00875Y00293*
Y00336*
G37*
G36*
X02539Y00401D02*
X02524Y00399D01*
X02511Y00394*
X025Y00385*
X02491Y00373*
X02485Y0036*
X02483Y00346*
X02485Y00331*
X02491Y00318*
X025Y00306*
X02511Y00297*
X02524Y00292*
X02539Y0029*
X02553Y00292*
X02567Y00297*
X02578Y00306*
X02587Y00318*
X02593Y00331*
X02594Y00346*
X02593Y0036*
X02587Y00373*
X02578Y00385*
X02567Y00394*
X02553Y00399*
X02539Y00401*
G37*
G36*
X01988D02*
X01973Y00399D01*
X0196Y00394*
X01948Y00385*
X0194Y00373*
X01934Y0036*
X01932Y00346*
X01934Y00331*
X0194Y00318*
X01948Y00306*
X0196Y00297*
X01973Y00292*
X01988Y0029*
X02002Y00292*
X02015Y00297*
X02027Y00306*
X02036Y00318*
X02041Y00331*
X02043Y00346*
X02041Y0036*
X02036Y00373*
X02027Y00385*
X02015Y00394*
X02002Y00399*
X01988Y00401*
G37*
G36*
X02401Y00598D02*
X02387Y00596D01*
X02373Y00591*
X02362Y00582*
X02353Y0057*
X02347Y00557*
X02345Y00542*
X02347Y00528*
X02353Y00515*
X02362Y00503*
X02373Y00494*
X02387Y00489*
X02401Y00487*
X02415Y00489*
X02429Y00494*
X0244Y00503*
X02449Y00515*
X02455Y00528*
X02457Y00542*
X02455Y00557*
X02449Y0057*
X0244Y00582*
X02429Y00591*
X02415Y00596*
X02401Y00598*
G37*
G36*
X0185D02*
X01836Y00596D01*
X01822Y00591*
X01811Y00582*
X01802Y0057*
X01796Y00557*
X01794Y00542*
X01796Y00528*
X01802Y00515*
X01811Y00503*
X01822Y00494*
X01836Y00489*
X0185Y00487*
X01864Y00489*
X01878Y00494*
X01889Y00503*
X01898Y00515*
X01904Y00528*
X01905Y00542*
X01904Y00557*
X01898Y0057*
X01889Y00582*
X01878Y00591*
X01864Y00596*
X0185Y00598*
G37*
G36*
X01023D02*
X01009Y00596D01*
X00995Y00591*
X00984Y00582*
X00975Y0057*
X00969Y00557*
X00968Y00542*
X00969Y00528*
X00975Y00515*
X00984Y00503*
X00995Y00494*
X01009Y00489*
X01023Y00487*
X01038Y00489*
X01051Y00494*
X01062Y00503*
X01071Y00515*
X01077Y00528*
X01079Y00542*
X01077Y00557*
X01071Y0057*
X01062Y00582*
X01051Y00591*
X01038Y00596*
X01023Y00598*
G37*
G36*
X008Y00532D02*
X00758D01*
Y0049*
X00761Y00491*
X00774Y00496*
X00786Y00504*
X00794Y00516*
X00799Y00529*
X008Y00532*
G37*
G36*
X00738D02*
X00695D01*
X00696Y00529*
X00701Y00516*
X0071Y00504*
X00721Y00496*
X00734Y00491*
X00738Y0049*
Y00532*
G37*
G36*
X02926Y00559D02*
X02887D01*
X02879Y00558*
X02871Y00555*
X02864Y0055*
X02859Y00544*
X02856Y00536*
X02855Y00528*
Y00496*
X02835Y00489*
X0283Y00495*
X02815Y00508*
X02798Y00517*
X02779Y00523*
X0276Y00524*
X0274Y00523*
X02721Y00517*
X02704Y00508*
X02689Y00495*
X02677Y0048*
X02667Y00463*
X02662Y00444*
X0266Y00425*
X02662Y00405*
X02667Y00387*
X02677Y00369*
X02689Y00354*
X02704Y00342*
X02721Y00333*
X0274Y00327*
X0276Y00325*
X02779Y00327*
X02798Y00333*
X02815Y00342*
X0283Y00354*
X02842Y00369*
X02852Y00387*
X02857Y00405*
X02859Y00425*
X02857Y00444*
X02856Y00447*
X02866Y00456*
X02873Y0046*
X02879Y00458*
X02887Y00457*
X02926*
X02934Y00458*
X02942Y00461*
X02949Y00466*
X02954Y00472*
X02957Y0048*
X02958Y00488*
Y00528*
X02957Y00536*
X02954Y00544*
X02949Y0055*
X02942Y00555*
X02934Y00558*
X02926Y00559*
G37*
G36*
X01722Y00398D02*
Y00356D01*
X01765*
X01764Y0036*
X01759Y00372*
X0175Y00384*
X01739Y00392*
X01726Y00398*
X01722Y00398*
G37*
G36*
X01702D02*
X01698Y00398D01*
X01685Y00392*
X01674Y00384*
X01666Y00372*
X0166Y0036*
X0166Y00356*
X01702*
Y00398*
G37*
G36*
X00895D02*
Y00356D01*
X00938*
X00937Y0036*
X00932Y00372*
X00923Y00384*
X00912Y00392*
X00899Y00398*
X00895Y00398*
G37*
G36*
X00472Y00598D02*
X00458Y00596D01*
X00444Y00591*
X00433Y00582*
X00432Y0058*
X00098*
X00091Y0058*
X00085Y00577*
X00079Y00573*
X00051Y00544*
X00049Y00544*
X00043Y00539*
X00038Y00533*
X00036Y00527*
X00035Y00519*
X00036Y00512*
X00038Y00506*
X00043Y005*
X00049Y00495*
X00055Y00493*
X00063Y00492*
X0007Y00493*
X00076Y00495*
X00082Y005*
X00087Y00506*
X00087Y00508*
X00108Y00528*
X00281*
X003Y00519*
X00301Y00512*
X00303Y00506*
X00308Y005*
X00314Y00495*
X00316Y00494*
X00483Y00327*
X00488Y00323*
X00495Y00321*
X00501Y0032*
X00561*
X00562Y00318*
X0057Y00306*
X00582Y00297*
X00595Y00292*
X0061Y0029*
X00624Y00292*
X00638Y00297*
X00649Y00306*
X00658Y00318*
X00663Y00331*
X00665Y00346*
X00663Y0036*
X00658Y00373*
X00649Y00385*
X00638Y00394*
X00624Y00399*
X0061Y00401*
X00595Y00399*
X00582Y00394*
X0057Y00385*
X00562Y00373*
X00561Y00372*
X00512*
X00373Y0051*
X00381Y00528*
X00418*
X00418Y00528*
X00424Y00515*
X00433Y00503*
X00444Y00494*
X00458Y00489*
X00472Y00487*
X00486Y00489*
X005Y00494*
X00511Y00503*
X0052Y00515*
X00526Y00528*
X00528Y00542*
X00526Y00557*
X0052Y0057*
X00511Y00582*
X005Y00591*
X00486Y00596*
X00472Y00598*
G37*
G36*
X02273Y00398D02*
Y00356D01*
X02316*
X02315Y0036*
X0231Y00372*
X02301Y00384*
X0229Y00392*
X02277Y00398*
X02273Y00398*
G37*
G36*
X02253D02*
X02249Y00398D01*
X02236Y00392*
X02225Y00384*
X02217Y00372*
X02211Y0036*
X02211Y00356*
X02253*
Y00398*
G37*
G36*
X01258Y02417D02*
X0125Y02416D01*
X01244Y02414*
X01238Y02409*
X01233Y02403*
X01231Y02397*
X0123Y02389*
X01231Y02382*
X01233Y02376*
X01238Y0237*
X01244Y02365*
X0125Y02363*
X01258Y02362*
X01265Y02363*
X01271Y02365*
X01277Y0237*
X01282Y02376*
X01284Y02382*
X01285Y02389*
X01284Y02397*
X01282Y02403*
X01277Y02409*
X01271Y02414*
X01265Y02416*
X01258Y02417*
G37*
G36*
X01978Y03758D02*
X01935D01*
X01936Y03754*
X01941Y03741*
X0195Y0373*
X01961Y03721*
X01974Y03716*
X01978Y03715*
Y03758*
G37*
G36*
X02539Y03823D02*
X02524Y03821D01*
X02511Y03816*
X025Y03807*
X02491Y03795*
X02485Y03782*
X02483Y03768*
X02485Y03753*
X02491Y0374*
X025Y03728*
X02511Y03719*
X02524Y03714*
X02539Y03712*
X02553Y03714*
X02567Y03719*
X02578Y03728*
X02587Y0374*
X02593Y03753*
X02594Y03768*
X02593Y03782*
X02587Y03795*
X02578Y03807*
X02567Y03816*
X02553Y03821*
X02539Y03823*
G37*
G36*
X02263D02*
X02249Y03821D01*
X02235Y03816*
X02224Y03807*
X02215Y03795*
X0221Y03782*
X02208Y03768*
X0221Y03753*
X02215Y0374*
X02224Y03728*
X02235Y03719*
X02249Y03714*
X02263Y03712*
X02278Y03714*
X02291Y03719*
X02303Y03728*
X02311Y0374*
X02317Y03753*
X02319Y03768*
X02317Y03782*
X02311Y03795*
X02303Y03807*
X02291Y03816*
X02278Y03821*
X02263Y03823*
G37*
G36*
X01998Y0382D02*
Y03778D01*
X0204*
X0204Y03782*
X02034Y03794*
X02026Y03806*
X02015Y03814*
X02002Y0382*
X01998Y0382*
G37*
G36*
X01978D02*
X01974Y0382D01*
X01961Y03814*
X0195Y03806*
X01941Y03794*
X01936Y03782*
X01935Y03778*
X01978*
Y0382*
G37*
G36*
X0204Y03758D02*
X01998D01*
Y03715*
X02002Y03716*
X02015Y03721*
X02026Y0373*
X02034Y03741*
X0204Y03754*
X0204Y03758*
G37*
G36*
X00885Y03823D02*
X00871Y03821D01*
X00858Y03816*
X00846Y03807*
X00837Y03795*
X00832Y03782*
X0083Y03768*
X00832Y03753*
X00837Y0374*
X00846Y03728*
X00858Y03719*
X00871Y03714*
X00885Y03712*
X009Y03714*
X00913Y03719*
X00925Y03728*
X00933Y0374*
X00939Y03753*
X00941Y03768*
X00939Y03782*
X00933Y03795*
X00925Y03807*
X00913Y03816*
X009Y03821*
X00885Y03823*
G37*
G36*
X0061D02*
X00595Y03821D01*
X00582Y03816*
X0057Y03807*
X00562Y03795*
X00556Y03782*
X00554Y03768*
X00556Y03753*
X00562Y0374*
X0057Y03728*
X00582Y03719*
X00595Y03714*
X0061Y03712*
X00624Y03714*
X00638Y03719*
X00649Y03728*
X00658Y0374*
X00663Y03753*
X00665Y03768*
X00663Y03782*
X00658Y03795*
X00649Y03807*
X00638Y03816*
X00624Y03821*
X0061Y03823*
G37*
G36*
X00968Y03687D02*
X0096Y03686D01*
X00954Y03684*
X00948Y03679*
X00943Y03673*
X00941Y03667*
X0094Y03659*
X00941Y03652*
X00943Y03646*
X00948Y0364*
X00954Y03635*
X0096Y03633*
X00968Y03632*
X00975Y03633*
X00981Y03635*
X00987Y0364*
X00992Y03646*
X00994Y03652*
X00995Y03659*
X00994Y03667*
X00992Y03673*
X00987Y03679*
X00981Y03684*
X00975Y03686*
X00968Y03687*
G37*
G36*
X01712Y03823D02*
X01698Y03821D01*
X01684Y03816*
X01673Y03807*
X01664Y03795*
X01658Y03782*
X01657Y03768*
X01658Y03753*
X01664Y0374*
X01673Y03728*
X01684Y03719*
X01698Y03714*
X01712Y03712*
X01726Y03714*
X0174Y03719*
X01751Y03728*
X0176Y0374*
X01766Y03753*
X01768Y03768*
X01766Y03782*
X0176Y03795*
X01751Y03807*
X0174Y03816*
X01726Y03821*
X01712Y03823*
G37*
G36*
X01437D02*
X01422Y03821D01*
X01409Y03816*
X01397Y03807*
X01388Y03795*
X01383Y03782*
X01381Y03768*
X01383Y03753*
X01388Y0374*
X01397Y03728*
X01409Y03719*
X01422Y03714*
X01437Y03712*
X01451Y03714*
X01464Y03719*
X01476Y03728*
X01485Y0374*
X0149Y03753*
X01492Y03768*
X0149Y03782*
X01485Y03795*
X01476Y03807*
X01464Y03816*
X01451Y03821*
X01437Y03823*
G37*
G36*
X01161D02*
X01147Y03821D01*
X01133Y03816*
X01122Y03807*
X01113Y03795*
X01107Y03782*
X01105Y03768*
X01107Y03753*
X01113Y0374*
X01122Y03728*
X01133Y03719*
X01147Y03714*
X01161Y03712*
X01175Y03714*
X01189Y03719*
X012Y03728*
X01209Y0374*
X01215Y03753*
X01217Y03768*
X01215Y03782*
X01209Y03795*
X012Y03807*
X01189Y03816*
X01175Y03821*
X01161Y03823*
G37*
G36*
X01013Y03954D02*
X00971D01*
X00971Y03951*
X00977Y03938*
X00985Y03926*
X00996Y03918*
X01009Y03913*
X01013Y03912*
Y03954*
G37*
G36*
X01076D02*
X01033D01*
Y03912*
X01037Y03913*
X0105Y03918*
X01061Y03926*
X0107Y03938*
X01075Y03951*
X01076Y03954*
G37*
G36*
X02125Y0402D02*
X02111Y04018D01*
X02098Y04013*
X02086Y04004*
X02077Y03992*
X02072Y03979*
X0207Y03964*
X02072Y0395*
X02077Y03937*
X02086Y03925*
X02098Y03916*
X02111Y03911*
X02125Y03909*
X0214Y03911*
X02153Y03916*
X02165Y03925*
X02174Y03937*
X02179Y0395*
X02181Y03964*
X02179Y03979*
X02174Y03992*
X02165Y04004*
X02153Y04013*
X0214Y04018*
X02125Y0402*
G37*
G36*
X02844Y04254D02*
X02824Y04252D01*
X02804Y04247*
X02785Y0424*
X02767Y04229*
X02752Y04216*
X02739Y042*
X02728Y04183*
X0272Y04164*
X02715Y04144*
X02714Y04124*
X02715Y04103*
X0272Y04083*
X02728Y04064*
X02739Y04047*
X02752Y04031*
X02767Y04018*
X02785Y04007*
X02804Y04*
X02824Y03995*
X02844Y03993*
X02864Y03995*
X02884Y04*
X02903Y04007*
X02921Y04018*
X02936Y04031*
X02949Y04047*
X0296Y04064*
X02968Y04083*
X02973Y04103*
X02974Y04124*
X02973Y04144*
X02968Y04164*
X0296Y04183*
X02949Y042*
X02936Y04216*
X02921Y04229*
X02903Y0424*
X02884Y04247*
X02864Y04252*
X02844Y04254*
G37*
G36*
X01033Y04017D02*
Y03974D01*
X01076*
X01075Y03978*
X0107Y03991*
X01061Y04002*
X0105Y04011*
X01037Y04016*
X01033Y04017*
G37*
G36*
X01013D02*
X01009Y04016D01*
X00996Y04011*
X00985Y04002*
X00977Y03991*
X00971Y03978*
X00971Y03974*
X01013*
Y04017*
G37*
G36*
X01299Y0402D02*
X01284Y04018D01*
X01271Y04013*
X01259Y04004*
X01251Y03992*
X01245Y03979*
X01243Y03964*
X01245Y0395*
X01251Y03937*
X01259Y03925*
X01271Y03916*
X01284Y03911*
X01299Y03909*
X01313Y03911*
X01327Y03916*
X01338Y03925*
X01347Y03937*
X01352Y0395*
X01354Y03964*
X01352Y03979*
X01347Y03992*
X01338Y04004*
X01327Y04013*
X01313Y04018*
X01299Y0402*
G37*
G36*
X00748D02*
X00733Y04018D01*
X0072Y04013*
X00708Y04004*
X00699Y03992*
X00694Y03979*
X00692Y03964*
X00694Y0395*
X00699Y03937*
X00708Y03925*
X0072Y03916*
X00733Y03911*
X00748Y03909*
X00762Y03911*
X00775Y03916*
X00787Y03925*
X00796Y03937*
X00801Y0395*
X00803Y03964*
X00801Y03979*
X00796Y03992*
X00787Y04004*
X00775Y04013*
X00762Y04018*
X00748Y0402*
G37*
G36*
X00472D02*
X00458Y04018D01*
X00444Y04013*
X00433Y04004*
X00424Y03992*
X00418Y03979*
X00416Y03964*
X00418Y0395*
X00424Y03937*
X00433Y03925*
X00444Y03916*
X00458Y03911*
X00472Y03909*
X00486Y03911*
X005Y03916*
X00511Y03925*
X0052Y03937*
X00526Y0395*
X00528Y03964*
X00526Y03979*
X0052Y03992*
X00511Y04004*
X005Y04013*
X00486Y04018*
X00472Y0402*
G37*
G36*
X02401D02*
X02387Y04018D01*
X02373Y04013*
X02362Y04004*
X02353Y03992*
X02347Y03979*
X02345Y03964*
X02347Y0395*
X02353Y03937*
X02362Y03925*
X02373Y03916*
X02387Y03911*
X02401Y03909*
X02415Y03911*
X02429Y03916*
X0244Y03925*
X02449Y03937*
X02455Y0395*
X02457Y03964*
X02455Y03979*
X02449Y03992*
X0244Y04004*
X02429Y04013*
X02415Y04018*
X02401Y0402*
G37*
G36*
X0185D02*
X01836Y04018D01*
X01822Y04013*
X01811Y04004*
X01802Y03992*
X01796Y03979*
X01794Y03964*
X01796Y0395*
X01802Y03937*
X01811Y03925*
X01822Y03916*
X01836Y03911*
X0185Y03909*
X01864Y03911*
X01878Y03916*
X01889Y03925*
X01898Y03937*
X01904Y0395*
X01905Y03964*
X01904Y03979*
X01898Y03992*
X01889Y04004*
X01878Y04013*
X01864Y04018*
X0185Y0402*
G37*
G36*
X01574D02*
X0156Y04018D01*
X01547Y04013*
X01535Y04004*
X01526Y03992*
X01521Y03979*
X01519Y03964*
X01521Y0395*
X01526Y03937*
X01535Y03925*
X01547Y03916*
X0156Y03911*
X01574Y03909*
X01589Y03911*
X01602Y03916*
X01614Y03925*
X01622Y03937*
X01628Y0395*
X0163Y03964*
X01628Y03979*
X01622Y03992*
X01614Y04004*
X01602Y04013*
X01589Y04018*
X01574Y0402*
G37*
G36*
X01424Y03669D02*
X01417Y03668D01*
X0141Y03665*
X01404Y03661*
X014Y03655*
X01397Y03648*
X01396Y03641*
X01397Y03634*
X014Y03627*
X01404Y03621*
X0141Y03617*
X01417Y03614*
X01424Y03613*
X01431Y03614*
X01438Y03617*
X01444Y03621*
X01448Y03627*
X01451Y03634*
X01452Y03641*
X01451Y03648*
X01448Y03655*
X01444Y03661*
X01438Y03665*
X01431Y03668*
X01424Y03669*
G37*
G36*
X00628Y02988D02*
X0062Y02987D01*
X00614Y02985*
X00608Y0298*
X00603Y02974*
X00601Y02968*
X006Y0296*
X00601Y02953*
X00603Y02947*
X00608Y02941*
X00614Y02936*
X0062Y02934*
X00628Y02933*
X00635Y02934*
X00641Y02936*
X00647Y02941*
X00652Y02947*
X00654Y02953*
X00655Y0296*
X00654Y02968*
X00652Y02974*
X00647Y0298*
X00641Y02985*
X00635Y02987*
X00628Y02988*
G37*
G36*
X00438D02*
X0043Y02987D01*
X00424Y02985*
X00418Y0298*
X00413Y02974*
X00411Y02968*
X0041Y0296*
X00411Y02953*
X00413Y02947*
X00418Y02941*
X00424Y02936*
X0043Y02934*
X00438Y02933*
X00445Y02934*
X00451Y02936*
X00457Y02941*
X00462Y02947*
X00464Y02953*
X00465Y0296*
X00464Y02968*
X00462Y02974*
X00457Y0298*
X00451Y02985*
X00445Y02987*
X00438Y02988*
G37*
G36*
X00818D02*
X0081Y02987D01*
X00804Y02985*
X00798Y0298*
X00793Y02974*
X00791Y02968*
X0079Y0296*
X00791Y02953*
X00793Y02947*
X00798Y02941*
X00804Y02936*
X0081Y02934*
X00818Y02933*
X00825Y02934*
X00831Y02936*
X00837Y02941*
X00842Y02947*
X00844Y02953*
X00845Y0296*
X00844Y02968*
X00842Y02974*
X00837Y0298*
X00831Y02985*
X00825Y02987*
X00818Y02988*
G37*
G36*
X01636Y03096D02*
X01636D01*
X01634Y03095*
X01382Y03096*
X01382Y03095*
X01381Y03096*
X01369Y03094*
X01368Y03094*
X01367Y03094*
X01356Y03091*
X01355Y0309*
X01354Y0309*
X01343Y03084*
X01343Y03083*
X01342Y03083*
X01333Y03075*
X01332Y03075*
X01331Y03074*
X01323Y03065*
X01323Y03064*
X01322Y03063*
X01317Y03053*
X01316Y03051*
X01316Y0305*
X01312Y03039*
X01312Y03038*
X01312Y03037*
X01311Y03025*
X01311Y03025*
X01311Y03024*
X01311Y03023*
Y02868*
X01311Y02867*
X01311Y02866*
X01311Y02866*
X01312Y02854*
X01312Y02853*
X01312Y02852*
X01316Y0284*
X01316Y02839*
X01317Y02838*
X01322Y02828*
X01323Y02827*
X01323Y02826*
X01331Y02817*
X01331Y02817*
X01332Y02816*
Y02816*
X01333Y02815*
X014Y02749*
X014Y02748*
X01401Y02748*
X01401Y02747*
X01402Y02746*
X01403Y02745*
X0141Y02741*
X01414Y02739*
X01422Y02737*
X01426*
X01433Y02739*
X01434Y02738*
X01436Y02738*
X01449Y02738*
X01453Y02719*
X01453Y02718*
X01448Y02714*
X01443Y02708*
X01441Y02702*
X0144Y02694*
X01441Y02687*
X01443Y02681*
X01448Y02675*
X01454Y0267*
X0146Y02668*
X01468Y02667*
X01471Y02652*
X01473Y02646*
X01476Y02642*
Y02604*
X01472Y02598*
X0147Y02589*
Y02466*
X01467Y02462*
X01465Y02456*
X01464Y02448*
X01465Y02441*
X01467Y02435*
X0147Y02431*
Y02378*
X01468Y02374*
X01453Y02362*
X01445Y02361*
X01439Y02359*
X01433Y02354*
X0143Y02351*
X01428Y02348*
X01415Y02343*
X01406Y02343*
X01405Y02344*
X01398Y02345*
X0139Y02344*
X01384Y02341*
X01378Y02337*
X01373Y02331*
X01371Y02324*
X0137Y02317*
X01371Y0231*
X01373Y02303*
X01378Y02297*
X01384Y02293*
X0139Y0229*
X01398Y02289*
X01405Y0229*
X01411Y02293*
X01417Y02297*
X0142Y02301*
X01422Y02303*
X01435Y02309*
X01444Y02308*
X01445Y02308*
X01453Y02307*
X0146Y02308*
X0146Y02308*
X01463Y02307*
X01475Y02298*
X01478Y02295*
X01478Y02294*
X01479Y02287*
X01481Y02281*
X01486Y02275*
X01489Y02256*
X01488Y02251*
X01474Y02239*
X01462Y0224*
X0145Y02239*
X01439Y02234*
X01429Y02227*
X01422Y02217*
X01421Y02215*
X014*
X014Y02216*
X01393Y02225*
X01384Y02232*
X01373Y02237*
X01372Y02237*
Y02194*
Y02143*
X01378Y02135*
X01379Y02134*
X01378Y02132*
Y01948*
X01359Y01935*
X01359Y01935*
X01348Y01936*
X01336Y01934*
X01325Y0193*
X01315Y01923*
X01308Y01913*
X01287*
X0128Y01923*
X0127Y0193*
X01259Y01934*
X01248Y01936*
X01236Y01934*
X01225Y0193*
X01215Y01923*
X01208Y01913*
X01187*
X0118Y01923*
X0117Y0193*
X01159Y01934*
X01148Y01936*
X01136Y01934*
X01125Y0193*
X01115Y01923*
X01108Y01913*
X01087*
X0108Y01923*
X0107Y0193*
X01059Y01934*
X01048Y01936*
X01036Y01934*
X01025Y0193*
X01015Y01923*
X01008Y01913*
X00987*
X0098Y01923*
X0097Y0193*
X00959Y01934*
X00948Y01936*
X00936Y01934*
X00925Y0193*
X00915Y01923*
X00908Y01913*
X00887*
X0088Y01923*
X0087Y0193*
X00859Y01934*
X00848Y01936*
X00836Y01934*
X00825Y0193*
X00815Y01923*
X00808Y01913*
X00787*
X0078Y01923*
X0077Y0193*
X00759Y01934*
X00748Y01936*
X00736Y01934*
X00725Y0193*
X00715Y01923*
X00708Y01913*
X00687*
X0068Y01923*
X0067Y0193*
X00659Y01934*
X00648Y01936*
X00636Y01934*
X00625Y0193*
X00615Y01923*
X00608Y01913*
X00587*
X0058Y01923*
X0057Y0193*
X00559Y01934*
X00548Y01936*
X00536Y01934*
X00525Y0193*
X00515Y01923*
X00508Y01913*
X00487*
X0048Y01923*
X0047Y0193*
X00459Y01934*
X00448Y01936*
X0044Y01935*
X00427Y01943*
X00421Y0195*
Y02039*
X00464Y02083*
X00465Y02083*
X00471Y02085*
X00477Y0209*
X00482Y02096*
X00484Y02102*
X00485Y02109*
X00484Y02117*
X00482Y02123*
X00477Y02129*
X00471Y02134*
X00465Y02136*
X00458Y02137*
X0045Y02136*
X00444Y02134*
X00438Y02129*
X00433Y02123*
X00431Y02117*
X00431Y02116*
X0038Y02066*
X00375Y02058*
X00373Y02049*
Y0195*
X00358Y01939*
X00349Y01942*
X00336Y01957*
X00337Y01965*
X00336Y01972*
X00334Y01978*
X00329Y01984*
Y01985*
X00334Y01991*
X00336Y01997*
X00337Y02005*
X00336Y02012*
X00334Y02018*
X00329Y02024*
X00323Y02029*
X00317Y02031*
X0031Y02032*
X00302Y02031*
X00296Y02029*
X00293Y02026*
X00282Y02029*
X00273Y02034*
Y02093*
X00273Y02093*
X00276Y021*
X00277Y02107*
X00276Y02114*
X00273Y02121*
X00269Y02127*
X00263Y02131*
X00256Y02134*
X00249Y02135*
X00242Y02134*
X00235Y02131*
X0023Y02127*
X00225Y02121*
X00222Y02114*
X00221Y02107*
X00222Y021*
X00225Y02093*
X00226Y02093*
Y0197*
X00227Y01961*
X00232Y01953*
X00233Y01952*
X00227Y01931*
X00225Y0193*
X00215Y01923*
X00208Y01913*
X00203Y01902*
X00202Y0189*
Y01879*
X00203Y01867*
X00208Y01856*
X00215Y01846*
X00225Y01839*
X00236Y01834*
X00248Y01833*
X00254Y01834*
X00268Y01825*
X00274Y01819*
Y01704*
X00276Y01695*
X00281Y01688*
X00331Y01638*
X00331Y01637*
X00333Y01631*
X00338Y01625*
X00344Y0162*
X0035Y01618*
X00358Y01617*
X00365Y01618*
X00371Y0162*
X00377Y01625*
X00382Y01631*
X00384Y01637*
X00392Y0164*
X00411Y01637*
X00413Y01631*
X00418Y01625*
X00424Y0162*
X0043Y01618*
X00438Y01617*
X00445Y01618*
X00451Y0162*
X00457Y01625*
X00462Y01631*
X00464Y01637*
X00465Y01644*
X00464Y01652*
X00462Y01658*
X00457Y01664*
X00451Y01669*
X00445Y01671*
X00444Y01671*
X00421Y01695*
Y01819*
X00427Y01826*
X0044Y01834*
X00448Y01833*
X00459Y01834*
X0047Y01839*
X0048Y01846*
X00487Y01856*
X00508*
X00515Y01846*
X00525Y01839*
X00536Y01834*
X00548Y01833*
X00559Y01834*
X0057Y01839*
X0058Y01846*
X00587Y01856*
X00608*
X00615Y01846*
X00625Y01839*
X00636Y01834*
X00648Y01833*
X00659Y01834*
X0067Y01839*
X0068Y01846*
X00687Y01856*
X00708*
X00715Y01846*
X00725Y01839*
X00736Y01834*
X00748Y01833*
X00759Y01834*
X0077Y01839*
X0078Y01846*
X00787Y01856*
X00808*
X00815Y01846*
X00825Y01839*
X00836Y01834*
X00848Y01833*
X00859Y01834*
X0087Y01839*
X0088Y01846*
X00887Y01856*
X00908*
X00915Y01846*
X00925Y01839*
X00936Y01834*
X00948Y01833*
X00959Y01834*
X0097Y01839*
X0098Y01846*
X00987Y01856*
X01008*
X01015Y01846*
X01025Y01839*
X01036Y01834*
X01048Y01833*
X01059Y01834*
X0107Y01839*
X0108Y01846*
X01087Y01856*
X01108*
X01115Y01846*
X01125Y01839*
X01136Y01834*
X01148Y01833*
X01159Y01834*
X0117Y01839*
X0118Y01846*
X01187Y01856*
X01208*
X01215Y01846*
X01225Y01839*
X01236Y01834*
X01248Y01833*
X01259Y01834*
X0127Y01839*
X0128Y01846*
X01287Y01856*
X01308*
X01315Y01846*
X01325Y01839*
X01336Y01834*
X01341Y01834*
X01349Y01817*
X01349Y01814*
X00833Y01297*
X00828Y01291*
X00826Y01283*
Y01231*
X00825Y0123*
X00815Y01223*
X00808Y01213*
X00787*
X0078Y01223*
X0077Y0123*
X00759Y01234*
X00748Y01236*
X00736Y01234*
X00725Y0123*
X00715Y01223*
X00708Y01213*
X00687*
X0068Y01223*
X0067Y0123*
X00659Y01234*
X00648Y01236*
X00636Y01234*
X00625Y0123*
X00615Y01223*
X00608Y01213*
X00587*
X0058Y01223*
X0057Y0123*
X00559Y01234*
X00548Y01236*
X00536Y01234*
X00525Y0123*
X00515Y01223*
X00508Y01213*
X00487*
X0048Y01223*
X0047Y0123*
X00459Y01234*
X00448Y01236*
X00436Y01234*
X00425Y0123*
X00415Y01223*
X00408Y01213*
X00387*
X0038Y01223*
X0037Y0123*
X00359Y01234*
X00348Y01236*
X00336Y01234*
X00325Y0123*
X00315Y01223*
X00308Y01213*
X00287*
X0028Y01223*
X0027Y0123*
X00259Y01234*
X00248Y01236*
X00236Y01234*
X00225Y0123*
X00215Y01223*
X00208Y01213*
X00203Y01202*
X00202Y0119*
Y01179*
X00203Y01167*
X00208Y01156*
X00215Y01146*
X00225Y01139*
X00236Y01134*
X00248Y01133*
X00259Y01134*
X0027Y01139*
X0028Y01146*
X00287Y01156*
X00308*
X00315Y01146*
X00325Y01139*
X00336Y01134*
X00348Y01133*
X00359Y01134*
X0037Y01139*
X0038Y01146*
X00387Y01156*
X00408*
X00415Y01146*
X00422Y01141*
Y00901*
X00422Y00895*
X00425Y00888*
X00429Y00883*
X00487Y00825*
X00493Y00821*
X00499Y00818*
X00506Y00817*
X00561*
X00564Y00816*
X00571Y00815*
X00578Y00816*
X00585Y00819*
X0059Y00824*
X00595Y00829*
X00598Y00836*
X00599Y00843*
X00598Y0085*
X00595Y00857*
X0059Y00863*
X00585Y00867*
X00578Y0087*
X00571Y00871*
X00564Y0087*
X00561Y00869*
X00517*
X00474Y00912*
Y01141*
X0048Y01146*
X00487Y01156*
X00508*
X00515Y01146*
X00525Y01139*
X00536Y01134*
X00548Y01133*
X00559Y01134*
X0057Y01139*
X0058Y01146*
X00587Y01156*
X00608*
X00615Y01146*
X00625Y01139*
X00636Y01134*
X00648Y01133*
X00659Y01134*
X0067Y01139*
X0068Y01146*
X00687Y01156*
X00708*
X00715Y01146*
X00725Y01139*
X00736Y01134*
X00748Y01133*
X00759Y01134*
X0077Y01139*
X0078Y01146*
X00787Y01156*
X00808*
X00815Y01146*
X00825Y01139*
X00836Y01134*
X00848Y01133*
X00859Y01134*
X0087Y01139*
X0088Y01146*
X00887Y01156*
X00908*
X00915Y01146*
X00925Y01139*
X00936Y01134*
X00948Y01133*
X00959Y01134*
X0097Y01139*
X0098Y01146*
X00987Y01156*
X01008*
X01015Y01146*
X01025Y01139*
X01036Y01134*
X01048Y01133*
X01059Y01134*
X0107Y01139*
X0108Y01146*
X01087Y01156*
X01108*
X01115Y01146*
X01125Y01139*
X01136Y01134*
X01148Y01133*
X01159Y01134*
X0117Y01139*
X0118Y01146*
X01187Y01156*
X01208*
X01215Y01146*
X01225Y01139*
X01236Y01134*
X01248Y01133*
X01259Y01134*
X0127Y01139*
X0128Y01146*
X01287Y01156*
X01308*
X01315Y01146*
X01325Y01139*
X0133Y01137*
X01337Y01118*
X01338Y01115*
X01335Y0111*
X01329Y01104*
X01312Y01107*
X01306Y01111*
X013Y01114*
X01293Y01115*
X01285Y01114*
X01279Y01111*
X01273Y01107*
X01268Y01101*
X01266Y01094*
X01265Y01087*
X01266Y0108*
X01268Y01075*
X01264Y01067*
X01257Y01056*
X01195*
X01191Y01059*
X01184Y01061*
X01177Y01062*
X0117Y01061*
X01163Y01059*
X01157Y01054*
X01153Y01048*
X0115Y01042*
X01149Y01034*
X0115Y01027*
X01153Y01021*
X01157Y01015*
X01163Y0101*
X0117Y01008*
X01177Y01007*
X01184Y01008*
X01191Y0101*
X01195Y01013*
X01296*
X01304Y01015*
X01311Y01019*
X01412Y01121*
X01415Y01125*
X01417Y01128*
X01436Y01136*
X01438Y01136*
Y01184*
Y01233*
X01435Y01234*
X01419Y01247*
Y01489*
X01922Y01993*
X01927Y01999*
X01929Y02008*
Y02377*
X01932Y02381*
X01934Y02387*
X01935Y02394*
X01934Y02402*
X01932Y02408*
X01927Y02414*
X01921Y02419*
X01915Y02421*
X01908Y02422*
X01899Y02441*
Y02529*
X01902Y02532*
X01904Y02539*
X01905Y02546*
X01904Y02553*
X01902Y0256*
X01897Y02566*
X01891Y0257*
X01885Y02573*
X01878Y02574*
X0187Y02573*
X01864Y0257*
X01858Y02566*
X01857*
X01851Y0257*
X01845Y02573*
X01838Y02574*
X0183Y02573*
X01824Y0257*
X01818Y02566*
X01813Y0256*
X01811Y02553*
X0181Y02546*
X01811Y02539*
X01813Y02532*
X01816Y02529*
Y02023*
X01133Y01339*
X01128Y01333*
X01126Y01324*
Y01231*
X01125Y0123*
X01115Y01223*
X01108Y01213*
X01087*
X0108Y01223*
X0107Y0123*
X01059Y01234*
X01048Y01236*
X01036Y01234*
X01025Y0123*
X01015Y01223*
X01008Y01213*
X00987*
X0098Y01223*
X0097Y0123*
X00969Y01231*
Y01264*
X01514Y0181*
X01519Y01816*
X0152Y0182*
X01529Y01829*
X0154Y01834*
X01548Y01833*
X01559Y01834*
X0157Y01839*
X0158Y01846*
X01587Y01856*
X01592Y01867*
X01593Y01879*
Y0189*
X01592Y01902*
X01587Y01913*
X0158Y01923*
X0157Y0193*
X01559Y01934*
X01548Y01936*
X0154Y01935*
X01527Y01943*
X01521Y0195*
Y02123*
X01548Y02151*
X0155Y0215*
X01562Y02149*
X01574Y0215*
X01585Y02155*
X01594Y02162*
X01597Y02166*
X01616Y02159*
Y02149*
X01707*
Y0224*
X01616*
Y0223*
X01597Y02223*
X01594Y02227*
X01585Y02234*
X01574Y02239*
X01565Y0224*
X0156Y02248*
X01557Y02259*
X01592Y02295*
X01597Y02302*
X01599Y0231*
Y02357*
X01602Y02361*
X01604Y02367*
X01605Y02374*
X01604Y02382*
X01602Y02388*
X01599Y02392*
Y02429*
X01602Y02433*
X01604Y0244*
X01605Y02447*
X01604Y02454*
X01602Y02461*
X01597Y02467*
X01591Y02471*
X01585Y02474*
X0158Y02475*
X01549Y02506*
Y02559*
X01552Y02563*
X01568Y02574*
X01575Y02575*
X01581Y02578*
X01587Y02582*
X01592Y02588*
X01594Y02595*
X01595Y02602*
X01594Y02609*
X01592Y02616*
X01587Y02622*
X01581Y02626*
X01575Y02629*
X01568Y0263*
X0156Y0263*
X01552Y02643*
X01547Y02649*
X01541Y02654*
X01535Y02656*
X01528Y02657*
X01525Y02659*
X01524Y02667*
X01522Y02673*
X01517Y02679*
X01511Y02684*
X01505Y02686*
X01498Y02687*
X01494Y02702*
X01492Y02708*
X01487Y02714*
X01482Y02718*
X01482Y0272*
X01487Y02738*
X01575Y02737*
X01575Y02737*
X01575Y02737*
X01577Y02738*
X01579Y02738*
X01579Y02738*
X0158Y02738*
X01581Y02739*
X01582Y0274*
X01584Y02739*
X01592Y02737*
X01596*
X01604Y02739*
X01608Y02741*
X01615Y02745*
X01616Y02746*
X01617Y02747*
X01685Y02815*
X01686Y02816*
X01686Y02817*
X01687Y02817*
X01694Y02826*
X01695Y02827*
X01696Y02828*
X01701Y02838*
X01701Y02839*
X01702Y0284*
X01705Y02852*
X01705Y02853*
X01706Y02854*
X01707Y02866*
X01707Y02866*
X01707Y02867*
X01707Y02868*
X01707Y03024*
X01707Y03025*
X01707Y03025*
X01706Y03037*
X01705Y03038*
X01705Y03039*
X01702Y0305*
X01701Y03051*
X01701Y03053*
X01696Y03063*
X01695Y03064*
X01694Y03065*
X01687Y03074*
X01686Y03075*
X01685Y03075*
X01676Y03083*
X01675Y03083*
X01674Y03084*
X01664Y0309*
X01663Y0309*
X01662Y03091*
X01651Y03094*
X0165Y03094*
X01648Y03094*
X01637Y03096*
X01636Y03095*
X01636Y03096*
G37*
G36*
X02548Y03027D02*
X0254Y03026D01*
X02534Y03024*
X02528Y03019*
X02523Y03013*
X02521Y03007*
X0252Y02999*
X02521Y02992*
X02523Y02986*
X02528Y0298*
X02534Y02975*
X0254Y02973*
X02548Y02972*
X02555Y02973*
X02561Y02975*
X02567Y0298*
X02572Y02986*
X02574Y02992*
X02575Y02999*
X02574Y03007*
X02572Y03013*
X02567Y03019*
X02561Y03024*
X02555Y03026*
X02548Y03027*
G37*
G36*
X00248Y02988D02*
X0024Y02987D01*
X00234Y02985*
X00228Y0298*
X00223Y02974*
X00221Y02968*
X0022Y0296*
X00221Y02953*
X00223Y02947*
X00228Y02941*
X00234Y02936*
X0024Y02934*
X00248Y02933*
X00255Y02934*
X00261Y02936*
X00267Y02941*
X00272Y02947*
X00274Y02953*
X00275Y0296*
X00274Y02968*
X00272Y02974*
X00267Y0298*
X00261Y02985*
X00255Y02987*
X00248Y02988*
G37*
G36*
X02185Y02556D02*
X02103D01*
Y02473*
X02185*
Y02506*
X02204Y02508*
X02205Y02504*
X02206Y02503*
X02209Y02495*
X02216Y02486*
X02224Y0248*
X02234Y02476*
X02234Y02476*
Y02514*
Y02553*
X02234Y02553*
X02224Y02549*
X02216Y02543*
X02209Y02534*
X02206Y02526*
X02205Y02525*
X02204Y02521*
X02185Y02523*
Y02556*
G37*
G36*
X01416Y02527D02*
X01408Y02526D01*
X01402Y02524*
X01396Y02519*
X01392Y02513*
X01389Y02507*
X01388Y02499*
X01389Y02492*
X01392Y02486*
X01396Y0248*
X01402Y02475*
X01408Y02473*
X01416Y02472*
X01423Y02473*
X0143Y02475*
X01435Y0248*
X0144Y02486*
X01443Y02492*
X01443Y02499*
X01443Y02507*
X0144Y02513*
X01435Y02519*
X0143Y02524*
X01423Y02526*
X01416Y02527*
G37*
G36*
X02844Y02556D02*
X02833Y02555D01*
X02823Y02551*
X02814Y02544*
X02808Y02535*
X02804Y02525*
X02784*
X0278Y02535*
X02773Y02544*
X02765Y02551*
X02755Y02555*
X02744Y02556*
X02733Y02555*
X02723Y02551*
X02714Y02544*
X02708Y02535*
X02704Y02525*
X02684*
X0268Y02535*
X02673Y02544*
X02665Y02551*
X02655Y02555*
X02644Y02556*
X02633Y02555*
X02623Y02551*
X02614Y02544*
X02608Y02535*
X02604Y02525*
X02584*
X0258Y02535*
X02573Y02544*
X02565Y02551*
X02555Y02555*
X02544Y02556*
X02533Y02555*
X02523Y02551*
X02514Y02544*
X02508Y02535*
X02504Y02525*
X02484*
X0248Y02535*
X02473Y02544*
X02465Y02551*
X02455Y02555*
X02444Y02556*
X02433Y02555*
X02423Y02551*
X02414Y02544*
X02408Y02535*
X02404Y02525*
X02384*
X0238Y02535*
X02373Y02544*
X02365Y02551*
X02355Y02555*
X02344Y02556*
X02333Y02555*
X02323Y02551*
X02314Y02544*
X02308Y02535*
X02305Y02528*
X02304Y02525*
X02303Y02525*
X02283Y02524*
X02282Y02525*
X02281Y02527*
X02278Y02534*
X02272Y02543*
X02264Y02549*
X02254Y02553*
X02254Y02553*
Y02514*
Y02476*
X02254Y02476*
X02264Y0248*
X02272Y02486*
X02278Y02495*
X02281Y02501*
X02282Y02504*
X02283Y02505*
X02303Y02504*
X02304Y02504*
X02304Y02502*
X02308Y02494*
X02314Y02485*
X02323Y02478*
X02333Y02474*
X02344Y02473*
X02355Y02474*
X02365Y02478*
X02373Y02485*
X0238Y02494*
X02384Y02504*
X02404*
X02408Y02494*
X02414Y02485*
X02423Y02478*
X02433Y02474*
X02444Y02473*
X02455Y02474*
X02465Y02478*
X02473Y02485*
X0248Y02494*
X02484Y02504*
X02504*
X02508Y02494*
X02514Y02485*
X02523Y02478*
X02533Y02474*
X02544Y02473*
X02555Y02474*
X02565Y02478*
X02573Y02485*
X0258Y02494*
X02584Y02504*
X02604*
X02608Y02494*
X02614Y02485*
X02623Y02478*
X02633Y02474*
X02644Y02473*
X02655Y02474*
X02665Y02478*
X02673Y02485*
X0268Y02494*
X02684Y02504*
X02704*
X02708Y02494*
X02714Y02485*
X02723Y02478*
X02733Y02474*
X02744Y02473*
X02755Y02474*
X02765Y02478*
X02773Y02485*
X0278Y02494*
X02784Y02504*
X02804*
X02808Y02494*
X02814Y02485*
X02823Y02478*
X02833Y02474*
X02844Y02473*
X02855Y02474*
X02865Y02478*
X02873Y02485*
X0288Y02494*
X02884Y02504*
X02886Y02514*
X02884Y02525*
X0288Y02535*
X02873Y02544*
X02865Y02551*
X02855Y02555*
X02844Y02556*
G37*
G36*
X02258Y02962D02*
X0225Y02961D01*
X02244Y02959*
X02238Y02954*
X02233Y02948*
X02231Y02942*
X0223Y02934*
X02231Y02927*
X02233Y02921*
X02238Y02915*
X02244Y0291*
X0225Y02908*
X02258Y02907*
X02265Y02908*
X02271Y0291*
X02277Y02915*
X02282Y02921*
X02284Y02927*
X02285Y02934*
X02284Y02942*
X02282Y02948*
X02277Y02954*
X02271Y02959*
X02265Y02961*
X02258Y02962*
G37*
G36*
X01008Y02877D02*
X01Y02876D01*
X00994Y02873*
X00988Y02869*
X00983Y02863*
X00981Y02856*
X0098Y02849*
X00981Y02842*
X00983Y02835*
X00988Y02829*
X00994Y02825*
X01Y02822*
X01008Y02821*
X01015Y02822*
X01021Y02825*
X01027Y02829*
X01032Y02835*
X01034Y02842*
X01035Y02849*
X01034Y02856*
X01032Y02863*
X01027Y02869*
X01021Y02873*
X01015Y02876*
X01008Y02877*
G37*
G36*
X02453Y03177D02*
X02445Y03176D01*
X02439Y03174*
X02433Y03169*
X02428Y03163*
X02426Y03157*
X02425Y03149*
X02426Y03142*
X02428Y03136*
X02433Y0313*
X02439Y03125*
X02445Y03123*
X02453Y03122*
X0246Y03123*
X02466Y03125*
X0247Y03128*
X02542*
X02543Y03127*
X02549Y03123*
X02555Y0312*
X02563Y03119*
X0257Y0312*
X02576Y03123*
X02582Y03127*
X02587Y03133*
X02589Y0314*
X0259Y03147*
X02589Y03154*
X02587Y03161*
X02582Y03167*
X02576Y03171*
X0257Y03174*
X02563Y03175*
X02555Y03174*
X02549Y03171*
X02548Y03171*
X0247*
X02466Y03174*
X0246Y03176*
X02453Y03177*
G37*
G36*
X01784Y03666D02*
X01777Y03665D01*
X0177Y03663*
X01764Y03658*
X0176Y03652*
X01757Y03646*
X01756Y03638*
X01757Y03631*
X0176Y03625*
X01764Y03619*
X0177Y03614*
X01777Y03612*
X01784Y03611*
X01791Y03612*
X01798Y03614*
X01804Y03619*
X01808Y03625*
X01811Y03631*
X01812Y03638*
X01811Y03646*
X01808Y03652*
X01804Y03658*
X01798Y03663*
X01791Y03665*
X01784Y03666*
G37*
G36*
X02094Y03492D02*
X02077Y0349D01*
X02061Y03485*
X02045Y03477*
X02032Y03466*
X02021Y03453*
X02013Y03438*
X02008Y03421*
X02007Y03404*
X02008Y03387*
X02013Y03371*
X02021Y03356*
X02032Y03343*
X02045Y03332*
X02061Y03324*
X02077Y03319*
X02094Y03317*
X02111Y03319*
X02127Y03324*
X02142Y03332*
X02156Y03343*
X02166Y03356*
X02175Y03371*
X02179Y03387*
X02181Y03404*
X02179Y03421*
X02175Y03438*
X02166Y03453*
X02156Y03466*
X02142Y03477*
X02127Y03485*
X02111Y0349*
X02094Y03492*
G37*
G36*
X01864Y03666D02*
X01857Y03665D01*
X0185Y03663*
X01844Y03658*
X0184Y03652*
X01837Y03646*
X01836Y03638*
X01837Y03631*
X0184Y03625*
X01844Y03619*
X0185Y03614*
X01857Y03612*
X01864Y03611*
X01871Y03612*
X01878Y03614*
X01884Y03619*
X01888Y03625*
X01891Y03631*
X01892Y03638*
X01891Y03646*
X01888Y03652*
X01884Y03658*
X01878Y03663*
X01871Y03665*
X01864Y03666*
G37*
G36*
X01144Y03669D02*
X01137Y03668D01*
X0113Y03665*
X01124Y03661*
X0112Y03655*
X01117Y03648*
X01116Y03641*
X01117Y03634*
X0112Y03627*
X01124Y03621*
X0113Y03617*
X01137Y03614*
X01144Y03613*
X01151Y03614*
X01158Y03617*
X01164Y03621*
X01168Y03627*
X01171Y03634*
X01172Y03641*
X01171Y03648*
X01168Y03655*
X01164Y03661*
X01158Y03665*
X01151Y03668*
X01144Y03669*
G37*
G36*
X01504Y03668D02*
X01497Y03667D01*
X0149Y03664*
X01484Y0366*
X0148Y03654*
X01477Y03647*
X01476Y0364*
X01477Y03633*
X0148Y03626*
X01484Y03621*
X0149Y03616*
X01497Y03613*
X01504Y03612*
X01511Y03613*
X01518Y03616*
X01524Y03621*
X01528Y03626*
X01531Y03633*
X01532Y0364*
X01531Y03647*
X01528Y03654*
X01524Y0366*
X01518Y03664*
X01511Y03667*
X01504Y03668*
G37*
G36*
X02704Y03422D02*
X02689Y0342D01*
X02675Y03414*
X02663Y03405*
X02654Y03393*
X02649Y03379*
X02647Y03364*
X02649Y0335*
X02654Y03336*
X02663Y03324*
X02675Y03315*
X02689Y03309*
X02704Y03307*
X02719Y03309*
X02733Y03315*
X02744Y03324*
X02754Y03336*
X02759Y0335*
X02761Y03364*
X02759Y03379*
X02754Y03393*
X02744Y03405*
X02733Y03414*
X02719Y0342*
X02704Y03422*
G37*
G36*
X01033Y03282D02*
X01025Y03281D01*
X01019Y03279*
X01013Y03274*
X01009Y03268*
X01006Y03262*
X01005Y03254*
X01006Y03247*
X01009Y03241*
X01013Y03235*
X01019Y0323*
X01025Y03228*
X01033Y03227*
X0104Y03228*
X01047Y0323*
X01052Y03235*
X01057Y03241*
X0106Y03247*
X0106Y03254*
X0106Y03262*
X01057Y03268*
X01052Y03274*
X01047Y03279*
X0104Y03281*
X01033Y03282*
G37*
G36*
X01115Y03185D02*
X01108Y03184D01*
X01101Y03181*
X01095Y03177*
X01091Y03171*
X01088Y03164*
X01087Y03157*
X01088Y0315*
X01091Y03143*
X01095Y03137*
X01101Y03133*
X01108Y0313*
X01115Y03129*
X01122Y0313*
X01129Y03133*
X01135Y03137*
X01139Y03143*
X01142Y0315*
X01143Y03157*
X01142Y03164*
X01139Y03171*
X01135Y03177*
X01129Y03181*
X01122Y03184*
X01115Y03185*
G37*
G36*
X02284Y03422D02*
X02269Y0342D01*
X02255Y03414*
X02243Y03405*
X02234Y03393*
X02229Y03379*
X02227Y03364*
X02229Y0335*
X02234Y03336*
X02243Y03324*
X02255Y03315*
X02269Y03309*
X02284Y03307*
X02299Y03309*
X02313Y03315*
X02324Y03324*
X02334Y03336*
X02339Y0335*
X02341Y03364*
X02339Y03379*
X02334Y03393*
X02324Y03405*
X02313Y03414*
X02299Y0342*
X02284Y03422*
G37*
G36*
X02564D02*
X02549Y0342D01*
X02535Y03414*
X02523Y03405*
X02514Y03393*
X02509Y03379*
X02507Y03364*
X02509Y0335*
X02514Y03336*
X02523Y03324*
X02535Y03315*
X02549Y03309*
X02564Y03307*
X02579Y03309*
X02593Y03315*
X02604Y03324*
X02614Y03336*
X02619Y0335*
X02621Y03364*
X02619Y03379*
X02614Y03393*
X02604Y03405*
X02593Y03414*
X02579Y0342*
X02564Y03422*
G37*
G36*
X02424D02*
X02409Y0342D01*
X02395Y03414*
X02383Y03405*
X02374Y03393*
X02369Y03379*
X02367Y03364*
X02369Y0335*
X02374Y03336*
X02383Y03324*
X02395Y03315*
X02409Y03309*
X02424Y03307*
X02439Y03309*
X02453Y03315*
X02464Y03324*
X02474Y03336*
X02479Y0335*
X02481Y03364*
X02479Y03379*
X02474Y03393*
X02464Y03405*
X02453Y03414*
X02439Y0342*
X02424Y03422*
G37*
%LNsbtech_icarusboard_1v0-3*%
%LPD*%
G36*
X0023Y01305D02*
X00118D01*
Y0136*
X0023*
Y01305*
G37*
G36*
X0155Y02443D02*
X01551Y0244D01*
X01553Y02433*
X01556Y02429*
Y02392*
X01553Y02388*
X01551Y02382*
X0155Y02374*
X01551Y02367*
X01553Y02361*
X01556Y02357*
Y02324*
X01543Y02314*
X01527Y02323*
Y02337*
X01525Y02345*
X0152Y02352*
X01513Y02359*
Y02431*
X01516Y02435*
X01518Y02441*
X01519Y02445*
X01537Y02453*
X0155Y02443*
G37*
%LNsbtech_icarusboard_1v0-4*%
%LPC*%
G36*
X00215Y01347D02*
X00204D01*
X00203Y01347*
X00203*
X00203Y01347*
X00202Y01347*
X00202Y01347*
X00202Y01347*
X00201Y01347*
X002Y01347*
X00199Y01347*
X00199Y01347*
X00198Y01346*
X00198*
X00198Y01346*
X00198Y01346*
X00198Y01346*
X00198Y01346*
X00198Y01346*
X00198Y01346*
X00197Y01346*
X00197Y01346*
X00197Y01345*
X00196Y01345*
X00196Y01345*
X00196Y01345*
X00196Y01344*
X00195Y01344*
X00195Y01344*
X00195Y01344*
X00195Y01343*
X00195Y01343*
X00195Y01343*
X00195Y01343*
X00195Y01343*
X00195Y01343*
X00195Y01342*
X00194Y01342*
X00194Y01342*
X00194Y01341*
X00194Y0134*
X00194Y0134*
X00194Y0134*
Y0134*
Y0134*
Y01339*
X00194Y01339*
Y01339*
X00194Y01339*
X00194Y01339*
X00194Y01338*
X00194Y01338*
X00194Y01337*
X00195Y01337*
X00195Y01337*
X00195Y01336*
X00195Y01336*
X00195Y01336*
X00195Y01336*
X00195Y01336*
X00195Y01336*
X00195Y01336*
X00195Y01335*
X00196Y01335*
X00196Y01335*
X00196Y01335*
X00196Y01335*
X00197Y01334*
X00197Y01334*
X00197Y01334*
X00197Y01334*
X00198Y01333*
X00198Y01333*
X00198*
X00198Y01333*
X00198Y01333*
X00198Y01333*
X00198Y01333*
X00197Y01333*
X00197Y01333*
X00197Y01333*
X00196Y01332*
X00196Y01332*
X00196Y01332*
X00195Y01332*
X00195Y01331*
X00195Y01331*
X00194Y01331*
X00194Y0133*
X00194Y0133*
X00194Y0133*
X00194Y0133*
X00194Y0133*
X00194Y0133*
X00194Y0133*
X00193Y01329*
X00193Y01329*
X00193Y01329*
X00193Y01328*
X00193Y01328*
X00193Y01328*
X00193Y01327*
X00193Y01327*
X00193Y01326*
X00193Y01326*
Y01326*
Y01326*
Y01326*
X00193Y01326*
Y01325*
X00193Y01325*
X00193Y01325*
X00193Y01325*
X00193Y01324*
X00193Y01323*
X00193Y01323*
X00193Y01322*
Y01322*
X00193Y01322*
X00194Y01322*
X00194Y01322*
X00194Y01321*
X00194Y01321*
X00194Y01321*
X00194Y0132*
X00195Y0132*
X00195Y0132*
X00196Y01319*
X00196*
X00196Y01319*
X00196Y01319*
X00196Y01319*
X00196Y01319*
X00196Y01319*
X00196Y01319*
X00197Y01319*
X00197Y01318*
X00197Y01318*
X00198Y01318*
X00198Y01318*
X00199Y01318*
X00199*
X00199Y01318*
X00199Y01318*
X00199Y01318*
X00199Y01318*
X002Y01318*
X002Y01317*
X002Y01317*
X00201Y01317*
X00201Y01317*
X00201Y01317*
X00202Y01317*
X00202Y01317*
X00203Y01317*
X00203Y01317*
X00215*
Y01347*
G37*
G36*
X00157D02*
X00133D01*
Y01344*
X00143*
Y01317*
X00147*
Y01344*
X00157*
Y01347*
G37*
G36*
X00174Y01348D02*
X00174D01*
X00173Y01348*
X00173*
X00173Y01348*
X00172Y01348*
X00172Y01348*
X00171Y01348*
X00171Y01348*
X0017Y01347*
X0017Y01347*
X00169Y01347*
X00168Y01347*
X00168Y01347*
X00167Y01346*
X00166Y01346*
X00166Y01346*
X00166Y01346*
X00166Y01346*
X00166Y01345*
X00165Y01345*
X00165Y01345*
X00165Y01345*
X00164Y01344*
X00164Y01344*
X00164Y01344*
X00163Y01343*
X00163Y01343*
X00162Y01342*
X00162Y01342*
X00162Y01341*
X00161Y0134*
X00161Y0134*
X00161Y0134*
X00161Y0134*
X00161Y0134*
X00161Y01339*
X00161Y01339*
X0016Y01338*
X0016Y01338*
X0016Y01337*
X0016Y01337*
X0016Y01336*
X0016Y01335*
X0016Y01335*
X00159Y01334*
X00159Y01333*
X00159Y01332*
Y01332*
Y01332*
Y01332*
Y01332*
Y01332*
X00159Y01332*
Y01331*
X00159Y01331*
X00159Y01331*
X0016Y0133*
X0016Y01329*
X0016Y01329*
X0016Y01328*
X0016Y01327*
X0016Y01327*
X0016Y01326*
X00161Y01325*
X00161Y01325*
X00161Y01324*
X00161Y01324*
X00161Y01324*
X00161Y01324*
X00162Y01323*
X00162Y01323*
X00162Y01323*
X00162Y01322*
X00163Y01322*
X00163Y01321*
X00163Y01321*
X00164Y01321*
X00164Y0132*
X00165Y0132*
X00165Y01319*
X00166Y01319*
X00167Y01319*
X00167Y01318*
X00167Y01318*
X00167Y01318*
X00167Y01318*
X00167Y01318*
X00168Y01318*
X00168Y01318*
X00169Y01318*
X00169Y01317*
X0017Y01317*
X0017Y01317*
X00171Y01317*
X00172Y01317*
X00172Y01317*
X00173Y01317*
X00174Y01317*
X00174*
X00174Y01317*
X00175Y01317*
X00175Y01317*
X00175Y01317*
X00176Y01317*
X00176Y01317*
X00177Y01317*
X00178Y01317*
X00178Y01317*
X00179Y01318*
X00179Y01318*
X0018Y01318*
X00181Y01318*
X00181Y01319*
X00182Y01319*
X00182Y01319*
X00182Y01319*
X00182Y01319*
X00182Y01319*
X00183Y0132*
X00183Y0132*
X00183Y0132*
X00184Y01321*
X00184Y01321*
X00185Y01321*
X00185Y01322*
X00185Y01322*
X00186Y01323*
X00186Y01324*
X00187Y01324*
X00187Y01324*
X00187Y01324*
X00187Y01325*
X00187Y01325*
X00187Y01325*
X00187Y01326*
X00187Y01326*
X00187Y01327*
X00188Y01327*
X00188Y01328*
X00188Y01328*
X00188Y01329*
X00188Y0133*
X00188Y0133*
X00188Y01331*
X00188Y01332*
Y01332*
Y01332*
Y01332*
Y01332*
X00188Y01332*
Y01333*
X00188Y01333*
X00188Y01333*
X00188Y01333*
X00188Y01334*
X00188Y01334*
X00188Y01334*
X00188Y01335*
X00188Y01336*
X00188Y01337*
X00187Y01338*
X00187Y01339*
X00187Y0134*
X00186Y01341*
X00186Y01342*
X00185Y01342*
X00185Y01343*
X00185Y01343*
X00184Y01344*
X00184Y01344*
X00184Y01344*
X00184Y01344*
X00184Y01344*
X00184Y01344*
X00184Y01344*
X00183Y01344*
X00183Y01345*
X00183Y01345*
X00182Y01345*
X00181Y01346*
X00181Y01346*
X0018Y01347*
X00179Y01347*
X00178Y01347*
X00177Y01347*
X00176Y01348*
X00176Y01348*
X00175Y01348*
X00174Y01348*
X00174Y01348*
G37*
%LNsbtech_icarusboard_1v0-5*%
%LPD*%
G36*
X00211Y01335D02*
X00204D01*
X00204Y01335*
X00204*
X00203Y01335*
X00203Y01335*
X00202Y01335*
X00202Y01335*
X00201Y01335*
X00201Y01335*
X00201Y01335*
X00201*
X00201Y01335*
X00201Y01335*
X00201Y01335*
X00201Y01335*
X002Y01335*
X002Y01335*
X002Y01336*
X00199Y01336*
X00199Y01336*
X00199Y01336*
Y01336*
X00199Y01337*
X00199Y01337*
X00199Y01337*
X00199Y01337*
X00198Y01337*
X00198Y01337*
X00198Y01338*
X00198Y01338*
X00198Y01339*
X00198Y01339*
Y01339*
Y01339*
Y01339*
Y01339*
X00198Y0134*
X00198Y0134*
X00198Y0134*
X00198Y0134*
X00198Y01341*
X00198Y01341*
X00199Y01342*
Y01342*
X00199Y01342*
X00199Y01342*
X00199Y01342*
X00199Y01342*
X00199Y01343*
X002Y01343*
X002Y01343*
X00201Y01343*
X00201*
X00201Y01343*
X00201Y01343*
X00201Y01343*
X00201Y01343*
X00201Y01343*
X00202Y01344*
X00202Y01344*
X00202Y01344*
X00202Y01344*
X00203Y01344*
X00203Y01344*
X00204Y01344*
X00204Y01344*
X00205Y01344*
X00211*
Y01335*
G37*
G36*
Y01321D02*
X00203D01*
X00203Y01321*
X00202*
X00202Y01321*
X00201Y01321*
X00201Y01321*
X00201Y01321*
X00201*
X00201Y01321*
X00201*
X00201Y01321*
X00201Y01321*
X002Y01321*
X002Y01321*
X002Y01321*
X00199Y01321*
X00199Y01322*
X00199*
X00199Y01322*
X00199Y01322*
X00198Y01322*
X00198Y01322*
X00198Y01322*
X00198Y01323*
X00198Y01323*
X00197Y01323*
Y01323*
X00197Y01323*
X00197Y01323*
X00197Y01324*
X00197Y01324*
X00197Y01324*
X00197Y01324*
X00197Y01325*
X00197Y01325*
X00197Y01326*
Y01326*
Y01326*
Y01326*
X00197Y01326*
Y01326*
X00197Y01326*
X00197Y01327*
X00197Y01327*
X00197Y01328*
X00197Y01328*
X00198Y01329*
Y01329*
X00198Y01329*
X00198Y01329*
X00198Y01329*
X00198Y01329*
X00198Y01329*
X00199Y0133*
X00199Y0133*
X00199Y0133*
X002Y01331*
X002*
X002Y01331*
X002Y01331*
X002Y01331*
X002Y01331*
X00201Y01331*
X00201Y01331*
X00201Y01331*
X00201Y01331*
X00202Y01331*
X00202Y01331*
X00202Y01331*
X00203Y01331*
X00203Y01331*
X00204Y01331*
X00211*
Y01321*
G37*
G36*
X00174Y01344D02*
X00175Y01344D01*
X00175Y01344*
X00175Y01344*
X00176Y01344*
X00176Y01344*
X00177Y01344*
X00177Y01344*
X00178Y01343*
X00179Y01343*
X00179Y01343*
X0018Y01342*
X00181Y01342*
X00181Y01341*
X00181Y01341*
X00181Y01341*
X00181Y01341*
X00182Y01341*
X00182Y01341*
X00182Y0134*
X00182Y0134*
X00183Y01339*
X00183Y01339*
X00183Y01338*
X00183Y01337*
X00184Y01336*
X00184Y01335*
X00184Y01335*
X00184Y01334*
X00184Y01334*
X00184Y01333*
X00184Y01332*
Y01332*
Y01332*
Y01332*
Y01332*
Y01332*
X00184Y01331*
Y01331*
Y01331*
X00184Y01331*
X00184Y0133*
X00184Y0133*
X00184Y01329*
X00184Y01329*
X00184Y01328*
X00183Y01327*
X00183Y01327*
X00183Y01326*
X00183Y01325*
X00182Y01324*
X00182Y01324*
X00181Y01323*
X00181Y01323*
X00181Y01323*
X00181Y01323*
X00181Y01323*
X0018Y01322*
X0018Y01322*
X0018Y01322*
X00179Y01322*
X00179Y01321*
X00178Y01321*
X00178Y01321*
X00177Y01321*
X00176Y0132*
X00175Y0132*
X00175Y0132*
X00174Y0132*
X00174*
X00174Y0132*
X00173*
X00173Y0132*
X00173Y0132*
X00172Y0132*
X00172Y0132*
X00171Y0132*
X00171Y01321*
X0017Y01321*
X00169Y01321*
X00169Y01321*
X00168Y01322*
X00168Y01322*
X00167Y01323*
X00166Y01323*
X00166Y01323*
X00166Y01323*
X00166Y01324*
X00166Y01324*
X00166Y01324*
X00166Y01325*
X00165Y01325*
X00165Y01326*
X00165Y01326*
X00164Y01327*
X00164Y01328*
X00164Y01328*
X00164Y01329*
X00164Y0133*
X00164Y01331*
X00164Y01332*
Y01332*
Y01332*
Y01333*
X00164Y01333*
X00164Y01333*
X00164Y01334*
X00164Y01334*
X00164Y01334*
X00164Y01335*
X00164Y01335*
X00164Y01336*
X00164Y01336*
X00164Y01337*
X00164Y01338*
X00165Y01338*
X00165Y01339*
X00165Y01339*
X00165Y01339*
X00165Y01339*
X00165Y01339*
X00165Y01339*
X00165Y0134*
X00165Y0134*
X00166Y0134*
X00166Y01341*
X00166Y01341*
X00167Y01341*
X00167Y01342*
X00167Y01342*
X00168Y01342*
X00168Y01343*
X00168Y01343*
X00168Y01343*
X00169Y01343*
X00169Y01343*
X00169Y01343*
X00169Y01343*
X00169Y01343*
X0017Y01344*
X0017Y01344*
X0017Y01344*
X00171Y01344*
X00171Y01344*
X00172Y01344*
X00172Y01344*
X00173Y01344*
X00173Y01344*
X00174Y01344*
X00174*
X00174Y01344*
G37*
G54D44*
X00298Y01704D02*
X00358Y01644D01*
X00397Y01685D02*
X00438Y01644D01*
X00397Y01685D02*
Y02049D01*
X00458Y02109*
X00158Y01734D02*
Y02104D01*
Y01734D02*
X00248Y01644D01*
X00249Y0197D02*
Y02107D01*
Y0197D02*
X00298Y01921D01*
Y01704D02*
Y01921D01*
G54D45*
X01462Y02194D02*
X01578Y0231D01*
X01556Y02201D02*
X01562Y02194D01*
X01492Y02589D02*
X01498Y02595D01*
X01296Y01034D02*
X01398Y01136D01*
X01177Y01034D02*
X01296D01*
X01574Y00542D02*
X01598Y00566D01*
X0256Y03149D02*
X02563Y03147D01*
X02453Y03149D02*
X0256D01*
X01148Y01184D02*
Y01324D01*
X01598Y00566D02*
Y01459D01*
X01578Y0231D02*
Y02374D01*
X01505Y02294D02*
Y02337D01*
X01492Y02448D02*
Y02589D01*
Y0235D02*
Y02448D01*
Y0235D02*
X01505Y02337D01*
X01498Y02595D02*
Y02659D01*
X015Y02132D02*
X01562Y02194D01*
X015Y01825D02*
Y02132D01*
X00948Y01273D02*
X015Y01825D01*
X00948Y01184D02*
Y01273D01*
X01556Y02201D02*
X01563Y02207D01*
X014Y01835D02*
Y02132D01*
X00848Y01283D02*
X014Y01835D01*
X00848Y01184D02*
Y01283D01*
X014Y02132D02*
X01462Y02194D01*
X01148Y01324D02*
X01838Y02014D01*
Y02546*
X01528Y02497D02*
X01578Y02447D01*
X01528Y02497D02*
Y02629D01*
X01578Y02374D02*
Y02447D01*
X01248Y01184D02*
Y01388D01*
X01878Y02018*
Y02546*
X01398Y01136D02*
Y01498D01*
X01908Y02008*
Y02394*
X01498Y00621D02*
Y01464D01*
X01437Y0056D02*
X01498Y00621D01*
X01437Y00346D02*
Y0056D01*
X0Y0D02*
X03011D01*
Y04311*
X0D02*
X03011D01*
X0Y0D02*
Y04311D01*
G54D47*
X00063Y00519D02*
X00098Y00554D01*
X0046*
X00472Y00542*
X00328Y00519D02*
X00501Y00346D01*
X0061*
X00448Y00901D02*
Y01184D01*
Y00901D02*
X00506Y00843D01*
X00571*
G54D55*
X01413Y02754D02*
D01*
X01414Y02753*
X01415Y02752*
X01416Y02752*
X01417Y02751*
X01418Y02751*
X01419Y0275*
X0142Y0275*
X01421Y0275*
X01422Y02749*
X01423Y02749*
X01424Y02749*
X01424Y02749*
D01*
X01425Y02749*
X01426Y02749*
X01428Y0275*
X01429Y0275*
X0143Y0275*
X01431Y02751*
X01432Y02751*
X01433Y02752*
X01434Y02753*
X01435Y02753*
X01436Y02754*
X01436Y02754*
X0144Y02758D02*
D01*
X01441Y02759*
X01441Y0276*
X01442Y0276*
X01442Y02761*
X01443Y02762*
X01443Y02763*
X01443Y02764*
X01444Y02764*
X01444Y02765*
X01444Y02766*
X01444Y02767*
X01444Y02767*
Y02769D02*
D01*
X01444Y02771*
X01444Y02772*
X01444Y02773*
X01443Y02774*
X01443Y02776*
X01442Y02777*
X01442Y02778*
X01441Y02779*
X0144Y0278*
X0144Y02781*
X01439Y02782*
X01438Y02783*
X01362Y02867D02*
D01*
X01362Y02865*
X01363Y02864*
X01363Y02863*
X01363Y02861*
X01364Y0286*
X01364Y02859*
X01365Y02857*
X01365Y02856*
X01366Y02855*
X01367Y02854*
X01368Y02853*
X01368Y02853*
X01368Y03038D02*
D01*
X01367Y03037*
X01366Y03036*
X01365Y03035*
X01365Y03034*
X01364Y03033*
X01364Y03032*
X01363Y03031*
X01363Y03029*
X01363Y03028*
X01363Y03027*
X01362Y03025*
Y03025*
X01381Y03044D02*
D01*
X0138Y03044*
X01379Y03044*
X01377Y03043*
X01376Y03043*
X01375Y03043*
X01374Y03042*
X01372Y03042*
X01371Y03041*
X0137Y0304*
X01369Y03039*
X01368Y03039*
X01368Y03038*
X01649Y03038D02*
D01*
X01648Y03039*
X01647Y0304*
X01646Y03041*
X01645Y03042*
X01643Y03042*
X01642Y03043*
X01641Y03043*
X0164Y03043*
X01639Y03044*
X01637Y03044*
X01636Y03044*
X01636Y03044*
X01656Y03026D02*
D01*
X01656Y03027*
X01656Y03028*
X01655Y03029*
X01655Y0303*
X01655Y0303*
X01655Y03031*
X01654Y03032*
X01654Y03033*
X01653Y03034*
X01653Y03034*
X01652Y03035*
X01652Y03035*
X0165Y02853D02*
D01*
X01651Y02854*
X01652Y02855*
X01653Y02856*
X01653Y02858*
X01654Y02859*
X01654Y0286*
X01655Y02861*
X01655Y02862*
X01655Y02864*
X01656Y02865*
X01656Y02866*
X01656Y02867*
X01579Y02783D02*
D01*
X01578Y02782*
X01578Y02781*
X01577Y02779*
X01576Y02778*
X01576Y02777*
X01575Y02776*
X01575Y02775*
X01574Y02773*
X01574Y02772*
X01574Y02771*
X01574Y0277*
X01574Y02769*
D01*
X01574Y02768*
X01574Y02767*
X01574Y02766*
X01574Y02764*
X01575Y02763*
X01575Y02762*
X01576Y02761*
X01576Y0276*
X01577Y02759*
X01578Y02758*
X01579Y02757*
X01579Y02757*
X01583Y02753D02*
D01*
X01584Y02752*
X01584Y02752*
X01585Y02752*
X01585Y02751*
X01586Y02751*
X01586Y02751*
X01587Y0275*
X01587Y0275*
X01588Y0275*
X01589Y0275*
X01589Y0275*
X0159Y0275*
D01*
X01592Y0275*
X01594Y0275*
X01596Y02751*
X01598Y02751*
X01601Y02752*
X01603Y02753*
X01605Y02754*
X01607Y02755*
X01609Y02756*
X0161Y02758*
X01612Y02759*
X01612Y0276*
X01678Y02825D02*
D01*
X0168Y02828*
X01683Y02831*
X01685Y02834*
X01687Y02838*
X01689Y02841*
X01691Y02845*
X01692Y02849*
X01693Y02853*
X01694Y02856*
X01694Y0286*
X01694Y02864*
X01695Y02866*
Y03025D02*
D01*
X01694Y03029*
X01694Y03033*
X01693Y03037*
X01692Y03041*
X01691Y03045*
X0169Y03049*
X01688Y03052*
X01686Y03056*
X01683Y03059*
X01681Y03062*
X01678Y03065*
X01678Y03066*
D01*
X01675Y03069*
X01671Y03072*
X01668Y03074*
X01664Y03076*
X01661Y03078*
X01657Y0308*
X01653Y03081*
X01649Y03082*
X01645Y03083*
X01641Y03083*
X01637Y03084*
X01636Y03084*
X01382D02*
D01*
X01378Y03083*
X01374Y03083*
X0137Y03082*
X01366Y03081*
X01362Y0308*
X01358Y03078*
X01355Y03077*
X01351Y03075*
X01348Y03072*
X01344Y0307*
X01341Y03067*
X01341Y03066*
X01339Y03065D02*
D01*
X01336Y03062*
X01334Y03059*
X01332Y03056*
X0133Y03053*
X01328Y03049*
X01327Y03046*
X01326Y03043*
X01325Y03039*
X01324Y03035*
X01324Y03032*
X01323Y03028*
X01323Y03027*
Y02861D02*
D01*
X01323Y02858*
X01324Y02855*
X01324Y02852*
X01325Y02849*
X01326Y02847*
X01327Y02844*
X01328Y02841*
X0133Y02839*
X01331Y02836*
X01333Y02834*
X01335Y02832*
X01336Y02831*
X01412Y02755D02*
X01413Y02754D01*
X01436Y02754D02*
X0144Y02758D01*
X01444Y02767D02*
Y02769D01*
X01368Y02853D02*
X01438Y02783D01*
X01362Y02867D02*
Y03015D01*
Y03025*
X01382Y03044D02*
X01636D01*
X01649Y03038D02*
X01652Y03035D01*
X01656Y02867D02*
Y03026D01*
X01579Y02783D02*
X0165Y02853D01*
X01579Y02757D02*
X01583Y02753D01*
X01612Y0276D02*
X01678Y02825D01*
X01695Y02866D02*
Y03025D01*
X01382Y03084D02*
X01636D01*
X01339Y03065D02*
X01341Y03066D01*
X01323Y02861D02*
Y03027D01*
X01336Y02831D02*
X01416Y02751D01*
G54D56*
X00158Y03434D03*
G54D57*
X00158Y03534D03*
Y03634D03*
Y03734D03*
G54D58*
X01662Y02194D03*
G54D59*
X01562Y02194D03*
X01462D03*
X01362D03*
G54D60*
X02263Y03768D03*
X02125Y03964D03*
X01988Y03768D03*
X0185Y03964D03*
X02401D03*
X02539Y03768D03*
X01712D03*
X01574Y03964D03*
X01437Y03768D03*
X01299Y03964D03*
X00472D03*
X0061Y03768D03*
X00748Y03964D03*
X00885Y03768D03*
X01023Y03964D03*
X01161Y03768D03*
X00748Y00542D03*
X00885Y00346D03*
X01023Y00542D03*
X01161Y00346D03*
X0061D03*
X00472Y00542D03*
X01299D03*
X01437Y00346D03*
X01574Y00542D03*
X01712Y00346D03*
X02539D03*
X02401Y00542D03*
X02263Y00346D03*
X02125Y00542D03*
X01988Y00346D03*
X0185Y00542D03*
G54D61*
X02704Y03364D03*
X02564D03*
X02424D03*
X02284D03*
G54D62*
X02094Y03404D03*
X02894D03*
G54D63*
X02144Y02514D03*
G54D64*
X02244Y02514D03*
X02344D03*
X02444D03*
X02544D03*
X02644D03*
X02744D03*
X02844D03*
X00125Y03895D03*
X0276Y00425D03*
G54D65*
X01548Y01184D03*
G54D66*
X01448Y01184D03*
X01348D03*
X01248D03*
X01148D03*
X01048D03*
X00948D03*
X00848D03*
X00748D03*
X00648D03*
X00548D03*
X00448D03*
X00348D03*
X00248D03*
Y01884D03*
X00348D03*
X00448D03*
X00548D03*
X00648D03*
X00748D03*
X00848D03*
X00948D03*
X01048D03*
X01148D03*
X01248D03*
X01348D03*
X01448D03*
X01548D03*
G54D67*
X02844Y00187D03*
X00167D03*
Y04124D03*
X02844D03*
Y02155D03*
G54D68*
X02718Y01764D03*
X02906Y00508D03*
X0294Y019D03*
X0202Y0187D03*
G54D69*
X00243Y01599D03*
X01293Y01087D03*
X01453Y02419D03*
Y02334D03*
X01468Y02694D03*
X01583Y02509D03*
X01568Y02602D03*
X01433D03*
X01008Y02849D03*
X00818Y0296D03*
X00628D03*
X00438D03*
X00248D03*
X00983Y03318D03*
X01033Y03254D03*
X00998Y02284D03*
X00933D03*
X00918Y03228D03*
X00728D03*
X00538D03*
X00348D03*
X00813Y03659D03*
X00658D03*
X00508D03*
X00358D03*
X00998Y03624D03*
X01228D03*
X01838Y03374D03*
X01758D03*
X01118D03*
X01478D03*
X01948Y03624D03*
Y03394D03*
X01648Y03624D03*
X01588D03*
X01648Y03394D03*
X01588D03*
X01398Y03374D03*
X01288Y03394D03*
X01228D03*
X01288Y03624D03*
X00938Y03374D03*
X01048Y03389D03*
X01864Y03638D03*
X01784D03*
X01504Y0364D03*
X01424Y03641D03*
X01144D03*
X01328Y03184D03*
X01115Y03157D03*
X02563Y03147D03*
X02258Y02934D03*
X01038Y01014D03*
X00063Y00519D03*
X00328D03*
X00218Y00374D03*
X00298Y00384D03*
X00088D03*
X01878Y02546D03*
X01177Y01034D03*
X01908Y02394D03*
X01258Y02389D03*
X01398Y02317D03*
X01395Y02424D03*
X02453Y03149D03*
X02323Y02938D03*
X02548Y02999D03*
X02113Y03197D03*
X02744Y01264D03*
X02588Y01062D03*
Y01012D03*
X02613Y01037D03*
X02638Y01062D03*
X02663Y01087D03*
X02638Y01112D03*
X02663Y01137D03*
X02638Y01162D03*
X02893Y01294D03*
Y01259D03*
Y01224D03*
X02928Y01259D03*
Y01224D03*
Y01294D03*
X02638Y01739D03*
X01853Y01109D03*
X01498Y01464D03*
X01598Y01459D03*
X00248Y01644D03*
X00358D03*
X00438D03*
X00458Y02109D03*
X00249Y02107D03*
X00158Y02104D03*
X00982Y008D03*
X0111Y00952D03*
X00218Y01064D03*
X00063Y00979D03*
X00403Y00825D03*
X02488Y03249D03*
X02608D03*
X02493Y03506D03*
X01108Y0267D03*
X0023Y02404D03*
X00365Y01599D03*
X00458Y02059D03*
X00483Y02029D03*
X02613Y01084D03*
X02638Y01774D03*
X02713Y01524D03*
X01578Y02374D03*
X01505Y02294D03*
X01548Y02324D03*
X01578Y02447D03*
X01492Y02448D03*
X01416Y02499D03*
X01528Y02629D03*
X01578Y02694D03*
X01498Y02659D03*
X01353Y03274D03*
X00968Y03659D03*
X00565Y00983D03*
X01838Y02546D03*
X01853Y01139D03*
X0182Y0114D03*
X01784D03*
X0175D03*
X01784Y0111D03*
X0175D03*
X0182D03*
X01716Y0111D03*
X01646D03*
X01681D03*
X01646Y0114D03*
X01681D03*
X01716D03*
X01721Y01373D03*
X01686D03*
X01651D03*
X01686Y01343D03*
X01651D03*
X01721D03*
X01825Y01343D03*
X01755D03*
X01789D03*
X01755Y01373D03*
X01789D03*
X01825D03*
X01858Y01372D03*
Y01342D03*
X00049Y0235D03*
Y0239D03*
Y0243D03*
X0005Y0247D03*
X00592Y02469D03*
X00591Y02429D03*
Y02389D03*
Y02349D03*
X02963Y01294D03*
Y01224D03*
Y01259D03*
X0298Y0119D03*
Y0112D03*
Y01155D03*
Y0105D03*
Y01015D03*
Y01085D03*
Y00945D03*
Y0098D03*
Y0091D03*
Y0084D03*
Y00875D03*
Y00805D03*
Y00735D03*
Y0077D03*
Y007D03*
Y0063D03*
Y00665D03*
Y00595D03*
X02978Y01364D03*
Y01399D03*
Y01329D03*
Y01469D03*
Y01434D03*
Y01504D03*
Y01574D03*
Y01539D03*
Y01609D03*
Y01679D03*
Y01644D03*
Y01714D03*
Y01784D03*
Y01749D03*
X0031Y01965D03*
Y02005D03*
X00146Y012D03*
X00047Y01396D03*
Y0179D03*
X00146Y02774D03*
X00047Y02971D03*
Y03365D03*
Y03759D03*
X00342Y00412D03*
Y00806D03*
X00244Y01396D03*
Y02578D03*
X00342Y03168D03*
X00244Y03759D03*
X00342Y03955D03*
X00441Y00215D03*
X00539Y00412D03*
X00441Y00609D03*
Y01396D03*
X00539Y01593D03*
Y01987D03*
X00441Y02578D03*
X00539Y03168D03*
X00441Y04152D03*
X00638Y00215D03*
X00736Y00412D03*
X00638Y00609D03*
Y01396D03*
X00736Y01593D03*
X00638Y0179D03*
X00736Y02774D03*
Y03168D03*
X00638Y04152D03*
X00835Y00215D03*
X00933Y00412D03*
X00835Y00609D03*
Y01396D03*
X00933Y01593D03*
X00835Y0179D03*
Y02184D03*
Y02578D03*
X00933Y03168D03*
Y03955D03*
X00835Y04152D03*
X01031Y00215D03*
Y0179D03*
Y02184D03*
X0113Y02381D03*
X01031Y02578D03*
X0113Y02774D03*
X01031Y02971D03*
Y03759D03*
X0113Y03955D03*
X01031Y04152D03*
X01228Y00215D03*
X01327Y00412D03*
X01228Y00609D03*
X01327Y01593D03*
X01228Y0179D03*
Y02184D03*
X01327Y02381D03*
X01228Y02578D03*
Y02971D03*
Y04152D03*
X01425Y00215D03*
X01524Y00412D03*
X01425Y00609D03*
X01524Y03168D03*
X01425Y04152D03*
X01622Y00215D03*
X0172Y00806D03*
Y01593D03*
Y02381D03*
Y02774D03*
X01622Y03365D03*
Y03759D03*
X0172Y03955D03*
X01622Y04152D03*
X01819Y00215D03*
X01917Y00412D03*
X01819Y00609D03*
X01917Y00806D03*
Y012D03*
Y01593D03*
X01819Y0179D03*
Y04152D03*
X02016Y00215D03*
X02114Y00412D03*
X02016Y00609D03*
X02114Y00806D03*
Y012D03*
X02016Y01396D03*
X02114Y01593D03*
X02016Y0179D03*
Y02184D03*
X02114Y02381D03*
Y02774D03*
X02016Y02971D03*
X02114Y03562D03*
X02016Y04152D03*
X02213Y00215D03*
X02311Y00412D03*
X02213Y00609D03*
X02311Y012D03*
X02213Y01396D03*
X02311Y01593D03*
X02213Y0179D03*
Y02578D03*
X02311Y03168D03*
Y03955D03*
X02213Y04152D03*
X02409Y00215D03*
X02508Y01987D03*
X02409Y02578D03*
X02508Y02774D03*
X02409Y02971D03*
Y04152D03*
X02606Y00215D03*
X02705Y01987D03*
X02606Y02184D03*
Y02578D03*
X02705Y02774D03*
X02606Y02971D03*
X02705Y03168D03*
Y03955D03*
X02606Y04152D03*
X02902Y00412D03*
Y01987D03*
Y02381D03*
X02803Y02578D03*
X02902Y02774D03*
X02803Y02971D03*
X02902Y03168D03*
Y03562D03*
X02803Y03759D03*
X02902Y03955D03*
X00571Y00843D03*
X00472Y0083D03*
X0052Y00915D03*
M02*