%FSTAX23Y23*%
%MOIN*%
%SFA1B1*%

%IPPOS*%
%AMD72*
1,1,0.067370,0.000000,0.000000*
1,0,0.053370,0.000000,0.000000*
4,0,4,0.020200,0.027300,-0.027300,-0.020200,-0.020200,-0.027300,0.027300,0.020200,0.020200,0.027300,0.0*
4,0,4,-0.020200,0.027300,0.027300,-0.020200,0.020200,-0.027300,-0.027300,0.020200,-0.020200,0.027300,0.0*
%
%AMD74*
1,1,0.083118,0.000000,0.000000*
1,0,0.069118,0.000000,0.000000*
4,0,4,0.025800,0.032900,-0.032900,-0.025800,-0.025800,-0.032900,0.032900,0.025800,0.025800,0.032900,0.0*
4,0,4,-0.025800,0.032900,0.032900,-0.025800,0.025800,-0.032900,-0.032900,0.025800,-0.025800,0.032900,0.0*
%
%AMD78*
1,1,0.063433,0.000000,0.000000*
1,0,0.049433,0.000000,0.000000*
4,0,4,0.018900,0.026000,-0.026000,-0.018900,-0.018900,-0.026000,0.026000,0.018900,0.018900,0.026000,0.0*
4,0,4,-0.018900,0.026000,0.026000,-0.018900,0.018900,-0.026000,-0.026000,0.018900,-0.018900,0.026000,0.0*
%
%AMD80*
1,1,0.043748,0.000000,0.000000*
1,0,0.029748,0.000000,0.000000*
4,0,4,0.011900,0.019000,-0.019000,-0.011900,-0.011900,-0.019000,0.019000,0.011900,0.011900,0.019000,0.0*
4,0,4,-0.011900,0.019000,0.019000,-0.011900,0.011900,-0.019000,-0.019000,0.011900,-0.011900,0.019000,0.0*
%
%ADD45C,0.010000*%
%ADD55C,0.005910*%
%ADD70C,0.040000*%
%ADD71C,0.066930*%
G04~CAMADD=72~12~0.0~0.0~0.0~0.0~0.0~0.0~0~673.7~533.7~0.0~45.0~4~100.0~0.0~0.0~0.0~0~0.0~0.0~0.0~0.0~673.7~673.7*
%ADD72D72*%
%ADD73C,0.082680*%
G04~CAMADD=74~12~0.0~0.0~0.0~0.0~0.0~0.0~0~831.2~691.2~0.0~45.0~4~100.0~0.0~0.0~0.0~0~0.0~0.0~0.0~0.0~831.2~831.2*
%ADD74D74*%
%ADD75C,0.087560*%
%ADD76C,0.127560*%
%ADD77C,0.062990*%
G04~CAMADD=78~12~0.0~0.0~0.0~0.0~0.0~0.0~0~634.3~494.3~0.0~45.0~4~100.0~0.0~0.0~0.0~0~0.0~0.0~0.0~0.0~634.3~634.3*
%ADD78D78*%
%ADD79C,0.165350*%
G04~CAMADD=80~12~0.0~0.0~0.0~0.0~0.0~0.0~0~437.5~297.5~0.0~45.0~4~100.0~0.0~0.0~0.0~0~0.0~0.0~0.0~0.0~437.5~437.5*
%ADD80D80*%
%ADD81C,0.043310*%
%ADD82C,0.011810*%
%LNsbtech_icarusboard_1v0-1*%
%LPD*%
G36*
X03011Y0119D02*
X02893Y01189D01*
Y01329*
X03011Y01329*
Y0119*
G37*
G36*
X02663Y01137D02*
Y01087D01*
X02588Y01012*
Y01062*
X02638Y01112*
Y01162*
X02663Y01137*
G37*
G36*
X01637Y03083D02*
X01647Y03082D01*
X01658Y03079*
X01669Y03074*
X01678Y03066*
X01685Y03057*
X0169Y03047*
X01694Y03036*
X01694Y0303*
X01695Y03024*
X01695Y02867*
X01695*
X01694Y02855*
X0169Y02844*
X01685Y02834*
X01678Y02825*
X01677Y02825*
X01608Y02755*
X01602Y02751*
X01594Y02749*
X01586Y02751*
X0158Y02755*
X01575Y02762*
X01574Y02769*
X01575Y02777*
X0158Y02783*
X0158Y02783*
X0165Y02853*
X0165Y02853*
X01654Y02859*
X01656Y02867*
X01655*
X01656Y03024*
X01636Y03044*
Y03044*
X01382Y03044*
Y03044*
X01374Y03043*
X01368Y03038*
X01364Y03032*
X01362Y03024*
X01362*
Y02867*
X01362*
X01364Y02859*
X01368Y02853*
X01368Y02853*
X01438Y02783*
X01438Y02783*
X01442Y02777*
X01444Y02769*
X01442Y02762*
X01438Y02755*
X01432Y02751*
X01424Y02749*
X01416Y02751*
X0141Y02755*
X0141Y02755*
X0134Y02825*
X0134Y02825*
X01333Y02834*
X01327Y02844*
X01324Y02855*
X01323Y02867*
X01323*
Y03024*
X01323*
X01324Y03036*
X01327Y03047*
X01333Y03057*
X0134Y03066*
X01349Y03074*
X01359Y03079*
X01371Y03082*
X01382Y03084*
X01636Y03083*
Y03084*
X01637Y03083*
G37*
G36*
X01652Y01372D02*
X01858D01*
Y01342*
X01857Y01343*
X01651*
Y01373*
X01652Y01372*
G37*
G54D45*
X0Y0D02*
X03011D01*
Y04311*
X0D02*
X03011D01*
X0Y0D02*
Y04311D01*
G54D55*
X01413Y02754D02*
D01*
X01414Y02753*
X01415Y02752*
X01416Y02752*
X01417Y02751*
X01418Y02751*
X01419Y0275*
X0142Y0275*
X01421Y0275*
X01422Y02749*
X01423Y02749*
X01424Y02749*
X01424Y02749*
D01*
X01425Y02749*
X01426Y02749*
X01428Y0275*
X01429Y0275*
X0143Y0275*
X01431Y02751*
X01432Y02751*
X01433Y02752*
X01434Y02753*
X01435Y02753*
X01436Y02754*
X01436Y02754*
X0144Y02758D02*
D01*
X01441Y02759*
X01441Y0276*
X01442Y0276*
X01442Y02761*
X01443Y02762*
X01443Y02763*
X01443Y02764*
X01444Y02764*
X01444Y02765*
X01444Y02766*
X01444Y02767*
X01444Y02767*
Y02769D02*
D01*
X01444Y02771*
X01444Y02772*
X01444Y02773*
X01443Y02774*
X01443Y02776*
X01442Y02777*
X01442Y02778*
X01441Y02779*
X0144Y0278*
X0144Y02781*
X01439Y02782*
X01438Y02783*
X01362Y02867D02*
D01*
X01362Y02865*
X01363Y02864*
X01363Y02863*
X01363Y02861*
X01364Y0286*
X01364Y02859*
X01365Y02857*
X01365Y02856*
X01366Y02855*
X01367Y02854*
X01368Y02853*
X01368Y02853*
X01368Y03038D02*
D01*
X01367Y03037*
X01366Y03036*
X01365Y03035*
X01365Y03034*
X01364Y03033*
X01364Y03032*
X01363Y03031*
X01363Y03029*
X01363Y03028*
X01363Y03027*
X01362Y03025*
Y03025*
X01381Y03044D02*
D01*
X0138Y03044*
X01379Y03044*
X01377Y03043*
X01376Y03043*
X01375Y03043*
X01374Y03042*
X01372Y03042*
X01371Y03041*
X0137Y0304*
X01369Y03039*
X01368Y03039*
X01368Y03038*
X01649Y03038D02*
D01*
X01648Y03039*
X01647Y0304*
X01646Y03041*
X01645Y03042*
X01643Y03042*
X01642Y03043*
X01641Y03043*
X0164Y03043*
X01639Y03044*
X01637Y03044*
X01636Y03044*
X01636Y03044*
X01656Y03026D02*
D01*
X01656Y03027*
X01656Y03028*
X01655Y03029*
X01655Y0303*
X01655Y0303*
X01655Y03031*
X01654Y03032*
X01654Y03033*
X01653Y03034*
X01653Y03034*
X01652Y03035*
X01652Y03035*
X0165Y02853D02*
D01*
X01651Y02854*
X01652Y02855*
X01653Y02856*
X01653Y02858*
X01654Y02859*
X01654Y0286*
X01655Y02861*
X01655Y02862*
X01655Y02864*
X01656Y02865*
X01656Y02866*
X01656Y02867*
X01579Y02783D02*
D01*
X01578Y02782*
X01578Y02781*
X01577Y02779*
X01576Y02778*
X01576Y02777*
X01575Y02776*
X01575Y02775*
X01574Y02773*
X01574Y02772*
X01574Y02771*
X01574Y0277*
X01574Y02769*
D01*
X01574Y02768*
X01574Y02767*
X01574Y02766*
X01574Y02764*
X01575Y02763*
X01575Y02762*
X01576Y02761*
X01576Y0276*
X01577Y02759*
X01578Y02758*
X01579Y02757*
X01579Y02757*
X01583Y02753D02*
D01*
X01584Y02752*
X01584Y02752*
X01585Y02752*
X01585Y02751*
X01586Y02751*
X01586Y02751*
X01587Y0275*
X01587Y0275*
X01588Y0275*
X01589Y0275*
X01589Y0275*
X0159Y0275*
D01*
X01592Y0275*
X01594Y0275*
X01596Y02751*
X01598Y02751*
X01601Y02752*
X01603Y02753*
X01605Y02754*
X01607Y02755*
X01609Y02756*
X0161Y02758*
X01612Y02759*
X01612Y0276*
X01678Y02825D02*
D01*
X0168Y02828*
X01683Y02831*
X01685Y02834*
X01687Y02838*
X01689Y02841*
X01691Y02845*
X01692Y02849*
X01693Y02853*
X01694Y02856*
X01694Y0286*
X01694Y02864*
X01695Y02866*
Y03025D02*
D01*
X01694Y03029*
X01694Y03033*
X01693Y03037*
X01692Y03041*
X01691Y03045*
X0169Y03049*
X01688Y03052*
X01686Y03056*
X01683Y03059*
X01681Y03062*
X01678Y03065*
X01678Y03066*
D01*
X01675Y03069*
X01671Y03072*
X01668Y03074*
X01664Y03076*
X01661Y03078*
X01657Y0308*
X01653Y03081*
X01649Y03082*
X01645Y03083*
X01641Y03083*
X01637Y03084*
X01636Y03084*
X01382D02*
D01*
X01378Y03083*
X01374Y03083*
X0137Y03082*
X01366Y03081*
X01362Y0308*
X01358Y03078*
X01355Y03077*
X01351Y03075*
X01348Y03072*
X01344Y0307*
X01341Y03067*
X01341Y03066*
X01339Y03065D02*
D01*
X01336Y03062*
X01334Y03059*
X01332Y03056*
X0133Y03053*
X01328Y03049*
X01327Y03046*
X01326Y03043*
X01325Y03039*
X01324Y03035*
X01324Y03032*
X01323Y03028*
X01323Y03027*
Y02861D02*
D01*
X01323Y02858*
X01324Y02855*
X01324Y02852*
X01325Y02849*
X01326Y02847*
X01327Y02844*
X01328Y02841*
X0133Y02839*
X01331Y02836*
X01333Y02834*
X01335Y02832*
X01336Y02831*
X01412Y02755D02*
X01413Y02754D01*
X01436Y02754D02*
X0144Y02758D01*
X01444Y02767D02*
Y02769D01*
X01368Y02853D02*
X01438Y02783D01*
X01362Y02867D02*
Y03015D01*
Y03025*
X01382Y03044D02*
X01636D01*
X01649Y03038D02*
X01652Y03035D01*
X01656Y02867D02*
Y03026D01*
X01579Y02783D02*
X0165Y02853D01*
X01579Y02757D02*
X01583Y02753D01*
X01612Y0276D02*
X01678Y02825D01*
X01695Y02866D02*
Y03025D01*
X01382Y03084D02*
X01636D01*
X01339Y03065D02*
X01341Y03066D01*
X01323Y02861D02*
Y03027D01*
X01336Y02831D02*
X01416Y02751D01*
G54D70*
X01636Y03084D02*
X01637Y03083D01*
X01647Y03082*
X01658Y03079*
X01669Y03074*
X01678Y03066*
X01685Y03057*
X0169Y03047*
X01694Y03036*
X01694Y0303*
X01695Y03024*
X01695Y02867D02*
X01695Y03024D01*
X01695Y02867D02*
X01695D01*
X01694Y02855D02*
X01695Y02867D01*
X0169Y02844D02*
X01694Y02855D01*
X01685Y02834D02*
X0169Y02844D01*
X01678Y02825D02*
X01685Y02834D01*
X01677Y02825D02*
X01678Y02825D01*
X01608Y02755D02*
X01677Y02825D01*
X01602Y02751D02*
X01608Y02755D01*
X01594Y02749D02*
X01602Y02751D01*
X01586D02*
X01594Y02749D01*
X0158Y02755D02*
X01586Y02751D01*
X01575Y02762D02*
X0158Y02755D01*
X01574Y02769D02*
X01575Y02762D01*
X01574Y02769D02*
X01575Y02777D01*
X0158Y02783*
X0158Y02783*
X0165Y02853*
X0165Y02853*
X01654Y02859*
X01656Y02867*
X01655D02*
X01656D01*
X01655D02*
X01656Y03024D01*
X01636Y03044D02*
X01656Y03024D01*
X01636Y03044D02*
Y03044D01*
X01382Y03044D02*
X01636Y03044D01*
X01382Y03044D02*
Y03044D01*
X01374Y03043D02*
X01382Y03044D01*
X01368Y03038D02*
X01374Y03043D01*
X01364Y03032D02*
X01368Y03038D01*
X01362Y03024D02*
X01364Y03032D01*
X01362Y03024D02*
X01362D01*
Y02867D02*
Y03024D01*
X01362Y02867D02*
X01362D01*
X01362D02*
X01364Y02859D01*
X01368Y02853*
X01368Y02853*
X01438Y02783*
X01438Y02783*
X01442Y02777*
X01444Y02769*
X01442Y02762D02*
X01444Y02769D01*
X01438Y02755D02*
X01442Y02762D01*
X01432Y02751D02*
X01438Y02755D01*
X01424Y02749D02*
X01432Y02751D01*
X01424Y02749D02*
D01*
X01416Y02751D02*
X01424Y02749D01*
X0141Y02755D02*
X01416Y02751D01*
X0141Y02755D02*
X0141Y02755D01*
X0134Y02825D02*
X0141Y02755D01*
X0134Y02825D02*
X0134Y02825D01*
X01333Y02834D02*
X0134Y02825D01*
X01327Y02844D02*
X01333Y02834D01*
X01324Y02855D02*
X01327Y02844D01*
X01323Y02867D02*
X01324Y02855D01*
X01323Y02867D02*
X01323D01*
Y03024*
X01323D02*
X01323D01*
X01323D02*
X01324Y03036D01*
X01327Y03047*
X01333Y03057*
X0134Y03066*
X01349Y03074*
X01359Y03079*
X01371Y03082*
X01382Y03084*
X01636Y03083*
Y03084D02*
Y03083D01*
Y03084D02*
D01*
X03011Y0D02*
Y04311D01*
X0D02*
X03011D01*
X0Y0D02*
Y04311D01*
Y0D02*
X03011D01*
G54D71*
X00158Y03534D03*
Y03734D03*
X01562Y02194D03*
X01462D03*
X01362D03*
X01448Y01184D03*
X01248D03*
X01148D03*
X01048D03*
X00948D03*
X00848D03*
X00748D03*
X00648D03*
X00548D03*
X00448D03*
X00348D03*
X00248D03*
Y01884D03*
X00348D03*
X00448D03*
X00548D03*
X00648D03*
X00748D03*
X00848D03*
X00948D03*
X01048D03*
X01148D03*
X01248D03*
X01348D03*
X01448D03*
X01548D03*
X02906Y00508D03*
X0294Y019D03*
G54D72*
X00158Y03434D03*
Y03634D03*
X01662Y02194D03*
X01548Y01184D03*
X01348D03*
X02718Y01764D03*
X0202Y0187D03*
G54D73*
X02263Y03768D03*
X02125Y03964D03*
X01988Y03768D03*
X0185Y03964D03*
X02401D03*
X02539Y03768D03*
X01712D03*
X01574Y03964D03*
X01437Y03768D03*
X01299Y03964D03*
X00472D03*
X0061Y03768D03*
X00748Y03964D03*
X00885Y03768D03*
X01023Y03964D03*
X01161Y03768D03*
X00748Y00542D03*
X00885Y00346D03*
X01023Y00542D03*
X01161Y00346D03*
X0061D03*
X00472Y00542D03*
X01299D03*
X01437Y00346D03*
X01574Y00542D03*
X01712Y00346D03*
X02539D03*
X02401Y00542D03*
X02263Y00346D03*
X02125Y00542D03*
G54D74*
X01988Y00346D03*
X0185Y00542D03*
G54D75*
X02704Y03364D03*
X02564D03*
X02424D03*
X02284D03*
G54D76*
X02094Y03404D03*
X02894D03*
G54D77*
X02244Y02514D03*
X02344D03*
X02444D03*
X02544D03*
X02644D03*
X02744D03*
X02844D03*
G54D78*
X02144Y02514D03*
G54D79*
X02844Y00187D03*
X00167D03*
Y04124D03*
X02844D03*
Y02155D03*
G54D80*
X01293Y01087D03*
X01453Y02334D03*
X01468Y02694D03*
X01568Y02602D03*
X01008Y02849D03*
X00818Y0296D03*
X00628D03*
X00438D03*
X00248D03*
X01033Y03254D03*
X00933Y02284D03*
X01864Y03638D03*
X01784D03*
X01504Y0364D03*
X01424Y03641D03*
X01144D03*
X01115Y03157D03*
X02258Y02934D03*
X01038Y01014D03*
X01258Y02389D03*
X01398Y02317D03*
X02548Y02999D03*
X02638Y01739D03*
X01853Y01109D03*
X02638Y01774D03*
X01416Y02499D03*
X00968Y03659D03*
X00565Y00983D03*
X01853Y01139D03*
X0182Y0114D03*
X01784D03*
X0175D03*
X01784Y0111D03*
X0175D03*
X0182D03*
X01716Y0111D03*
X01646D03*
X01681D03*
X01646Y0114D03*
X01681D03*
X01716D03*
X0031Y01965D03*
Y02005D03*
G54D81*
X00243Y01599D03*
X01453Y02419D03*
X01583Y02509D03*
X01433Y02602D03*
X00983Y03318D03*
X00998Y02284D03*
X00918Y03228D03*
X00728D03*
X00538D03*
X00348D03*
X00813Y03659D03*
X00658D03*
X00508D03*
X00358D03*
X00998Y03624D03*
X01228D03*
X01838Y03374D03*
X01758D03*
X01118D03*
X01478D03*
X01948Y03624D03*
Y03394D03*
X01648Y03624D03*
X01588D03*
X01648Y03394D03*
X01588D03*
X01398Y03374D03*
X01288Y03394D03*
X01228D03*
X01288Y03624D03*
X00938Y03374D03*
X01048Y03389D03*
X01328Y03184D03*
X02563Y03147D03*
X00063Y00519D03*
X00328D03*
X00218Y00374D03*
X00298Y00384D03*
X00088D03*
X01878Y02546D03*
X01177Y01034D03*
X01908Y02394D03*
X01395Y02424D03*
X02453Y03149D03*
X02323Y02938D03*
X02113Y03197D03*
X02744Y01264D03*
X02588Y01062D03*
Y01012D03*
X02613Y01037D03*
X02638Y01062D03*
X02663Y01087D03*
X02638Y01112D03*
X02663Y01137D03*
X02638Y01162D03*
X02893Y01294D03*
Y01259D03*
Y01224D03*
X02928Y01259D03*
Y01224D03*
Y01294D03*
X01498Y01464D03*
X01598Y01459D03*
X00248Y01644D03*
X00358D03*
X00438D03*
X00458Y02109D03*
X00249Y02107D03*
X00158Y02104D03*
X00982Y008D03*
X0111Y00952D03*
X00218Y01064D03*
X00063Y00979D03*
X00403Y00825D03*
X02488Y03249D03*
X02608D03*
X02493Y03506D03*
X01108Y0267D03*
X0023Y02404D03*
X00365Y01599D03*
X00458Y02059D03*
X00483Y02029D03*
X02613Y01084D03*
X02713Y01524D03*
X01578Y02374D03*
X01505Y02294D03*
X01548Y02324D03*
X01578Y02447D03*
X01492Y02448D03*
X01528Y02629D03*
X01578Y02694D03*
X01498Y02659D03*
X01353Y03274D03*
X01838Y02546D03*
X01721Y01373D03*
X01686D03*
X01651D03*
X01686Y01343D03*
X01651D03*
X01721D03*
X01825Y01343D03*
X01755D03*
X01789D03*
X01755Y01373D03*
X01789D03*
X01825D03*
X01858Y01372D03*
Y01342D03*
X00049Y0235D03*
Y0239D03*
Y0243D03*
X0005Y0247D03*
X00592Y02469D03*
X00591Y02429D03*
Y02389D03*
Y02349D03*
X02963Y01294D03*
Y01224D03*
Y01259D03*
X0298Y0119D03*
Y0112D03*
Y01155D03*
Y0105D03*
Y01015D03*
Y01085D03*
Y00945D03*
Y0098D03*
Y0091D03*
Y0084D03*
Y00875D03*
Y00805D03*
Y00735D03*
Y0077D03*
Y007D03*
Y0063D03*
Y00665D03*
Y00595D03*
X02978Y01364D03*
Y01399D03*
Y01329D03*
Y01469D03*
Y01434D03*
Y01504D03*
Y01574D03*
Y01539D03*
Y01609D03*
Y01679D03*
Y01644D03*
Y01714D03*
Y01784D03*
Y01749D03*
X00146Y012D03*
X00047Y01396D03*
Y0179D03*
X00146Y02774D03*
X00047Y02971D03*
Y03365D03*
Y03759D03*
X00342Y00412D03*
Y00806D03*
X00244Y01396D03*
Y02578D03*
X00342Y03168D03*
X00244Y03759D03*
X00342Y03955D03*
X00441Y00215D03*
X00539Y00412D03*
X00441Y00609D03*
Y01396D03*
X00539Y01593D03*
Y01987D03*
X00441Y02578D03*
X00539Y03168D03*
X00441Y04152D03*
X00638Y00215D03*
X00736Y00412D03*
X00638Y00609D03*
Y01396D03*
X00736Y01593D03*
X00638Y0179D03*
X00736Y02774D03*
Y03168D03*
X00638Y04152D03*
X00835Y00215D03*
X00933Y00412D03*
X00835Y00609D03*
Y01396D03*
X00933Y01593D03*
X00835Y0179D03*
Y02184D03*
Y02578D03*
X00933Y03168D03*
Y03955D03*
X00835Y04152D03*
X01031Y00215D03*
Y0179D03*
Y02184D03*
X0113Y02381D03*
X01031Y02578D03*
X0113Y02774D03*
X01031Y02971D03*
Y03759D03*
X0113Y03955D03*
X01031Y04152D03*
X01228Y00215D03*
X01327Y00412D03*
X01228Y00609D03*
X01327Y01593D03*
X01228Y0179D03*
Y02184D03*
X01327Y02381D03*
X01228Y02578D03*
Y02971D03*
Y04152D03*
X01425Y00215D03*
X01524Y00412D03*
X01425Y00609D03*
X01524Y03168D03*
X01425Y04152D03*
X01622Y00215D03*
X0172Y00806D03*
Y01593D03*
Y02381D03*
Y02774D03*
X01622Y03365D03*
Y03759D03*
X0172Y03955D03*
X01622Y04152D03*
X01819Y00215D03*
X01917Y00412D03*
X01819Y00609D03*
X01917Y00806D03*
Y012D03*
Y01593D03*
X01819Y0179D03*
Y04152D03*
X02016Y00215D03*
X02114Y00412D03*
X02016Y00609D03*
X02114Y00806D03*
Y012D03*
X02016Y01396D03*
X02114Y01593D03*
X02016Y0179D03*
Y02184D03*
X02114Y02381D03*
Y02774D03*
X02016Y02971D03*
X02114Y03562D03*
X02016Y04152D03*
X02213Y00215D03*
X02311Y00412D03*
X02213Y00609D03*
X02311Y012D03*
X02213Y01396D03*
X02311Y01593D03*
X02213Y0179D03*
Y02578D03*
X02311Y03168D03*
Y03955D03*
X02213Y04152D03*
X02409Y00215D03*
X02508Y01987D03*
X02409Y02578D03*
X02508Y02774D03*
X02409Y02971D03*
Y04152D03*
X02606Y00215D03*
X02705Y01987D03*
X02606Y02184D03*
Y02578D03*
X02705Y02774D03*
X02606Y02971D03*
X02705Y03168D03*
Y03955D03*
X02606Y04152D03*
X02902Y00412D03*
Y01987D03*
Y02381D03*
X02803Y02578D03*
X02902Y02774D03*
X02803Y02971D03*
X02902Y03168D03*
Y03562D03*
X02803Y03759D03*
X02902Y03955D03*
X00571Y00843D03*
X00472Y0083D03*
X0052Y00915D03*
G54D82*
X01903Y01614D02*
X01963Y01674D01*
X01903Y01614D02*
X01963Y01674D01*
X01803Y00984D02*
X01953Y00834D01*
X01803Y00984D02*
X01953Y00834D01*
X02033Y02898D02*
Y0351D01*
X01963Y02828D02*
X02033Y02898D01*
X01606Y01614D02*
X01903D01*
X01448Y01456D02*
X01606Y01614D01*
X01448Y01079D02*
Y01456D01*
Y01079D02*
X01543Y00984D01*
X01803*
X01455Y00346D02*
X01712D01*
X00866Y00934D02*
X01455Y00346D01*
X0Y01202D02*
Y03479D01*
Y03679*
X00088Y03768*
X01988*
Y03555D02*
Y03768D01*
Y03555D02*
X02033Y0351D01*
X0208Y01791D02*
Y01959D01*
X01953Y00499D02*
Y00834D01*
X01799Y00346D02*
X01953Y00499D01*
X01712Y00346D02*
X01799D01*
X01963Y01674D02*
X0208Y01791D01*
X01963Y02076D02*
X0208Y01959D01*
X01963Y02076D02*
Y02828D01*
X00738Y01063D02*
X00866Y00934D01*
X00139Y01063D02*
X00738D01*
X0Y01202D02*
X00139Y01063D01*
M02*