%FSTAX23Y23*%
%MOIN*%
%SFA1B1*%

%IPPOS*%
%AMD15*
4,1,8,0.027000,-0.009900,0.027000,0.009900,0.025200,0.011600,-0.025200,0.011600,-0.027000,0.009900,-0.027000,-0.009900,-0.025200,-0.011600,0.025200,-0.011600,0.027000,-0.009900,0.0*
1,1,0.003480,0.025200,-0.009900*
1,1,0.003480,0.025200,0.009900*
1,1,0.003480,-0.025200,0.009900*
1,1,0.003480,-0.025200,-0.009900*
%
%AMD17*
4,1,8,-0.027600,-0.005500,0.027600,-0.005500,0.028900,-0.004100,0.028900,0.004100,0.027600,0.005500,-0.027600,0.005500,-0.028900,0.004100,-0.028900,-0.004100,-0.027600,-0.005500,0.0*
1,1,0.002760,-0.027600,-0.004100*
1,1,0.002760,0.027600,-0.004100*
1,1,0.002760,0.027600,0.004100*
1,1,0.002760,-0.027600,0.004100*
%
%AMD19*
4,1,8,-0.010800,-0.005900,0.010800,-0.005900,0.012300,-0.004400,0.012300,0.004400,0.010800,0.005900,-0.010800,0.005900,-0.012300,0.004400,-0.012300,-0.004400,-0.010800,-0.005900,0.0*
1,1,0.002960,-0.010800,-0.004400*
1,1,0.002960,0.010800,-0.004400*
1,1,0.002960,0.010800,0.004400*
1,1,0.002960,-0.010800,0.004400*
%
%AMD20*
4,1,8,-0.004400,-0.012300,0.004400,-0.012300,0.005900,-0.010800,0.005900,0.010800,0.004400,0.012300,-0.004400,0.012300,-0.005900,0.010800,-0.005900,-0.010800,-0.004400,-0.012300,0.0*
1,1,0.002960,-0.004400,-0.010800*
1,1,0.002960,0.004400,-0.010800*
1,1,0.002960,0.004400,0.010800*
1,1,0.002960,-0.004400,0.010800*
%
%AMD25*
4,1,8,0.017700,0.053100,-0.017700,0.053100,-0.022600,0.048200,-0.022600,-0.048200,-0.017700,-0.053100,0.017700,-0.053100,0.022600,-0.048200,0.022600,0.048200,0.017700,0.053100,0.0*
1,1,0.009960,0.017700,0.048200*
1,1,0.009960,-0.017700,0.048200*
1,1,0.009960,-0.017700,-0.048200*
1,1,0.009960,0.017700,-0.048200*
%
%AMD26*
4,1,8,-0.053100,0.017700,-0.053100,-0.017700,-0.048200,-0.022600,0.048200,-0.022600,0.053100,-0.017700,0.053100,0.017700,0.048200,0.022600,-0.048200,0.022600,-0.053100,0.017700,0.0*
1,1,0.009960,-0.048200,0.017700*
1,1,0.009960,-0.048200,-0.017700*
1,1,0.009960,0.048200,-0.017700*
1,1,0.009960,0.048200,0.017700*
%
%AMD57*
4,1,8,0.000000,-0.033500,0.000000,-0.033500,0.033500,0.000000,0.033500,0.000000,0.000000,0.033500,0.000000,0.033500,-0.033500,0.000000,-0.033500,0.000000,0.000000,-0.033500,0.0*
1,1,0.066940,0.000000,0.000000*
1,1,0.066940,0.000000,0.000000*
1,1,0.066940,0.000000,0.000000*
1,1,0.066940,0.000000,0.000000*
%
%AMD59*
4,1,8,0.033500,0.000000,0.033500,0.000000,0.000000,0.033500,0.000000,0.033500,-0.033500,0.000000,-0.033500,0.000000,0.000000,-0.033500,0.000000,-0.033500,0.033500,0.000000,0.0*
1,1,0.066940,0.000000,0.000000*
1,1,0.066940,0.000000,0.000000*
1,1,0.066940,0.000000,0.000000*
1,1,0.066940,0.000000,0.000000*
%
%AMD68*
4,1,8,0.019700,0.039400,-0.019700,0.039400,-0.039400,0.019700,-0.039400,-0.019700,-0.019700,-0.039400,0.019700,-0.039400,0.039400,-0.019700,0.039400,0.019700,0.019700,0.039400,0.0*
1,1,0.039360,0.019700,0.019700*
1,1,0.039360,-0.019700,0.019700*
1,1,0.039360,-0.019700,-0.019700*
1,1,0.039360,0.019700,-0.019700*
%
%ADD10R,0.023620X0.053150*%
%ADD11R,0.017720X0.084650*%
%ADD12R,0.122050X0.094490*%
%ADD13R,0.036000X0.036000*%
%ADD14R,0.036000X0.050000*%
G04~CAMADD=15~8~0.0~0.0~232.3~539.4~17.4~0.0~15~0.0~0.0~0.0~0.0~0~0.0~0.0~0.0~0.0~0~0.0~0.0~0.0~270.0~540.0~232.0*
%ADD15D15*%
%ADD16R,0.035430X0.031500*%
G04~CAMADD=17~8~0.0~0.0~578.7~110.2~13.8~0.0~15~0.0~0.0~0.0~0.0~0~0.0~0.0~0.0~0.0~0~0.0~0.0~0.0~180.0~578.0~110.0*
%ADD17D17*%
%ADD18O,0.014330X0.079350*%
G04~CAMADD=19~8~0.0~0.0~246.1~118.1~14.8~0.0~15~0.0~0.0~0.0~0.0~0~0.0~0.0~0.0~0.0~0~0.0~0.0~0.0~180.0~246.0~118.0*
%ADD19D19*%
G04~CAMADD=20~8~0.0~0.0~118.1~246.1~14.8~0.0~15~0.0~0.0~0.0~0.0~0~0.0~0.0~0.0~0.0~0~0.0~0.0~0.0~180.0~118.0~246.0*
%ADD20D20*%
%ADD21O,0.035430X0.078740*%
%ADD22R,0.057090X0.078740*%
%ADD23R,0.031500X0.059050*%
%ADD24R,0.135000X0.098000*%
G04~CAMADD=25~8~0.0~0.0~452.8~1063.0~49.8~0.0~15~0.0~0.0~0.0~0.0~0~0.0~0.0~0.0~0.0~0~0.0~0.0~0.0~0.0~452.8~1063.0*
%ADD25D25*%
G04~CAMADD=26~8~0.0~0.0~452.8~1063.0~49.8~0.0~15~0.0~0.0~0.0~0.0~0~0.0~0.0~0.0~0.0~0~0.0~0.0~0.0~90.0~1062.0~452.0*
%ADD26D26*%
%ADD27R,0.013680X0.014830*%
%ADD28R,0.014830X0.013680*%
%ADD29R,0.035430X0.053150*%
%ADD30R,0.059050X0.094490*%
%ADD31R,0.023620X0.015750*%
%ADD32R,0.045560X0.019360*%
%ADD33R,0.019360X0.045560*%
%ADD34R,0.025590X0.085430*%
%ADD35R,0.085430X0.025590*%
%ADD36R,0.085430X0.078740*%
%ADD37R,0.074800X0.098420*%
%ADD38R,0.098420X0.074800*%
%ADD39R,0.031500X0.035430*%
%ADD40R,0.050000X0.060000*%
%ADD41R,0.060000X0.050000*%
%ADD42R,0.125200X0.085840*%
%ADD43O,0.098420X0.027560*%
%ADD45C,0.010000*%
%ADD55C,0.005910*%
%ADD56R,0.066930X0.066930*%
G04~CAMADD=57~8~0.0~0.0~669.3~669.3~334.7~0.0~15~0.0~0.0~0.0~0.0~0~0.0~0.0~0.0~0.0~0~0.0~0.0~0.0~180.0~670.0~669.0*
%ADD57D57*%
%ADD58R,0.066930X0.066930*%
G04~CAMADD=59~8~0.0~0.0~669.3~669.3~334.7~0.0~15~0.0~0.0~0.0~0.0~0~0.0~0.0~0.0~0.0~0~0.0~0.0~0.0~270.0~670.0~669.0*
%ADD59D59*%
%ADD60C,0.086610*%
%ADD61C,0.090000*%
%ADD62C,0.150000*%
%ADD63R,0.059050X0.059050*%
%ADD64C,0.059050*%
%ADD65R,0.066930X0.078740*%
%ADD66O,0.066930X0.078740*%
%ADD67C,0.236220*%
G04~CAMADD=68~8~0.0~0.0~787.4~787.4~196.8~0.0~15~0.0~0.0~0.0~0.0~0~0.0~0.0~0.0~0.0~0~0.0~0.0~0.0~0.0~787.4~787.4*
%ADD68D68*%
%LNsbtech_icarusboard_1v0-1*%
%LPD*%
G54D10*
X0023Y00467D03*
X00155D03*
X00193Y00372D03*
G54D11*
X02736Y01147D03*
X02786D03*
X02836Y01148D03*
X02886Y01147D03*
Y01373D03*
X02836Y01373D03*
X02786Y01373D03*
X02736D03*
G54D12*
X02811Y0126D03*
G54D13*
X00435Y01679D03*
X0036D03*
X00173D03*
X00248D03*
G54D14*
X00397Y01599D03*
X0021D03*
G54D15*
X00571Y00952D03*
Y00877D03*
X00478D03*
Y00915D03*
Y00952D03*
G54D16*
X0118Y03184D03*
X01115D03*
X013D03*
X01235D03*
X00502Y0081D03*
X00567D03*
X01045Y01089D03*
X0111D03*
X0043Y02104D03*
X00365D03*
X02835Y01009D03*
X029D03*
X0281Y01524D03*
X02745D03*
X02717Y01008D03*
X02782D03*
X00935Y02319D03*
X01D03*
X01048Y0329D03*
X00983D03*
X01045Y00983D03*
X0111D03*
X00365Y02059D03*
X0043D03*
X0281Y01474D03*
X02745D03*
X02835Y01064D03*
X029D03*
X02255Y02964D03*
X0232D03*
G54D17*
X01292Y03251D03*
Y03271D03*
Y0329D03*
Y0331D03*
Y0333D03*
X01123D03*
Y0331D03*
Y0329D03*
Y03271D03*
Y03251D03*
G54D18*
X00751Y02398D03*
X00777D03*
X00802D03*
X00828D03*
X00854D03*
X00879D03*
X00905D03*
X0093D03*
X00956D03*
X00982D03*
X01007D03*
X01033D03*
X01058D03*
X01084D03*
X00751Y0267D03*
X00777D03*
X00802D03*
X00828D03*
X00854D03*
X00879D03*
X00905D03*
X0093D03*
X00956D03*
X00982D03*
X01007D03*
X01033D03*
X01058D03*
X01084D03*
G54D19*
X01553Y02507D03*
Y02527D03*
Y02546D03*
Y02566D03*
X01462D03*
Y02546D03*
Y02527D03*
Y02507D03*
G54D20*
X01527Y02572D03*
X01508D03*
X01488D03*
Y02501D03*
X01508D03*
X01527D03*
G54D21*
X00818Y03294D03*
X00918D03*
Y03027D03*
X00818D03*
X00628Y03294D03*
X00728D03*
Y03027D03*
X00628D03*
X00438Y03294D03*
X00538D03*
Y03027D03*
X00438D03*
X00248Y03294D03*
X00348D03*
Y03027D03*
X00248D03*
G54D22*
X0005Y02579D03*
X00592D03*
Y02252D03*
X0005Y02252D03*
G54D23*
X00143Y02354D03*
X00186Y02355D03*
X0023Y02354D03*
X00273D03*
X00317D03*
X0036D03*
X00403D03*
X00447D03*
G54D24*
X02498Y01437D03*
Y01651D03*
G54D25*
X02758Y00778D03*
X02874D03*
X02789Y01764D03*
X02906D03*
X02789Y01634D03*
X02906D03*
X02758Y00908D03*
X02874D03*
G54D26*
X01808Y01184D03*
Y01301D03*
X01688Y01184D03*
Y01301D03*
G54D27*
X01498Y02344D03*
X01517D03*
Y02409D03*
X01498D03*
G54D28*
X0154Y02357D03*
Y02376D03*
Y02396D03*
X01475D03*
Y02376D03*
Y02357D03*
G54D29*
X00143Y00543D03*
X00242D03*
Y00723D03*
X00143D03*
G54D30*
X01504Y02938D03*
G54D31*
X01448Y02901D03*
Y02938D03*
Y02976D03*
X01559D03*
Y02938D03*
Y02901D03*
G54D32*
X01252Y01087D03*
X01164D03*
G54D33*
X01838Y03498D03*
Y0341D03*
Y03638D03*
Y0355D03*
X01478Y03498D03*
Y0341D03*
Y0364D03*
Y03552D03*
X01758Y03498D03*
Y0341D03*
Y03638D03*
Y0355D03*
X01398Y03498D03*
Y0341D03*
Y03641D03*
Y03553D03*
X01118Y03498D03*
Y0341D03*
Y03641D03*
Y03553D03*
X00938Y03498D03*
Y0341D03*
Y03641D03*
Y03553D03*
G54D34*
X00268Y00808D03*
X00118D03*
X00268Y0101D03*
X00218D03*
X00168D03*
X00118D03*
X00218Y00808D03*
X00168D03*
G54D35*
X00949Y00983D03*
Y00833D03*
X00747Y00983D03*
Y00933D03*
Y00883D03*
Y00833D03*
X00949Y00933D03*
Y00883D03*
G54D36*
X02732Y00638D03*
X02901D03*
G54D37*
X00813Y03593D03*
Y03436D03*
X00658Y03593D03*
Y03436D03*
X00508Y03593D03*
Y03436D03*
X00358Y03593D03*
Y03436D03*
G54D38*
X02398Y00778D03*
X02555D03*
G54D39*
X00447Y01742D03*
Y01807D03*
X00347Y01742D03*
Y01807D03*
X00248Y01742D03*
Y01807D03*
X00188Y02102D03*
Y02037D03*
X00278Y02102D03*
Y02037D03*
X02493Y03542D03*
Y03607D03*
X02703Y03542D03*
Y03607D03*
X02493Y02912D03*
Y02977D03*
X02608Y03032D03*
Y03097D03*
X02493D03*
Y03032D03*
X02563Y03542D03*
Y03607D03*
X02423Y03542D03*
Y03607D03*
X02284Y03542D03*
Y03607D03*
X02353Y03542D03*
Y03607D03*
X02493Y03152D03*
Y03217D03*
X02548Y03097D03*
Y03032D03*
X00158Y03192D03*
Y03127D03*
X00103Y03192D03*
Y03127D03*
X01008Y02812D03*
Y02747D03*
X00918Y02954D03*
Y02889D03*
X00728Y02954D03*
Y02889D03*
X00538Y02954D03*
Y02889D03*
X00347Y02954D03*
Y02889D03*
X01948Y03487D03*
Y03422D03*
X01588Y03487D03*
Y03422D03*
X01898D03*
Y03487D03*
X01538Y03422D03*
Y03487D03*
X01898Y03532D03*
Y03597D03*
X01538Y03532D03*
Y03597D03*
X01648Y03487D03*
Y03422D03*
X01288Y03487D03*
Y03422D03*
X01698D03*
Y03487D03*
X01337Y03422D03*
Y03487D03*
X01698Y03532D03*
Y03597D03*
X01337Y03532D03*
Y03597D03*
X01228Y03487D03*
Y03422D03*
X01178D03*
Y03487D03*
X01177Y03532D03*
Y03597D03*
X01048Y03487D03*
Y03422D03*
X00998D03*
Y03487D03*
X01048Y03532D03*
Y03597D03*
X00298Y00609D03*
Y00544D03*
X00088Y00609D03*
Y00544D03*
X01228Y02367D03*
Y02302D03*
Y02412D03*
Y02477D03*
X02938Y01132D03*
Y01067D03*
X02868Y01537D03*
Y01472D03*
X02608Y03152D03*
Y03217D03*
X01948Y03532D03*
Y03597D03*
X01588Y03532D03*
Y03597D03*
X01648Y03532D03*
Y03597D03*
X01288Y03532D03*
Y03597D03*
X01228Y03532D03*
Y03597D03*
X00998Y03532D03*
Y03597D03*
X00298Y00479D03*
Y00414D03*
X00088Y00484D03*
Y00419D03*
X00063Y00877D03*
Y00942D03*
X00333Y00949D03*
Y00884D03*
X01378Y02342D03*
Y02407D03*
X01424Y02342D03*
Y02407D03*
X01603Y02602D03*
Y02537D03*
X01402D03*
Y02602D03*
Y02938D03*
Y03003D03*
X02918Y01537D03*
Y01472D03*
X02656Y01236D03*
Y01301D03*
G54D40*
X00403Y00874D03*
Y00964D03*
G54D41*
X00448Y01994D03*
X00358D03*
G54D42*
X02498Y01298D03*
Y01051D03*
G54D43*
X02378Y03047D03*
Y03097D03*
Y03147D03*
Y03197D03*
X02185Y03047D03*
Y03097D03*
Y03147D03*
Y03197D03*
G54D45*
X0Y0D02*
X03011D01*
Y04311*
X0D02*
X03011D01*
X0Y0D02*
Y04311D01*
G54D55*
X01413Y02754D02*
D01*
X01414Y02753*
X01415Y02752*
X01416Y02752*
X01417Y02751*
X01418Y02751*
X01419Y0275*
X0142Y0275*
X01421Y0275*
X01422Y02749*
X01423Y02749*
X01424Y02749*
X01424Y02749*
D01*
X01425Y02749*
X01426Y02749*
X01428Y0275*
X01429Y0275*
X0143Y0275*
X01431Y02751*
X01432Y02751*
X01433Y02752*
X01434Y02753*
X01435Y02753*
X01436Y02754*
X01436Y02754*
X0144Y02758D02*
D01*
X01441Y02759*
X01441Y0276*
X01442Y0276*
X01442Y02761*
X01443Y02762*
X01443Y02763*
X01443Y02764*
X01444Y02764*
X01444Y02765*
X01444Y02766*
X01444Y02767*
X01444Y02767*
Y02769D02*
D01*
X01444Y02771*
X01444Y02772*
X01444Y02773*
X01443Y02774*
X01443Y02776*
X01442Y02777*
X01442Y02778*
X01441Y02779*
X0144Y0278*
X0144Y02781*
X01439Y02782*
X01438Y02783*
X01362Y02867D02*
D01*
X01362Y02865*
X01363Y02864*
X01363Y02863*
X01363Y02861*
X01364Y0286*
X01364Y02859*
X01365Y02857*
X01365Y02856*
X01366Y02855*
X01367Y02854*
X01368Y02853*
X01368Y02853*
X01368Y03038D02*
D01*
X01367Y03037*
X01366Y03036*
X01365Y03035*
X01365Y03034*
X01364Y03033*
X01364Y03032*
X01363Y03031*
X01363Y03029*
X01363Y03028*
X01363Y03027*
X01362Y03025*
Y03025*
X01381Y03044D02*
D01*
X0138Y03044*
X01379Y03044*
X01377Y03043*
X01376Y03043*
X01375Y03043*
X01374Y03042*
X01372Y03042*
X01371Y03041*
X0137Y0304*
X01369Y03039*
X01368Y03039*
X01368Y03038*
X01649Y03038D02*
D01*
X01648Y03039*
X01647Y0304*
X01646Y03041*
X01645Y03042*
X01643Y03042*
X01642Y03043*
X01641Y03043*
X0164Y03043*
X01639Y03044*
X01637Y03044*
X01636Y03044*
X01636Y03044*
X01656Y03026D02*
D01*
X01656Y03027*
X01656Y03028*
X01655Y03029*
X01655Y0303*
X01655Y0303*
X01655Y03031*
X01654Y03032*
X01654Y03033*
X01653Y03034*
X01653Y03034*
X01652Y03035*
X01652Y03035*
X0165Y02853D02*
D01*
X01651Y02854*
X01652Y02855*
X01653Y02856*
X01653Y02858*
X01654Y02859*
X01654Y0286*
X01655Y02861*
X01655Y02862*
X01655Y02864*
X01656Y02865*
X01656Y02866*
X01656Y02867*
X01579Y02783D02*
D01*
X01578Y02782*
X01578Y02781*
X01577Y02779*
X01576Y02778*
X01576Y02777*
X01575Y02776*
X01575Y02775*
X01574Y02773*
X01574Y02772*
X01574Y02771*
X01574Y0277*
X01574Y02769*
D01*
X01574Y02768*
X01574Y02767*
X01574Y02766*
X01574Y02764*
X01575Y02763*
X01575Y02762*
X01576Y02761*
X01576Y0276*
X01577Y02759*
X01578Y02758*
X01579Y02757*
X01579Y02757*
X01583Y02753D02*
D01*
X01584Y02752*
X01584Y02752*
X01585Y02752*
X01585Y02751*
X01586Y02751*
X01586Y02751*
X01587Y0275*
X01587Y0275*
X01588Y0275*
X01589Y0275*
X01589Y0275*
X0159Y0275*
D01*
X01592Y0275*
X01594Y0275*
X01596Y02751*
X01598Y02751*
X01601Y02752*
X01603Y02753*
X01605Y02754*
X01607Y02755*
X01609Y02756*
X0161Y02758*
X01612Y02759*
X01612Y0276*
X01678Y02825D02*
D01*
X0168Y02828*
X01683Y02831*
X01685Y02834*
X01687Y02838*
X01689Y02841*
X01691Y02845*
X01692Y02849*
X01693Y02853*
X01694Y02856*
X01694Y0286*
X01694Y02864*
X01695Y02866*
Y03025D02*
D01*
X01694Y03029*
X01694Y03033*
X01693Y03037*
X01692Y03041*
X01691Y03045*
X0169Y03049*
X01688Y03052*
X01686Y03056*
X01683Y03059*
X01681Y03062*
X01678Y03065*
X01678Y03066*
D01*
X01675Y03069*
X01671Y03072*
X01668Y03074*
X01664Y03076*
X01661Y03078*
X01657Y0308*
X01653Y03081*
X01649Y03082*
X01645Y03083*
X01641Y03083*
X01637Y03084*
X01636Y03084*
X01382D02*
D01*
X01378Y03083*
X01374Y03083*
X0137Y03082*
X01366Y03081*
X01362Y0308*
X01358Y03078*
X01355Y03077*
X01351Y03075*
X01348Y03072*
X01344Y0307*
X01341Y03067*
X01341Y03066*
X01339Y03065D02*
D01*
X01336Y03062*
X01334Y03059*
X01332Y03056*
X0133Y03053*
X01328Y03049*
X01327Y03046*
X01326Y03043*
X01325Y03039*
X01324Y03035*
X01324Y03032*
X01323Y03028*
X01323Y03027*
Y02861D02*
D01*
X01323Y02858*
X01324Y02855*
X01324Y02852*
X01325Y02849*
X01326Y02847*
X01327Y02844*
X01328Y02841*
X0133Y02839*
X01331Y02836*
X01333Y02834*
X01335Y02832*
X01336Y02831*
X01412Y02755D02*
X01413Y02754D01*
X01436Y02754D02*
X0144Y02758D01*
X01444Y02767D02*
Y02769D01*
X01368Y02853D02*
X01438Y02783D01*
X01362Y02867D02*
Y03015D01*
Y03025*
X01382Y03044D02*
X01636D01*
X01649Y03038D02*
X01652Y03035D01*
X01656Y02867D02*
Y03026D01*
X01579Y02783D02*
X0165Y02853D01*
X01579Y02757D02*
X01583Y02753D01*
X01612Y0276D02*
X01678Y02825D01*
X01695Y02866D02*
Y03025D01*
X01382Y03084D02*
X01636D01*
X01339Y03065D02*
X01341Y03066D01*
X01323Y02861D02*
Y03027D01*
X01336Y02831D02*
X01416Y02751D01*
G54D56*
X00158Y03434D03*
G54D57*
X00158Y03534D03*
Y03634D03*
Y03734D03*
G54D58*
X01662Y02194D03*
G54D59*
X01562Y02194D03*
X01462D03*
X01362D03*
G54D60*
X02263Y03768D03*
X02125Y03964D03*
X01988Y03768D03*
X0185Y03964D03*
X02401D03*
X02539Y03768D03*
X01712D03*
X01574Y03964D03*
X01437Y03768D03*
X01299Y03964D03*
X00472D03*
X0061Y03768D03*
X00748Y03964D03*
X00885Y03768D03*
X01023Y03964D03*
X01161Y03768D03*
X00748Y00542D03*
X00885Y00346D03*
X01023Y00542D03*
X01161Y00346D03*
X0061D03*
X00472Y00542D03*
X01299D03*
X01437Y00346D03*
X01574Y00542D03*
X01712Y00346D03*
X02539D03*
X02401Y00542D03*
X02263Y00346D03*
X02125Y00542D03*
X01988Y00346D03*
X0185Y00542D03*
G54D61*
X02704Y03364D03*
X02564D03*
X02424D03*
X02284D03*
G54D62*
X02094Y03404D03*
X02894D03*
G54D63*
X02144Y02514D03*
G54D64*
X02244Y02514D03*
X02344D03*
X02444D03*
X02544D03*
X02644D03*
X02744D03*
X02844D03*
X00125Y03895D03*
X0276Y00425D03*
G54D65*
X01548Y01184D03*
G54D66*
X01448Y01184D03*
X01348D03*
X01248D03*
X01148D03*
X01048D03*
X00948D03*
X00848D03*
X00748D03*
X00648D03*
X00548D03*
X00448D03*
X00348D03*
X00248D03*
Y01884D03*
X00348D03*
X00448D03*
X00548D03*
X00648D03*
X00748D03*
X00848D03*
X00948D03*
X01048D03*
X01148D03*
X01248D03*
X01348D03*
X01448D03*
X01548D03*
G54D67*
X02844Y00187D03*
X00167D03*
Y04124D03*
X02844D03*
Y02155D03*
G54D68*
X02718Y01764D03*
X02906Y00508D03*
X0294Y019D03*
X0202Y0187D03*
M02*