%FSTAX23Y23*%
%MOIN*%
%SFA1B1*%

%IPPOS*%
%AMD57*
4,1,8,0.000000,-0.033500,0.000000,-0.033500,0.033500,0.000000,0.033500,0.000000,0.000000,0.033500,0.000000,0.033500,-0.033500,0.000000,-0.033500,0.000000,0.000000,-0.033500,0.0*
1,1,0.066940,0.000000,0.000000*
1,1,0.066940,0.000000,0.000000*
1,1,0.066940,0.000000,0.000000*
1,1,0.066940,0.000000,0.000000*
%
%AMD59*
4,1,8,0.033500,0.000000,0.033500,0.000000,0.000000,0.033500,0.000000,0.033500,-0.033500,0.000000,-0.033500,0.000000,0.000000,-0.033500,0.000000,-0.033500,0.033500,0.000000,0.0*
1,1,0.066940,0.000000,0.000000*
1,1,0.066940,0.000000,0.000000*
1,1,0.066940,0.000000,0.000000*
1,1,0.066940,0.000000,0.000000*
%
%AMD68*
4,1,8,0.019700,0.039400,-0.019700,0.039400,-0.039400,0.019700,-0.039400,-0.019700,-0.019700,-0.039400,0.019700,-0.039400,0.039400,-0.019700,0.039400,0.019700,0.019700,0.039400,0.0*
1,1,0.039360,0.019700,0.019700*
1,1,0.039360,-0.019700,0.019700*
1,1,0.039360,-0.019700,-0.019700*
1,1,0.039360,0.019700,-0.019700*
%
%ADD45C,0.010000*%
%ADD55C,0.005910*%
%ADD56R,0.066930X0.066930*%
G04~CAMADD=57~8~0.0~0.0~669.3~669.3~334.7~0.0~15~0.0~0.0~0.0~0.0~0~0.0~0.0~0.0~0.0~0~0.0~0.0~0.0~180.0~670.0~669.0*
%ADD57D57*%
%ADD58R,0.066930X0.066930*%
G04~CAMADD=59~8~0.0~0.0~669.3~669.3~334.7~0.0~15~0.0~0.0~0.0~0.0~0~0.0~0.0~0.0~0.0~0~0.0~0.0~0.0~270.0~670.0~669.0*
%ADD59D59*%
%ADD60C,0.086610*%
%ADD61C,0.090000*%
%ADD62C,0.150000*%
%ADD63R,0.059050X0.059050*%
%ADD64C,0.059050*%
%ADD65R,0.066930X0.078740*%
%ADD66O,0.066930X0.078740*%
%ADD67C,0.236220*%
G04~CAMADD=68~8~0.0~0.0~787.4~787.4~196.8~0.0~15~0.0~0.0~0.0~0.0~0~0.0~0.0~0.0~0.0~0~0.0~0.0~0.0~0.0~787.4~787.4*
%ADD68D68*%
%ADD92C,0.200790*%
%LNsbtech_icarusboard_1v0-1*%
%LPD*%
G54D45*
X0Y0D02*
X03011D01*
Y04311*
X0D02*
X03011D01*
X0Y0D02*
Y04311D01*
G54D55*
X01413Y02754D02*
D01*
X01414Y02753*
X01415Y02752*
X01416Y02752*
X01417Y02751*
X01418Y02751*
X01419Y0275*
X0142Y0275*
X01421Y0275*
X01422Y02749*
X01423Y02749*
X01424Y02749*
X01424Y02749*
D01*
X01425Y02749*
X01426Y02749*
X01428Y0275*
X01429Y0275*
X0143Y0275*
X01431Y02751*
X01432Y02751*
X01433Y02752*
X01434Y02753*
X01435Y02753*
X01436Y02754*
X01436Y02754*
X0144Y02758D02*
D01*
X01441Y02759*
X01441Y0276*
X01442Y0276*
X01442Y02761*
X01443Y02762*
X01443Y02763*
X01443Y02764*
X01444Y02764*
X01444Y02765*
X01444Y02766*
X01444Y02767*
X01444Y02767*
Y02769D02*
D01*
X01444Y02771*
X01444Y02772*
X01444Y02773*
X01443Y02774*
X01443Y02776*
X01442Y02777*
X01442Y02778*
X01441Y02779*
X0144Y0278*
X0144Y02781*
X01439Y02782*
X01438Y02783*
X01362Y02867D02*
D01*
X01362Y02865*
X01363Y02864*
X01363Y02863*
X01363Y02861*
X01364Y0286*
X01364Y02859*
X01365Y02857*
X01365Y02856*
X01366Y02855*
X01367Y02854*
X01368Y02853*
X01368Y02853*
X01368Y03038D02*
D01*
X01367Y03037*
X01366Y03036*
X01365Y03035*
X01365Y03034*
X01364Y03033*
X01364Y03032*
X01363Y03031*
X01363Y03029*
X01363Y03028*
X01363Y03027*
X01362Y03025*
Y03025*
X01381Y03044D02*
D01*
X0138Y03044*
X01379Y03044*
X01377Y03043*
X01376Y03043*
X01375Y03043*
X01374Y03042*
X01372Y03042*
X01371Y03041*
X0137Y0304*
X01369Y03039*
X01368Y03039*
X01368Y03038*
X01649Y03038D02*
D01*
X01648Y03039*
X01647Y0304*
X01646Y03041*
X01645Y03042*
X01643Y03042*
X01642Y03043*
X01641Y03043*
X0164Y03043*
X01639Y03044*
X01637Y03044*
X01636Y03044*
X01636Y03044*
X01656Y03026D02*
D01*
X01656Y03027*
X01656Y03028*
X01655Y03029*
X01655Y0303*
X01655Y0303*
X01655Y03031*
X01654Y03032*
X01654Y03033*
X01653Y03034*
X01653Y03034*
X01652Y03035*
X01652Y03035*
X0165Y02853D02*
D01*
X01651Y02854*
X01652Y02855*
X01653Y02856*
X01653Y02858*
X01654Y02859*
X01654Y0286*
X01655Y02861*
X01655Y02862*
X01655Y02864*
X01656Y02865*
X01656Y02866*
X01656Y02867*
X01579Y02783D02*
D01*
X01578Y02782*
X01578Y02781*
X01577Y02779*
X01576Y02778*
X01576Y02777*
X01575Y02776*
X01575Y02775*
X01574Y02773*
X01574Y02772*
X01574Y02771*
X01574Y0277*
X01574Y02769*
D01*
X01574Y02768*
X01574Y02767*
X01574Y02766*
X01574Y02764*
X01575Y02763*
X01575Y02762*
X01576Y02761*
X01576Y0276*
X01577Y02759*
X01578Y02758*
X01579Y02757*
X01579Y02757*
X01583Y02753D02*
D01*
X01584Y02752*
X01584Y02752*
X01585Y02752*
X01585Y02751*
X01586Y02751*
X01586Y02751*
X01587Y0275*
X01587Y0275*
X01588Y0275*
X01589Y0275*
X01589Y0275*
X0159Y0275*
D01*
X01592Y0275*
X01594Y0275*
X01596Y02751*
X01598Y02751*
X01601Y02752*
X01603Y02753*
X01605Y02754*
X01607Y02755*
X01609Y02756*
X0161Y02758*
X01612Y02759*
X01612Y0276*
X01678Y02825D02*
D01*
X0168Y02828*
X01683Y02831*
X01685Y02834*
X01687Y02838*
X01689Y02841*
X01691Y02845*
X01692Y02849*
X01693Y02853*
X01694Y02856*
X01694Y0286*
X01694Y02864*
X01695Y02866*
Y03025D02*
D01*
X01694Y03029*
X01694Y03033*
X01693Y03037*
X01692Y03041*
X01691Y03045*
X0169Y03049*
X01688Y03052*
X01686Y03056*
X01683Y03059*
X01681Y03062*
X01678Y03065*
X01678Y03066*
D01*
X01675Y03069*
X01671Y03072*
X01668Y03074*
X01664Y03076*
X01661Y03078*
X01657Y0308*
X01653Y03081*
X01649Y03082*
X01645Y03083*
X01641Y03083*
X01637Y03084*
X01636Y03084*
X01382D02*
D01*
X01378Y03083*
X01374Y03083*
X0137Y03082*
X01366Y03081*
X01362Y0308*
X01358Y03078*
X01355Y03077*
X01351Y03075*
X01348Y03072*
X01344Y0307*
X01341Y03067*
X01341Y03066*
X01339Y03065D02*
D01*
X01336Y03062*
X01334Y03059*
X01332Y03056*
X0133Y03053*
X01328Y03049*
X01327Y03046*
X01326Y03043*
X01325Y03039*
X01324Y03035*
X01324Y03032*
X01323Y03028*
X01323Y03027*
Y02861D02*
D01*
X01323Y02858*
X01324Y02855*
X01324Y02852*
X01325Y02849*
X01326Y02847*
X01327Y02844*
X01328Y02841*
X0133Y02839*
X01331Y02836*
X01333Y02834*
X01335Y02832*
X01336Y02831*
X01412Y02755D02*
X01413Y02754D01*
X01436Y02754D02*
X0144Y02758D01*
X01444Y02767D02*
Y02769D01*
X01368Y02853D02*
X01438Y02783D01*
X01362Y02867D02*
Y03015D01*
Y03025*
X01382Y03044D02*
X01636D01*
X01649Y03038D02*
X01652Y03035D01*
X01656Y02867D02*
Y03026D01*
X01579Y02783D02*
X0165Y02853D01*
X01579Y02757D02*
X01583Y02753D01*
X01612Y0276D02*
X01678Y02825D01*
X01695Y02866D02*
Y03025D01*
X01382Y03084D02*
X01636D01*
X01339Y03065D02*
X01341Y03066D01*
X01323Y02861D02*
Y03027D01*
X01336Y02831D02*
X01416Y02751D01*
G54D56*
X00158Y03434D03*
G54D57*
X00158Y03534D03*
Y03634D03*
Y03734D03*
G54D58*
X01662Y02194D03*
G54D59*
X01562Y02194D03*
X01462D03*
X01362D03*
G54D60*
X02263Y03768D03*
X02125Y03964D03*
X01988Y03768D03*
X0185Y03964D03*
X02401D03*
X02539Y03768D03*
X01712D03*
X01574Y03964D03*
X01437Y03768D03*
X01299Y03964D03*
X00472D03*
X0061Y03768D03*
X00748Y03964D03*
X00885Y03768D03*
X01023Y03964D03*
X01161Y03768D03*
X00748Y00542D03*
X00885Y00346D03*
X01023Y00542D03*
X01161Y00346D03*
X0061D03*
X00472Y00542D03*
X01299D03*
X01437Y00346D03*
X01574Y00542D03*
X01712Y00346D03*
X02539D03*
X02401Y00542D03*
X02263Y00346D03*
X02125Y00542D03*
X01988Y00346D03*
X0185Y00542D03*
G54D61*
X02704Y03364D03*
X02564D03*
X02424D03*
X02284D03*
G54D62*
X02094Y03404D03*
X02894D03*
G54D63*
X02144Y02514D03*
G54D64*
X02244Y02514D03*
X02344D03*
X02444D03*
X02544D03*
X02644D03*
X02744D03*
X02844D03*
G54D65*
X01548Y01184D03*
G54D66*
X01448Y01184D03*
X01348D03*
X01248D03*
X01148D03*
X01048D03*
X00948D03*
X00848D03*
X00748D03*
X00648D03*
X00548D03*
X00448D03*
X00348D03*
X00248D03*
Y01884D03*
X00348D03*
X00448D03*
X00548D03*
X00648D03*
X00748D03*
X00848D03*
X00948D03*
X01048D03*
X01148D03*
X01248D03*
X01348D03*
X01448D03*
X01548D03*
G54D67*
X02844Y00187D03*
X00167D03*
Y04124D03*
X02844D03*
Y02155D03*
G54D68*
X02718Y01764D03*
X02906Y00508D03*
X0294Y019D03*
X0202Y0187D03*
G54D92*
X00125Y03895D03*
X0276Y00425D03*
M02*